G04 #@! TF.FileFunction,Legend,Top*
%FSLAX46Y46*%
G04 Gerber Fmt 4.6, Leading zero omitted, Abs format (unit mm)*
G04 Created by KiCad (PCBNEW 4.0.7) date Tue Mar 20 00:28:39 2018*
%MOMM*%
%LPD*%
G01*
G04 APERTURE LIST*
%ADD10C,0.100000*%
%ADD11C,0.300000*%
%ADD12C,0.150000*%
%ADD13C,0.120000*%
%ADD14C,0.010000*%
G04 APERTURE END LIST*
D10*
D11*
X148659143Y-74536000D02*
X148516286Y-74464571D01*
X148302000Y-74464571D01*
X148087715Y-74536000D01*
X147944857Y-74678857D01*
X147873429Y-74821714D01*
X147802000Y-75107429D01*
X147802000Y-75321714D01*
X147873429Y-75607429D01*
X147944857Y-75750286D01*
X148087715Y-75893143D01*
X148302000Y-75964571D01*
X148444857Y-75964571D01*
X148659143Y-75893143D01*
X148730572Y-75821714D01*
X148730572Y-75321714D01*
X148444857Y-75321714D01*
X150016286Y-75964571D02*
X150016286Y-75178857D01*
X149944857Y-75036000D01*
X149802000Y-74964571D01*
X149516286Y-74964571D01*
X149373429Y-75036000D01*
X150016286Y-75893143D02*
X149873429Y-75964571D01*
X149516286Y-75964571D01*
X149373429Y-75893143D01*
X149302000Y-75750286D01*
X149302000Y-75607429D01*
X149373429Y-75464571D01*
X149516286Y-75393143D01*
X149873429Y-75393143D01*
X150016286Y-75321714D01*
X150730572Y-75964571D02*
X150730572Y-74964571D01*
X150730572Y-75107429D02*
X150802000Y-75036000D01*
X150944858Y-74964571D01*
X151159143Y-74964571D01*
X151302000Y-75036000D01*
X151373429Y-75178857D01*
X151373429Y-75964571D01*
X151373429Y-75178857D02*
X151444858Y-75036000D01*
X151587715Y-74964571D01*
X151802000Y-74964571D01*
X151944858Y-75036000D01*
X152016286Y-75178857D01*
X152016286Y-75964571D01*
X153302000Y-75893143D02*
X153159143Y-75964571D01*
X152873429Y-75964571D01*
X152730572Y-75893143D01*
X152659143Y-75750286D01*
X152659143Y-75178857D01*
X152730572Y-75036000D01*
X152873429Y-74964571D01*
X153159143Y-74964571D01*
X153302000Y-75036000D01*
X153373429Y-75178857D01*
X153373429Y-75321714D01*
X152659143Y-75464571D01*
X155659143Y-75178857D02*
X155873429Y-75250286D01*
X155944857Y-75321714D01*
X156016286Y-75464571D01*
X156016286Y-75678857D01*
X155944857Y-75821714D01*
X155873429Y-75893143D01*
X155730571Y-75964571D01*
X155159143Y-75964571D01*
X155159143Y-74464571D01*
X155659143Y-74464571D01*
X155802000Y-74536000D01*
X155873429Y-74607429D01*
X155944857Y-74750286D01*
X155944857Y-74893143D01*
X155873429Y-75036000D01*
X155802000Y-75107429D01*
X155659143Y-75178857D01*
X155159143Y-75178857D01*
X156873429Y-75964571D02*
X156730571Y-75893143D01*
X156659143Y-75821714D01*
X156587714Y-75678857D01*
X156587714Y-75250286D01*
X156659143Y-75107429D01*
X156730571Y-75036000D01*
X156873429Y-74964571D01*
X157087714Y-74964571D01*
X157230571Y-75036000D01*
X157302000Y-75107429D01*
X157373429Y-75250286D01*
X157373429Y-75678857D01*
X157302000Y-75821714D01*
X157230571Y-75893143D01*
X157087714Y-75964571D01*
X156873429Y-75964571D01*
X157873429Y-74964571D02*
X158230572Y-75964571D01*
X158587714Y-74964571D02*
X158230572Y-75964571D01*
X158087714Y-76321714D01*
X158016286Y-76393143D01*
X157873429Y-76464571D01*
X161159143Y-75821714D02*
X161087714Y-75893143D01*
X160873428Y-75964571D01*
X160730571Y-75964571D01*
X160516286Y-75893143D01*
X160373428Y-75750286D01*
X160302000Y-75607429D01*
X160230571Y-75321714D01*
X160230571Y-75107429D01*
X160302000Y-74821714D01*
X160373428Y-74678857D01*
X160516286Y-74536000D01*
X160730571Y-74464571D01*
X160873428Y-74464571D01*
X161087714Y-74536000D01*
X161159143Y-74607429D01*
X162444857Y-75964571D02*
X162444857Y-75178857D01*
X162373428Y-75036000D01*
X162230571Y-74964571D01*
X161944857Y-74964571D01*
X161802000Y-75036000D01*
X162444857Y-75893143D02*
X162302000Y-75964571D01*
X161944857Y-75964571D01*
X161802000Y-75893143D01*
X161730571Y-75750286D01*
X161730571Y-75607429D01*
X161802000Y-75464571D01*
X161944857Y-75393143D01*
X162302000Y-75393143D01*
X162444857Y-75321714D01*
X163159143Y-75964571D02*
X163159143Y-74964571D01*
X163159143Y-75250286D02*
X163230571Y-75107429D01*
X163302000Y-75036000D01*
X163444857Y-74964571D01*
X163587714Y-74964571D01*
X163873428Y-74964571D02*
X164444857Y-74964571D01*
X164087714Y-74464571D02*
X164087714Y-75750286D01*
X164159142Y-75893143D01*
X164302000Y-75964571D01*
X164444857Y-75964571D01*
X166087714Y-75964571D02*
X166087714Y-74464571D01*
X166944857Y-75964571D01*
X166944857Y-74464571D01*
X167659143Y-74464571D02*
X167659143Y-75678857D01*
X167730571Y-75821714D01*
X167802000Y-75893143D01*
X167944857Y-75964571D01*
X168230571Y-75964571D01*
X168373429Y-75893143D01*
X168444857Y-75821714D01*
X168516286Y-75678857D01*
X168516286Y-74464571D01*
X170087715Y-75821714D02*
X170016286Y-75893143D01*
X169802000Y-75964571D01*
X169659143Y-75964571D01*
X169444858Y-75893143D01*
X169302000Y-75750286D01*
X169230572Y-75607429D01*
X169159143Y-75321714D01*
X169159143Y-75107429D01*
X169230572Y-74821714D01*
X169302000Y-74678857D01*
X169444858Y-74536000D01*
X169659143Y-74464571D01*
X169802000Y-74464571D01*
X170016286Y-74536000D01*
X170087715Y-74607429D01*
X171444858Y-75964571D02*
X170730572Y-75964571D01*
X170730572Y-74464571D01*
X171944858Y-75178857D02*
X172444858Y-75178857D01*
X172659144Y-75964571D02*
X171944858Y-75964571D01*
X171944858Y-74464571D01*
X172659144Y-74464571D01*
X173587715Y-74464571D02*
X173873429Y-74464571D01*
X174016287Y-74536000D01*
X174159144Y-74678857D01*
X174230572Y-74964571D01*
X174230572Y-75464571D01*
X174159144Y-75750286D01*
X174016287Y-75893143D01*
X173873429Y-75964571D01*
X173587715Y-75964571D01*
X173444858Y-75893143D01*
X173302001Y-75750286D01*
X173230572Y-75464571D01*
X173230572Y-74964571D01*
X173302001Y-74678857D01*
X173444858Y-74536000D01*
X173587715Y-74464571D01*
X175944858Y-75893143D02*
X176159144Y-75964571D01*
X176516287Y-75964571D01*
X176659144Y-75893143D01*
X176730573Y-75821714D01*
X176802001Y-75678857D01*
X176802001Y-75536000D01*
X176730573Y-75393143D01*
X176659144Y-75321714D01*
X176516287Y-75250286D01*
X176230573Y-75178857D01*
X176087715Y-75107429D01*
X176016287Y-75036000D01*
X175944858Y-74893143D01*
X175944858Y-74750286D01*
X176016287Y-74607429D01*
X176087715Y-74536000D01*
X176230573Y-74464571D01*
X176587715Y-74464571D01*
X176802001Y-74536000D01*
X177444858Y-75964571D02*
X177444858Y-74464571D01*
X178087715Y-75964571D02*
X178087715Y-75178857D01*
X178016286Y-75036000D01*
X177873429Y-74964571D01*
X177659144Y-74964571D01*
X177516286Y-75036000D01*
X177444858Y-75107429D01*
X178802001Y-75964571D02*
X178802001Y-74964571D01*
X178802001Y-74464571D02*
X178730572Y-74536000D01*
X178802001Y-74607429D01*
X178873429Y-74536000D01*
X178802001Y-74464571D01*
X178802001Y-74607429D01*
X180087715Y-75893143D02*
X179944858Y-75964571D01*
X179659144Y-75964571D01*
X179516287Y-75893143D01*
X179444858Y-75750286D01*
X179444858Y-75178857D01*
X179516287Y-75036000D01*
X179659144Y-74964571D01*
X179944858Y-74964571D01*
X180087715Y-75036000D01*
X180159144Y-75178857D01*
X180159144Y-75321714D01*
X179444858Y-75464571D01*
X181016287Y-75964571D02*
X180873429Y-75893143D01*
X180802001Y-75750286D01*
X180802001Y-74464571D01*
X182230572Y-75964571D02*
X182230572Y-74464571D01*
X182230572Y-75893143D02*
X182087715Y-75964571D01*
X181802001Y-75964571D01*
X181659143Y-75893143D01*
X181587715Y-75821714D01*
X181516286Y-75678857D01*
X181516286Y-75250286D01*
X181587715Y-75107429D01*
X181659143Y-75036000D01*
X181802001Y-74964571D01*
X182087715Y-74964571D01*
X182230572Y-75036000D01*
X160444858Y-78514571D02*
X160444858Y-77014571D01*
X160444858Y-77586000D02*
X160587715Y-77514571D01*
X160873429Y-77514571D01*
X161016286Y-77586000D01*
X161087715Y-77657429D01*
X161159144Y-77800286D01*
X161159144Y-78228857D01*
X161087715Y-78371714D01*
X161016286Y-78443143D01*
X160873429Y-78514571D01*
X160587715Y-78514571D01*
X160444858Y-78443143D01*
X161659144Y-77514571D02*
X162016287Y-78514571D01*
X162373429Y-77514571D02*
X162016287Y-78514571D01*
X161873429Y-78871714D01*
X161802001Y-78943143D01*
X161659144Y-79014571D01*
X164087715Y-78514571D02*
X164087715Y-77014571D01*
X164444858Y-77014571D01*
X164659143Y-77086000D01*
X164802001Y-77228857D01*
X164873429Y-77371714D01*
X164944858Y-77657429D01*
X164944858Y-77871714D01*
X164873429Y-78157429D01*
X164802001Y-78300286D01*
X164659143Y-78443143D01*
X164444858Y-78514571D01*
X164087715Y-78514571D01*
X165587715Y-78514571D02*
X165587715Y-77014571D01*
X166230572Y-78514571D02*
X166230572Y-77728857D01*
X166159143Y-77586000D01*
X166016286Y-77514571D01*
X165802001Y-77514571D01*
X165659143Y-77586000D01*
X165587715Y-77657429D01*
X167159144Y-78514571D02*
X167016286Y-78443143D01*
X166944858Y-78371714D01*
X166873429Y-78228857D01*
X166873429Y-77800286D01*
X166944858Y-77657429D01*
X167016286Y-77586000D01*
X167159144Y-77514571D01*
X167373429Y-77514571D01*
X167516286Y-77586000D01*
X167587715Y-77657429D01*
X167659144Y-77800286D01*
X167659144Y-78228857D01*
X167587715Y-78371714D01*
X167516286Y-78443143D01*
X167373429Y-78514571D01*
X167159144Y-78514571D01*
X168516287Y-78514571D02*
X168373429Y-78443143D01*
X168302001Y-78300286D01*
X168302001Y-77014571D01*
X169659143Y-78443143D02*
X169516286Y-78514571D01*
X169230572Y-78514571D01*
X169087715Y-78443143D01*
X169016286Y-78300286D01*
X169016286Y-77728857D01*
X169087715Y-77586000D01*
X169230572Y-77514571D01*
X169516286Y-77514571D01*
X169659143Y-77586000D01*
X169730572Y-77728857D01*
X169730572Y-77871714D01*
X169016286Y-78014571D01*
X161944858Y-81064571D02*
X161444858Y-80350286D01*
X161087715Y-81064571D02*
X161087715Y-79564571D01*
X161659143Y-79564571D01*
X161802001Y-79636000D01*
X161873429Y-79707429D01*
X161944858Y-79850286D01*
X161944858Y-80064571D01*
X161873429Y-80207429D01*
X161802001Y-80278857D01*
X161659143Y-80350286D01*
X161087715Y-80350286D01*
X163159143Y-80993143D02*
X163016286Y-81064571D01*
X162730572Y-81064571D01*
X162587715Y-80993143D01*
X162516286Y-80850286D01*
X162516286Y-80278857D01*
X162587715Y-80136000D01*
X162730572Y-80064571D01*
X163016286Y-80064571D01*
X163159143Y-80136000D01*
X163230572Y-80278857D01*
X163230572Y-80421714D01*
X162516286Y-80564571D01*
X163730572Y-80064571D02*
X164087715Y-81064571D01*
X164444857Y-80064571D01*
X165016286Y-80921714D02*
X165087714Y-80993143D01*
X165016286Y-81064571D01*
X164944857Y-80993143D01*
X165016286Y-80921714D01*
X165016286Y-81064571D01*
X167159143Y-79564571D02*
X167302000Y-79564571D01*
X167444857Y-79636000D01*
X167516286Y-79707429D01*
X167587715Y-79850286D01*
X167659143Y-80136000D01*
X167659143Y-80493143D01*
X167587715Y-80778857D01*
X167516286Y-80921714D01*
X167444857Y-80993143D01*
X167302000Y-81064571D01*
X167159143Y-81064571D01*
X167016286Y-80993143D01*
X166944857Y-80921714D01*
X166873429Y-80778857D01*
X166802000Y-80493143D01*
X166802000Y-80136000D01*
X166873429Y-79850286D01*
X166944857Y-79707429D01*
X167016286Y-79636000D01*
X167159143Y-79564571D01*
X169087714Y-81064571D02*
X168230571Y-81064571D01*
X168659143Y-81064571D02*
X168659143Y-79564571D01*
X168516286Y-79778857D01*
X168373428Y-79921714D01*
X168230571Y-79993143D01*
X174330857Y-86148571D02*
X174616571Y-86148571D01*
X174759429Y-86220000D01*
X174902286Y-86362857D01*
X174973714Y-86648571D01*
X174973714Y-87148571D01*
X174902286Y-87434286D01*
X174759429Y-87577143D01*
X174616571Y-87648571D01*
X174330857Y-87648571D01*
X174188000Y-87577143D01*
X174045143Y-87434286D01*
X173973714Y-87148571D01*
X173973714Y-86648571D01*
X174045143Y-86362857D01*
X174188000Y-86220000D01*
X174330857Y-86148571D01*
X176116572Y-86862857D02*
X175616572Y-86862857D01*
X175616572Y-87648571D02*
X175616572Y-86148571D01*
X176330858Y-86148571D01*
X177402286Y-86862857D02*
X176902286Y-86862857D01*
X176902286Y-87648571D02*
X176902286Y-86148571D01*
X177616572Y-86148571D01*
X174330857Y-91248571D02*
X174616571Y-91248571D01*
X174759429Y-91320000D01*
X174902286Y-91462857D01*
X174973714Y-91748571D01*
X174973714Y-92248571D01*
X174902286Y-92534286D01*
X174759429Y-92677143D01*
X174616571Y-92748571D01*
X174330857Y-92748571D01*
X174188000Y-92677143D01*
X174045143Y-92534286D01*
X173973714Y-92248571D01*
X173973714Y-91748571D01*
X174045143Y-91462857D01*
X174188000Y-91320000D01*
X174330857Y-91248571D01*
X175616572Y-92748571D02*
X175616572Y-91248571D01*
X176473715Y-92748571D01*
X176473715Y-91248571D01*
X150122287Y-86402571D02*
X151050858Y-86402571D01*
X150550858Y-86974000D01*
X150765144Y-86974000D01*
X150908001Y-87045429D01*
X150979430Y-87116857D01*
X151050858Y-87259714D01*
X151050858Y-87616857D01*
X150979430Y-87759714D01*
X150908001Y-87831143D01*
X150765144Y-87902571D01*
X150336572Y-87902571D01*
X150193715Y-87831143D01*
X150122287Y-87759714D01*
X151693715Y-87759714D02*
X151765143Y-87831143D01*
X151693715Y-87902571D01*
X151622286Y-87831143D01*
X151693715Y-87759714D01*
X151693715Y-87902571D01*
X152265144Y-86402571D02*
X153193715Y-86402571D01*
X152693715Y-86974000D01*
X152908001Y-86974000D01*
X153050858Y-87045429D01*
X153122287Y-87116857D01*
X153193715Y-87259714D01*
X153193715Y-87616857D01*
X153122287Y-87759714D01*
X153050858Y-87831143D01*
X152908001Y-87902571D01*
X152479429Y-87902571D01*
X152336572Y-87831143D01*
X152265144Y-87759714D01*
X154765143Y-86402571D02*
X155265143Y-87902571D01*
X155765143Y-86402571D01*
X153122287Y-91502571D02*
X152408001Y-91502571D01*
X152336572Y-92216857D01*
X152408001Y-92145429D01*
X152550858Y-92074000D01*
X152908001Y-92074000D01*
X153050858Y-92145429D01*
X153122287Y-92216857D01*
X153193715Y-92359714D01*
X153193715Y-92716857D01*
X153122287Y-92859714D01*
X153050858Y-92931143D01*
X152908001Y-93002571D01*
X152550858Y-93002571D01*
X152408001Y-92931143D01*
X152336572Y-92859714D01*
X154765143Y-91502571D02*
X155265143Y-93002571D01*
X155765143Y-91502571D01*
D12*
X137060000Y-69970000D02*
X137060000Y-118230000D01*
X131980000Y-118230000D02*
X131980000Y-72510000D01*
X137060000Y-118230000D02*
X131980000Y-118230000D01*
X137060000Y-69970000D02*
X134520000Y-69970000D01*
X133250000Y-69690000D02*
X131700000Y-69690000D01*
X134520000Y-69970000D02*
X134520000Y-72510000D01*
X134520000Y-72510000D02*
X131980000Y-72510000D01*
X131700000Y-69690000D02*
X131700000Y-71240000D01*
X198020000Y-69970000D02*
X198020000Y-118230000D01*
X192940000Y-118230000D02*
X192940000Y-72510000D01*
X198020000Y-118230000D02*
X192940000Y-118230000D01*
X198020000Y-69970000D02*
X195480000Y-69970000D01*
X194210000Y-69690000D02*
X192660000Y-69690000D01*
X195480000Y-69970000D02*
X195480000Y-72510000D01*
X195480000Y-72510000D02*
X192940000Y-72510000D01*
X192660000Y-69690000D02*
X192660000Y-71240000D01*
X191360000Y-117290000D02*
X191360000Y-119190000D01*
X189460000Y-117290000D02*
X191360000Y-117290000D01*
X141660000Y-117290000D02*
X139760000Y-117290000D01*
X139760000Y-117290000D02*
X139760000Y-119190000D01*
D13*
X157190000Y-94460000D02*
X158390000Y-94460000D01*
X157190000Y-93260000D02*
X157190000Y-94460000D01*
X161690000Y-84960000D02*
X161690000Y-86160000D01*
X157490000Y-84960000D02*
X161690000Y-84960000D01*
X157490000Y-86160000D02*
X157490000Y-84960000D01*
X161690000Y-94160000D02*
X161690000Y-92960000D01*
X157490000Y-94160000D02*
X161690000Y-94160000D01*
X157490000Y-92960000D02*
X157490000Y-94160000D01*
X167350000Y-94460000D02*
X168550000Y-94460000D01*
X167350000Y-93260000D02*
X167350000Y-94460000D01*
X171850000Y-84960000D02*
X171850000Y-86160000D01*
X167650000Y-84960000D02*
X171850000Y-84960000D01*
X167650000Y-86160000D02*
X167650000Y-84960000D01*
X171850000Y-94160000D02*
X171850000Y-92960000D01*
X167650000Y-94160000D02*
X171850000Y-94160000D01*
X167650000Y-92960000D02*
X167650000Y-94160000D01*
D14*
G36*
X179051909Y-108939560D02*
X179104412Y-108965499D01*
X179169158Y-109010700D01*
X179216347Y-109059991D01*
X179248665Y-109121885D01*
X179268797Y-109204896D01*
X179279430Y-109317538D01*
X179283247Y-109468324D01*
X179283470Y-109533149D01*
X179282818Y-109675221D01*
X179280112Y-109776757D01*
X179274224Y-109847015D01*
X179264027Y-109895256D01*
X179248394Y-109930738D01*
X179232128Y-109954943D01*
X179128295Y-110057929D01*
X179006021Y-110119874D01*
X178874114Y-110138506D01*
X178741384Y-110111549D01*
X178699333Y-110092486D01*
X178598666Y-110040015D01*
X178598666Y-110862259D01*
X178672135Y-110824267D01*
X178768941Y-110794872D01*
X178887928Y-110787342D01*
X179006745Y-110801245D01*
X179096473Y-110832476D01*
X179170899Y-110891954D01*
X179234490Y-110977066D01*
X179239271Y-110985805D01*
X179259437Y-111026966D01*
X179274165Y-111068454D01*
X179284303Y-111118713D01*
X179290699Y-111186184D01*
X179294201Y-111279309D01*
X179295658Y-111406531D01*
X179295921Y-111549701D01*
X179295921Y-112006471D01*
X179022000Y-112006471D01*
X179022000Y-111164231D01*
X178945383Y-111099763D01*
X178865793Y-111048194D01*
X178790422Y-111038818D01*
X178714633Y-111062947D01*
X178674241Y-111086574D01*
X178644179Y-111120227D01*
X178622797Y-111171087D01*
X178608450Y-111246334D01*
X178599490Y-111353146D01*
X178594270Y-111498704D01*
X178592431Y-111595588D01*
X178586215Y-111994020D01*
X178455480Y-112001547D01*
X178324745Y-112009073D01*
X178324745Y-109536582D01*
X178598666Y-109536582D01*
X178605650Y-109674423D01*
X178629182Y-109770107D01*
X178673135Y-109829641D01*
X178741382Y-109859029D01*
X178810333Y-109864902D01*
X178888386Y-109858154D01*
X178940189Y-109831594D01*
X178972583Y-109796499D01*
X178998084Y-109758752D01*
X179013265Y-109716700D01*
X179020019Y-109657779D01*
X179020241Y-109569428D01*
X179017968Y-109495448D01*
X179012749Y-109384000D01*
X179004979Y-109310833D01*
X178991895Y-109264422D01*
X178970732Y-109233244D01*
X178950760Y-109215223D01*
X178867314Y-109175925D01*
X178768551Y-109169579D01*
X178711841Y-109183116D01*
X178655692Y-109231233D01*
X178618499Y-109324833D01*
X178600472Y-109463254D01*
X178598666Y-109536582D01*
X178324745Y-109536582D01*
X178324745Y-108918628D01*
X178461705Y-108918628D01*
X178543935Y-108921879D01*
X178586360Y-108933426D01*
X178598661Y-108955952D01*
X178598666Y-108956620D01*
X178604374Y-108978681D01*
X178629547Y-108976176D01*
X178679598Y-108951935D01*
X178796219Y-108914851D01*
X178927429Y-108910953D01*
X179051909Y-108939560D01*
X179051909Y-108939560D01*
G37*
X179051909Y-108939560D02*
X179104412Y-108965499D01*
X179169158Y-109010700D01*
X179216347Y-109059991D01*
X179248665Y-109121885D01*
X179268797Y-109204896D01*
X179279430Y-109317538D01*
X179283247Y-109468324D01*
X179283470Y-109533149D01*
X179282818Y-109675221D01*
X179280112Y-109776757D01*
X179274224Y-109847015D01*
X179264027Y-109895256D01*
X179248394Y-109930738D01*
X179232128Y-109954943D01*
X179128295Y-110057929D01*
X179006021Y-110119874D01*
X178874114Y-110138506D01*
X178741384Y-110111549D01*
X178699333Y-110092486D01*
X178598666Y-110040015D01*
X178598666Y-110862259D01*
X178672135Y-110824267D01*
X178768941Y-110794872D01*
X178887928Y-110787342D01*
X179006745Y-110801245D01*
X179096473Y-110832476D01*
X179170899Y-110891954D01*
X179234490Y-110977066D01*
X179239271Y-110985805D01*
X179259437Y-111026966D01*
X179274165Y-111068454D01*
X179284303Y-111118713D01*
X179290699Y-111186184D01*
X179294201Y-111279309D01*
X179295658Y-111406531D01*
X179295921Y-111549701D01*
X179295921Y-112006471D01*
X179022000Y-112006471D01*
X179022000Y-111164231D01*
X178945383Y-111099763D01*
X178865793Y-111048194D01*
X178790422Y-111038818D01*
X178714633Y-111062947D01*
X178674241Y-111086574D01*
X178644179Y-111120227D01*
X178622797Y-111171087D01*
X178608450Y-111246334D01*
X178599490Y-111353146D01*
X178594270Y-111498704D01*
X178592431Y-111595588D01*
X178586215Y-111994020D01*
X178455480Y-112001547D01*
X178324745Y-112009073D01*
X178324745Y-109536582D01*
X178598666Y-109536582D01*
X178605650Y-109674423D01*
X178629182Y-109770107D01*
X178673135Y-109829641D01*
X178741382Y-109859029D01*
X178810333Y-109864902D01*
X178888386Y-109858154D01*
X178940189Y-109831594D01*
X178972583Y-109796499D01*
X178998084Y-109758752D01*
X179013265Y-109716700D01*
X179020019Y-109657779D01*
X179020241Y-109569428D01*
X179017968Y-109495448D01*
X179012749Y-109384000D01*
X179004979Y-109310833D01*
X178991895Y-109264422D01*
X178970732Y-109233244D01*
X178950760Y-109215223D01*
X178867314Y-109175925D01*
X178768551Y-109169579D01*
X178711841Y-109183116D01*
X178655692Y-109231233D01*
X178618499Y-109324833D01*
X178600472Y-109463254D01*
X178598666Y-109536582D01*
X178324745Y-109536582D01*
X178324745Y-108918628D01*
X178461705Y-108918628D01*
X178543935Y-108921879D01*
X178586360Y-108933426D01*
X178598661Y-108955952D01*
X178598666Y-108956620D01*
X178604374Y-108978681D01*
X178629547Y-108976176D01*
X178679598Y-108951935D01*
X178796219Y-108914851D01*
X178927429Y-108910953D01*
X179051909Y-108939560D01*
G36*
X180090720Y-110795922D02*
X180207870Y-110827180D01*
X180297051Y-110883837D01*
X180359984Y-110958045D01*
X180379548Y-110989716D01*
X180393992Y-111022891D01*
X180404089Y-111065329D01*
X180410615Y-111124788D01*
X180414342Y-111209029D01*
X180416046Y-111325810D01*
X180416500Y-111482890D01*
X180416509Y-111524565D01*
X180416509Y-112006471D01*
X180296980Y-112006471D01*
X180220739Y-112001131D01*
X180164366Y-111987604D01*
X180150242Y-111979262D01*
X180111630Y-111964864D01*
X180072192Y-111979262D01*
X180007262Y-111997237D01*
X179912945Y-112004472D01*
X179808407Y-112001333D01*
X179712811Y-111988186D01*
X179657000Y-111971318D01*
X179548998Y-111901986D01*
X179481503Y-111805772D01*
X179451159Y-111677844D01*
X179450877Y-111674559D01*
X179453540Y-111617808D01*
X179694353Y-111617808D01*
X179715405Y-111682358D01*
X179749697Y-111718686D01*
X179818532Y-111746162D01*
X179909390Y-111757129D01*
X180002042Y-111751731D01*
X180076256Y-111730110D01*
X180097049Y-111716239D01*
X180133381Y-111652143D01*
X180142588Y-111579278D01*
X180142588Y-111483530D01*
X180004827Y-111483530D01*
X179873953Y-111493605D01*
X179774741Y-111522148D01*
X179713023Y-111566639D01*
X179694353Y-111617808D01*
X179453540Y-111617808D01*
X179457436Y-111534790D01*
X179503534Y-111424282D01*
X179590200Y-111340712D01*
X179602179Y-111333110D01*
X179653655Y-111308357D01*
X179717368Y-111293368D01*
X179806435Y-111286082D01*
X179912245Y-111284407D01*
X180142588Y-111284314D01*
X180142588Y-111187755D01*
X180132817Y-111112836D01*
X180107884Y-111062644D01*
X180104965Y-111059972D01*
X180049481Y-111038015D01*
X179965727Y-111029505D01*
X179873167Y-111033687D01*
X179791270Y-111049809D01*
X179742673Y-111073990D01*
X179716341Y-111093359D01*
X179688535Y-111097057D01*
X179650161Y-111081188D01*
X179592125Y-111041855D01*
X179505331Y-110975164D01*
X179497365Y-110968916D01*
X179501447Y-110945800D01*
X179535501Y-110907352D01*
X179587260Y-110864627D01*
X179644455Y-110828679D01*
X179662425Y-110820191D01*
X179727972Y-110803252D01*
X179824020Y-110791170D01*
X179931329Y-110786323D01*
X179936347Y-110786313D01*
X180090720Y-110795922D01*
X180090720Y-110795922D01*
G37*
X180090720Y-110795922D02*
X180207870Y-110827180D01*
X180297051Y-110883837D01*
X180359984Y-110958045D01*
X180379548Y-110989716D01*
X180393992Y-111022891D01*
X180404089Y-111065329D01*
X180410615Y-111124788D01*
X180414342Y-111209029D01*
X180416046Y-111325810D01*
X180416500Y-111482890D01*
X180416509Y-111524565D01*
X180416509Y-112006471D01*
X180296980Y-112006471D01*
X180220739Y-112001131D01*
X180164366Y-111987604D01*
X180150242Y-111979262D01*
X180111630Y-111964864D01*
X180072192Y-111979262D01*
X180007262Y-111997237D01*
X179912945Y-112004472D01*
X179808407Y-112001333D01*
X179712811Y-111988186D01*
X179657000Y-111971318D01*
X179548998Y-111901986D01*
X179481503Y-111805772D01*
X179451159Y-111677844D01*
X179450877Y-111674559D01*
X179453540Y-111617808D01*
X179694353Y-111617808D01*
X179715405Y-111682358D01*
X179749697Y-111718686D01*
X179818532Y-111746162D01*
X179909390Y-111757129D01*
X180002042Y-111751731D01*
X180076256Y-111730110D01*
X180097049Y-111716239D01*
X180133381Y-111652143D01*
X180142588Y-111579278D01*
X180142588Y-111483530D01*
X180004827Y-111483530D01*
X179873953Y-111493605D01*
X179774741Y-111522148D01*
X179713023Y-111566639D01*
X179694353Y-111617808D01*
X179453540Y-111617808D01*
X179457436Y-111534790D01*
X179503534Y-111424282D01*
X179590200Y-111340712D01*
X179602179Y-111333110D01*
X179653655Y-111308357D01*
X179717368Y-111293368D01*
X179806435Y-111286082D01*
X179912245Y-111284407D01*
X180142588Y-111284314D01*
X180142588Y-111187755D01*
X180132817Y-111112836D01*
X180107884Y-111062644D01*
X180104965Y-111059972D01*
X180049481Y-111038015D01*
X179965727Y-111029505D01*
X179873167Y-111033687D01*
X179791270Y-111049809D01*
X179742673Y-111073990D01*
X179716341Y-111093359D01*
X179688535Y-111097057D01*
X179650161Y-111081188D01*
X179592125Y-111041855D01*
X179505331Y-110975164D01*
X179497365Y-110968916D01*
X179501447Y-110945800D01*
X179535501Y-110907352D01*
X179587260Y-110864627D01*
X179644455Y-110828679D01*
X179662425Y-110820191D01*
X179727972Y-110803252D01*
X179824020Y-110791170D01*
X179931329Y-110786323D01*
X179936347Y-110786313D01*
X180090720Y-110795922D01*
G36*
X180864764Y-110788921D02*
X180902030Y-110800091D01*
X180914043Y-110824633D01*
X180914549Y-110835712D01*
X180916704Y-110866572D01*
X180931551Y-110871417D01*
X180971657Y-110850260D01*
X180995480Y-110835806D01*
X181070638Y-110804850D01*
X181160406Y-110789544D01*
X181254529Y-110788367D01*
X181342754Y-110799799D01*
X181414826Y-110822320D01*
X181460492Y-110854409D01*
X181469498Y-110894545D01*
X181464953Y-110905415D01*
X181431821Y-110950534D01*
X181380445Y-111006026D01*
X181371152Y-111014996D01*
X181322182Y-111056245D01*
X181279931Y-111069572D01*
X181220841Y-111060271D01*
X181197169Y-111054090D01*
X181123504Y-111039246D01*
X181071710Y-111045921D01*
X181027969Y-111069465D01*
X180987902Y-111101061D01*
X180958392Y-111140798D01*
X180937884Y-111196252D01*
X180924824Y-111275003D01*
X180917656Y-111384629D01*
X180914824Y-111532706D01*
X180914549Y-111622111D01*
X180914549Y-112006471D01*
X180665529Y-112006471D01*
X180665529Y-110786275D01*
X180790039Y-110786275D01*
X180864764Y-110788921D01*
X180864764Y-110788921D01*
G37*
X180864764Y-110788921D02*
X180902030Y-110800091D01*
X180914043Y-110824633D01*
X180914549Y-110835712D01*
X180916704Y-110866572D01*
X180931551Y-110871417D01*
X180971657Y-110850260D01*
X180995480Y-110835806D01*
X181070638Y-110804850D01*
X181160406Y-110789544D01*
X181254529Y-110788367D01*
X181342754Y-110799799D01*
X181414826Y-110822320D01*
X181460492Y-110854409D01*
X181469498Y-110894545D01*
X181464953Y-110905415D01*
X181431821Y-110950534D01*
X181380445Y-111006026D01*
X181371152Y-111014996D01*
X181322182Y-111056245D01*
X181279931Y-111069572D01*
X181220841Y-111060271D01*
X181197169Y-111054090D01*
X181123504Y-111039246D01*
X181071710Y-111045921D01*
X181027969Y-111069465D01*
X180987902Y-111101061D01*
X180958392Y-111140798D01*
X180937884Y-111196252D01*
X180924824Y-111275003D01*
X180917656Y-111384629D01*
X180914824Y-111532706D01*
X180914549Y-111622111D01*
X180914549Y-112006471D01*
X180665529Y-112006471D01*
X180665529Y-110786275D01*
X180790039Y-110786275D01*
X180864764Y-110788921D01*
G36*
X182433568Y-112006471D02*
X182296607Y-112006471D01*
X182217111Y-112004140D01*
X182175708Y-111994488D01*
X182160801Y-111973525D01*
X182159647Y-111959351D01*
X182157133Y-111930927D01*
X182141280Y-111925475D01*
X182099621Y-111942998D01*
X182067224Y-111959351D01*
X181942849Y-111998103D01*
X181807646Y-112000346D01*
X181697726Y-111971444D01*
X181595366Y-111901619D01*
X181517340Y-111798555D01*
X181474614Y-111676989D01*
X181473526Y-111670192D01*
X181467178Y-111596032D01*
X181464021Y-111489570D01*
X181464275Y-111409052D01*
X181736289Y-111409052D01*
X181742590Y-111516070D01*
X181756925Y-111604278D01*
X181776331Y-111654090D01*
X181849746Y-111722162D01*
X181936914Y-111746564D01*
X182026804Y-111726831D01*
X182103617Y-111667968D01*
X182132708Y-111628379D01*
X182149717Y-111581138D01*
X182157684Y-111512181D01*
X182159647Y-111408607D01*
X182156134Y-111306039D01*
X182146857Y-111215921D01*
X182133706Y-111155613D01*
X182131514Y-111150208D01*
X182078478Y-111085940D01*
X182001067Y-111050656D01*
X181914454Y-111044959D01*
X181833807Y-111069453D01*
X181774297Y-111124742D01*
X181768124Y-111135743D01*
X181748801Y-111202827D01*
X181738274Y-111299284D01*
X181736289Y-111409052D01*
X181464275Y-111409052D01*
X181464404Y-111368225D01*
X181466194Y-111302918D01*
X181478373Y-111141355D01*
X181503685Y-111020053D01*
X181545793Y-110930379D01*
X181608359Y-110863699D01*
X181669100Y-110824557D01*
X181753964Y-110797040D01*
X181859515Y-110787603D01*
X181967598Y-110795290D01*
X182060058Y-110819146D01*
X182108910Y-110847685D01*
X182159647Y-110893601D01*
X182159647Y-110313137D01*
X182433568Y-110313137D01*
X182433568Y-112006471D01*
X182433568Y-112006471D01*
G37*
X182433568Y-112006471D02*
X182296607Y-112006471D01*
X182217111Y-112004140D01*
X182175708Y-111994488D01*
X182160801Y-111973525D01*
X182159647Y-111959351D01*
X182157133Y-111930927D01*
X182141280Y-111925475D01*
X182099621Y-111942998D01*
X182067224Y-111959351D01*
X181942849Y-111998103D01*
X181807646Y-112000346D01*
X181697726Y-111971444D01*
X181595366Y-111901619D01*
X181517340Y-111798555D01*
X181474614Y-111676989D01*
X181473526Y-111670192D01*
X181467178Y-111596032D01*
X181464021Y-111489570D01*
X181464275Y-111409052D01*
X181736289Y-111409052D01*
X181742590Y-111516070D01*
X181756925Y-111604278D01*
X181776331Y-111654090D01*
X181849746Y-111722162D01*
X181936914Y-111746564D01*
X182026804Y-111726831D01*
X182103617Y-111667968D01*
X182132708Y-111628379D01*
X182149717Y-111581138D01*
X182157684Y-111512181D01*
X182159647Y-111408607D01*
X182156134Y-111306039D01*
X182146857Y-111215921D01*
X182133706Y-111155613D01*
X182131514Y-111150208D01*
X182078478Y-111085940D01*
X182001067Y-111050656D01*
X181914454Y-111044959D01*
X181833807Y-111069453D01*
X181774297Y-111124742D01*
X181768124Y-111135743D01*
X181748801Y-111202827D01*
X181738274Y-111299284D01*
X181736289Y-111409052D01*
X181464275Y-111409052D01*
X181464404Y-111368225D01*
X181466194Y-111302918D01*
X181478373Y-111141355D01*
X181503685Y-111020053D01*
X181545793Y-110930379D01*
X181608359Y-110863699D01*
X181669100Y-110824557D01*
X181753964Y-110797040D01*
X181859515Y-110787603D01*
X181967598Y-110795290D01*
X182060058Y-110819146D01*
X182108910Y-110847685D01*
X182159647Y-110893601D01*
X182159647Y-110313137D01*
X182433568Y-110313137D01*
X182433568Y-112006471D01*
G36*
X183389528Y-110791332D02*
X183488014Y-110798726D01*
X183616776Y-111184706D01*
X183745537Y-111570686D01*
X183785911Y-111433726D01*
X183810207Y-111349083D01*
X183842167Y-111234697D01*
X183876679Y-111108963D01*
X183894928Y-111041520D01*
X183963571Y-110786275D01*
X184246773Y-110786275D01*
X184162122Y-111053971D01*
X184120435Y-111185638D01*
X184070074Y-111344458D01*
X184017481Y-111510128D01*
X183970530Y-111657843D01*
X183863589Y-111994020D01*
X183632661Y-112009044D01*
X183570050Y-111802316D01*
X183531438Y-111673896D01*
X183489300Y-111532322D01*
X183452472Y-111407285D01*
X183451018Y-111402309D01*
X183423511Y-111317586D01*
X183399242Y-111259778D01*
X183382243Y-111237918D01*
X183378750Y-111240446D01*
X183366490Y-111274336D01*
X183343195Y-111346930D01*
X183311700Y-111449101D01*
X183274842Y-111571720D01*
X183254899Y-111639167D01*
X183146895Y-112006471D01*
X182917679Y-112006471D01*
X182734439Y-111427500D01*
X182682963Y-111265091D01*
X182636070Y-111117602D01*
X182595977Y-110991960D01*
X182564897Y-110895095D01*
X182545045Y-110833934D01*
X182539011Y-110816065D01*
X182543788Y-110797768D01*
X182581297Y-110789755D01*
X182659355Y-110790557D01*
X182671574Y-110791163D01*
X182816326Y-110798726D01*
X182911130Y-111147353D01*
X182945977Y-111274497D01*
X182977117Y-111386265D01*
X183001809Y-111472953D01*
X183017312Y-111524856D01*
X183020176Y-111533318D01*
X183032046Y-111523587D01*
X183055983Y-111473172D01*
X183089239Y-111388935D01*
X183129064Y-111277741D01*
X183162730Y-111177297D01*
X183291041Y-110783939D01*
X183389528Y-110791332D01*
X183389528Y-110791332D01*
G37*
X183389528Y-110791332D02*
X183488014Y-110798726D01*
X183616776Y-111184706D01*
X183745537Y-111570686D01*
X183785911Y-111433726D01*
X183810207Y-111349083D01*
X183842167Y-111234697D01*
X183876679Y-111108963D01*
X183894928Y-111041520D01*
X183963571Y-110786275D01*
X184246773Y-110786275D01*
X184162122Y-111053971D01*
X184120435Y-111185638D01*
X184070074Y-111344458D01*
X184017481Y-111510128D01*
X183970530Y-111657843D01*
X183863589Y-111994020D01*
X183632661Y-112009044D01*
X183570050Y-111802316D01*
X183531438Y-111673896D01*
X183489300Y-111532322D01*
X183452472Y-111407285D01*
X183451018Y-111402309D01*
X183423511Y-111317586D01*
X183399242Y-111259778D01*
X183382243Y-111237918D01*
X183378750Y-111240446D01*
X183366490Y-111274336D01*
X183343195Y-111346930D01*
X183311700Y-111449101D01*
X183274842Y-111571720D01*
X183254899Y-111639167D01*
X183146895Y-112006471D01*
X182917679Y-112006471D01*
X182734439Y-111427500D01*
X182682963Y-111265091D01*
X182636070Y-111117602D01*
X182595977Y-110991960D01*
X182564897Y-110895095D01*
X182545045Y-110833934D01*
X182539011Y-110816065D01*
X182543788Y-110797768D01*
X182581297Y-110789755D01*
X182659355Y-110790557D01*
X182671574Y-110791163D01*
X182816326Y-110798726D01*
X182911130Y-111147353D01*
X182945977Y-111274497D01*
X182977117Y-111386265D01*
X183001809Y-111472953D01*
X183017312Y-111524856D01*
X183020176Y-111533318D01*
X183032046Y-111523587D01*
X183055983Y-111473172D01*
X183089239Y-111388935D01*
X183129064Y-111277741D01*
X183162730Y-111177297D01*
X183291041Y-110783939D01*
X183389528Y-110791332D01*
G36*
X184888459Y-110793669D02*
X184993420Y-110819163D01*
X185023761Y-110832669D01*
X185082573Y-110868046D01*
X185127709Y-110907890D01*
X185161106Y-110959120D01*
X185184701Y-111028654D01*
X185200433Y-111123409D01*
X185210239Y-111250305D01*
X185216057Y-111416258D01*
X185218266Y-111527108D01*
X185226396Y-112006471D01*
X185087531Y-112006471D01*
X185003287Y-112002938D01*
X184959884Y-111990866D01*
X184948666Y-111970594D01*
X184942744Y-111948674D01*
X184916266Y-111952865D01*
X184880186Y-111970441D01*
X184789862Y-111997382D01*
X184673777Y-112004642D01*
X184551680Y-111992767D01*
X184443321Y-111962305D01*
X184433602Y-111958077D01*
X184334568Y-111888505D01*
X184269281Y-111791789D01*
X184239240Y-111678738D01*
X184241535Y-111638122D01*
X184486633Y-111638122D01*
X184508229Y-111692782D01*
X184572259Y-111731952D01*
X184675565Y-111752974D01*
X184730774Y-111755766D01*
X184822782Y-111748620D01*
X184883941Y-111720848D01*
X184898862Y-111707647D01*
X184939287Y-111635829D01*
X184948666Y-111570686D01*
X184948666Y-111483530D01*
X184827269Y-111483530D01*
X184686153Y-111490722D01*
X184587173Y-111513345D01*
X184524633Y-111552964D01*
X184510631Y-111570628D01*
X184486633Y-111638122D01*
X184241535Y-111638122D01*
X184245941Y-111560157D01*
X184290880Y-111446855D01*
X184352196Y-111370285D01*
X184389332Y-111337181D01*
X184425687Y-111315425D01*
X184472990Y-111302161D01*
X184542973Y-111294528D01*
X184647364Y-111289670D01*
X184688770Y-111288273D01*
X184948666Y-111279780D01*
X184948285Y-111201116D01*
X184938219Y-111118428D01*
X184901829Y-111068431D01*
X184828311Y-111036489D01*
X184826339Y-111035920D01*
X184722105Y-111023361D01*
X184620108Y-111039766D01*
X184544305Y-111079657D01*
X184513890Y-111099354D01*
X184481132Y-111096629D01*
X184430721Y-111068091D01*
X184401119Y-111047950D01*
X184343218Y-111004919D01*
X184307352Y-110972662D01*
X184301597Y-110963427D01*
X184325295Y-110915636D01*
X184395313Y-110858562D01*
X184425725Y-110839305D01*
X184513155Y-110806140D01*
X184630983Y-110787350D01*
X184761866Y-110783129D01*
X184888459Y-110793669D01*
X184888459Y-110793669D01*
G37*
X184888459Y-110793669D02*
X184993420Y-110819163D01*
X185023761Y-110832669D01*
X185082573Y-110868046D01*
X185127709Y-110907890D01*
X185161106Y-110959120D01*
X185184701Y-111028654D01*
X185200433Y-111123409D01*
X185210239Y-111250305D01*
X185216057Y-111416258D01*
X185218266Y-111527108D01*
X185226396Y-112006471D01*
X185087531Y-112006471D01*
X185003287Y-112002938D01*
X184959884Y-111990866D01*
X184948666Y-111970594D01*
X184942744Y-111948674D01*
X184916266Y-111952865D01*
X184880186Y-111970441D01*
X184789862Y-111997382D01*
X184673777Y-112004642D01*
X184551680Y-111992767D01*
X184443321Y-111962305D01*
X184433602Y-111958077D01*
X184334568Y-111888505D01*
X184269281Y-111791789D01*
X184239240Y-111678738D01*
X184241535Y-111638122D01*
X184486633Y-111638122D01*
X184508229Y-111692782D01*
X184572259Y-111731952D01*
X184675565Y-111752974D01*
X184730774Y-111755766D01*
X184822782Y-111748620D01*
X184883941Y-111720848D01*
X184898862Y-111707647D01*
X184939287Y-111635829D01*
X184948666Y-111570686D01*
X184948666Y-111483530D01*
X184827269Y-111483530D01*
X184686153Y-111490722D01*
X184587173Y-111513345D01*
X184524633Y-111552964D01*
X184510631Y-111570628D01*
X184486633Y-111638122D01*
X184241535Y-111638122D01*
X184245941Y-111560157D01*
X184290880Y-111446855D01*
X184352196Y-111370285D01*
X184389332Y-111337181D01*
X184425687Y-111315425D01*
X184472990Y-111302161D01*
X184542973Y-111294528D01*
X184647364Y-111289670D01*
X184688770Y-111288273D01*
X184948666Y-111279780D01*
X184948285Y-111201116D01*
X184938219Y-111118428D01*
X184901829Y-111068431D01*
X184828311Y-111036489D01*
X184826339Y-111035920D01*
X184722105Y-111023361D01*
X184620108Y-111039766D01*
X184544305Y-111079657D01*
X184513890Y-111099354D01*
X184481132Y-111096629D01*
X184430721Y-111068091D01*
X184401119Y-111047950D01*
X184343218Y-111004919D01*
X184307352Y-110972662D01*
X184301597Y-110963427D01*
X184325295Y-110915636D01*
X184395313Y-110858562D01*
X184425725Y-110839305D01*
X184513155Y-110806140D01*
X184630983Y-110787350D01*
X184761866Y-110783129D01*
X184888459Y-110793669D01*
G36*
X186070446Y-110785883D02*
X186166177Y-110804755D01*
X186220677Y-110832699D01*
X186278008Y-110879123D01*
X186196441Y-110982111D01*
X186146150Y-111044479D01*
X186112001Y-111074907D01*
X186078063Y-111079555D01*
X186028406Y-111064586D01*
X186005096Y-111056117D01*
X185910063Y-111043622D01*
X185823032Y-111070406D01*
X185759138Y-111130915D01*
X185748759Y-111150208D01*
X185737456Y-111201314D01*
X185728732Y-111295500D01*
X185722997Y-111426089D01*
X185720660Y-111586405D01*
X185720627Y-111609211D01*
X185720627Y-112006471D01*
X185446705Y-112006471D01*
X185446705Y-110786275D01*
X185583666Y-110786275D01*
X185662638Y-110788337D01*
X185703779Y-110797513D01*
X185718992Y-110818290D01*
X185720627Y-110837886D01*
X185720627Y-110889497D01*
X185786240Y-110837886D01*
X185861475Y-110802675D01*
X185962544Y-110785265D01*
X186070446Y-110785883D01*
X186070446Y-110785883D01*
G37*
X186070446Y-110785883D02*
X186166177Y-110804755D01*
X186220677Y-110832699D01*
X186278008Y-110879123D01*
X186196441Y-110982111D01*
X186146150Y-111044479D01*
X186112001Y-111074907D01*
X186078063Y-111079555D01*
X186028406Y-111064586D01*
X186005096Y-111056117D01*
X185910063Y-111043622D01*
X185823032Y-111070406D01*
X185759138Y-111130915D01*
X185748759Y-111150208D01*
X185737456Y-111201314D01*
X185728732Y-111295500D01*
X185722997Y-111426089D01*
X185720660Y-111586405D01*
X185720627Y-111609211D01*
X185720627Y-112006471D01*
X185446705Y-112006471D01*
X185446705Y-110786275D01*
X185583666Y-110786275D01*
X185662638Y-110788337D01*
X185703779Y-110797513D01*
X185718992Y-110818290D01*
X185720627Y-110837886D01*
X185720627Y-110889497D01*
X185786240Y-110837886D01*
X185861475Y-110802675D01*
X185962544Y-110785265D01*
X186070446Y-110785883D01*
G36*
X186857307Y-110792784D02*
X186976337Y-110823731D01*
X187076021Y-110887600D01*
X187124288Y-110935313D01*
X187203408Y-111048106D01*
X187248752Y-111178950D01*
X187264330Y-111339792D01*
X187264410Y-111352794D01*
X187264549Y-111483530D01*
X186512091Y-111483530D01*
X186528130Y-111552010D01*
X186557091Y-111614031D01*
X186607778Y-111678654D01*
X186618379Y-111688971D01*
X186709494Y-111744805D01*
X186813400Y-111754275D01*
X186933000Y-111717540D01*
X186953274Y-111707647D01*
X187015456Y-111677574D01*
X187057106Y-111660440D01*
X187064373Y-111658855D01*
X187089740Y-111674242D01*
X187138120Y-111711887D01*
X187162679Y-111732459D01*
X187213570Y-111779714D01*
X187230281Y-111810917D01*
X187218683Y-111839620D01*
X187212483Y-111847468D01*
X187170493Y-111881819D01*
X187101206Y-111923565D01*
X187052882Y-111947935D01*
X186915711Y-111990873D01*
X186763847Y-112004786D01*
X186620024Y-111988300D01*
X186579745Y-111976496D01*
X186455078Y-111909689D01*
X186362671Y-111806892D01*
X186301990Y-111667105D01*
X186272498Y-111489330D01*
X186269260Y-111396373D01*
X186278714Y-111261033D01*
X186517490Y-111261033D01*
X186540584Y-111271038D01*
X186602662Y-111278888D01*
X186692914Y-111283521D01*
X186754058Y-111284314D01*
X186864040Y-111283549D01*
X186933457Y-111279970D01*
X186971538Y-111271649D01*
X186987515Y-111256657D01*
X186990627Y-111234903D01*
X186969278Y-111167892D01*
X186915529Y-111101664D01*
X186844822Y-111050832D01*
X186774089Y-111030038D01*
X186678016Y-111048484D01*
X186594849Y-111101811D01*
X186537186Y-111178677D01*
X186517490Y-111261033D01*
X186278714Y-111261033D01*
X186283028Y-111199291D01*
X186325520Y-111042271D01*
X186397635Y-110924069D01*
X186500273Y-110843440D01*
X186634332Y-110799139D01*
X186706957Y-110790607D01*
X186857307Y-110792784D01*
X186857307Y-110792784D01*
G37*
X186857307Y-110792784D02*
X186976337Y-110823731D01*
X187076021Y-110887600D01*
X187124288Y-110935313D01*
X187203408Y-111048106D01*
X187248752Y-111178950D01*
X187264330Y-111339792D01*
X187264410Y-111352794D01*
X187264549Y-111483530D01*
X186512091Y-111483530D01*
X186528130Y-111552010D01*
X186557091Y-111614031D01*
X186607778Y-111678654D01*
X186618379Y-111688971D01*
X186709494Y-111744805D01*
X186813400Y-111754275D01*
X186933000Y-111717540D01*
X186953274Y-111707647D01*
X187015456Y-111677574D01*
X187057106Y-111660440D01*
X187064373Y-111658855D01*
X187089740Y-111674242D01*
X187138120Y-111711887D01*
X187162679Y-111732459D01*
X187213570Y-111779714D01*
X187230281Y-111810917D01*
X187218683Y-111839620D01*
X187212483Y-111847468D01*
X187170493Y-111881819D01*
X187101206Y-111923565D01*
X187052882Y-111947935D01*
X186915711Y-111990873D01*
X186763847Y-112004786D01*
X186620024Y-111988300D01*
X186579745Y-111976496D01*
X186455078Y-111909689D01*
X186362671Y-111806892D01*
X186301990Y-111667105D01*
X186272498Y-111489330D01*
X186269260Y-111396373D01*
X186278714Y-111261033D01*
X186517490Y-111261033D01*
X186540584Y-111271038D01*
X186602662Y-111278888D01*
X186692914Y-111283521D01*
X186754058Y-111284314D01*
X186864040Y-111283549D01*
X186933457Y-111279970D01*
X186971538Y-111271649D01*
X186987515Y-111256657D01*
X186990627Y-111234903D01*
X186969278Y-111167892D01*
X186915529Y-111101664D01*
X186844822Y-111050832D01*
X186774089Y-111030038D01*
X186678016Y-111048484D01*
X186594849Y-111101811D01*
X186537186Y-111178677D01*
X186517490Y-111261033D01*
X186278714Y-111261033D01*
X186283028Y-111199291D01*
X186325520Y-111042271D01*
X186397635Y-110924069D01*
X186500273Y-110843440D01*
X186634332Y-110799139D01*
X186706957Y-110790607D01*
X186857307Y-110792784D01*
G36*
X177805247Y-108931568D02*
X177935522Y-108989163D01*
X178034419Y-109085334D01*
X178102082Y-109220229D01*
X178138655Y-109393996D01*
X178141276Y-109421126D01*
X178143330Y-109612408D01*
X178116699Y-109780073D01*
X178063001Y-109915967D01*
X178034247Y-109959681D01*
X177934091Y-110052198D01*
X177806537Y-110112119D01*
X177663837Y-110136985D01*
X177518240Y-110124339D01*
X177407562Y-110085391D01*
X177312384Y-110019755D01*
X177234594Y-109933699D01*
X177233249Y-109931685D01*
X177201657Y-109878570D01*
X177181127Y-109825160D01*
X177168695Y-109757754D01*
X177161397Y-109662653D01*
X177158182Y-109584666D01*
X177156844Y-109513944D01*
X177405814Y-109513944D01*
X177408247Y-109584348D01*
X177417080Y-109678068D01*
X177432664Y-109738214D01*
X177460766Y-109781006D01*
X177487086Y-109806002D01*
X177580392Y-109858338D01*
X177678020Y-109865333D01*
X177768942Y-109827676D01*
X177814402Y-109785479D01*
X177847162Y-109742956D01*
X177866323Y-109702267D01*
X177874733Y-109649314D01*
X177875237Y-109569997D01*
X177872645Y-109496950D01*
X177867071Y-109392601D01*
X177858234Y-109324920D01*
X177842307Y-109280774D01*
X177815462Y-109247031D01*
X177794189Y-109227746D01*
X177705206Y-109177086D01*
X177609211Y-109174560D01*
X177528719Y-109204567D01*
X177460053Y-109267231D01*
X177419144Y-109370168D01*
X177405814Y-109513944D01*
X177156844Y-109513944D01*
X177155246Y-109429582D01*
X177160260Y-109313600D01*
X177175283Y-109226367D01*
X177202376Y-109157530D01*
X177243600Y-109096737D01*
X177258885Y-109078686D01*
X177354454Y-108988746D01*
X177456961Y-108936211D01*
X177582321Y-108914201D01*
X177643450Y-108912402D01*
X177805247Y-108931568D01*
X177805247Y-108931568D01*
G37*
X177805247Y-108931568D02*
X177935522Y-108989163D01*
X178034419Y-109085334D01*
X178102082Y-109220229D01*
X178138655Y-109393996D01*
X178141276Y-109421126D01*
X178143330Y-109612408D01*
X178116699Y-109780073D01*
X178063001Y-109915967D01*
X178034247Y-109959681D01*
X177934091Y-110052198D01*
X177806537Y-110112119D01*
X177663837Y-110136985D01*
X177518240Y-110124339D01*
X177407562Y-110085391D01*
X177312384Y-110019755D01*
X177234594Y-109933699D01*
X177233249Y-109931685D01*
X177201657Y-109878570D01*
X177181127Y-109825160D01*
X177168695Y-109757754D01*
X177161397Y-109662653D01*
X177158182Y-109584666D01*
X177156844Y-109513944D01*
X177405814Y-109513944D01*
X177408247Y-109584348D01*
X177417080Y-109678068D01*
X177432664Y-109738214D01*
X177460766Y-109781006D01*
X177487086Y-109806002D01*
X177580392Y-109858338D01*
X177678020Y-109865333D01*
X177768942Y-109827676D01*
X177814402Y-109785479D01*
X177847162Y-109742956D01*
X177866323Y-109702267D01*
X177874733Y-109649314D01*
X177875237Y-109569997D01*
X177872645Y-109496950D01*
X177867071Y-109392601D01*
X177858234Y-109324920D01*
X177842307Y-109280774D01*
X177815462Y-109247031D01*
X177794189Y-109227746D01*
X177705206Y-109177086D01*
X177609211Y-109174560D01*
X177528719Y-109204567D01*
X177460053Y-109267231D01*
X177419144Y-109370168D01*
X177405814Y-109513944D01*
X177156844Y-109513944D01*
X177155246Y-109429582D01*
X177160260Y-109313600D01*
X177175283Y-109226367D01*
X177202376Y-109157530D01*
X177243600Y-109096737D01*
X177258885Y-109078686D01*
X177354454Y-108988746D01*
X177456961Y-108936211D01*
X177582321Y-108914201D01*
X177643450Y-108912402D01*
X177805247Y-108931568D01*
G36*
X180145204Y-108946354D02*
X180170019Y-108958037D01*
X180255906Y-109020951D01*
X180337121Y-109112769D01*
X180397764Y-109213868D01*
X180415012Y-109260349D01*
X180430749Y-109343376D01*
X180440133Y-109443713D01*
X180441272Y-109485147D01*
X180441411Y-109615882D01*
X179688953Y-109615882D01*
X179704993Y-109684363D01*
X179744363Y-109765355D01*
X179813194Y-109835351D01*
X179895081Y-109880441D01*
X179947263Y-109889804D01*
X180018029Y-109878441D01*
X180102460Y-109849943D01*
X180131142Y-109836831D01*
X180237209Y-109783858D01*
X180327728Y-109852901D01*
X180379961Y-109899597D01*
X180407753Y-109938140D01*
X180409160Y-109949452D01*
X180384332Y-109976868D01*
X180329917Y-110018532D01*
X180280528Y-110051037D01*
X180147252Y-110109468D01*
X179997839Y-110135915D01*
X179849751Y-110129039D01*
X179731705Y-110093096D01*
X179610018Y-110016101D01*
X179523540Y-109914728D01*
X179469441Y-109783570D01*
X179444891Y-109617224D01*
X179442714Y-109541108D01*
X179451427Y-109366685D01*
X179452497Y-109361611D01*
X179701827Y-109361611D01*
X179708694Y-109377968D01*
X179736917Y-109386988D01*
X179795127Y-109390854D01*
X179891958Y-109391749D01*
X179929243Y-109391765D01*
X180042683Y-109390413D01*
X180114622Y-109385505D01*
X180153313Y-109375760D01*
X180167005Y-109359899D01*
X180167490Y-109354805D01*
X180151863Y-109314326D01*
X180112753Y-109257621D01*
X180095939Y-109237766D01*
X180033519Y-109181611D01*
X179968453Y-109159532D01*
X179933397Y-109157686D01*
X179838558Y-109180766D01*
X179759027Y-109242759D01*
X179708577Y-109332802D01*
X179707683Y-109335735D01*
X179701827Y-109361611D01*
X179452497Y-109361611D01*
X179480399Y-109229343D01*
X179532590Y-109119461D01*
X179596421Y-109041461D01*
X179714433Y-108956882D01*
X179853158Y-108911686D01*
X180000710Y-108907600D01*
X180145204Y-108946354D01*
X180145204Y-108946354D01*
G37*
X180145204Y-108946354D02*
X180170019Y-108958037D01*
X180255906Y-109020951D01*
X180337121Y-109112769D01*
X180397764Y-109213868D01*
X180415012Y-109260349D01*
X180430749Y-109343376D01*
X180440133Y-109443713D01*
X180441272Y-109485147D01*
X180441411Y-109615882D01*
X179688953Y-109615882D01*
X179704993Y-109684363D01*
X179744363Y-109765355D01*
X179813194Y-109835351D01*
X179895081Y-109880441D01*
X179947263Y-109889804D01*
X180018029Y-109878441D01*
X180102460Y-109849943D01*
X180131142Y-109836831D01*
X180237209Y-109783858D01*
X180327728Y-109852901D01*
X180379961Y-109899597D01*
X180407753Y-109938140D01*
X180409160Y-109949452D01*
X180384332Y-109976868D01*
X180329917Y-110018532D01*
X180280528Y-110051037D01*
X180147252Y-110109468D01*
X179997839Y-110135915D01*
X179849751Y-110129039D01*
X179731705Y-110093096D01*
X179610018Y-110016101D01*
X179523540Y-109914728D01*
X179469441Y-109783570D01*
X179444891Y-109617224D01*
X179442714Y-109541108D01*
X179451427Y-109366685D01*
X179452497Y-109361611D01*
X179701827Y-109361611D01*
X179708694Y-109377968D01*
X179736917Y-109386988D01*
X179795127Y-109390854D01*
X179891958Y-109391749D01*
X179929243Y-109391765D01*
X180042683Y-109390413D01*
X180114622Y-109385505D01*
X180153313Y-109375760D01*
X180167005Y-109359899D01*
X180167490Y-109354805D01*
X180151863Y-109314326D01*
X180112753Y-109257621D01*
X180095939Y-109237766D01*
X180033519Y-109181611D01*
X179968453Y-109159532D01*
X179933397Y-109157686D01*
X179838558Y-109180766D01*
X179759027Y-109242759D01*
X179708577Y-109332802D01*
X179707683Y-109335735D01*
X179701827Y-109361611D01*
X179452497Y-109361611D01*
X179480399Y-109229343D01*
X179532590Y-109119461D01*
X179596421Y-109041461D01*
X179714433Y-108956882D01*
X179853158Y-108911686D01*
X180000710Y-108907600D01*
X180145204Y-108946354D01*
G36*
X182859759Y-108914345D02*
X182954059Y-108932229D01*
X183051890Y-108969633D01*
X183062343Y-108974402D01*
X183136531Y-109013412D01*
X183187910Y-109049664D01*
X183204517Y-109072887D01*
X183188702Y-109110761D01*
X183150288Y-109166644D01*
X183133237Y-109187505D01*
X183062969Y-109269618D01*
X182972379Y-109216168D01*
X182886164Y-109180561D01*
X182786549Y-109161529D01*
X182691019Y-109160326D01*
X182617061Y-109178210D01*
X182599312Y-109189373D01*
X182565512Y-109240553D01*
X182561404Y-109299509D01*
X182586696Y-109345567D01*
X182601656Y-109354499D01*
X182646486Y-109365592D01*
X182725286Y-109378630D01*
X182822426Y-109391088D01*
X182840346Y-109393042D01*
X182996365Y-109420030D01*
X183109523Y-109465873D01*
X183184569Y-109534803D01*
X183226253Y-109631054D01*
X183239238Y-109748617D01*
X183221299Y-109882254D01*
X183163050Y-109987195D01*
X183064255Y-110063630D01*
X182924682Y-110111748D01*
X182769745Y-110130732D01*
X182643398Y-110130504D01*
X182540913Y-110113262D01*
X182470921Y-110089457D01*
X182382483Y-110047978D01*
X182300754Y-109999842D01*
X182271705Y-109978655D01*
X182197000Y-109917676D01*
X182287098Y-109826508D01*
X182377196Y-109735339D01*
X182479632Y-109803128D01*
X182582374Y-109854042D01*
X182692087Y-109880673D01*
X182797551Y-109883483D01*
X182887546Y-109862935D01*
X182950854Y-109819493D01*
X182971296Y-109782838D01*
X182968229Y-109724053D01*
X182917434Y-109679099D01*
X182819048Y-109648057D01*
X182711256Y-109633710D01*
X182545365Y-109606337D01*
X182422124Y-109554693D01*
X182339886Y-109477266D01*
X182297001Y-109372544D01*
X182291060Y-109248387D01*
X182320406Y-109118702D01*
X182387309Y-109020677D01*
X182492371Y-108953866D01*
X182636190Y-108917820D01*
X182742738Y-108910754D01*
X182859759Y-108914345D01*
X182859759Y-108914345D01*
G37*
X182859759Y-108914345D02*
X182954059Y-108932229D01*
X183051890Y-108969633D01*
X183062343Y-108974402D01*
X183136531Y-109013412D01*
X183187910Y-109049664D01*
X183204517Y-109072887D01*
X183188702Y-109110761D01*
X183150288Y-109166644D01*
X183133237Y-109187505D01*
X183062969Y-109269618D01*
X182972379Y-109216168D01*
X182886164Y-109180561D01*
X182786549Y-109161529D01*
X182691019Y-109160326D01*
X182617061Y-109178210D01*
X182599312Y-109189373D01*
X182565512Y-109240553D01*
X182561404Y-109299509D01*
X182586696Y-109345567D01*
X182601656Y-109354499D01*
X182646486Y-109365592D01*
X182725286Y-109378630D01*
X182822426Y-109391088D01*
X182840346Y-109393042D01*
X182996365Y-109420030D01*
X183109523Y-109465873D01*
X183184569Y-109534803D01*
X183226253Y-109631054D01*
X183239238Y-109748617D01*
X183221299Y-109882254D01*
X183163050Y-109987195D01*
X183064255Y-110063630D01*
X182924682Y-110111748D01*
X182769745Y-110130732D01*
X182643398Y-110130504D01*
X182540913Y-110113262D01*
X182470921Y-110089457D01*
X182382483Y-110047978D01*
X182300754Y-109999842D01*
X182271705Y-109978655D01*
X182197000Y-109917676D01*
X182287098Y-109826508D01*
X182377196Y-109735339D01*
X182479632Y-109803128D01*
X182582374Y-109854042D01*
X182692087Y-109880673D01*
X182797551Y-109883483D01*
X182887546Y-109862935D01*
X182950854Y-109819493D01*
X182971296Y-109782838D01*
X182968229Y-109724053D01*
X182917434Y-109679099D01*
X182819048Y-109648057D01*
X182711256Y-109633710D01*
X182545365Y-109606337D01*
X182422124Y-109554693D01*
X182339886Y-109477266D01*
X182297001Y-109372544D01*
X182291060Y-109248387D01*
X182320406Y-109118702D01*
X182387309Y-109020677D01*
X182492371Y-108953866D01*
X182636190Y-108917820D01*
X182742738Y-108910754D01*
X182859759Y-108914345D01*
G36*
X184041547Y-108933364D02*
X184167502Y-109001959D01*
X184266047Y-109110245D01*
X184312478Y-109198315D01*
X184332412Y-109276101D01*
X184345328Y-109386993D01*
X184350863Y-109514738D01*
X184348654Y-109643084D01*
X184338337Y-109755779D01*
X184326286Y-109815969D01*
X184285634Y-109898311D01*
X184215230Y-109985770D01*
X184130382Y-110062251D01*
X184046397Y-110111655D01*
X184044349Y-110112439D01*
X183940134Y-110134027D01*
X183816627Y-110134562D01*
X183699261Y-110114908D01*
X183653942Y-110099155D01*
X183537220Y-110032966D01*
X183453624Y-109946246D01*
X183398701Y-109831438D01*
X183367995Y-109680982D01*
X183361047Y-109602173D01*
X183361933Y-109503145D01*
X183628862Y-109503145D01*
X183637854Y-109647645D01*
X183663736Y-109757760D01*
X183704868Y-109828116D01*
X183734172Y-109848235D01*
X183809251Y-109862265D01*
X183898494Y-109858111D01*
X183975650Y-109837922D01*
X183995883Y-109826815D01*
X184049265Y-109762123D01*
X184084500Y-109663119D01*
X184099498Y-109542632D01*
X184092172Y-109413494D01*
X184075799Y-109335775D01*
X184028790Y-109245771D01*
X183954582Y-109189509D01*
X183865209Y-109170057D01*
X183772707Y-109190481D01*
X183701653Y-109240437D01*
X183664312Y-109281655D01*
X183642518Y-109322281D01*
X183632130Y-109377264D01*
X183629006Y-109461549D01*
X183628862Y-109503145D01*
X183361933Y-109503145D01*
X183362930Y-109391874D01*
X183397180Y-109219423D01*
X183463802Y-109084814D01*
X183562799Y-108988040D01*
X183694175Y-108929094D01*
X183722385Y-108922259D01*
X183891926Y-108906213D01*
X184041547Y-108933364D01*
X184041547Y-108933364D01*
G37*
X184041547Y-108933364D02*
X184167502Y-109001959D01*
X184266047Y-109110245D01*
X184312478Y-109198315D01*
X184332412Y-109276101D01*
X184345328Y-109386993D01*
X184350863Y-109514738D01*
X184348654Y-109643084D01*
X184338337Y-109755779D01*
X184326286Y-109815969D01*
X184285634Y-109898311D01*
X184215230Y-109985770D01*
X184130382Y-110062251D01*
X184046397Y-110111655D01*
X184044349Y-110112439D01*
X183940134Y-110134027D01*
X183816627Y-110134562D01*
X183699261Y-110114908D01*
X183653942Y-110099155D01*
X183537220Y-110032966D01*
X183453624Y-109946246D01*
X183398701Y-109831438D01*
X183367995Y-109680982D01*
X183361047Y-109602173D01*
X183361933Y-109503145D01*
X183628862Y-109503145D01*
X183637854Y-109647645D01*
X183663736Y-109757760D01*
X183704868Y-109828116D01*
X183734172Y-109848235D01*
X183809251Y-109862265D01*
X183898494Y-109858111D01*
X183975650Y-109837922D01*
X183995883Y-109826815D01*
X184049265Y-109762123D01*
X184084500Y-109663119D01*
X184099498Y-109542632D01*
X184092172Y-109413494D01*
X184075799Y-109335775D01*
X184028790Y-109245771D01*
X183954582Y-109189509D01*
X183865209Y-109170057D01*
X183772707Y-109190481D01*
X183701653Y-109240437D01*
X183664312Y-109281655D01*
X183642518Y-109322281D01*
X183632130Y-109377264D01*
X183629006Y-109461549D01*
X183628862Y-109503145D01*
X183361933Y-109503145D01*
X183362930Y-109391874D01*
X183397180Y-109219423D01*
X183463802Y-109084814D01*
X183562799Y-108988040D01*
X183694175Y-108929094D01*
X183722385Y-108922259D01*
X183891926Y-108906213D01*
X184041547Y-108933364D01*
G36*
X184799254Y-109306245D02*
X184801608Y-109488879D01*
X184810207Y-109627600D01*
X184827360Y-109728147D01*
X184855374Y-109796254D01*
X184896557Y-109837659D01*
X184953217Y-109858097D01*
X185023372Y-109863318D01*
X185096848Y-109857468D01*
X185152657Y-109836093D01*
X185193109Y-109793458D01*
X185220509Y-109723825D01*
X185237167Y-109621460D01*
X185245389Y-109480624D01*
X185247490Y-109306245D01*
X185247490Y-108918628D01*
X185521411Y-108918628D01*
X185521411Y-110113922D01*
X185384451Y-110113922D01*
X185301884Y-110110576D01*
X185259368Y-110098826D01*
X185247490Y-110076520D01*
X185240336Y-110056654D01*
X185211865Y-110060857D01*
X185154476Y-110088971D01*
X185022945Y-110132342D01*
X184883438Y-110129270D01*
X184749765Y-110082174D01*
X184686108Y-110044971D01*
X184637553Y-110004691D01*
X184602081Y-109954291D01*
X184577674Y-109886729D01*
X184562313Y-109794965D01*
X184553982Y-109671955D01*
X184550662Y-109510659D01*
X184550235Y-109385928D01*
X184550235Y-108918628D01*
X184799254Y-108918628D01*
X184799254Y-109306245D01*
X184799254Y-109306245D01*
G37*
X184799254Y-109306245D02*
X184801608Y-109488879D01*
X184810207Y-109627600D01*
X184827360Y-109728147D01*
X184855374Y-109796254D01*
X184896557Y-109837659D01*
X184953217Y-109858097D01*
X185023372Y-109863318D01*
X185096848Y-109857468D01*
X185152657Y-109836093D01*
X185193109Y-109793458D01*
X185220509Y-109723825D01*
X185237167Y-109621460D01*
X185245389Y-109480624D01*
X185247490Y-109306245D01*
X185247490Y-108918628D01*
X185521411Y-108918628D01*
X185521411Y-110113922D01*
X185384451Y-110113922D01*
X185301884Y-110110576D01*
X185259368Y-110098826D01*
X185247490Y-110076520D01*
X185240336Y-110056654D01*
X185211865Y-110060857D01*
X185154476Y-110088971D01*
X185022945Y-110132342D01*
X184883438Y-110129270D01*
X184749765Y-110082174D01*
X184686108Y-110044971D01*
X184637553Y-110004691D01*
X184602081Y-109954291D01*
X184577674Y-109886729D01*
X184562313Y-109794965D01*
X184553982Y-109671955D01*
X184550662Y-109510659D01*
X184550235Y-109385928D01*
X184550235Y-108918628D01*
X184799254Y-108918628D01*
X184799254Y-109306245D01*
G36*
X187222976Y-108929056D02*
X187367256Y-108990348D01*
X187412699Y-109020185D01*
X187470779Y-109066036D01*
X187507238Y-109102089D01*
X187513568Y-109113832D01*
X187495693Y-109139889D01*
X187449950Y-109184105D01*
X187413328Y-109214965D01*
X187313088Y-109295520D01*
X187233935Y-109228918D01*
X187172769Y-109185921D01*
X187113129Y-109171079D01*
X187044872Y-109174704D01*
X186936482Y-109201652D01*
X186861872Y-109257587D01*
X186816530Y-109348014D01*
X186795947Y-109478435D01*
X186795942Y-109478517D01*
X186797722Y-109624290D01*
X186825387Y-109731245D01*
X186880571Y-109804064D01*
X186918192Y-109828723D01*
X187018105Y-109859431D01*
X187124822Y-109859449D01*
X187217669Y-109829655D01*
X187239647Y-109815098D01*
X187294765Y-109777914D01*
X187337859Y-109771820D01*
X187384335Y-109799496D01*
X187435716Y-109849205D01*
X187517046Y-109933116D01*
X187426749Y-110007546D01*
X187287236Y-110091549D01*
X187129912Y-110132947D01*
X186965503Y-110129950D01*
X186857531Y-110102500D01*
X186731331Y-110034620D01*
X186630401Y-109927831D01*
X186584548Y-109852451D01*
X186547410Y-109744297D01*
X186528827Y-109607318D01*
X186528684Y-109458864D01*
X186546865Y-109316281D01*
X186583255Y-109196918D01*
X186588987Y-109184680D01*
X186673865Y-109064655D01*
X186788782Y-108977267D01*
X186924659Y-108924329D01*
X187072417Y-108907654D01*
X187222976Y-108929056D01*
X187222976Y-108929056D01*
G37*
X187222976Y-108929056D02*
X187367256Y-108990348D01*
X187412699Y-109020185D01*
X187470779Y-109066036D01*
X187507238Y-109102089D01*
X187513568Y-109113832D01*
X187495693Y-109139889D01*
X187449950Y-109184105D01*
X187413328Y-109214965D01*
X187313088Y-109295520D01*
X187233935Y-109228918D01*
X187172769Y-109185921D01*
X187113129Y-109171079D01*
X187044872Y-109174704D01*
X186936482Y-109201652D01*
X186861872Y-109257587D01*
X186816530Y-109348014D01*
X186795947Y-109478435D01*
X186795942Y-109478517D01*
X186797722Y-109624290D01*
X186825387Y-109731245D01*
X186880571Y-109804064D01*
X186918192Y-109828723D01*
X187018105Y-109859431D01*
X187124822Y-109859449D01*
X187217669Y-109829655D01*
X187239647Y-109815098D01*
X187294765Y-109777914D01*
X187337859Y-109771820D01*
X187384335Y-109799496D01*
X187435716Y-109849205D01*
X187517046Y-109933116D01*
X187426749Y-110007546D01*
X187287236Y-110091549D01*
X187129912Y-110132947D01*
X186965503Y-110129950D01*
X186857531Y-110102500D01*
X186731331Y-110034620D01*
X186630401Y-109927831D01*
X186584548Y-109852451D01*
X186547410Y-109744297D01*
X186528827Y-109607318D01*
X186528684Y-109458864D01*
X186546865Y-109316281D01*
X186583255Y-109196918D01*
X186588987Y-109184680D01*
X186673865Y-109064655D01*
X186788782Y-108977267D01*
X186924659Y-108924329D01*
X187072417Y-108907654D01*
X187222976Y-108929056D01*
G36*
X188135287Y-108914355D02*
X188199051Y-108929845D01*
X188321300Y-108986569D01*
X188425834Y-109073202D01*
X188498180Y-109177074D01*
X188508119Y-109200396D01*
X188521754Y-109261484D01*
X188531298Y-109351853D01*
X188534549Y-109443190D01*
X188534549Y-109615882D01*
X188173470Y-109615882D01*
X188024546Y-109616445D01*
X187919632Y-109619864D01*
X187852937Y-109628731D01*
X187818666Y-109645641D01*
X187811028Y-109673189D01*
X187824229Y-109713968D01*
X187847877Y-109761683D01*
X187913843Y-109841314D01*
X188005512Y-109880987D01*
X188117555Y-109879695D01*
X188244472Y-109836514D01*
X188354158Y-109783224D01*
X188445173Y-109855191D01*
X188536188Y-109927157D01*
X188450563Y-110006269D01*
X188336250Y-110081017D01*
X188195666Y-110126084D01*
X188044449Y-110138696D01*
X187898236Y-110116079D01*
X187874647Y-110108405D01*
X187746141Y-110041296D01*
X187650551Y-109941247D01*
X187585861Y-109805271D01*
X187550057Y-109630380D01*
X187549640Y-109626632D01*
X187546434Y-109436032D01*
X187559393Y-109368035D01*
X187812392Y-109368035D01*
X187835627Y-109378491D01*
X187898710Y-109386500D01*
X187991706Y-109391073D01*
X188050638Y-109391765D01*
X188160537Y-109391332D01*
X188229252Y-109388578D01*
X188265405Y-109381321D01*
X188277615Y-109367376D01*
X188274504Y-109344562D01*
X188271894Y-109335735D01*
X188227344Y-109252800D01*
X188157279Y-109185960D01*
X188095446Y-109156589D01*
X188013301Y-109158362D01*
X187930062Y-109194990D01*
X187860238Y-109255634D01*
X187818337Y-109329456D01*
X187812392Y-109368035D01*
X187559393Y-109368035D01*
X187578385Y-109268395D01*
X187641773Y-109127711D01*
X187732878Y-109017974D01*
X187847978Y-108943174D01*
X187983355Y-108907304D01*
X188135287Y-108914355D01*
X188135287Y-108914355D01*
G37*
X188135287Y-108914355D02*
X188199051Y-108929845D01*
X188321300Y-108986569D01*
X188425834Y-109073202D01*
X188498180Y-109177074D01*
X188508119Y-109200396D01*
X188521754Y-109261484D01*
X188531298Y-109351853D01*
X188534549Y-109443190D01*
X188534549Y-109615882D01*
X188173470Y-109615882D01*
X188024546Y-109616445D01*
X187919632Y-109619864D01*
X187852937Y-109628731D01*
X187818666Y-109645641D01*
X187811028Y-109673189D01*
X187824229Y-109713968D01*
X187847877Y-109761683D01*
X187913843Y-109841314D01*
X188005512Y-109880987D01*
X188117555Y-109879695D01*
X188244472Y-109836514D01*
X188354158Y-109783224D01*
X188445173Y-109855191D01*
X188536188Y-109927157D01*
X188450563Y-110006269D01*
X188336250Y-110081017D01*
X188195666Y-110126084D01*
X188044449Y-110138696D01*
X187898236Y-110116079D01*
X187874647Y-110108405D01*
X187746141Y-110041296D01*
X187650551Y-109941247D01*
X187585861Y-109805271D01*
X187550057Y-109630380D01*
X187549640Y-109626632D01*
X187546434Y-109436032D01*
X187559393Y-109368035D01*
X187812392Y-109368035D01*
X187835627Y-109378491D01*
X187898710Y-109386500D01*
X187991706Y-109391073D01*
X188050638Y-109391765D01*
X188160537Y-109391332D01*
X188229252Y-109388578D01*
X188265405Y-109381321D01*
X188277615Y-109367376D01*
X188274504Y-109344562D01*
X188271894Y-109335735D01*
X188227344Y-109252800D01*
X188157279Y-109185960D01*
X188095446Y-109156589D01*
X188013301Y-109158362D01*
X187930062Y-109194990D01*
X187860238Y-109255634D01*
X187818337Y-109329456D01*
X187812392Y-109368035D01*
X187559393Y-109368035D01*
X187578385Y-109268395D01*
X187641773Y-109127711D01*
X187732878Y-109017974D01*
X187847978Y-108943174D01*
X187983355Y-108907304D01*
X188135287Y-108914355D01*
G36*
X181338760Y-108939199D02*
X181400736Y-108968802D01*
X181460759Y-109011561D01*
X181506486Y-109060775D01*
X181539793Y-109123544D01*
X181562555Y-109206971D01*
X181576647Y-109318159D01*
X181583942Y-109464209D01*
X181586318Y-109652223D01*
X181586355Y-109671912D01*
X181586902Y-110113922D01*
X181312980Y-110113922D01*
X181312980Y-109706435D01*
X181312785Y-109555471D01*
X181311436Y-109446056D01*
X181307788Y-109369933D01*
X181300696Y-109318848D01*
X181289013Y-109284545D01*
X181271594Y-109258768D01*
X181247329Y-109233298D01*
X181162435Y-109178571D01*
X181069761Y-109168416D01*
X180981473Y-109203017D01*
X180950770Y-109228770D01*
X180928229Y-109252982D01*
X180912046Y-109278912D01*
X180901168Y-109314708D01*
X180894542Y-109368519D01*
X180891115Y-109448493D01*
X180889834Y-109562779D01*
X180889647Y-109701907D01*
X180889647Y-110113922D01*
X180615725Y-110113922D01*
X180615725Y-108918628D01*
X180752686Y-108918628D01*
X180834916Y-108921879D01*
X180877340Y-108933426D01*
X180889641Y-108955952D01*
X180889647Y-108956620D01*
X180895354Y-108978681D01*
X180920527Y-108976177D01*
X180970578Y-108951937D01*
X181084094Y-108916271D01*
X181213945Y-108912305D01*
X181338760Y-108939199D01*
X181338760Y-108939199D01*
G37*
X181338760Y-108939199D02*
X181400736Y-108968802D01*
X181460759Y-109011561D01*
X181506486Y-109060775D01*
X181539793Y-109123544D01*
X181562555Y-109206971D01*
X181576647Y-109318159D01*
X181583942Y-109464209D01*
X181586318Y-109652223D01*
X181586355Y-109671912D01*
X181586902Y-110113922D01*
X181312980Y-110113922D01*
X181312980Y-109706435D01*
X181312785Y-109555471D01*
X181311436Y-109446056D01*
X181307788Y-109369933D01*
X181300696Y-109318848D01*
X181289013Y-109284545D01*
X181271594Y-109258768D01*
X181247329Y-109233298D01*
X181162435Y-109178571D01*
X181069761Y-109168416D01*
X180981473Y-109203017D01*
X180950770Y-109228770D01*
X180928229Y-109252982D01*
X180912046Y-109278912D01*
X180901168Y-109314708D01*
X180894542Y-109368519D01*
X180891115Y-109448493D01*
X180889834Y-109562779D01*
X180889647Y-109701907D01*
X180889647Y-110113922D01*
X180615725Y-110113922D01*
X180615725Y-108918628D01*
X180752686Y-108918628D01*
X180834916Y-108921879D01*
X180877340Y-108933426D01*
X180889641Y-108955952D01*
X180889647Y-108956620D01*
X180895354Y-108978681D01*
X180920527Y-108976177D01*
X180970578Y-108951937D01*
X181084094Y-108916271D01*
X181213945Y-108912305D01*
X181338760Y-108939199D01*
G36*
X186395637Y-108917472D02*
X186481290Y-108943641D01*
X186536437Y-108976707D01*
X186554401Y-109002855D01*
X186549457Y-109033852D01*
X186517372Y-109082547D01*
X186490243Y-109117035D01*
X186434317Y-109179383D01*
X186392299Y-109205615D01*
X186356480Y-109203903D01*
X186250224Y-109176863D01*
X186172189Y-109178091D01*
X186108820Y-109208735D01*
X186087546Y-109226670D01*
X186019451Y-109289779D01*
X186019451Y-110113922D01*
X185745529Y-110113922D01*
X185745529Y-108918628D01*
X185882490Y-108918628D01*
X185964719Y-108921879D01*
X186007144Y-108933426D01*
X186019445Y-108955952D01*
X186019451Y-108956620D01*
X186025260Y-108980215D01*
X186051531Y-108977138D01*
X186087931Y-108960115D01*
X186163111Y-108928439D01*
X186224158Y-108909381D01*
X186302708Y-108904496D01*
X186395637Y-108917472D01*
X186395637Y-108917472D01*
G37*
X186395637Y-108917472D02*
X186481290Y-108943641D01*
X186536437Y-108976707D01*
X186554401Y-109002855D01*
X186549457Y-109033852D01*
X186517372Y-109082547D01*
X186490243Y-109117035D01*
X186434317Y-109179383D01*
X186392299Y-109205615D01*
X186356480Y-109203903D01*
X186250224Y-109176863D01*
X186172189Y-109178091D01*
X186108820Y-109208735D01*
X186087546Y-109226670D01*
X186019451Y-109289779D01*
X186019451Y-110113922D01*
X185745529Y-110113922D01*
X185745529Y-108918628D01*
X185882490Y-108918628D01*
X185964719Y-108921879D01*
X186007144Y-108933426D01*
X186019445Y-108955952D01*
X186019451Y-108956620D01*
X186025260Y-108980215D01*
X186051531Y-108977138D01*
X186087931Y-108960115D01*
X186163111Y-108928439D01*
X186224158Y-108909381D01*
X186302708Y-108904496D01*
X186395637Y-108917472D01*
G36*
X183578535Y-100663172D02*
X183691117Y-101260363D01*
X184106531Y-101431610D01*
X184521944Y-101602857D01*
X185020302Y-101263978D01*
X185159868Y-101169622D01*
X185286028Y-101085375D01*
X185392895Y-101015083D01*
X185474582Y-100962592D01*
X185525201Y-100931749D01*
X185538986Y-100925098D01*
X185563820Y-100942203D01*
X185616888Y-100989489D01*
X185692240Y-101060917D01*
X185783929Y-101150445D01*
X185886007Y-101252034D01*
X185992526Y-101359643D01*
X186097536Y-101467232D01*
X186195091Y-101568760D01*
X186279242Y-101658186D01*
X186344040Y-101729471D01*
X186383538Y-101776573D01*
X186392980Y-101792337D01*
X186379391Y-101821398D01*
X186341293Y-101885066D01*
X186282694Y-101977112D01*
X186207597Y-102091309D01*
X186120009Y-102221429D01*
X186069254Y-102295646D01*
X185976745Y-102431167D01*
X185894540Y-102553461D01*
X185826630Y-102656440D01*
X185777000Y-102734018D01*
X185749640Y-102780106D01*
X185745529Y-102789792D01*
X185754849Y-102817319D01*
X185780254Y-102881473D01*
X185817911Y-102973235D01*
X185863986Y-103083584D01*
X185914646Y-103203500D01*
X185966059Y-103323964D01*
X186014389Y-103435954D01*
X186055806Y-103530452D01*
X186086474Y-103598437D01*
X186102562Y-103630888D01*
X186103511Y-103632165D01*
X186128772Y-103638362D01*
X186196046Y-103652185D01*
X186298360Y-103672277D01*
X186428741Y-103697279D01*
X186580216Y-103725831D01*
X186668594Y-103742296D01*
X186830452Y-103773114D01*
X186976649Y-103802439D01*
X187099787Y-103828666D01*
X187192469Y-103850191D01*
X187247301Y-103865410D01*
X187258323Y-103870238D01*
X187269119Y-103902919D01*
X187277829Y-103976730D01*
X187284460Y-104083037D01*
X187289018Y-104213212D01*
X187291509Y-104358621D01*
X187291938Y-104510635D01*
X187290311Y-104660622D01*
X187286635Y-104799951D01*
X187280915Y-104919990D01*
X187273158Y-105012110D01*
X187263368Y-105067677D01*
X187257496Y-105079245D01*
X187222399Y-105093110D01*
X187148028Y-105112933D01*
X187044223Y-105136384D01*
X186920819Y-105161136D01*
X186877741Y-105169143D01*
X186670047Y-105207186D01*
X186505984Y-105237824D01*
X186380130Y-105262274D01*
X186287065Y-105281754D01*
X186221367Y-105297481D01*
X186177617Y-105310673D01*
X186150392Y-105322549D01*
X186134272Y-105334325D01*
X186132017Y-105336653D01*
X186109503Y-105374145D01*
X186075158Y-105447110D01*
X186032411Y-105546612D01*
X185984692Y-105663718D01*
X185935430Y-105789493D01*
X185888055Y-105915002D01*
X185845995Y-106031310D01*
X185812680Y-106129484D01*
X185791541Y-106200588D01*
X185786005Y-106235687D01*
X185786466Y-106236917D01*
X185805223Y-106265606D01*
X185847776Y-106328730D01*
X185909653Y-106419718D01*
X185986382Y-106532000D01*
X186073491Y-106659005D01*
X186098299Y-106695098D01*
X186186753Y-106825948D01*
X186264588Y-106945336D01*
X186327566Y-107046407D01*
X186371445Y-107122304D01*
X186391985Y-107166172D01*
X186392980Y-107171562D01*
X186375722Y-107199889D01*
X186328036Y-107256006D01*
X186256050Y-107333882D01*
X186165897Y-107427485D01*
X186063705Y-107530786D01*
X185955606Y-107637751D01*
X185847728Y-107742351D01*
X185746204Y-107838554D01*
X185657162Y-107920329D01*
X185586733Y-107981645D01*
X185541047Y-108016471D01*
X185528409Y-108022157D01*
X185498991Y-108008765D01*
X185438761Y-107972644D01*
X185357530Y-107919881D01*
X185295030Y-107877412D01*
X185181785Y-107799485D01*
X185047674Y-107707729D01*
X184913155Y-107616120D01*
X184840833Y-107567091D01*
X184596038Y-107401515D01*
X184390551Y-107512620D01*
X184296936Y-107561293D01*
X184217330Y-107599126D01*
X184163467Y-107620703D01*
X184149757Y-107623706D01*
X184133270Y-107601538D01*
X184100745Y-107538894D01*
X184054609Y-107441554D01*
X183997290Y-107315294D01*
X183931216Y-107165895D01*
X183858815Y-106999133D01*
X183782516Y-106820787D01*
X183704746Y-106636636D01*
X183627934Y-106452457D01*
X183554506Y-106274030D01*
X183486892Y-106107132D01*
X183427520Y-105957542D01*
X183378816Y-105831038D01*
X183343210Y-105733399D01*
X183323130Y-105670402D01*
X183319900Y-105648766D01*
X183345496Y-105621169D01*
X183401539Y-105576370D01*
X183476311Y-105523679D01*
X183482587Y-105519510D01*
X183675845Y-105364814D01*
X183831674Y-105184336D01*
X183948724Y-104983847D01*
X184025645Y-104769119D01*
X184061086Y-104545922D01*
X184053697Y-104320026D01*
X184002127Y-104097204D01*
X183905026Y-103883224D01*
X183876458Y-103836409D01*
X183727868Y-103647363D01*
X183552327Y-103495557D01*
X183355910Y-103381779D01*
X183144693Y-103306820D01*
X182924753Y-103271467D01*
X182702163Y-103276512D01*
X182483001Y-103322744D01*
X182273342Y-103410951D01*
X182079261Y-103541924D01*
X182019226Y-103595082D01*
X181866435Y-103761484D01*
X181755097Y-103936657D01*
X181678723Y-104133011D01*
X181636187Y-104327462D01*
X181625686Y-104546087D01*
X181660701Y-104765797D01*
X181737673Y-104979165D01*
X181853047Y-105178767D01*
X182003266Y-105357174D01*
X182184773Y-105506962D01*
X182208627Y-105522751D01*
X182284201Y-105574457D01*
X182341651Y-105619257D01*
X182369117Y-105647862D01*
X182369517Y-105648766D01*
X182363620Y-105679709D01*
X182340245Y-105749936D01*
X182301821Y-105853670D01*
X182250777Y-105985135D01*
X182189542Y-106138552D01*
X182120544Y-106308146D01*
X182046214Y-106488138D01*
X181968978Y-106672753D01*
X181891268Y-106856213D01*
X181815511Y-107032741D01*
X181744137Y-107196559D01*
X181679574Y-107341892D01*
X181624252Y-107462962D01*
X181580600Y-107553992D01*
X181551046Y-107609205D01*
X181539144Y-107623706D01*
X181502777Y-107612414D01*
X181434730Y-107582130D01*
X181346737Y-107538265D01*
X181298351Y-107512620D01*
X181092863Y-107401515D01*
X180848068Y-107567091D01*
X180723106Y-107651915D01*
X180586295Y-107745261D01*
X180458089Y-107833153D01*
X180393871Y-107877412D01*
X180303551Y-107938063D01*
X180227071Y-107986126D01*
X180174407Y-108015515D01*
X180157302Y-108021727D01*
X180132405Y-108004968D01*
X180077305Y-107958181D01*
X179997343Y-107886225D01*
X179897861Y-107793957D01*
X179784200Y-107686235D01*
X179712315Y-107617071D01*
X179586551Y-107493502D01*
X179477863Y-107382979D01*
X179390645Y-107290230D01*
X179329289Y-107219982D01*
X179298191Y-107176965D01*
X179295208Y-107168235D01*
X179309053Y-107135029D01*
X179347312Y-107067887D01*
X179405742Y-106973608D01*
X179480097Y-106858990D01*
X179566135Y-106730828D01*
X179590603Y-106695098D01*
X179679755Y-106565234D01*
X179759738Y-106448314D01*
X179826080Y-106350907D01*
X179874311Y-106279584D01*
X179899957Y-106240915D01*
X179902435Y-106236917D01*
X179898729Y-106206100D01*
X179879061Y-106138344D01*
X179846860Y-106042584D01*
X179805555Y-105927754D01*
X179758575Y-105802789D01*
X179709349Y-105676624D01*
X179661308Y-105558193D01*
X179617881Y-105456430D01*
X179582496Y-105380271D01*
X179558584Y-105338649D01*
X179556884Y-105336653D01*
X179542262Y-105324758D01*
X179517565Y-105312995D01*
X179477372Y-105300146D01*
X179416263Y-105284994D01*
X179328817Y-105266321D01*
X179209612Y-105242910D01*
X179053227Y-105213542D01*
X178854243Y-105177000D01*
X178811160Y-105169143D01*
X178683471Y-105144472D01*
X178572153Y-105120338D01*
X178487045Y-105099069D01*
X178437983Y-105082993D01*
X178431405Y-105079245D01*
X178420564Y-105046018D01*
X178411753Y-104971766D01*
X178404976Y-104865121D01*
X178400240Y-104734712D01*
X178397550Y-104589172D01*
X178396913Y-104437131D01*
X178398334Y-104287221D01*
X178401820Y-104148073D01*
X178407376Y-104028317D01*
X178415008Y-103936586D01*
X178424722Y-103881511D01*
X178430578Y-103870238D01*
X178463180Y-103858868D01*
X178537418Y-103840369D01*
X178645896Y-103816347D01*
X178781217Y-103788407D01*
X178935985Y-103758153D01*
X179020308Y-103742296D01*
X179180296Y-103712389D01*
X179322967Y-103685295D01*
X179441348Y-103662376D01*
X179528465Y-103644988D01*
X179577345Y-103634492D01*
X179585390Y-103632165D01*
X179598987Y-103605931D01*
X179627729Y-103542740D01*
X179667785Y-103451622D01*
X179715324Y-103341602D01*
X179766515Y-103221710D01*
X179817526Y-103100972D01*
X179864526Y-102988416D01*
X179903684Y-102893071D01*
X179931169Y-102823962D01*
X179943149Y-102790119D01*
X179943372Y-102788640D01*
X179929791Y-102761942D01*
X179891715Y-102700505D01*
X179833147Y-102610434D01*
X179758088Y-102497835D01*
X179670540Y-102368815D01*
X179619647Y-102294706D01*
X179526909Y-102158822D01*
X179444541Y-102035454D01*
X179376561Y-101930842D01*
X179326988Y-101851228D01*
X179299842Y-101802852D01*
X179295921Y-101792007D01*
X179312775Y-101766765D01*
X179359368Y-101712869D01*
X179429749Y-101636358D01*
X179517965Y-101543268D01*
X179618065Y-101439640D01*
X179724098Y-101331509D01*
X179830111Y-101224915D01*
X179930152Y-101125895D01*
X180018270Y-101040487D01*
X180088513Y-100974730D01*
X180134928Y-100934661D01*
X180150456Y-100925098D01*
X180175739Y-100938545D01*
X180236211Y-100976320D01*
X180325992Y-101034580D01*
X180439203Y-101109479D01*
X180569964Y-101197170D01*
X180668600Y-101263978D01*
X181166957Y-101602857D01*
X181582371Y-101431610D01*
X181997784Y-101260363D01*
X182110366Y-100663172D01*
X182222949Y-100065980D01*
X183465952Y-100065980D01*
X183578535Y-100663172D01*
X183578535Y-100663172D01*
G37*
X183578535Y-100663172D02*
X183691117Y-101260363D01*
X184106531Y-101431610D01*
X184521944Y-101602857D01*
X185020302Y-101263978D01*
X185159868Y-101169622D01*
X185286028Y-101085375D01*
X185392895Y-101015083D01*
X185474582Y-100962592D01*
X185525201Y-100931749D01*
X185538986Y-100925098D01*
X185563820Y-100942203D01*
X185616888Y-100989489D01*
X185692240Y-101060917D01*
X185783929Y-101150445D01*
X185886007Y-101252034D01*
X185992526Y-101359643D01*
X186097536Y-101467232D01*
X186195091Y-101568760D01*
X186279242Y-101658186D01*
X186344040Y-101729471D01*
X186383538Y-101776573D01*
X186392980Y-101792337D01*
X186379391Y-101821398D01*
X186341293Y-101885066D01*
X186282694Y-101977112D01*
X186207597Y-102091309D01*
X186120009Y-102221429D01*
X186069254Y-102295646D01*
X185976745Y-102431167D01*
X185894540Y-102553461D01*
X185826630Y-102656440D01*
X185777000Y-102734018D01*
X185749640Y-102780106D01*
X185745529Y-102789792D01*
X185754849Y-102817319D01*
X185780254Y-102881473D01*
X185817911Y-102973235D01*
X185863986Y-103083584D01*
X185914646Y-103203500D01*
X185966059Y-103323964D01*
X186014389Y-103435954D01*
X186055806Y-103530452D01*
X186086474Y-103598437D01*
X186102562Y-103630888D01*
X186103511Y-103632165D01*
X186128772Y-103638362D01*
X186196046Y-103652185D01*
X186298360Y-103672277D01*
X186428741Y-103697279D01*
X186580216Y-103725831D01*
X186668594Y-103742296D01*
X186830452Y-103773114D01*
X186976649Y-103802439D01*
X187099787Y-103828666D01*
X187192469Y-103850191D01*
X187247301Y-103865410D01*
X187258323Y-103870238D01*
X187269119Y-103902919D01*
X187277829Y-103976730D01*
X187284460Y-104083037D01*
X187289018Y-104213212D01*
X187291509Y-104358621D01*
X187291938Y-104510635D01*
X187290311Y-104660622D01*
X187286635Y-104799951D01*
X187280915Y-104919990D01*
X187273158Y-105012110D01*
X187263368Y-105067677D01*
X187257496Y-105079245D01*
X187222399Y-105093110D01*
X187148028Y-105112933D01*
X187044223Y-105136384D01*
X186920819Y-105161136D01*
X186877741Y-105169143D01*
X186670047Y-105207186D01*
X186505984Y-105237824D01*
X186380130Y-105262274D01*
X186287065Y-105281754D01*
X186221367Y-105297481D01*
X186177617Y-105310673D01*
X186150392Y-105322549D01*
X186134272Y-105334325D01*
X186132017Y-105336653D01*
X186109503Y-105374145D01*
X186075158Y-105447110D01*
X186032411Y-105546612D01*
X185984692Y-105663718D01*
X185935430Y-105789493D01*
X185888055Y-105915002D01*
X185845995Y-106031310D01*
X185812680Y-106129484D01*
X185791541Y-106200588D01*
X185786005Y-106235687D01*
X185786466Y-106236917D01*
X185805223Y-106265606D01*
X185847776Y-106328730D01*
X185909653Y-106419718D01*
X185986382Y-106532000D01*
X186073491Y-106659005D01*
X186098299Y-106695098D01*
X186186753Y-106825948D01*
X186264588Y-106945336D01*
X186327566Y-107046407D01*
X186371445Y-107122304D01*
X186391985Y-107166172D01*
X186392980Y-107171562D01*
X186375722Y-107199889D01*
X186328036Y-107256006D01*
X186256050Y-107333882D01*
X186165897Y-107427485D01*
X186063705Y-107530786D01*
X185955606Y-107637751D01*
X185847728Y-107742351D01*
X185746204Y-107838554D01*
X185657162Y-107920329D01*
X185586733Y-107981645D01*
X185541047Y-108016471D01*
X185528409Y-108022157D01*
X185498991Y-108008765D01*
X185438761Y-107972644D01*
X185357530Y-107919881D01*
X185295030Y-107877412D01*
X185181785Y-107799485D01*
X185047674Y-107707729D01*
X184913155Y-107616120D01*
X184840833Y-107567091D01*
X184596038Y-107401515D01*
X184390551Y-107512620D01*
X184296936Y-107561293D01*
X184217330Y-107599126D01*
X184163467Y-107620703D01*
X184149757Y-107623706D01*
X184133270Y-107601538D01*
X184100745Y-107538894D01*
X184054609Y-107441554D01*
X183997290Y-107315294D01*
X183931216Y-107165895D01*
X183858815Y-106999133D01*
X183782516Y-106820787D01*
X183704746Y-106636636D01*
X183627934Y-106452457D01*
X183554506Y-106274030D01*
X183486892Y-106107132D01*
X183427520Y-105957542D01*
X183378816Y-105831038D01*
X183343210Y-105733399D01*
X183323130Y-105670402D01*
X183319900Y-105648766D01*
X183345496Y-105621169D01*
X183401539Y-105576370D01*
X183476311Y-105523679D01*
X183482587Y-105519510D01*
X183675845Y-105364814D01*
X183831674Y-105184336D01*
X183948724Y-104983847D01*
X184025645Y-104769119D01*
X184061086Y-104545922D01*
X184053697Y-104320026D01*
X184002127Y-104097204D01*
X183905026Y-103883224D01*
X183876458Y-103836409D01*
X183727868Y-103647363D01*
X183552327Y-103495557D01*
X183355910Y-103381779D01*
X183144693Y-103306820D01*
X182924753Y-103271467D01*
X182702163Y-103276512D01*
X182483001Y-103322744D01*
X182273342Y-103410951D01*
X182079261Y-103541924D01*
X182019226Y-103595082D01*
X181866435Y-103761484D01*
X181755097Y-103936657D01*
X181678723Y-104133011D01*
X181636187Y-104327462D01*
X181625686Y-104546087D01*
X181660701Y-104765797D01*
X181737673Y-104979165D01*
X181853047Y-105178767D01*
X182003266Y-105357174D01*
X182184773Y-105506962D01*
X182208627Y-105522751D01*
X182284201Y-105574457D01*
X182341651Y-105619257D01*
X182369117Y-105647862D01*
X182369517Y-105648766D01*
X182363620Y-105679709D01*
X182340245Y-105749936D01*
X182301821Y-105853670D01*
X182250777Y-105985135D01*
X182189542Y-106138552D01*
X182120544Y-106308146D01*
X182046214Y-106488138D01*
X181968978Y-106672753D01*
X181891268Y-106856213D01*
X181815511Y-107032741D01*
X181744137Y-107196559D01*
X181679574Y-107341892D01*
X181624252Y-107462962D01*
X181580600Y-107553992D01*
X181551046Y-107609205D01*
X181539144Y-107623706D01*
X181502777Y-107612414D01*
X181434730Y-107582130D01*
X181346737Y-107538265D01*
X181298351Y-107512620D01*
X181092863Y-107401515D01*
X180848068Y-107567091D01*
X180723106Y-107651915D01*
X180586295Y-107745261D01*
X180458089Y-107833153D01*
X180393871Y-107877412D01*
X180303551Y-107938063D01*
X180227071Y-107986126D01*
X180174407Y-108015515D01*
X180157302Y-108021727D01*
X180132405Y-108004968D01*
X180077305Y-107958181D01*
X179997343Y-107886225D01*
X179897861Y-107793957D01*
X179784200Y-107686235D01*
X179712315Y-107617071D01*
X179586551Y-107493502D01*
X179477863Y-107382979D01*
X179390645Y-107290230D01*
X179329289Y-107219982D01*
X179298191Y-107176965D01*
X179295208Y-107168235D01*
X179309053Y-107135029D01*
X179347312Y-107067887D01*
X179405742Y-106973608D01*
X179480097Y-106858990D01*
X179566135Y-106730828D01*
X179590603Y-106695098D01*
X179679755Y-106565234D01*
X179759738Y-106448314D01*
X179826080Y-106350907D01*
X179874311Y-106279584D01*
X179899957Y-106240915D01*
X179902435Y-106236917D01*
X179898729Y-106206100D01*
X179879061Y-106138344D01*
X179846860Y-106042584D01*
X179805555Y-105927754D01*
X179758575Y-105802789D01*
X179709349Y-105676624D01*
X179661308Y-105558193D01*
X179617881Y-105456430D01*
X179582496Y-105380271D01*
X179558584Y-105338649D01*
X179556884Y-105336653D01*
X179542262Y-105324758D01*
X179517565Y-105312995D01*
X179477372Y-105300146D01*
X179416263Y-105284994D01*
X179328817Y-105266321D01*
X179209612Y-105242910D01*
X179053227Y-105213542D01*
X178854243Y-105177000D01*
X178811160Y-105169143D01*
X178683471Y-105144472D01*
X178572153Y-105120338D01*
X178487045Y-105099069D01*
X178437983Y-105082993D01*
X178431405Y-105079245D01*
X178420564Y-105046018D01*
X178411753Y-104971766D01*
X178404976Y-104865121D01*
X178400240Y-104734712D01*
X178397550Y-104589172D01*
X178396913Y-104437131D01*
X178398334Y-104287221D01*
X178401820Y-104148073D01*
X178407376Y-104028317D01*
X178415008Y-103936586D01*
X178424722Y-103881511D01*
X178430578Y-103870238D01*
X178463180Y-103858868D01*
X178537418Y-103840369D01*
X178645896Y-103816347D01*
X178781217Y-103788407D01*
X178935985Y-103758153D01*
X179020308Y-103742296D01*
X179180296Y-103712389D01*
X179322967Y-103685295D01*
X179441348Y-103662376D01*
X179528465Y-103644988D01*
X179577345Y-103634492D01*
X179585390Y-103632165D01*
X179598987Y-103605931D01*
X179627729Y-103542740D01*
X179667785Y-103451622D01*
X179715324Y-103341602D01*
X179766515Y-103221710D01*
X179817526Y-103100972D01*
X179864526Y-102988416D01*
X179903684Y-102893071D01*
X179931169Y-102823962D01*
X179943149Y-102790119D01*
X179943372Y-102788640D01*
X179929791Y-102761942D01*
X179891715Y-102700505D01*
X179833147Y-102610434D01*
X179758088Y-102497835D01*
X179670540Y-102368815D01*
X179619647Y-102294706D01*
X179526909Y-102158822D01*
X179444541Y-102035454D01*
X179376561Y-101930842D01*
X179326988Y-101851228D01*
X179299842Y-101802852D01*
X179295921Y-101792007D01*
X179312775Y-101766765D01*
X179359368Y-101712869D01*
X179429749Y-101636358D01*
X179517965Y-101543268D01*
X179618065Y-101439640D01*
X179724098Y-101331509D01*
X179830111Y-101224915D01*
X179930152Y-101125895D01*
X180018270Y-101040487D01*
X180088513Y-100974730D01*
X180134928Y-100934661D01*
X180150456Y-100925098D01*
X180175739Y-100938545D01*
X180236211Y-100976320D01*
X180325992Y-101034580D01*
X180439203Y-101109479D01*
X180569964Y-101197170D01*
X180668600Y-101263978D01*
X181166957Y-101602857D01*
X181582371Y-101431610D01*
X181997784Y-101260363D01*
X182110366Y-100663172D01*
X182222949Y-100065980D01*
X183465952Y-100065980D01*
X183578535Y-100663172D01*
D12*
X138993143Y-71668476D02*
X139040762Y-71716095D01*
X139088381Y-71858952D01*
X139088381Y-71954190D01*
X139040762Y-72097048D01*
X138945524Y-72192286D01*
X138850286Y-72239905D01*
X138659810Y-72287524D01*
X138516952Y-72287524D01*
X138326476Y-72239905D01*
X138231238Y-72192286D01*
X138136000Y-72097048D01*
X138088381Y-71954190D01*
X138088381Y-71858952D01*
X138136000Y-71716095D01*
X138183619Y-71668476D01*
X139088381Y-71239905D02*
X138088381Y-71239905D01*
X139088381Y-70668476D01*
X138088381Y-70668476D01*
X138088381Y-70287524D02*
X138088381Y-69620857D01*
X139088381Y-70049429D01*
X191825143Y-72652666D02*
X191872762Y-72700285D01*
X191920381Y-72843142D01*
X191920381Y-72938380D01*
X191872762Y-73081238D01*
X191777524Y-73176476D01*
X191682286Y-73224095D01*
X191491810Y-73271714D01*
X191348952Y-73271714D01*
X191158476Y-73224095D01*
X191063238Y-73176476D01*
X190968000Y-73081238D01*
X190920381Y-72938380D01*
X190920381Y-72843142D01*
X190968000Y-72700285D01*
X191015619Y-72652666D01*
X191920381Y-72224095D02*
X190920381Y-72224095D01*
X191920381Y-71652666D01*
X190920381Y-71652666D01*
X191920381Y-70652666D02*
X191920381Y-71224095D01*
X191920381Y-70938381D02*
X190920381Y-70938381D01*
X191063238Y-71033619D01*
X191158476Y-71128857D01*
X191206095Y-71224095D01*
X190920381Y-70033619D02*
X190920381Y-69938380D01*
X190968000Y-69843142D01*
X191015619Y-69795523D01*
X191110857Y-69747904D01*
X191301333Y-69700285D01*
X191539429Y-69700285D01*
X191729905Y-69747904D01*
X191825143Y-69795523D01*
X191872762Y-69843142D01*
X191920381Y-69938380D01*
X191920381Y-70033619D01*
X191872762Y-70128857D01*
X191825143Y-70176476D01*
X191729905Y-70224095D01*
X191539429Y-70271714D01*
X191301333Y-70271714D01*
X191110857Y-70224095D01*
X191015619Y-70176476D01*
X190968000Y-70128857D01*
X190920381Y-70033619D01*
X165226667Y-112442381D02*
X165226667Y-113156667D01*
X165179047Y-113299524D01*
X165083809Y-113394762D01*
X164940952Y-113442381D01*
X164845714Y-113442381D01*
X166226667Y-113442381D02*
X165655238Y-113442381D01*
X165940952Y-113442381D02*
X165940952Y-112442381D01*
X165845714Y-112585238D01*
X165750476Y-112680476D01*
X165655238Y-112728095D01*
X158666667Y-84404762D02*
X158809524Y-84452381D01*
X159047620Y-84452381D01*
X159142858Y-84404762D01*
X159190477Y-84357143D01*
X159238096Y-84261905D01*
X159238096Y-84166667D01*
X159190477Y-84071429D01*
X159142858Y-84023810D01*
X159047620Y-83976190D01*
X158857143Y-83928571D01*
X158761905Y-83880952D01*
X158714286Y-83833333D01*
X158666667Y-83738095D01*
X158666667Y-83642857D01*
X158714286Y-83547619D01*
X158761905Y-83500000D01*
X158857143Y-83452381D01*
X159095239Y-83452381D01*
X159238096Y-83500000D01*
X159571429Y-83452381D02*
X159809524Y-84452381D01*
X160000001Y-83738095D01*
X160190477Y-84452381D01*
X160428572Y-83452381D01*
X161333334Y-84452381D02*
X160761905Y-84452381D01*
X161047619Y-84452381D02*
X161047619Y-83452381D01*
X160952381Y-83595238D01*
X160857143Y-83690476D01*
X160761905Y-83738095D01*
X168666667Y-84404762D02*
X168809524Y-84452381D01*
X169047620Y-84452381D01*
X169142858Y-84404762D01*
X169190477Y-84357143D01*
X169238096Y-84261905D01*
X169238096Y-84166667D01*
X169190477Y-84071429D01*
X169142858Y-84023810D01*
X169047620Y-83976190D01*
X168857143Y-83928571D01*
X168761905Y-83880952D01*
X168714286Y-83833333D01*
X168666667Y-83738095D01*
X168666667Y-83642857D01*
X168714286Y-83547619D01*
X168761905Y-83500000D01*
X168857143Y-83452381D01*
X169095239Y-83452381D01*
X169238096Y-83500000D01*
X169571429Y-83452381D02*
X169809524Y-84452381D01*
X170000001Y-83738095D01*
X170190477Y-84452381D01*
X170428572Y-83452381D01*
X170761905Y-83547619D02*
X170809524Y-83500000D01*
X170904762Y-83452381D01*
X171142858Y-83452381D01*
X171238096Y-83500000D01*
X171285715Y-83547619D01*
X171333334Y-83642857D01*
X171333334Y-83738095D01*
X171285715Y-83880952D01*
X170714286Y-84452381D01*
X171333334Y-84452381D01*
M02*
