M48
;DRILL file {KiCad 4.0.7} date Tue Mar 20 00:28:45 2018
;FORMAT={-:-/ absolute / inch / decimal}
FMAT,2
INCH,TZ
T1C0.016
T2C0.035
T3C0.040
%
G90
G05
M72
T1
X5.4381Y-3.7044
X5.4381Y-3.8044
X5.5981Y-4.6744
X5.5981Y-5.0244
X5.6081Y-4.4144
X5.6781Y-4.3544
X5.7181Y-3.9844
X5.8381Y-3.9044
X5.8981Y-4.2044
X5.9581Y-4.1344
X6.0181Y-4.3044
X6.0781Y-4.0344
X6.1381Y-4.0844
X6.1881Y-4.4644
X6.2481Y-4.4144
X6.3081Y-4.3544
X6.5781Y-3.8644
X6.5781Y-4.4844
X6.5781Y-5.0144
X6.7281Y-3.9444
X6.8981Y-3.9444
X6.9081Y-4.4544
X6.9581Y-4.6944
X6.9581Y-4.9444
X6.9981Y-3.9044
X7.0181Y-4.6944
X7.0181Y-4.8844
X7.1481Y-3.7044
X7.1981Y-3.9044
X7.2981Y-3.6044
X7.4281Y-4.6944
X7.4281Y-5.0144
X7.4681Y-3.5044
X7.4881Y-2.7344
X7.4881Y-3.2044
T2
X6.2181Y-3.4276
X6.2181Y-3.526
X6.2181Y-3.6244
X6.348Y-3.4276
X6.348Y-3.526
X6.348Y-3.6244
X6.6181Y-3.4276
X6.6181Y-3.526
X6.6181Y-3.6244
X6.748Y-3.4276
X6.748Y-3.526
X6.748Y-3.6244
T3
X5.2461Y-2.8047
X5.2461Y-2.9047
X5.2461Y-3.0047
X5.2461Y-3.1047
X5.2461Y-3.2047
X5.2461Y-3.3047
X5.2461Y-3.4047
X5.2461Y-3.5047
X5.2461Y-3.6047
X5.2461Y-3.7047
X5.2461Y-3.8047
X5.2461Y-3.9047
X5.2461Y-4.0047
X5.2461Y-4.1047
X5.2461Y-4.2047
X5.2461Y-4.3047
X5.2461Y-4.4047
X5.2461Y-4.5047
X5.2461Y-4.6047
X5.3461Y-2.8047
X5.3461Y-2.9047
X5.3461Y-3.0047
X5.3461Y-3.1047
X5.3461Y-3.2047
X5.3461Y-3.3047
X5.3461Y-3.4047
X5.3461Y-3.5047
X5.3461Y-3.6047
X5.3461Y-3.7047
X5.3461Y-3.8047
X5.3461Y-3.9047
X5.3461Y-4.0047
X5.3461Y-4.1047
X5.3461Y-4.2047
X5.3461Y-4.3047
X5.3461Y-4.4047
X5.3461Y-4.5047
X5.3461Y-4.6047
X7.6461Y-2.8047
X7.6461Y-2.9047
X7.6461Y-3.0047
X7.6461Y-3.1047
X7.6461Y-3.2047
X7.6461Y-3.3047
X7.6461Y-3.4047
X7.6461Y-3.5047
X7.6461Y-3.6047
X7.6461Y-3.7047
X7.6461Y-3.8047
X7.6461Y-3.9047
X7.6461Y-4.0047
X7.6461Y-4.1047
X7.6461Y-4.2047
X7.6461Y-4.3047
X7.6461Y-4.4047
X7.6461Y-4.5047
X7.6461Y-4.6047
X7.7461Y-2.8047
X7.7461Y-2.9047
X7.7461Y-3.0047
X7.7461Y-3.1047
X7.7461Y-3.2047
X7.7461Y-3.3047
X7.7461Y-3.4047
X7.7461Y-3.5047
X7.7461Y-3.6047
X7.7461Y-3.7047
X7.7461Y-3.8047
X7.7461Y-3.9047
X7.7461Y-4.0047
X7.7461Y-4.1047
X7.7461Y-4.2047
X7.7461Y-4.3047
X7.7461Y-4.4047
X7.7461Y-4.5047
X7.7461Y-4.6047
T0
M30
