M48
;DRILL file {KiCad 5.0.1} date Tue 27 Nov 2018 11:30:31 PM CET
;FORMAT={-:-/ absolute / inch / decimal}
FMAT,2
INCH,TZ
T1C0.0157
T2C0.0354
T3C0.0400
%
G90
G05
M72
T1
X5.4381Y-3.7044
X5.4381Y-3.8044
X5.5512Y-5.0236
X5.5512Y-5.0866
X5.5551Y-4.9016
X5.5551Y-4.9646
X5.5591Y-4.8425
X5.6988Y-4.2618
X5.6988Y-4.3504
X5.748Y-3.9844
X5.8661Y-3.9044
X5.926Y-4.2047
X5.9857Y-4.1344
X6.0472Y-4.3047
X6.1024Y-4.0344
X6.1617Y-4.0844
X6.2126Y-4.8425
X6.2795Y-4.3504
X6.3386Y-4.2618
X6.752Y-3.9469
X6.8661Y-4.8543
X6.9173Y-5.0866
X6.939Y-3.9469
X6.9646Y-4.9646
X6.9981Y-3.9044
X7.122Y-3.7047
X7.1299Y-4.9016
X7.1654Y-5.0236
X7.2244Y-3.9047
X7.2981Y-3.6044
X7.4606Y-3.7598
X7.4681Y-3.5044
X7.4881Y-2.7344
X7.4881Y-3.2044
X7.5039Y-4.8543
T2
X6.6181Y-3.4276
X6.6181Y-3.526
X6.6181Y-3.6244
X6.748Y-3.4276
X6.748Y-3.526
X6.748Y-3.6244
X6.2181Y-3.4276
X6.2181Y-3.526
X6.2181Y-3.6244
X6.348Y-3.4276
X6.348Y-3.526
X6.348Y-3.6244
T3
X5.2461Y-2.8047
X5.2461Y-2.9047
X5.2461Y-3.0047
X5.2461Y-3.1047
X5.2461Y-3.2047
X5.2461Y-3.3047
X5.2461Y-3.4047
X5.2461Y-3.5047
X5.2461Y-3.6047
X5.2461Y-3.7047
X5.2461Y-3.8047
X5.2461Y-3.9047
X5.2461Y-4.0047
X5.2461Y-4.1047
X5.2461Y-4.2047
X5.2461Y-4.3047
X5.2461Y-4.4047
X5.2461Y-4.5047
X5.2461Y-4.6047
X5.3461Y-2.8047
X5.3461Y-2.9047
X5.3461Y-3.0047
X5.3461Y-3.1047
X5.3461Y-3.2047
X5.3461Y-3.3047
X5.3461Y-3.4047
X5.3461Y-3.5047
X5.3461Y-3.6047
X5.3461Y-3.7047
X5.3461Y-3.8047
X5.3461Y-3.9047
X5.3461Y-4.0047
X5.3461Y-4.1047
X5.3461Y-4.2047
X5.3461Y-4.3047
X5.3461Y-4.4047
X5.3461Y-4.5047
X5.3461Y-4.6047
X7.6461Y-2.8047
X7.6461Y-2.9047
X7.6461Y-3.0047
X7.6461Y-3.1047
X7.6461Y-3.2047
X7.6461Y-3.3047
X7.6461Y-3.4047
X7.6461Y-3.5047
X7.6461Y-3.6047
X7.6461Y-3.7047
X7.6461Y-3.8047
X7.6461Y-3.9047
X7.6461Y-4.0047
X7.6461Y-4.1047
X7.6461Y-4.2047
X7.6461Y-4.3047
X7.6461Y-4.4047
X7.7461Y-2.8047
X7.7461Y-2.9047
X7.7461Y-3.0047
X7.7461Y-3.1047
X7.7461Y-3.2047
X7.7461Y-3.3047
X7.7461Y-3.4047
X7.7461Y-3.5047
X7.7461Y-3.6047
X7.7461Y-3.7047
X7.7461Y-3.8047
X7.7461Y-3.9047
X7.7461Y-4.0047
X7.7461Y-4.1047
X7.7461Y-4.2047
X7.7461Y-4.3047
X7.7461Y-4.4047
T0
M30
