G04 #@! TF.GenerationSoftware,KiCad,Pcbnew,5.0.1*
G04 #@! TF.CreationDate,2018-11-27T23:31:16+01:00*
G04 #@! TF.ProjectId,STM_Morpho,53544D5F4D6F7270686F2E6B69636164,rev?*
G04 #@! TF.SameCoordinates,Original*
G04 #@! TF.FileFunction,Legend,Top*
G04 #@! TF.FilePolarity,Positive*
%FSLAX46Y46*%
G04 Gerber Fmt 4.6, Leading zero omitted, Abs format (unit mm)*
G04 Created by KiCad (PCBNEW 5.0.1) date Tue 27 Nov 2018 11:31:16 PM CET*
%MOMM*%
%LPD*%
G01*
G04 APERTURE LIST*
%ADD10C,0.300000*%
%ADD11C,0.150000*%
%ADD12C,0.120000*%
%ADD13C,0.010000*%
G04 APERTURE END LIST*
D10*
X148659142Y-74536000D02*
X148516285Y-74464571D01*
X148302000Y-74464571D01*
X148087714Y-74536000D01*
X147944857Y-74678857D01*
X147873428Y-74821714D01*
X147802000Y-75107428D01*
X147802000Y-75321714D01*
X147873428Y-75607428D01*
X147944857Y-75750285D01*
X148087714Y-75893142D01*
X148302000Y-75964571D01*
X148444857Y-75964571D01*
X148659142Y-75893142D01*
X148730571Y-75821714D01*
X148730571Y-75321714D01*
X148444857Y-75321714D01*
X150016285Y-75964571D02*
X150016285Y-75178857D01*
X149944857Y-75036000D01*
X149802000Y-74964571D01*
X149516285Y-74964571D01*
X149373428Y-75036000D01*
X150016285Y-75893142D02*
X149873428Y-75964571D01*
X149516285Y-75964571D01*
X149373428Y-75893142D01*
X149302000Y-75750285D01*
X149302000Y-75607428D01*
X149373428Y-75464571D01*
X149516285Y-75393142D01*
X149873428Y-75393142D01*
X150016285Y-75321714D01*
X150730571Y-75964571D02*
X150730571Y-74964571D01*
X150730571Y-75107428D02*
X150802000Y-75036000D01*
X150944857Y-74964571D01*
X151159142Y-74964571D01*
X151302000Y-75036000D01*
X151373428Y-75178857D01*
X151373428Y-75964571D01*
X151373428Y-75178857D02*
X151444857Y-75036000D01*
X151587714Y-74964571D01*
X151802000Y-74964571D01*
X151944857Y-75036000D01*
X152016285Y-75178857D01*
X152016285Y-75964571D01*
X153302000Y-75893142D02*
X153159142Y-75964571D01*
X152873428Y-75964571D01*
X152730571Y-75893142D01*
X152659142Y-75750285D01*
X152659142Y-75178857D01*
X152730571Y-75036000D01*
X152873428Y-74964571D01*
X153159142Y-74964571D01*
X153302000Y-75036000D01*
X153373428Y-75178857D01*
X153373428Y-75321714D01*
X152659142Y-75464571D01*
X155659142Y-75178857D02*
X155873428Y-75250285D01*
X155944857Y-75321714D01*
X156016285Y-75464571D01*
X156016285Y-75678857D01*
X155944857Y-75821714D01*
X155873428Y-75893142D01*
X155730571Y-75964571D01*
X155159142Y-75964571D01*
X155159142Y-74464571D01*
X155659142Y-74464571D01*
X155802000Y-74536000D01*
X155873428Y-74607428D01*
X155944857Y-74750285D01*
X155944857Y-74893142D01*
X155873428Y-75036000D01*
X155802000Y-75107428D01*
X155659142Y-75178857D01*
X155159142Y-75178857D01*
X156873428Y-75964571D02*
X156730571Y-75893142D01*
X156659142Y-75821714D01*
X156587714Y-75678857D01*
X156587714Y-75250285D01*
X156659142Y-75107428D01*
X156730571Y-75036000D01*
X156873428Y-74964571D01*
X157087714Y-74964571D01*
X157230571Y-75036000D01*
X157302000Y-75107428D01*
X157373428Y-75250285D01*
X157373428Y-75678857D01*
X157302000Y-75821714D01*
X157230571Y-75893142D01*
X157087714Y-75964571D01*
X156873428Y-75964571D01*
X157873428Y-74964571D02*
X158230571Y-75964571D01*
X158587714Y-74964571D02*
X158230571Y-75964571D01*
X158087714Y-76321714D01*
X158016285Y-76393142D01*
X157873428Y-76464571D01*
X161159142Y-75821714D02*
X161087714Y-75893142D01*
X160873428Y-75964571D01*
X160730571Y-75964571D01*
X160516285Y-75893142D01*
X160373428Y-75750285D01*
X160302000Y-75607428D01*
X160230571Y-75321714D01*
X160230571Y-75107428D01*
X160302000Y-74821714D01*
X160373428Y-74678857D01*
X160516285Y-74536000D01*
X160730571Y-74464571D01*
X160873428Y-74464571D01*
X161087714Y-74536000D01*
X161159142Y-74607428D01*
X162444857Y-75964571D02*
X162444857Y-75178857D01*
X162373428Y-75036000D01*
X162230571Y-74964571D01*
X161944857Y-74964571D01*
X161802000Y-75036000D01*
X162444857Y-75893142D02*
X162302000Y-75964571D01*
X161944857Y-75964571D01*
X161802000Y-75893142D01*
X161730571Y-75750285D01*
X161730571Y-75607428D01*
X161802000Y-75464571D01*
X161944857Y-75393142D01*
X162302000Y-75393142D01*
X162444857Y-75321714D01*
X163159142Y-75964571D02*
X163159142Y-74964571D01*
X163159142Y-75250285D02*
X163230571Y-75107428D01*
X163302000Y-75036000D01*
X163444857Y-74964571D01*
X163587714Y-74964571D01*
X163873428Y-74964571D02*
X164444857Y-74964571D01*
X164087714Y-74464571D02*
X164087714Y-75750285D01*
X164159142Y-75893142D01*
X164302000Y-75964571D01*
X164444857Y-75964571D01*
X166087714Y-75964571D02*
X166087714Y-74464571D01*
X166944857Y-75964571D01*
X166944857Y-74464571D01*
X167659142Y-74464571D02*
X167659142Y-75678857D01*
X167730571Y-75821714D01*
X167802000Y-75893142D01*
X167944857Y-75964571D01*
X168230571Y-75964571D01*
X168373428Y-75893142D01*
X168444857Y-75821714D01*
X168516285Y-75678857D01*
X168516285Y-74464571D01*
X170087714Y-75821714D02*
X170016285Y-75893142D01*
X169802000Y-75964571D01*
X169659142Y-75964571D01*
X169444857Y-75893142D01*
X169302000Y-75750285D01*
X169230571Y-75607428D01*
X169159142Y-75321714D01*
X169159142Y-75107428D01*
X169230571Y-74821714D01*
X169302000Y-74678857D01*
X169444857Y-74536000D01*
X169659142Y-74464571D01*
X169802000Y-74464571D01*
X170016285Y-74536000D01*
X170087714Y-74607428D01*
X171444857Y-75964571D02*
X170730571Y-75964571D01*
X170730571Y-74464571D01*
X171944857Y-75178857D02*
X172444857Y-75178857D01*
X172659142Y-75964571D02*
X171944857Y-75964571D01*
X171944857Y-74464571D01*
X172659142Y-74464571D01*
X173587714Y-74464571D02*
X173873428Y-74464571D01*
X174016285Y-74536000D01*
X174159142Y-74678857D01*
X174230571Y-74964571D01*
X174230571Y-75464571D01*
X174159142Y-75750285D01*
X174016285Y-75893142D01*
X173873428Y-75964571D01*
X173587714Y-75964571D01*
X173444857Y-75893142D01*
X173302000Y-75750285D01*
X173230571Y-75464571D01*
X173230571Y-74964571D01*
X173302000Y-74678857D01*
X173444857Y-74536000D01*
X173587714Y-74464571D01*
X175944857Y-75893142D02*
X176159142Y-75964571D01*
X176516285Y-75964571D01*
X176659142Y-75893142D01*
X176730571Y-75821714D01*
X176802000Y-75678857D01*
X176802000Y-75536000D01*
X176730571Y-75393142D01*
X176659142Y-75321714D01*
X176516285Y-75250285D01*
X176230571Y-75178857D01*
X176087714Y-75107428D01*
X176016285Y-75036000D01*
X175944857Y-74893142D01*
X175944857Y-74750285D01*
X176016285Y-74607428D01*
X176087714Y-74536000D01*
X176230571Y-74464571D01*
X176587714Y-74464571D01*
X176802000Y-74536000D01*
X177444857Y-75964571D02*
X177444857Y-74464571D01*
X178087714Y-75964571D02*
X178087714Y-75178857D01*
X178016285Y-75036000D01*
X177873428Y-74964571D01*
X177659142Y-74964571D01*
X177516285Y-75036000D01*
X177444857Y-75107428D01*
X178802000Y-75964571D02*
X178802000Y-74964571D01*
X178802000Y-74464571D02*
X178730571Y-74536000D01*
X178802000Y-74607428D01*
X178873428Y-74536000D01*
X178802000Y-74464571D01*
X178802000Y-74607428D01*
X180087714Y-75893142D02*
X179944857Y-75964571D01*
X179659142Y-75964571D01*
X179516285Y-75893142D01*
X179444857Y-75750285D01*
X179444857Y-75178857D01*
X179516285Y-75036000D01*
X179659142Y-74964571D01*
X179944857Y-74964571D01*
X180087714Y-75036000D01*
X180159142Y-75178857D01*
X180159142Y-75321714D01*
X179444857Y-75464571D01*
X181016285Y-75964571D02*
X180873428Y-75893142D01*
X180802000Y-75750285D01*
X180802000Y-74464571D01*
X182230571Y-75964571D02*
X182230571Y-74464571D01*
X182230571Y-75893142D02*
X182087714Y-75964571D01*
X181802000Y-75964571D01*
X181659142Y-75893142D01*
X181587714Y-75821714D01*
X181516285Y-75678857D01*
X181516285Y-75250285D01*
X181587714Y-75107428D01*
X181659142Y-75036000D01*
X181802000Y-74964571D01*
X182087714Y-74964571D01*
X182230571Y-75036000D01*
X160444857Y-78514571D02*
X160444857Y-77014571D01*
X160444857Y-77586000D02*
X160587714Y-77514571D01*
X160873428Y-77514571D01*
X161016285Y-77586000D01*
X161087714Y-77657428D01*
X161159142Y-77800285D01*
X161159142Y-78228857D01*
X161087714Y-78371714D01*
X161016285Y-78443142D01*
X160873428Y-78514571D01*
X160587714Y-78514571D01*
X160444857Y-78443142D01*
X161659142Y-77514571D02*
X162016285Y-78514571D01*
X162373428Y-77514571D02*
X162016285Y-78514571D01*
X161873428Y-78871714D01*
X161802000Y-78943142D01*
X161659142Y-79014571D01*
X164087714Y-78514571D02*
X164087714Y-77014571D01*
X164444857Y-77014571D01*
X164659142Y-77086000D01*
X164802000Y-77228857D01*
X164873428Y-77371714D01*
X164944857Y-77657428D01*
X164944857Y-77871714D01*
X164873428Y-78157428D01*
X164802000Y-78300285D01*
X164659142Y-78443142D01*
X164444857Y-78514571D01*
X164087714Y-78514571D01*
X165587714Y-78514571D02*
X165587714Y-77014571D01*
X166230571Y-78514571D02*
X166230571Y-77728857D01*
X166159142Y-77586000D01*
X166016285Y-77514571D01*
X165802000Y-77514571D01*
X165659142Y-77586000D01*
X165587714Y-77657428D01*
X167159142Y-78514571D02*
X167016285Y-78443142D01*
X166944857Y-78371714D01*
X166873428Y-78228857D01*
X166873428Y-77800285D01*
X166944857Y-77657428D01*
X167016285Y-77586000D01*
X167159142Y-77514571D01*
X167373428Y-77514571D01*
X167516285Y-77586000D01*
X167587714Y-77657428D01*
X167659142Y-77800285D01*
X167659142Y-78228857D01*
X167587714Y-78371714D01*
X167516285Y-78443142D01*
X167373428Y-78514571D01*
X167159142Y-78514571D01*
X168516285Y-78514571D02*
X168373428Y-78443142D01*
X168302000Y-78300285D01*
X168302000Y-77014571D01*
X169659142Y-78443142D02*
X169516285Y-78514571D01*
X169230571Y-78514571D01*
X169087714Y-78443142D01*
X169016285Y-78300285D01*
X169016285Y-77728857D01*
X169087714Y-77586000D01*
X169230571Y-77514571D01*
X169516285Y-77514571D01*
X169659142Y-77586000D01*
X169730571Y-77728857D01*
X169730571Y-77871714D01*
X169016285Y-78014571D01*
X161944857Y-81064571D02*
X161444857Y-80350285D01*
X161087714Y-81064571D02*
X161087714Y-79564571D01*
X161659142Y-79564571D01*
X161802000Y-79636000D01*
X161873428Y-79707428D01*
X161944857Y-79850285D01*
X161944857Y-80064571D01*
X161873428Y-80207428D01*
X161802000Y-80278857D01*
X161659142Y-80350285D01*
X161087714Y-80350285D01*
X163159142Y-80993142D02*
X163016285Y-81064571D01*
X162730571Y-81064571D01*
X162587714Y-80993142D01*
X162516285Y-80850285D01*
X162516285Y-80278857D01*
X162587714Y-80136000D01*
X162730571Y-80064571D01*
X163016285Y-80064571D01*
X163159142Y-80136000D01*
X163230571Y-80278857D01*
X163230571Y-80421714D01*
X162516285Y-80564571D01*
X163730571Y-80064571D02*
X164087714Y-81064571D01*
X164444857Y-80064571D01*
X165016285Y-80921714D02*
X165087714Y-80993142D01*
X165016285Y-81064571D01*
X164944857Y-80993142D01*
X165016285Y-80921714D01*
X165016285Y-81064571D01*
X167159142Y-79564571D02*
X167302000Y-79564571D01*
X167444857Y-79636000D01*
X167516285Y-79707428D01*
X167587714Y-79850285D01*
X167659142Y-80136000D01*
X167659142Y-80493142D01*
X167587714Y-80778857D01*
X167516285Y-80921714D01*
X167444857Y-80993142D01*
X167302000Y-81064571D01*
X167159142Y-81064571D01*
X167016285Y-80993142D01*
X166944857Y-80921714D01*
X166873428Y-80778857D01*
X166802000Y-80493142D01*
X166802000Y-80136000D01*
X166873428Y-79850285D01*
X166944857Y-79707428D01*
X167016285Y-79636000D01*
X167159142Y-79564571D01*
X168230571Y-79707428D02*
X168302000Y-79636000D01*
X168444857Y-79564571D01*
X168802000Y-79564571D01*
X168944857Y-79636000D01*
X169016285Y-79707428D01*
X169087714Y-79850285D01*
X169087714Y-79993142D01*
X169016285Y-80207428D01*
X168159142Y-81064571D01*
X169087714Y-81064571D01*
X174525857Y-86148571D02*
X174811571Y-86148571D01*
X174954428Y-86220000D01*
X175097285Y-86362857D01*
X175168714Y-86648571D01*
X175168714Y-87148571D01*
X175097285Y-87434285D01*
X174954428Y-87577142D01*
X174811571Y-87648571D01*
X174525857Y-87648571D01*
X174383000Y-87577142D01*
X174240142Y-87434285D01*
X174168714Y-87148571D01*
X174168714Y-86648571D01*
X174240142Y-86362857D01*
X174383000Y-86220000D01*
X174525857Y-86148571D01*
X176311571Y-86862857D02*
X175811571Y-86862857D01*
X175811571Y-87648571D02*
X175811571Y-86148571D01*
X176525857Y-86148571D01*
X177597285Y-86862857D02*
X177097285Y-86862857D01*
X177097285Y-87648571D02*
X177097285Y-86148571D01*
X177811571Y-86148571D01*
X174525857Y-91248571D02*
X174811571Y-91248571D01*
X174954428Y-91320000D01*
X175097285Y-91462857D01*
X175168714Y-91748571D01*
X175168714Y-92248571D01*
X175097285Y-92534285D01*
X174954428Y-92677142D01*
X174811571Y-92748571D01*
X174525857Y-92748571D01*
X174383000Y-92677142D01*
X174240142Y-92534285D01*
X174168714Y-92248571D01*
X174168714Y-91748571D01*
X174240142Y-91462857D01*
X174383000Y-91320000D01*
X174525857Y-91248571D01*
X175811571Y-92748571D02*
X175811571Y-91248571D01*
X176668714Y-92748571D01*
X176668714Y-91248571D01*
X149927285Y-86402571D02*
X150855857Y-86402571D01*
X150355857Y-86974000D01*
X150570142Y-86974000D01*
X150713000Y-87045428D01*
X150784428Y-87116857D01*
X150855857Y-87259714D01*
X150855857Y-87616857D01*
X150784428Y-87759714D01*
X150713000Y-87831142D01*
X150570142Y-87902571D01*
X150141571Y-87902571D01*
X149998714Y-87831142D01*
X149927285Y-87759714D01*
X151498714Y-87759714D02*
X151570142Y-87831142D01*
X151498714Y-87902571D01*
X151427285Y-87831142D01*
X151498714Y-87759714D01*
X151498714Y-87902571D01*
X152070142Y-86402571D02*
X152998714Y-86402571D01*
X152498714Y-86974000D01*
X152713000Y-86974000D01*
X152855857Y-87045428D01*
X152927285Y-87116857D01*
X152998714Y-87259714D01*
X152998714Y-87616857D01*
X152927285Y-87759714D01*
X152855857Y-87831142D01*
X152713000Y-87902571D01*
X152284428Y-87902571D01*
X152141571Y-87831142D01*
X152070142Y-87759714D01*
X154570142Y-86402571D02*
X155070142Y-87902571D01*
X155570142Y-86402571D01*
X152927285Y-91502571D02*
X152213000Y-91502571D01*
X152141571Y-92216857D01*
X152213000Y-92145428D01*
X152355857Y-92074000D01*
X152713000Y-92074000D01*
X152855857Y-92145428D01*
X152927285Y-92216857D01*
X152998714Y-92359714D01*
X152998714Y-92716857D01*
X152927285Y-92859714D01*
X152855857Y-92931142D01*
X152713000Y-93002571D01*
X152355857Y-93002571D01*
X152213000Y-92931142D01*
X152141571Y-92859714D01*
X154570142Y-91502571D02*
X155070142Y-93002571D01*
X155570142Y-91502571D01*
D11*
G04 #@! TO.C,J1*
X195000000Y-113950000D02*
X195000000Y-115950000D01*
X193000000Y-113950000D02*
X195000000Y-113950000D01*
X139500000Y-113950000D02*
X137500000Y-113950000D01*
X137500000Y-113950000D02*
X137500000Y-115950000D01*
X194750000Y-118700000D02*
X196750000Y-118700000D01*
X135750000Y-118700000D02*
X137750000Y-118700000D01*
G04 #@! TO.C,CN10*
X192660000Y-69690000D02*
X192660000Y-71240000D01*
X195480000Y-72510000D02*
X192940000Y-72510000D01*
X195480000Y-69970000D02*
X195480000Y-72510000D01*
X194210000Y-69690000D02*
X192660000Y-69690000D01*
X198020000Y-69970000D02*
X195480000Y-69970000D01*
X198020000Y-113240000D02*
X192940000Y-113240000D01*
X192960000Y-113240000D02*
X192940000Y-72510000D01*
X198020000Y-69970000D02*
X197960000Y-113240000D01*
G04 #@! TO.C,CN7*
X137060000Y-69970000D02*
X137060000Y-118230000D01*
X131980000Y-118230000D02*
X131980000Y-72510000D01*
X137060000Y-118230000D02*
X131980000Y-118230000D01*
X137060000Y-69970000D02*
X134520000Y-69970000D01*
X133250000Y-69690000D02*
X131700000Y-69690000D01*
X134520000Y-69970000D02*
X134520000Y-72510000D01*
X134520000Y-72510000D02*
X131980000Y-72510000D01*
X131700000Y-69690000D02*
X131700000Y-71240000D01*
D12*
G04 #@! TO.C,SW1*
X157190000Y-94460000D02*
X158390000Y-94460000D01*
X157190000Y-93260000D02*
X157190000Y-94460000D01*
X161690000Y-84960000D02*
X161690000Y-86160000D01*
X157490000Y-84960000D02*
X161690000Y-84960000D01*
X157490000Y-86160000D02*
X157490000Y-84960000D01*
X161690000Y-94160000D02*
X161690000Y-92960000D01*
X157490000Y-94160000D02*
X161690000Y-94160000D01*
X157490000Y-92960000D02*
X157490000Y-94160000D01*
G04 #@! TO.C,SW2*
X167350000Y-94460000D02*
X168550000Y-94460000D01*
X167350000Y-93260000D02*
X167350000Y-94460000D01*
X171850000Y-84960000D02*
X171850000Y-86160000D01*
X167650000Y-84960000D02*
X171850000Y-84960000D01*
X167650000Y-86160000D02*
X167650000Y-84960000D01*
X171850000Y-94160000D02*
X171850000Y-92960000D01*
X167650000Y-94160000D02*
X171850000Y-94160000D01*
X167650000Y-92960000D02*
X167650000Y-94160000D01*
D13*
G04 #@! TO.C,REF\002A\002A\002A*
G36*
X179719909Y-103659560D02*
X179772412Y-103685499D01*
X179837158Y-103730700D01*
X179884347Y-103779991D01*
X179916665Y-103841885D01*
X179936797Y-103924896D01*
X179947430Y-104037538D01*
X179951247Y-104188324D01*
X179951470Y-104253149D01*
X179950818Y-104395221D01*
X179948112Y-104496757D01*
X179942224Y-104567015D01*
X179932027Y-104615256D01*
X179916394Y-104650738D01*
X179900128Y-104674943D01*
X179796295Y-104777929D01*
X179674021Y-104839874D01*
X179542114Y-104858506D01*
X179409384Y-104831549D01*
X179367333Y-104812486D01*
X179266666Y-104760015D01*
X179266666Y-105582259D01*
X179340135Y-105544267D01*
X179436941Y-105514872D01*
X179555928Y-105507342D01*
X179674745Y-105521245D01*
X179764473Y-105552476D01*
X179838899Y-105611954D01*
X179902490Y-105697066D01*
X179907271Y-105705805D01*
X179927437Y-105746966D01*
X179942165Y-105788454D01*
X179952303Y-105838713D01*
X179958699Y-105906184D01*
X179962201Y-105999309D01*
X179963658Y-106126531D01*
X179963921Y-106269701D01*
X179963921Y-106726471D01*
X179690000Y-106726471D01*
X179690000Y-105884231D01*
X179613383Y-105819763D01*
X179533793Y-105768194D01*
X179458422Y-105758818D01*
X179382633Y-105782947D01*
X179342241Y-105806574D01*
X179312179Y-105840227D01*
X179290797Y-105891087D01*
X179276450Y-105966334D01*
X179267490Y-106073146D01*
X179262270Y-106218704D01*
X179260431Y-106315588D01*
X179254215Y-106714020D01*
X179123480Y-106721547D01*
X178992745Y-106729073D01*
X178992745Y-104256582D01*
X179266666Y-104256582D01*
X179273650Y-104394423D01*
X179297182Y-104490107D01*
X179341135Y-104549641D01*
X179409382Y-104579029D01*
X179478333Y-104584902D01*
X179556386Y-104578154D01*
X179608189Y-104551594D01*
X179640583Y-104516499D01*
X179666084Y-104478752D01*
X179681265Y-104436700D01*
X179688019Y-104377779D01*
X179688241Y-104289428D01*
X179685968Y-104215448D01*
X179680749Y-104104000D01*
X179672979Y-104030833D01*
X179659895Y-103984422D01*
X179638732Y-103953244D01*
X179618760Y-103935223D01*
X179535314Y-103895925D01*
X179436551Y-103889579D01*
X179379841Y-103903116D01*
X179323692Y-103951233D01*
X179286499Y-104044833D01*
X179268472Y-104183254D01*
X179266666Y-104256582D01*
X178992745Y-104256582D01*
X178992745Y-103638628D01*
X179129705Y-103638628D01*
X179211935Y-103641879D01*
X179254360Y-103653426D01*
X179266661Y-103675952D01*
X179266666Y-103676620D01*
X179272374Y-103698681D01*
X179297547Y-103696176D01*
X179347598Y-103671935D01*
X179464219Y-103634851D01*
X179595429Y-103630953D01*
X179719909Y-103659560D01*
X179719909Y-103659560D01*
G37*
X179719909Y-103659560D02*
X179772412Y-103685499D01*
X179837158Y-103730700D01*
X179884347Y-103779991D01*
X179916665Y-103841885D01*
X179936797Y-103924896D01*
X179947430Y-104037538D01*
X179951247Y-104188324D01*
X179951470Y-104253149D01*
X179950818Y-104395221D01*
X179948112Y-104496757D01*
X179942224Y-104567015D01*
X179932027Y-104615256D01*
X179916394Y-104650738D01*
X179900128Y-104674943D01*
X179796295Y-104777929D01*
X179674021Y-104839874D01*
X179542114Y-104858506D01*
X179409384Y-104831549D01*
X179367333Y-104812486D01*
X179266666Y-104760015D01*
X179266666Y-105582259D01*
X179340135Y-105544267D01*
X179436941Y-105514872D01*
X179555928Y-105507342D01*
X179674745Y-105521245D01*
X179764473Y-105552476D01*
X179838899Y-105611954D01*
X179902490Y-105697066D01*
X179907271Y-105705805D01*
X179927437Y-105746966D01*
X179942165Y-105788454D01*
X179952303Y-105838713D01*
X179958699Y-105906184D01*
X179962201Y-105999309D01*
X179963658Y-106126531D01*
X179963921Y-106269701D01*
X179963921Y-106726471D01*
X179690000Y-106726471D01*
X179690000Y-105884231D01*
X179613383Y-105819763D01*
X179533793Y-105768194D01*
X179458422Y-105758818D01*
X179382633Y-105782947D01*
X179342241Y-105806574D01*
X179312179Y-105840227D01*
X179290797Y-105891087D01*
X179276450Y-105966334D01*
X179267490Y-106073146D01*
X179262270Y-106218704D01*
X179260431Y-106315588D01*
X179254215Y-106714020D01*
X179123480Y-106721547D01*
X178992745Y-106729073D01*
X178992745Y-104256582D01*
X179266666Y-104256582D01*
X179273650Y-104394423D01*
X179297182Y-104490107D01*
X179341135Y-104549641D01*
X179409382Y-104579029D01*
X179478333Y-104584902D01*
X179556386Y-104578154D01*
X179608189Y-104551594D01*
X179640583Y-104516499D01*
X179666084Y-104478752D01*
X179681265Y-104436700D01*
X179688019Y-104377779D01*
X179688241Y-104289428D01*
X179685968Y-104215448D01*
X179680749Y-104104000D01*
X179672979Y-104030833D01*
X179659895Y-103984422D01*
X179638732Y-103953244D01*
X179618760Y-103935223D01*
X179535314Y-103895925D01*
X179436551Y-103889579D01*
X179379841Y-103903116D01*
X179323692Y-103951233D01*
X179286499Y-104044833D01*
X179268472Y-104183254D01*
X179266666Y-104256582D01*
X178992745Y-104256582D01*
X178992745Y-103638628D01*
X179129705Y-103638628D01*
X179211935Y-103641879D01*
X179254360Y-103653426D01*
X179266661Y-103675952D01*
X179266666Y-103676620D01*
X179272374Y-103698681D01*
X179297547Y-103696176D01*
X179347598Y-103671935D01*
X179464219Y-103634851D01*
X179595429Y-103630953D01*
X179719909Y-103659560D01*
G36*
X180758720Y-105515922D02*
X180875870Y-105547180D01*
X180965051Y-105603837D01*
X181027984Y-105678045D01*
X181047548Y-105709716D01*
X181061992Y-105742891D01*
X181072089Y-105785329D01*
X181078615Y-105844788D01*
X181082342Y-105929029D01*
X181084046Y-106045810D01*
X181084500Y-106202890D01*
X181084509Y-106244565D01*
X181084509Y-106726471D01*
X180964980Y-106726471D01*
X180888739Y-106721131D01*
X180832366Y-106707604D01*
X180818242Y-106699262D01*
X180779630Y-106684864D01*
X180740192Y-106699262D01*
X180675262Y-106717237D01*
X180580945Y-106724472D01*
X180476407Y-106721333D01*
X180380811Y-106708186D01*
X180325000Y-106691318D01*
X180216998Y-106621986D01*
X180149503Y-106525772D01*
X180119159Y-106397844D01*
X180118877Y-106394559D01*
X180121540Y-106337808D01*
X180362353Y-106337808D01*
X180383405Y-106402358D01*
X180417697Y-106438686D01*
X180486532Y-106466162D01*
X180577390Y-106477129D01*
X180670042Y-106471731D01*
X180744256Y-106450110D01*
X180765049Y-106436239D01*
X180801381Y-106372143D01*
X180810588Y-106299278D01*
X180810588Y-106203530D01*
X180672827Y-106203530D01*
X180541953Y-106213605D01*
X180442741Y-106242148D01*
X180381023Y-106286639D01*
X180362353Y-106337808D01*
X180121540Y-106337808D01*
X180125436Y-106254790D01*
X180171534Y-106144282D01*
X180258200Y-106060712D01*
X180270179Y-106053110D01*
X180321655Y-106028357D01*
X180385368Y-106013368D01*
X180474435Y-106006082D01*
X180580245Y-106004407D01*
X180810588Y-106004314D01*
X180810588Y-105907755D01*
X180800817Y-105832836D01*
X180775884Y-105782644D01*
X180772965Y-105779972D01*
X180717481Y-105758015D01*
X180633727Y-105749505D01*
X180541167Y-105753687D01*
X180459270Y-105769809D01*
X180410673Y-105793990D01*
X180384341Y-105813359D01*
X180356535Y-105817057D01*
X180318161Y-105801188D01*
X180260125Y-105761855D01*
X180173331Y-105695164D01*
X180165365Y-105688916D01*
X180169447Y-105665800D01*
X180203501Y-105627352D01*
X180255260Y-105584627D01*
X180312455Y-105548679D01*
X180330425Y-105540191D01*
X180395972Y-105523252D01*
X180492020Y-105511170D01*
X180599329Y-105506323D01*
X180604347Y-105506313D01*
X180758720Y-105515922D01*
X180758720Y-105515922D01*
G37*
X180758720Y-105515922D02*
X180875870Y-105547180D01*
X180965051Y-105603837D01*
X181027984Y-105678045D01*
X181047548Y-105709716D01*
X181061992Y-105742891D01*
X181072089Y-105785329D01*
X181078615Y-105844788D01*
X181082342Y-105929029D01*
X181084046Y-106045810D01*
X181084500Y-106202890D01*
X181084509Y-106244565D01*
X181084509Y-106726471D01*
X180964980Y-106726471D01*
X180888739Y-106721131D01*
X180832366Y-106707604D01*
X180818242Y-106699262D01*
X180779630Y-106684864D01*
X180740192Y-106699262D01*
X180675262Y-106717237D01*
X180580945Y-106724472D01*
X180476407Y-106721333D01*
X180380811Y-106708186D01*
X180325000Y-106691318D01*
X180216998Y-106621986D01*
X180149503Y-106525772D01*
X180119159Y-106397844D01*
X180118877Y-106394559D01*
X180121540Y-106337808D01*
X180362353Y-106337808D01*
X180383405Y-106402358D01*
X180417697Y-106438686D01*
X180486532Y-106466162D01*
X180577390Y-106477129D01*
X180670042Y-106471731D01*
X180744256Y-106450110D01*
X180765049Y-106436239D01*
X180801381Y-106372143D01*
X180810588Y-106299278D01*
X180810588Y-106203530D01*
X180672827Y-106203530D01*
X180541953Y-106213605D01*
X180442741Y-106242148D01*
X180381023Y-106286639D01*
X180362353Y-106337808D01*
X180121540Y-106337808D01*
X180125436Y-106254790D01*
X180171534Y-106144282D01*
X180258200Y-106060712D01*
X180270179Y-106053110D01*
X180321655Y-106028357D01*
X180385368Y-106013368D01*
X180474435Y-106006082D01*
X180580245Y-106004407D01*
X180810588Y-106004314D01*
X180810588Y-105907755D01*
X180800817Y-105832836D01*
X180775884Y-105782644D01*
X180772965Y-105779972D01*
X180717481Y-105758015D01*
X180633727Y-105749505D01*
X180541167Y-105753687D01*
X180459270Y-105769809D01*
X180410673Y-105793990D01*
X180384341Y-105813359D01*
X180356535Y-105817057D01*
X180318161Y-105801188D01*
X180260125Y-105761855D01*
X180173331Y-105695164D01*
X180165365Y-105688916D01*
X180169447Y-105665800D01*
X180203501Y-105627352D01*
X180255260Y-105584627D01*
X180312455Y-105548679D01*
X180330425Y-105540191D01*
X180395972Y-105523252D01*
X180492020Y-105511170D01*
X180599329Y-105506323D01*
X180604347Y-105506313D01*
X180758720Y-105515922D01*
G36*
X181532764Y-105508921D02*
X181570030Y-105520091D01*
X181582043Y-105544633D01*
X181582549Y-105555712D01*
X181584704Y-105586572D01*
X181599551Y-105591417D01*
X181639657Y-105570260D01*
X181663480Y-105555806D01*
X181738638Y-105524850D01*
X181828406Y-105509544D01*
X181922529Y-105508367D01*
X182010754Y-105519799D01*
X182082826Y-105542320D01*
X182128492Y-105574409D01*
X182137498Y-105614545D01*
X182132953Y-105625415D01*
X182099821Y-105670534D01*
X182048445Y-105726026D01*
X182039152Y-105734996D01*
X181990182Y-105776245D01*
X181947931Y-105789572D01*
X181888841Y-105780271D01*
X181865169Y-105774090D01*
X181791504Y-105759246D01*
X181739710Y-105765921D01*
X181695969Y-105789465D01*
X181655902Y-105821061D01*
X181626392Y-105860798D01*
X181605884Y-105916252D01*
X181592824Y-105995003D01*
X181585656Y-106104629D01*
X181582824Y-106252706D01*
X181582549Y-106342111D01*
X181582549Y-106726471D01*
X181333529Y-106726471D01*
X181333529Y-105506275D01*
X181458039Y-105506275D01*
X181532764Y-105508921D01*
X181532764Y-105508921D01*
G37*
X181532764Y-105508921D02*
X181570030Y-105520091D01*
X181582043Y-105544633D01*
X181582549Y-105555712D01*
X181584704Y-105586572D01*
X181599551Y-105591417D01*
X181639657Y-105570260D01*
X181663480Y-105555806D01*
X181738638Y-105524850D01*
X181828406Y-105509544D01*
X181922529Y-105508367D01*
X182010754Y-105519799D01*
X182082826Y-105542320D01*
X182128492Y-105574409D01*
X182137498Y-105614545D01*
X182132953Y-105625415D01*
X182099821Y-105670534D01*
X182048445Y-105726026D01*
X182039152Y-105734996D01*
X181990182Y-105776245D01*
X181947931Y-105789572D01*
X181888841Y-105780271D01*
X181865169Y-105774090D01*
X181791504Y-105759246D01*
X181739710Y-105765921D01*
X181695969Y-105789465D01*
X181655902Y-105821061D01*
X181626392Y-105860798D01*
X181605884Y-105916252D01*
X181592824Y-105995003D01*
X181585656Y-106104629D01*
X181582824Y-106252706D01*
X181582549Y-106342111D01*
X181582549Y-106726471D01*
X181333529Y-106726471D01*
X181333529Y-105506275D01*
X181458039Y-105506275D01*
X181532764Y-105508921D01*
G36*
X183101568Y-106726471D02*
X182964607Y-106726471D01*
X182885111Y-106724140D01*
X182843708Y-106714488D01*
X182828801Y-106693525D01*
X182827647Y-106679351D01*
X182825133Y-106650927D01*
X182809280Y-106645475D01*
X182767621Y-106662998D01*
X182735224Y-106679351D01*
X182610849Y-106718103D01*
X182475646Y-106720346D01*
X182365726Y-106691444D01*
X182263366Y-106621619D01*
X182185340Y-106518555D01*
X182142614Y-106396989D01*
X182141526Y-106390192D01*
X182135178Y-106316032D01*
X182132021Y-106209570D01*
X182132275Y-106129052D01*
X182404289Y-106129052D01*
X182410590Y-106236070D01*
X182424925Y-106324278D01*
X182444331Y-106374090D01*
X182517746Y-106442162D01*
X182604914Y-106466564D01*
X182694804Y-106446831D01*
X182771617Y-106387968D01*
X182800708Y-106348379D01*
X182817717Y-106301138D01*
X182825684Y-106232181D01*
X182827647Y-106128607D01*
X182824134Y-106026039D01*
X182814857Y-105935921D01*
X182801706Y-105875613D01*
X182799514Y-105870208D01*
X182746478Y-105805940D01*
X182669067Y-105770656D01*
X182582454Y-105764959D01*
X182501807Y-105789453D01*
X182442297Y-105844742D01*
X182436124Y-105855743D01*
X182416801Y-105922827D01*
X182406274Y-106019284D01*
X182404289Y-106129052D01*
X182132275Y-106129052D01*
X182132404Y-106088225D01*
X182134194Y-106022918D01*
X182146373Y-105861355D01*
X182171685Y-105740053D01*
X182213793Y-105650379D01*
X182276359Y-105583699D01*
X182337100Y-105544557D01*
X182421964Y-105517040D01*
X182527515Y-105507603D01*
X182635598Y-105515290D01*
X182728058Y-105539146D01*
X182776910Y-105567685D01*
X182827647Y-105613601D01*
X182827647Y-105033137D01*
X183101568Y-105033137D01*
X183101568Y-106726471D01*
X183101568Y-106726471D01*
G37*
X183101568Y-106726471D02*
X182964607Y-106726471D01*
X182885111Y-106724140D01*
X182843708Y-106714488D01*
X182828801Y-106693525D01*
X182827647Y-106679351D01*
X182825133Y-106650927D01*
X182809280Y-106645475D01*
X182767621Y-106662998D01*
X182735224Y-106679351D01*
X182610849Y-106718103D01*
X182475646Y-106720346D01*
X182365726Y-106691444D01*
X182263366Y-106621619D01*
X182185340Y-106518555D01*
X182142614Y-106396989D01*
X182141526Y-106390192D01*
X182135178Y-106316032D01*
X182132021Y-106209570D01*
X182132275Y-106129052D01*
X182404289Y-106129052D01*
X182410590Y-106236070D01*
X182424925Y-106324278D01*
X182444331Y-106374090D01*
X182517746Y-106442162D01*
X182604914Y-106466564D01*
X182694804Y-106446831D01*
X182771617Y-106387968D01*
X182800708Y-106348379D01*
X182817717Y-106301138D01*
X182825684Y-106232181D01*
X182827647Y-106128607D01*
X182824134Y-106026039D01*
X182814857Y-105935921D01*
X182801706Y-105875613D01*
X182799514Y-105870208D01*
X182746478Y-105805940D01*
X182669067Y-105770656D01*
X182582454Y-105764959D01*
X182501807Y-105789453D01*
X182442297Y-105844742D01*
X182436124Y-105855743D01*
X182416801Y-105922827D01*
X182406274Y-106019284D01*
X182404289Y-106129052D01*
X182132275Y-106129052D01*
X182132404Y-106088225D01*
X182134194Y-106022918D01*
X182146373Y-105861355D01*
X182171685Y-105740053D01*
X182213793Y-105650379D01*
X182276359Y-105583699D01*
X182337100Y-105544557D01*
X182421964Y-105517040D01*
X182527515Y-105507603D01*
X182635598Y-105515290D01*
X182728058Y-105539146D01*
X182776910Y-105567685D01*
X182827647Y-105613601D01*
X182827647Y-105033137D01*
X183101568Y-105033137D01*
X183101568Y-106726471D01*
G36*
X184057528Y-105511332D02*
X184156014Y-105518726D01*
X184284776Y-105904706D01*
X184413537Y-106290686D01*
X184453911Y-106153726D01*
X184478207Y-106069083D01*
X184510167Y-105954697D01*
X184544679Y-105828963D01*
X184562928Y-105761520D01*
X184631571Y-105506275D01*
X184914773Y-105506275D01*
X184830122Y-105773971D01*
X184788435Y-105905638D01*
X184738074Y-106064458D01*
X184685481Y-106230128D01*
X184638530Y-106377843D01*
X184531589Y-106714020D01*
X184300661Y-106729044D01*
X184238050Y-106522316D01*
X184199438Y-106393896D01*
X184157300Y-106252322D01*
X184120472Y-106127285D01*
X184119018Y-106122309D01*
X184091511Y-106037586D01*
X184067242Y-105979778D01*
X184050243Y-105957918D01*
X184046750Y-105960446D01*
X184034490Y-105994336D01*
X184011195Y-106066930D01*
X183979700Y-106169101D01*
X183942842Y-106291720D01*
X183922899Y-106359167D01*
X183814895Y-106726471D01*
X183585679Y-106726471D01*
X183402439Y-106147500D01*
X183350963Y-105985091D01*
X183304070Y-105837602D01*
X183263977Y-105711960D01*
X183232897Y-105615095D01*
X183213045Y-105553934D01*
X183207011Y-105536065D01*
X183211788Y-105517768D01*
X183249297Y-105509755D01*
X183327355Y-105510557D01*
X183339574Y-105511163D01*
X183484326Y-105518726D01*
X183579130Y-105867353D01*
X183613977Y-105994497D01*
X183645117Y-106106265D01*
X183669809Y-106192953D01*
X183685312Y-106244856D01*
X183688176Y-106253318D01*
X183700046Y-106243587D01*
X183723983Y-106193172D01*
X183757239Y-106108935D01*
X183797064Y-105997741D01*
X183830730Y-105897297D01*
X183959041Y-105503939D01*
X184057528Y-105511332D01*
X184057528Y-105511332D01*
G37*
X184057528Y-105511332D02*
X184156014Y-105518726D01*
X184284776Y-105904706D01*
X184413537Y-106290686D01*
X184453911Y-106153726D01*
X184478207Y-106069083D01*
X184510167Y-105954697D01*
X184544679Y-105828963D01*
X184562928Y-105761520D01*
X184631571Y-105506275D01*
X184914773Y-105506275D01*
X184830122Y-105773971D01*
X184788435Y-105905638D01*
X184738074Y-106064458D01*
X184685481Y-106230128D01*
X184638530Y-106377843D01*
X184531589Y-106714020D01*
X184300661Y-106729044D01*
X184238050Y-106522316D01*
X184199438Y-106393896D01*
X184157300Y-106252322D01*
X184120472Y-106127285D01*
X184119018Y-106122309D01*
X184091511Y-106037586D01*
X184067242Y-105979778D01*
X184050243Y-105957918D01*
X184046750Y-105960446D01*
X184034490Y-105994336D01*
X184011195Y-106066930D01*
X183979700Y-106169101D01*
X183942842Y-106291720D01*
X183922899Y-106359167D01*
X183814895Y-106726471D01*
X183585679Y-106726471D01*
X183402439Y-106147500D01*
X183350963Y-105985091D01*
X183304070Y-105837602D01*
X183263977Y-105711960D01*
X183232897Y-105615095D01*
X183213045Y-105553934D01*
X183207011Y-105536065D01*
X183211788Y-105517768D01*
X183249297Y-105509755D01*
X183327355Y-105510557D01*
X183339574Y-105511163D01*
X183484326Y-105518726D01*
X183579130Y-105867353D01*
X183613977Y-105994497D01*
X183645117Y-106106265D01*
X183669809Y-106192953D01*
X183685312Y-106244856D01*
X183688176Y-106253318D01*
X183700046Y-106243587D01*
X183723983Y-106193172D01*
X183757239Y-106108935D01*
X183797064Y-105997741D01*
X183830730Y-105897297D01*
X183959041Y-105503939D01*
X184057528Y-105511332D01*
G36*
X185556459Y-105513669D02*
X185661420Y-105539163D01*
X185691761Y-105552669D01*
X185750573Y-105588046D01*
X185795709Y-105627890D01*
X185829106Y-105679120D01*
X185852701Y-105748654D01*
X185868433Y-105843409D01*
X185878239Y-105970305D01*
X185884057Y-106136258D01*
X185886266Y-106247108D01*
X185894396Y-106726471D01*
X185755531Y-106726471D01*
X185671287Y-106722938D01*
X185627884Y-106710866D01*
X185616666Y-106690594D01*
X185610744Y-106668674D01*
X185584266Y-106672865D01*
X185548186Y-106690441D01*
X185457862Y-106717382D01*
X185341777Y-106724642D01*
X185219680Y-106712767D01*
X185111321Y-106682305D01*
X185101602Y-106678077D01*
X185002568Y-106608505D01*
X184937281Y-106511789D01*
X184907240Y-106398738D01*
X184909535Y-106358122D01*
X185154633Y-106358122D01*
X185176229Y-106412782D01*
X185240259Y-106451952D01*
X185343565Y-106472974D01*
X185398774Y-106475766D01*
X185490782Y-106468620D01*
X185551941Y-106440848D01*
X185566862Y-106427647D01*
X185607287Y-106355829D01*
X185616666Y-106290686D01*
X185616666Y-106203530D01*
X185495269Y-106203530D01*
X185354153Y-106210722D01*
X185255173Y-106233345D01*
X185192633Y-106272964D01*
X185178631Y-106290628D01*
X185154633Y-106358122D01*
X184909535Y-106358122D01*
X184913941Y-106280157D01*
X184958880Y-106166855D01*
X185020196Y-106090285D01*
X185057332Y-106057181D01*
X185093687Y-106035425D01*
X185140990Y-106022161D01*
X185210973Y-106014528D01*
X185315364Y-106009670D01*
X185356770Y-106008273D01*
X185616666Y-105999780D01*
X185616285Y-105921116D01*
X185606219Y-105838428D01*
X185569829Y-105788431D01*
X185496311Y-105756489D01*
X185494339Y-105755920D01*
X185390105Y-105743361D01*
X185288108Y-105759766D01*
X185212305Y-105799657D01*
X185181890Y-105819354D01*
X185149132Y-105816629D01*
X185098721Y-105788091D01*
X185069119Y-105767950D01*
X185011218Y-105724919D01*
X184975352Y-105692662D01*
X184969597Y-105683427D01*
X184993295Y-105635636D01*
X185063313Y-105578562D01*
X185093725Y-105559305D01*
X185181155Y-105526140D01*
X185298983Y-105507350D01*
X185429866Y-105503129D01*
X185556459Y-105513669D01*
X185556459Y-105513669D01*
G37*
X185556459Y-105513669D02*
X185661420Y-105539163D01*
X185691761Y-105552669D01*
X185750573Y-105588046D01*
X185795709Y-105627890D01*
X185829106Y-105679120D01*
X185852701Y-105748654D01*
X185868433Y-105843409D01*
X185878239Y-105970305D01*
X185884057Y-106136258D01*
X185886266Y-106247108D01*
X185894396Y-106726471D01*
X185755531Y-106726471D01*
X185671287Y-106722938D01*
X185627884Y-106710866D01*
X185616666Y-106690594D01*
X185610744Y-106668674D01*
X185584266Y-106672865D01*
X185548186Y-106690441D01*
X185457862Y-106717382D01*
X185341777Y-106724642D01*
X185219680Y-106712767D01*
X185111321Y-106682305D01*
X185101602Y-106678077D01*
X185002568Y-106608505D01*
X184937281Y-106511789D01*
X184907240Y-106398738D01*
X184909535Y-106358122D01*
X185154633Y-106358122D01*
X185176229Y-106412782D01*
X185240259Y-106451952D01*
X185343565Y-106472974D01*
X185398774Y-106475766D01*
X185490782Y-106468620D01*
X185551941Y-106440848D01*
X185566862Y-106427647D01*
X185607287Y-106355829D01*
X185616666Y-106290686D01*
X185616666Y-106203530D01*
X185495269Y-106203530D01*
X185354153Y-106210722D01*
X185255173Y-106233345D01*
X185192633Y-106272964D01*
X185178631Y-106290628D01*
X185154633Y-106358122D01*
X184909535Y-106358122D01*
X184913941Y-106280157D01*
X184958880Y-106166855D01*
X185020196Y-106090285D01*
X185057332Y-106057181D01*
X185093687Y-106035425D01*
X185140990Y-106022161D01*
X185210973Y-106014528D01*
X185315364Y-106009670D01*
X185356770Y-106008273D01*
X185616666Y-105999780D01*
X185616285Y-105921116D01*
X185606219Y-105838428D01*
X185569829Y-105788431D01*
X185496311Y-105756489D01*
X185494339Y-105755920D01*
X185390105Y-105743361D01*
X185288108Y-105759766D01*
X185212305Y-105799657D01*
X185181890Y-105819354D01*
X185149132Y-105816629D01*
X185098721Y-105788091D01*
X185069119Y-105767950D01*
X185011218Y-105724919D01*
X184975352Y-105692662D01*
X184969597Y-105683427D01*
X184993295Y-105635636D01*
X185063313Y-105578562D01*
X185093725Y-105559305D01*
X185181155Y-105526140D01*
X185298983Y-105507350D01*
X185429866Y-105503129D01*
X185556459Y-105513669D01*
G36*
X186738446Y-105505883D02*
X186834177Y-105524755D01*
X186888677Y-105552699D01*
X186946008Y-105599123D01*
X186864441Y-105702111D01*
X186814150Y-105764479D01*
X186780001Y-105794907D01*
X186746063Y-105799555D01*
X186696406Y-105784586D01*
X186673096Y-105776117D01*
X186578063Y-105763622D01*
X186491032Y-105790406D01*
X186427138Y-105850915D01*
X186416759Y-105870208D01*
X186405456Y-105921314D01*
X186396732Y-106015500D01*
X186390997Y-106146089D01*
X186388660Y-106306405D01*
X186388627Y-106329211D01*
X186388627Y-106726471D01*
X186114705Y-106726471D01*
X186114705Y-105506275D01*
X186251666Y-105506275D01*
X186330638Y-105508337D01*
X186371779Y-105517513D01*
X186386992Y-105538290D01*
X186388627Y-105557886D01*
X186388627Y-105609497D01*
X186454240Y-105557886D01*
X186529475Y-105522675D01*
X186630544Y-105505265D01*
X186738446Y-105505883D01*
X186738446Y-105505883D01*
G37*
X186738446Y-105505883D02*
X186834177Y-105524755D01*
X186888677Y-105552699D01*
X186946008Y-105599123D01*
X186864441Y-105702111D01*
X186814150Y-105764479D01*
X186780001Y-105794907D01*
X186746063Y-105799555D01*
X186696406Y-105784586D01*
X186673096Y-105776117D01*
X186578063Y-105763622D01*
X186491032Y-105790406D01*
X186427138Y-105850915D01*
X186416759Y-105870208D01*
X186405456Y-105921314D01*
X186396732Y-106015500D01*
X186390997Y-106146089D01*
X186388660Y-106306405D01*
X186388627Y-106329211D01*
X186388627Y-106726471D01*
X186114705Y-106726471D01*
X186114705Y-105506275D01*
X186251666Y-105506275D01*
X186330638Y-105508337D01*
X186371779Y-105517513D01*
X186386992Y-105538290D01*
X186388627Y-105557886D01*
X186388627Y-105609497D01*
X186454240Y-105557886D01*
X186529475Y-105522675D01*
X186630544Y-105505265D01*
X186738446Y-105505883D01*
G36*
X187525307Y-105512784D02*
X187644337Y-105543731D01*
X187744021Y-105607600D01*
X187792288Y-105655313D01*
X187871408Y-105768106D01*
X187916752Y-105898950D01*
X187932330Y-106059792D01*
X187932410Y-106072794D01*
X187932549Y-106203530D01*
X187180091Y-106203530D01*
X187196130Y-106272010D01*
X187225091Y-106334031D01*
X187275778Y-106398654D01*
X187286379Y-106408971D01*
X187377494Y-106464805D01*
X187481400Y-106474275D01*
X187601000Y-106437540D01*
X187621274Y-106427647D01*
X187683456Y-106397574D01*
X187725106Y-106380440D01*
X187732373Y-106378855D01*
X187757740Y-106394242D01*
X187806120Y-106431887D01*
X187830679Y-106452459D01*
X187881570Y-106499714D01*
X187898281Y-106530917D01*
X187886683Y-106559620D01*
X187880483Y-106567468D01*
X187838493Y-106601819D01*
X187769206Y-106643565D01*
X187720882Y-106667935D01*
X187583711Y-106710873D01*
X187431847Y-106724786D01*
X187288024Y-106708300D01*
X187247745Y-106696496D01*
X187123078Y-106629689D01*
X187030671Y-106526892D01*
X186969990Y-106387105D01*
X186940498Y-106209330D01*
X186937260Y-106116373D01*
X186946714Y-105981033D01*
X187185490Y-105981033D01*
X187208584Y-105991038D01*
X187270662Y-105998888D01*
X187360914Y-106003521D01*
X187422058Y-106004314D01*
X187532040Y-106003549D01*
X187601457Y-105999970D01*
X187639538Y-105991649D01*
X187655515Y-105976657D01*
X187658627Y-105954903D01*
X187637278Y-105887892D01*
X187583529Y-105821664D01*
X187512822Y-105770832D01*
X187442089Y-105750038D01*
X187346016Y-105768484D01*
X187262849Y-105821811D01*
X187205186Y-105898677D01*
X187185490Y-105981033D01*
X186946714Y-105981033D01*
X186951028Y-105919291D01*
X186993520Y-105762271D01*
X187065635Y-105644069D01*
X187168273Y-105563440D01*
X187302332Y-105519139D01*
X187374957Y-105510607D01*
X187525307Y-105512784D01*
X187525307Y-105512784D01*
G37*
X187525307Y-105512784D02*
X187644337Y-105543731D01*
X187744021Y-105607600D01*
X187792288Y-105655313D01*
X187871408Y-105768106D01*
X187916752Y-105898950D01*
X187932330Y-106059792D01*
X187932410Y-106072794D01*
X187932549Y-106203530D01*
X187180091Y-106203530D01*
X187196130Y-106272010D01*
X187225091Y-106334031D01*
X187275778Y-106398654D01*
X187286379Y-106408971D01*
X187377494Y-106464805D01*
X187481400Y-106474275D01*
X187601000Y-106437540D01*
X187621274Y-106427647D01*
X187683456Y-106397574D01*
X187725106Y-106380440D01*
X187732373Y-106378855D01*
X187757740Y-106394242D01*
X187806120Y-106431887D01*
X187830679Y-106452459D01*
X187881570Y-106499714D01*
X187898281Y-106530917D01*
X187886683Y-106559620D01*
X187880483Y-106567468D01*
X187838493Y-106601819D01*
X187769206Y-106643565D01*
X187720882Y-106667935D01*
X187583711Y-106710873D01*
X187431847Y-106724786D01*
X187288024Y-106708300D01*
X187247745Y-106696496D01*
X187123078Y-106629689D01*
X187030671Y-106526892D01*
X186969990Y-106387105D01*
X186940498Y-106209330D01*
X186937260Y-106116373D01*
X186946714Y-105981033D01*
X187185490Y-105981033D01*
X187208584Y-105991038D01*
X187270662Y-105998888D01*
X187360914Y-106003521D01*
X187422058Y-106004314D01*
X187532040Y-106003549D01*
X187601457Y-105999970D01*
X187639538Y-105991649D01*
X187655515Y-105976657D01*
X187658627Y-105954903D01*
X187637278Y-105887892D01*
X187583529Y-105821664D01*
X187512822Y-105770832D01*
X187442089Y-105750038D01*
X187346016Y-105768484D01*
X187262849Y-105821811D01*
X187205186Y-105898677D01*
X187185490Y-105981033D01*
X186946714Y-105981033D01*
X186951028Y-105919291D01*
X186993520Y-105762271D01*
X187065635Y-105644069D01*
X187168273Y-105563440D01*
X187302332Y-105519139D01*
X187374957Y-105510607D01*
X187525307Y-105512784D01*
G36*
X178473247Y-103651568D02*
X178603522Y-103709163D01*
X178702419Y-103805334D01*
X178770082Y-103940229D01*
X178806655Y-104113996D01*
X178809276Y-104141126D01*
X178811330Y-104332408D01*
X178784699Y-104500073D01*
X178731001Y-104635967D01*
X178702247Y-104679681D01*
X178602091Y-104772198D01*
X178474537Y-104832119D01*
X178331837Y-104856985D01*
X178186240Y-104844339D01*
X178075562Y-104805391D01*
X177980384Y-104739755D01*
X177902594Y-104653699D01*
X177901249Y-104651685D01*
X177869657Y-104598570D01*
X177849127Y-104545160D01*
X177836695Y-104477754D01*
X177829397Y-104382653D01*
X177826182Y-104304666D01*
X177824844Y-104233944D01*
X178073814Y-104233944D01*
X178076247Y-104304348D01*
X178085080Y-104398068D01*
X178100664Y-104458214D01*
X178128766Y-104501006D01*
X178155086Y-104526002D01*
X178248392Y-104578338D01*
X178346020Y-104585333D01*
X178436942Y-104547676D01*
X178482402Y-104505479D01*
X178515162Y-104462956D01*
X178534323Y-104422267D01*
X178542733Y-104369314D01*
X178543237Y-104289997D01*
X178540645Y-104216950D01*
X178535071Y-104112601D01*
X178526234Y-104044920D01*
X178510307Y-104000774D01*
X178483462Y-103967031D01*
X178462189Y-103947746D01*
X178373206Y-103897086D01*
X178277211Y-103894560D01*
X178196719Y-103924567D01*
X178128053Y-103987231D01*
X178087144Y-104090168D01*
X178073814Y-104233944D01*
X177824844Y-104233944D01*
X177823246Y-104149582D01*
X177828260Y-104033600D01*
X177843283Y-103946367D01*
X177870376Y-103877530D01*
X177911600Y-103816737D01*
X177926885Y-103798686D01*
X178022454Y-103708746D01*
X178124961Y-103656211D01*
X178250321Y-103634201D01*
X178311450Y-103632402D01*
X178473247Y-103651568D01*
X178473247Y-103651568D01*
G37*
X178473247Y-103651568D02*
X178603522Y-103709163D01*
X178702419Y-103805334D01*
X178770082Y-103940229D01*
X178806655Y-104113996D01*
X178809276Y-104141126D01*
X178811330Y-104332408D01*
X178784699Y-104500073D01*
X178731001Y-104635967D01*
X178702247Y-104679681D01*
X178602091Y-104772198D01*
X178474537Y-104832119D01*
X178331837Y-104856985D01*
X178186240Y-104844339D01*
X178075562Y-104805391D01*
X177980384Y-104739755D01*
X177902594Y-104653699D01*
X177901249Y-104651685D01*
X177869657Y-104598570D01*
X177849127Y-104545160D01*
X177836695Y-104477754D01*
X177829397Y-104382653D01*
X177826182Y-104304666D01*
X177824844Y-104233944D01*
X178073814Y-104233944D01*
X178076247Y-104304348D01*
X178085080Y-104398068D01*
X178100664Y-104458214D01*
X178128766Y-104501006D01*
X178155086Y-104526002D01*
X178248392Y-104578338D01*
X178346020Y-104585333D01*
X178436942Y-104547676D01*
X178482402Y-104505479D01*
X178515162Y-104462956D01*
X178534323Y-104422267D01*
X178542733Y-104369314D01*
X178543237Y-104289997D01*
X178540645Y-104216950D01*
X178535071Y-104112601D01*
X178526234Y-104044920D01*
X178510307Y-104000774D01*
X178483462Y-103967031D01*
X178462189Y-103947746D01*
X178373206Y-103897086D01*
X178277211Y-103894560D01*
X178196719Y-103924567D01*
X178128053Y-103987231D01*
X178087144Y-104090168D01*
X178073814Y-104233944D01*
X177824844Y-104233944D01*
X177823246Y-104149582D01*
X177828260Y-104033600D01*
X177843283Y-103946367D01*
X177870376Y-103877530D01*
X177911600Y-103816737D01*
X177926885Y-103798686D01*
X178022454Y-103708746D01*
X178124961Y-103656211D01*
X178250321Y-103634201D01*
X178311450Y-103632402D01*
X178473247Y-103651568D01*
G36*
X180813204Y-103666354D02*
X180838019Y-103678037D01*
X180923906Y-103740951D01*
X181005121Y-103832769D01*
X181065764Y-103933868D01*
X181083012Y-103980349D01*
X181098749Y-104063376D01*
X181108133Y-104163713D01*
X181109272Y-104205147D01*
X181109411Y-104335882D01*
X180356953Y-104335882D01*
X180372993Y-104404363D01*
X180412363Y-104485355D01*
X180481194Y-104555351D01*
X180563081Y-104600441D01*
X180615263Y-104609804D01*
X180686029Y-104598441D01*
X180770460Y-104569943D01*
X180799142Y-104556831D01*
X180905209Y-104503858D01*
X180995728Y-104572901D01*
X181047961Y-104619597D01*
X181075753Y-104658140D01*
X181077160Y-104669452D01*
X181052332Y-104696868D01*
X180997917Y-104738532D01*
X180948528Y-104771037D01*
X180815252Y-104829468D01*
X180665839Y-104855915D01*
X180517751Y-104849039D01*
X180399705Y-104813096D01*
X180278018Y-104736101D01*
X180191540Y-104634728D01*
X180137441Y-104503570D01*
X180112891Y-104337224D01*
X180110714Y-104261108D01*
X180119427Y-104086685D01*
X180120497Y-104081611D01*
X180369827Y-104081611D01*
X180376694Y-104097968D01*
X180404917Y-104106988D01*
X180463127Y-104110854D01*
X180559958Y-104111749D01*
X180597243Y-104111765D01*
X180710683Y-104110413D01*
X180782622Y-104105505D01*
X180821313Y-104095760D01*
X180835005Y-104079899D01*
X180835490Y-104074805D01*
X180819863Y-104034326D01*
X180780753Y-103977621D01*
X180763939Y-103957766D01*
X180701519Y-103901611D01*
X180636453Y-103879532D01*
X180601397Y-103877686D01*
X180506558Y-103900766D01*
X180427027Y-103962759D01*
X180376577Y-104052802D01*
X180375683Y-104055735D01*
X180369827Y-104081611D01*
X180120497Y-104081611D01*
X180148399Y-103949343D01*
X180200590Y-103839461D01*
X180264421Y-103761461D01*
X180382433Y-103676882D01*
X180521158Y-103631686D01*
X180668710Y-103627600D01*
X180813204Y-103666354D01*
X180813204Y-103666354D01*
G37*
X180813204Y-103666354D02*
X180838019Y-103678037D01*
X180923906Y-103740951D01*
X181005121Y-103832769D01*
X181065764Y-103933868D01*
X181083012Y-103980349D01*
X181098749Y-104063376D01*
X181108133Y-104163713D01*
X181109272Y-104205147D01*
X181109411Y-104335882D01*
X180356953Y-104335882D01*
X180372993Y-104404363D01*
X180412363Y-104485355D01*
X180481194Y-104555351D01*
X180563081Y-104600441D01*
X180615263Y-104609804D01*
X180686029Y-104598441D01*
X180770460Y-104569943D01*
X180799142Y-104556831D01*
X180905209Y-104503858D01*
X180995728Y-104572901D01*
X181047961Y-104619597D01*
X181075753Y-104658140D01*
X181077160Y-104669452D01*
X181052332Y-104696868D01*
X180997917Y-104738532D01*
X180948528Y-104771037D01*
X180815252Y-104829468D01*
X180665839Y-104855915D01*
X180517751Y-104849039D01*
X180399705Y-104813096D01*
X180278018Y-104736101D01*
X180191540Y-104634728D01*
X180137441Y-104503570D01*
X180112891Y-104337224D01*
X180110714Y-104261108D01*
X180119427Y-104086685D01*
X180120497Y-104081611D01*
X180369827Y-104081611D01*
X180376694Y-104097968D01*
X180404917Y-104106988D01*
X180463127Y-104110854D01*
X180559958Y-104111749D01*
X180597243Y-104111765D01*
X180710683Y-104110413D01*
X180782622Y-104105505D01*
X180821313Y-104095760D01*
X180835005Y-104079899D01*
X180835490Y-104074805D01*
X180819863Y-104034326D01*
X180780753Y-103977621D01*
X180763939Y-103957766D01*
X180701519Y-103901611D01*
X180636453Y-103879532D01*
X180601397Y-103877686D01*
X180506558Y-103900766D01*
X180427027Y-103962759D01*
X180376577Y-104052802D01*
X180375683Y-104055735D01*
X180369827Y-104081611D01*
X180120497Y-104081611D01*
X180148399Y-103949343D01*
X180200590Y-103839461D01*
X180264421Y-103761461D01*
X180382433Y-103676882D01*
X180521158Y-103631686D01*
X180668710Y-103627600D01*
X180813204Y-103666354D01*
G36*
X183527759Y-103634345D02*
X183622059Y-103652229D01*
X183719890Y-103689633D01*
X183730343Y-103694402D01*
X183804531Y-103733412D01*
X183855910Y-103769664D01*
X183872517Y-103792887D01*
X183856702Y-103830761D01*
X183818288Y-103886644D01*
X183801237Y-103907505D01*
X183730969Y-103989618D01*
X183640379Y-103936168D01*
X183554164Y-103900561D01*
X183454549Y-103881529D01*
X183359019Y-103880326D01*
X183285061Y-103898210D01*
X183267312Y-103909373D01*
X183233512Y-103960553D01*
X183229404Y-104019509D01*
X183254696Y-104065567D01*
X183269656Y-104074499D01*
X183314486Y-104085592D01*
X183393286Y-104098630D01*
X183490426Y-104111088D01*
X183508346Y-104113042D01*
X183664365Y-104140030D01*
X183777523Y-104185873D01*
X183852569Y-104254803D01*
X183894253Y-104351054D01*
X183907238Y-104468617D01*
X183889299Y-104602254D01*
X183831050Y-104707195D01*
X183732255Y-104783630D01*
X183592682Y-104831748D01*
X183437745Y-104850732D01*
X183311398Y-104850504D01*
X183208913Y-104833262D01*
X183138921Y-104809457D01*
X183050483Y-104767978D01*
X182968754Y-104719842D01*
X182939705Y-104698655D01*
X182865000Y-104637676D01*
X182955098Y-104546508D01*
X183045196Y-104455339D01*
X183147632Y-104523128D01*
X183250374Y-104574042D01*
X183360087Y-104600673D01*
X183465551Y-104603483D01*
X183555546Y-104582935D01*
X183618854Y-104539493D01*
X183639296Y-104502838D01*
X183636229Y-104444053D01*
X183585434Y-104399099D01*
X183487048Y-104368057D01*
X183379256Y-104353710D01*
X183213365Y-104326337D01*
X183090124Y-104274693D01*
X183007886Y-104197266D01*
X182965001Y-104092544D01*
X182959060Y-103968387D01*
X182988406Y-103838702D01*
X183055309Y-103740677D01*
X183160371Y-103673866D01*
X183304190Y-103637820D01*
X183410738Y-103630754D01*
X183527759Y-103634345D01*
X183527759Y-103634345D01*
G37*
X183527759Y-103634345D02*
X183622059Y-103652229D01*
X183719890Y-103689633D01*
X183730343Y-103694402D01*
X183804531Y-103733412D01*
X183855910Y-103769664D01*
X183872517Y-103792887D01*
X183856702Y-103830761D01*
X183818288Y-103886644D01*
X183801237Y-103907505D01*
X183730969Y-103989618D01*
X183640379Y-103936168D01*
X183554164Y-103900561D01*
X183454549Y-103881529D01*
X183359019Y-103880326D01*
X183285061Y-103898210D01*
X183267312Y-103909373D01*
X183233512Y-103960553D01*
X183229404Y-104019509D01*
X183254696Y-104065567D01*
X183269656Y-104074499D01*
X183314486Y-104085592D01*
X183393286Y-104098630D01*
X183490426Y-104111088D01*
X183508346Y-104113042D01*
X183664365Y-104140030D01*
X183777523Y-104185873D01*
X183852569Y-104254803D01*
X183894253Y-104351054D01*
X183907238Y-104468617D01*
X183889299Y-104602254D01*
X183831050Y-104707195D01*
X183732255Y-104783630D01*
X183592682Y-104831748D01*
X183437745Y-104850732D01*
X183311398Y-104850504D01*
X183208913Y-104833262D01*
X183138921Y-104809457D01*
X183050483Y-104767978D01*
X182968754Y-104719842D01*
X182939705Y-104698655D01*
X182865000Y-104637676D01*
X182955098Y-104546508D01*
X183045196Y-104455339D01*
X183147632Y-104523128D01*
X183250374Y-104574042D01*
X183360087Y-104600673D01*
X183465551Y-104603483D01*
X183555546Y-104582935D01*
X183618854Y-104539493D01*
X183639296Y-104502838D01*
X183636229Y-104444053D01*
X183585434Y-104399099D01*
X183487048Y-104368057D01*
X183379256Y-104353710D01*
X183213365Y-104326337D01*
X183090124Y-104274693D01*
X183007886Y-104197266D01*
X182965001Y-104092544D01*
X182959060Y-103968387D01*
X182988406Y-103838702D01*
X183055309Y-103740677D01*
X183160371Y-103673866D01*
X183304190Y-103637820D01*
X183410738Y-103630754D01*
X183527759Y-103634345D01*
G36*
X184709547Y-103653364D02*
X184835502Y-103721959D01*
X184934047Y-103830245D01*
X184980478Y-103918315D01*
X185000412Y-103996101D01*
X185013328Y-104106993D01*
X185018863Y-104234738D01*
X185016654Y-104363084D01*
X185006337Y-104475779D01*
X184994286Y-104535969D01*
X184953634Y-104618311D01*
X184883230Y-104705770D01*
X184798382Y-104782251D01*
X184714397Y-104831655D01*
X184712349Y-104832439D01*
X184608134Y-104854027D01*
X184484627Y-104854562D01*
X184367261Y-104834908D01*
X184321942Y-104819155D01*
X184205220Y-104752966D01*
X184121624Y-104666246D01*
X184066701Y-104551438D01*
X184035995Y-104400982D01*
X184029047Y-104322173D01*
X184029933Y-104223145D01*
X184296862Y-104223145D01*
X184305854Y-104367645D01*
X184331736Y-104477760D01*
X184372868Y-104548116D01*
X184402172Y-104568235D01*
X184477251Y-104582265D01*
X184566494Y-104578111D01*
X184643650Y-104557922D01*
X184663883Y-104546815D01*
X184717265Y-104482123D01*
X184752500Y-104383119D01*
X184767498Y-104262632D01*
X184760172Y-104133494D01*
X184743799Y-104055775D01*
X184696790Y-103965771D01*
X184622582Y-103909509D01*
X184533209Y-103890057D01*
X184440707Y-103910481D01*
X184369653Y-103960437D01*
X184332312Y-104001655D01*
X184310518Y-104042281D01*
X184300130Y-104097264D01*
X184297006Y-104181549D01*
X184296862Y-104223145D01*
X184029933Y-104223145D01*
X184030930Y-104111874D01*
X184065180Y-103939423D01*
X184131802Y-103804814D01*
X184230799Y-103708040D01*
X184362175Y-103649094D01*
X184390385Y-103642259D01*
X184559926Y-103626213D01*
X184709547Y-103653364D01*
X184709547Y-103653364D01*
G37*
X184709547Y-103653364D02*
X184835502Y-103721959D01*
X184934047Y-103830245D01*
X184980478Y-103918315D01*
X185000412Y-103996101D01*
X185013328Y-104106993D01*
X185018863Y-104234738D01*
X185016654Y-104363084D01*
X185006337Y-104475779D01*
X184994286Y-104535969D01*
X184953634Y-104618311D01*
X184883230Y-104705770D01*
X184798382Y-104782251D01*
X184714397Y-104831655D01*
X184712349Y-104832439D01*
X184608134Y-104854027D01*
X184484627Y-104854562D01*
X184367261Y-104834908D01*
X184321942Y-104819155D01*
X184205220Y-104752966D01*
X184121624Y-104666246D01*
X184066701Y-104551438D01*
X184035995Y-104400982D01*
X184029047Y-104322173D01*
X184029933Y-104223145D01*
X184296862Y-104223145D01*
X184305854Y-104367645D01*
X184331736Y-104477760D01*
X184372868Y-104548116D01*
X184402172Y-104568235D01*
X184477251Y-104582265D01*
X184566494Y-104578111D01*
X184643650Y-104557922D01*
X184663883Y-104546815D01*
X184717265Y-104482123D01*
X184752500Y-104383119D01*
X184767498Y-104262632D01*
X184760172Y-104133494D01*
X184743799Y-104055775D01*
X184696790Y-103965771D01*
X184622582Y-103909509D01*
X184533209Y-103890057D01*
X184440707Y-103910481D01*
X184369653Y-103960437D01*
X184332312Y-104001655D01*
X184310518Y-104042281D01*
X184300130Y-104097264D01*
X184297006Y-104181549D01*
X184296862Y-104223145D01*
X184029933Y-104223145D01*
X184030930Y-104111874D01*
X184065180Y-103939423D01*
X184131802Y-103804814D01*
X184230799Y-103708040D01*
X184362175Y-103649094D01*
X184390385Y-103642259D01*
X184559926Y-103626213D01*
X184709547Y-103653364D01*
G36*
X185467254Y-104026245D02*
X185469608Y-104208879D01*
X185478207Y-104347600D01*
X185495360Y-104448147D01*
X185523374Y-104516254D01*
X185564557Y-104557659D01*
X185621217Y-104578097D01*
X185691372Y-104583318D01*
X185764848Y-104577468D01*
X185820657Y-104556093D01*
X185861109Y-104513458D01*
X185888509Y-104443825D01*
X185905167Y-104341460D01*
X185913389Y-104200624D01*
X185915490Y-104026245D01*
X185915490Y-103638628D01*
X186189411Y-103638628D01*
X186189411Y-104833922D01*
X186052451Y-104833922D01*
X185969884Y-104830576D01*
X185927368Y-104818826D01*
X185915490Y-104796520D01*
X185908336Y-104776654D01*
X185879865Y-104780857D01*
X185822476Y-104808971D01*
X185690945Y-104852342D01*
X185551438Y-104849270D01*
X185417765Y-104802174D01*
X185354108Y-104764971D01*
X185305553Y-104724691D01*
X185270081Y-104674291D01*
X185245674Y-104606729D01*
X185230313Y-104514965D01*
X185221982Y-104391955D01*
X185218662Y-104230659D01*
X185218235Y-104105928D01*
X185218235Y-103638628D01*
X185467254Y-103638628D01*
X185467254Y-104026245D01*
X185467254Y-104026245D01*
G37*
X185467254Y-104026245D02*
X185469608Y-104208879D01*
X185478207Y-104347600D01*
X185495360Y-104448147D01*
X185523374Y-104516254D01*
X185564557Y-104557659D01*
X185621217Y-104578097D01*
X185691372Y-104583318D01*
X185764848Y-104577468D01*
X185820657Y-104556093D01*
X185861109Y-104513458D01*
X185888509Y-104443825D01*
X185905167Y-104341460D01*
X185913389Y-104200624D01*
X185915490Y-104026245D01*
X185915490Y-103638628D01*
X186189411Y-103638628D01*
X186189411Y-104833922D01*
X186052451Y-104833922D01*
X185969884Y-104830576D01*
X185927368Y-104818826D01*
X185915490Y-104796520D01*
X185908336Y-104776654D01*
X185879865Y-104780857D01*
X185822476Y-104808971D01*
X185690945Y-104852342D01*
X185551438Y-104849270D01*
X185417765Y-104802174D01*
X185354108Y-104764971D01*
X185305553Y-104724691D01*
X185270081Y-104674291D01*
X185245674Y-104606729D01*
X185230313Y-104514965D01*
X185221982Y-104391955D01*
X185218662Y-104230659D01*
X185218235Y-104105928D01*
X185218235Y-103638628D01*
X185467254Y-103638628D01*
X185467254Y-104026245D01*
G36*
X187890976Y-103649056D02*
X188035256Y-103710348D01*
X188080699Y-103740185D01*
X188138779Y-103786036D01*
X188175238Y-103822089D01*
X188181568Y-103833832D01*
X188163693Y-103859889D01*
X188117950Y-103904105D01*
X188081328Y-103934965D01*
X187981088Y-104015520D01*
X187901935Y-103948918D01*
X187840769Y-103905921D01*
X187781129Y-103891079D01*
X187712872Y-103894704D01*
X187604482Y-103921652D01*
X187529872Y-103977587D01*
X187484530Y-104068014D01*
X187463947Y-104198435D01*
X187463942Y-104198517D01*
X187465722Y-104344290D01*
X187493387Y-104451245D01*
X187548571Y-104524064D01*
X187586192Y-104548723D01*
X187686105Y-104579431D01*
X187792822Y-104579449D01*
X187885669Y-104549655D01*
X187907647Y-104535098D01*
X187962765Y-104497914D01*
X188005859Y-104491820D01*
X188052335Y-104519496D01*
X188103716Y-104569205D01*
X188185046Y-104653116D01*
X188094749Y-104727546D01*
X187955236Y-104811549D01*
X187797912Y-104852947D01*
X187633503Y-104849950D01*
X187525531Y-104822500D01*
X187399331Y-104754620D01*
X187298401Y-104647831D01*
X187252548Y-104572451D01*
X187215410Y-104464297D01*
X187196827Y-104327318D01*
X187196684Y-104178864D01*
X187214865Y-104036281D01*
X187251255Y-103916918D01*
X187256987Y-103904680D01*
X187341865Y-103784655D01*
X187456782Y-103697267D01*
X187592659Y-103644329D01*
X187740417Y-103627654D01*
X187890976Y-103649056D01*
X187890976Y-103649056D01*
G37*
X187890976Y-103649056D02*
X188035256Y-103710348D01*
X188080699Y-103740185D01*
X188138779Y-103786036D01*
X188175238Y-103822089D01*
X188181568Y-103833832D01*
X188163693Y-103859889D01*
X188117950Y-103904105D01*
X188081328Y-103934965D01*
X187981088Y-104015520D01*
X187901935Y-103948918D01*
X187840769Y-103905921D01*
X187781129Y-103891079D01*
X187712872Y-103894704D01*
X187604482Y-103921652D01*
X187529872Y-103977587D01*
X187484530Y-104068014D01*
X187463947Y-104198435D01*
X187463942Y-104198517D01*
X187465722Y-104344290D01*
X187493387Y-104451245D01*
X187548571Y-104524064D01*
X187586192Y-104548723D01*
X187686105Y-104579431D01*
X187792822Y-104579449D01*
X187885669Y-104549655D01*
X187907647Y-104535098D01*
X187962765Y-104497914D01*
X188005859Y-104491820D01*
X188052335Y-104519496D01*
X188103716Y-104569205D01*
X188185046Y-104653116D01*
X188094749Y-104727546D01*
X187955236Y-104811549D01*
X187797912Y-104852947D01*
X187633503Y-104849950D01*
X187525531Y-104822500D01*
X187399331Y-104754620D01*
X187298401Y-104647831D01*
X187252548Y-104572451D01*
X187215410Y-104464297D01*
X187196827Y-104327318D01*
X187196684Y-104178864D01*
X187214865Y-104036281D01*
X187251255Y-103916918D01*
X187256987Y-103904680D01*
X187341865Y-103784655D01*
X187456782Y-103697267D01*
X187592659Y-103644329D01*
X187740417Y-103627654D01*
X187890976Y-103649056D01*
G36*
X188803287Y-103634355D02*
X188867051Y-103649845D01*
X188989300Y-103706569D01*
X189093834Y-103793202D01*
X189166180Y-103897074D01*
X189176119Y-103920396D01*
X189189754Y-103981484D01*
X189199298Y-104071853D01*
X189202549Y-104163190D01*
X189202549Y-104335882D01*
X188841470Y-104335882D01*
X188692546Y-104336445D01*
X188587632Y-104339864D01*
X188520937Y-104348731D01*
X188486666Y-104365641D01*
X188479028Y-104393189D01*
X188492229Y-104433968D01*
X188515877Y-104481683D01*
X188581843Y-104561314D01*
X188673512Y-104600987D01*
X188785555Y-104599695D01*
X188912472Y-104556514D01*
X189022158Y-104503224D01*
X189113173Y-104575191D01*
X189204188Y-104647157D01*
X189118563Y-104726269D01*
X189004250Y-104801017D01*
X188863666Y-104846084D01*
X188712449Y-104858696D01*
X188566236Y-104836079D01*
X188542647Y-104828405D01*
X188414141Y-104761296D01*
X188318551Y-104661247D01*
X188253861Y-104525271D01*
X188218057Y-104350380D01*
X188217640Y-104346632D01*
X188214434Y-104156032D01*
X188227393Y-104088035D01*
X188480392Y-104088035D01*
X188503627Y-104098491D01*
X188566710Y-104106500D01*
X188659706Y-104111073D01*
X188718638Y-104111765D01*
X188828537Y-104111332D01*
X188897252Y-104108578D01*
X188933405Y-104101321D01*
X188945615Y-104087376D01*
X188942504Y-104064562D01*
X188939894Y-104055735D01*
X188895344Y-103972800D01*
X188825279Y-103905960D01*
X188763446Y-103876589D01*
X188681301Y-103878362D01*
X188598062Y-103914990D01*
X188528238Y-103975634D01*
X188486337Y-104049456D01*
X188480392Y-104088035D01*
X188227393Y-104088035D01*
X188246385Y-103988395D01*
X188309773Y-103847711D01*
X188400878Y-103737974D01*
X188515978Y-103663174D01*
X188651355Y-103627304D01*
X188803287Y-103634355D01*
X188803287Y-103634355D01*
G37*
X188803287Y-103634355D02*
X188867051Y-103649845D01*
X188989300Y-103706569D01*
X189093834Y-103793202D01*
X189166180Y-103897074D01*
X189176119Y-103920396D01*
X189189754Y-103981484D01*
X189199298Y-104071853D01*
X189202549Y-104163190D01*
X189202549Y-104335882D01*
X188841470Y-104335882D01*
X188692546Y-104336445D01*
X188587632Y-104339864D01*
X188520937Y-104348731D01*
X188486666Y-104365641D01*
X188479028Y-104393189D01*
X188492229Y-104433968D01*
X188515877Y-104481683D01*
X188581843Y-104561314D01*
X188673512Y-104600987D01*
X188785555Y-104599695D01*
X188912472Y-104556514D01*
X189022158Y-104503224D01*
X189113173Y-104575191D01*
X189204188Y-104647157D01*
X189118563Y-104726269D01*
X189004250Y-104801017D01*
X188863666Y-104846084D01*
X188712449Y-104858696D01*
X188566236Y-104836079D01*
X188542647Y-104828405D01*
X188414141Y-104761296D01*
X188318551Y-104661247D01*
X188253861Y-104525271D01*
X188218057Y-104350380D01*
X188217640Y-104346632D01*
X188214434Y-104156032D01*
X188227393Y-104088035D01*
X188480392Y-104088035D01*
X188503627Y-104098491D01*
X188566710Y-104106500D01*
X188659706Y-104111073D01*
X188718638Y-104111765D01*
X188828537Y-104111332D01*
X188897252Y-104108578D01*
X188933405Y-104101321D01*
X188945615Y-104087376D01*
X188942504Y-104064562D01*
X188939894Y-104055735D01*
X188895344Y-103972800D01*
X188825279Y-103905960D01*
X188763446Y-103876589D01*
X188681301Y-103878362D01*
X188598062Y-103914990D01*
X188528238Y-103975634D01*
X188486337Y-104049456D01*
X188480392Y-104088035D01*
X188227393Y-104088035D01*
X188246385Y-103988395D01*
X188309773Y-103847711D01*
X188400878Y-103737974D01*
X188515978Y-103663174D01*
X188651355Y-103627304D01*
X188803287Y-103634355D01*
G36*
X182006760Y-103659199D02*
X182068736Y-103688802D01*
X182128759Y-103731561D01*
X182174486Y-103780775D01*
X182207793Y-103843544D01*
X182230555Y-103926971D01*
X182244647Y-104038159D01*
X182251942Y-104184209D01*
X182254318Y-104372223D01*
X182254355Y-104391912D01*
X182254902Y-104833922D01*
X181980980Y-104833922D01*
X181980980Y-104426435D01*
X181980785Y-104275471D01*
X181979436Y-104166056D01*
X181975788Y-104089933D01*
X181968696Y-104038848D01*
X181957013Y-104004545D01*
X181939594Y-103978768D01*
X181915329Y-103953298D01*
X181830435Y-103898571D01*
X181737761Y-103888416D01*
X181649473Y-103923017D01*
X181618770Y-103948770D01*
X181596229Y-103972982D01*
X181580046Y-103998912D01*
X181569168Y-104034708D01*
X181562542Y-104088519D01*
X181559115Y-104168493D01*
X181557834Y-104282779D01*
X181557647Y-104421907D01*
X181557647Y-104833922D01*
X181283725Y-104833922D01*
X181283725Y-103638628D01*
X181420686Y-103638628D01*
X181502916Y-103641879D01*
X181545340Y-103653426D01*
X181557641Y-103675952D01*
X181557647Y-103676620D01*
X181563354Y-103698681D01*
X181588527Y-103696177D01*
X181638578Y-103671937D01*
X181752094Y-103636271D01*
X181881945Y-103632305D01*
X182006760Y-103659199D01*
X182006760Y-103659199D01*
G37*
X182006760Y-103659199D02*
X182068736Y-103688802D01*
X182128759Y-103731561D01*
X182174486Y-103780775D01*
X182207793Y-103843544D01*
X182230555Y-103926971D01*
X182244647Y-104038159D01*
X182251942Y-104184209D01*
X182254318Y-104372223D01*
X182254355Y-104391912D01*
X182254902Y-104833922D01*
X181980980Y-104833922D01*
X181980980Y-104426435D01*
X181980785Y-104275471D01*
X181979436Y-104166056D01*
X181975788Y-104089933D01*
X181968696Y-104038848D01*
X181957013Y-104004545D01*
X181939594Y-103978768D01*
X181915329Y-103953298D01*
X181830435Y-103898571D01*
X181737761Y-103888416D01*
X181649473Y-103923017D01*
X181618770Y-103948770D01*
X181596229Y-103972982D01*
X181580046Y-103998912D01*
X181569168Y-104034708D01*
X181562542Y-104088519D01*
X181559115Y-104168493D01*
X181557834Y-104282779D01*
X181557647Y-104421907D01*
X181557647Y-104833922D01*
X181283725Y-104833922D01*
X181283725Y-103638628D01*
X181420686Y-103638628D01*
X181502916Y-103641879D01*
X181545340Y-103653426D01*
X181557641Y-103675952D01*
X181557647Y-103676620D01*
X181563354Y-103698681D01*
X181588527Y-103696177D01*
X181638578Y-103671937D01*
X181752094Y-103636271D01*
X181881945Y-103632305D01*
X182006760Y-103659199D01*
G36*
X187063637Y-103637472D02*
X187149290Y-103663641D01*
X187204437Y-103696707D01*
X187222401Y-103722855D01*
X187217457Y-103753852D01*
X187185372Y-103802547D01*
X187158243Y-103837035D01*
X187102317Y-103899383D01*
X187060299Y-103925615D01*
X187024480Y-103923903D01*
X186918224Y-103896863D01*
X186840189Y-103898091D01*
X186776820Y-103928735D01*
X186755546Y-103946670D01*
X186687451Y-104009779D01*
X186687451Y-104833922D01*
X186413529Y-104833922D01*
X186413529Y-103638628D01*
X186550490Y-103638628D01*
X186632719Y-103641879D01*
X186675144Y-103653426D01*
X186687445Y-103675952D01*
X186687451Y-103676620D01*
X186693260Y-103700215D01*
X186719531Y-103697138D01*
X186755931Y-103680115D01*
X186831111Y-103648439D01*
X186892158Y-103629381D01*
X186970708Y-103624496D01*
X187063637Y-103637472D01*
X187063637Y-103637472D01*
G37*
X187063637Y-103637472D02*
X187149290Y-103663641D01*
X187204437Y-103696707D01*
X187222401Y-103722855D01*
X187217457Y-103753852D01*
X187185372Y-103802547D01*
X187158243Y-103837035D01*
X187102317Y-103899383D01*
X187060299Y-103925615D01*
X187024480Y-103923903D01*
X186918224Y-103896863D01*
X186840189Y-103898091D01*
X186776820Y-103928735D01*
X186755546Y-103946670D01*
X186687451Y-104009779D01*
X186687451Y-104833922D01*
X186413529Y-104833922D01*
X186413529Y-103638628D01*
X186550490Y-103638628D01*
X186632719Y-103641879D01*
X186675144Y-103653426D01*
X186687445Y-103675952D01*
X186687451Y-103676620D01*
X186693260Y-103700215D01*
X186719531Y-103697138D01*
X186755931Y-103680115D01*
X186831111Y-103648439D01*
X186892158Y-103629381D01*
X186970708Y-103624496D01*
X187063637Y-103637472D01*
G36*
X184246535Y-95383172D02*
X184359117Y-95980363D01*
X184774531Y-96151610D01*
X185189944Y-96322857D01*
X185688302Y-95983978D01*
X185827868Y-95889622D01*
X185954028Y-95805375D01*
X186060895Y-95735083D01*
X186142582Y-95682592D01*
X186193201Y-95651749D01*
X186206986Y-95645098D01*
X186231820Y-95662203D01*
X186284888Y-95709489D01*
X186360240Y-95780917D01*
X186451929Y-95870445D01*
X186554007Y-95972034D01*
X186660526Y-96079643D01*
X186765536Y-96187232D01*
X186863091Y-96288760D01*
X186947242Y-96378186D01*
X187012040Y-96449471D01*
X187051538Y-96496573D01*
X187060980Y-96512337D01*
X187047391Y-96541398D01*
X187009293Y-96605066D01*
X186950694Y-96697112D01*
X186875597Y-96811309D01*
X186788009Y-96941429D01*
X186737254Y-97015646D01*
X186644745Y-97151167D01*
X186562540Y-97273461D01*
X186494630Y-97376440D01*
X186445000Y-97454018D01*
X186417640Y-97500106D01*
X186413529Y-97509792D01*
X186422849Y-97537319D01*
X186448254Y-97601473D01*
X186485911Y-97693235D01*
X186531986Y-97803584D01*
X186582646Y-97923500D01*
X186634059Y-98043964D01*
X186682389Y-98155954D01*
X186723806Y-98250452D01*
X186754474Y-98318437D01*
X186770562Y-98350888D01*
X186771511Y-98352165D01*
X186796772Y-98358362D01*
X186864046Y-98372185D01*
X186966360Y-98392277D01*
X187096741Y-98417279D01*
X187248216Y-98445831D01*
X187336594Y-98462296D01*
X187498452Y-98493114D01*
X187644649Y-98522439D01*
X187767787Y-98548666D01*
X187860469Y-98570191D01*
X187915301Y-98585410D01*
X187926323Y-98590238D01*
X187937119Y-98622919D01*
X187945829Y-98696730D01*
X187952460Y-98803037D01*
X187957018Y-98933212D01*
X187959509Y-99078621D01*
X187959938Y-99230635D01*
X187958311Y-99380622D01*
X187954635Y-99519951D01*
X187948915Y-99639990D01*
X187941158Y-99732110D01*
X187931368Y-99787677D01*
X187925496Y-99799245D01*
X187890399Y-99813110D01*
X187816028Y-99832933D01*
X187712223Y-99856384D01*
X187588819Y-99881136D01*
X187545741Y-99889143D01*
X187338047Y-99927186D01*
X187173984Y-99957824D01*
X187048130Y-99982274D01*
X186955065Y-100001754D01*
X186889367Y-100017481D01*
X186845617Y-100030673D01*
X186818392Y-100042549D01*
X186802272Y-100054325D01*
X186800017Y-100056653D01*
X186777503Y-100094145D01*
X186743158Y-100167110D01*
X186700411Y-100266612D01*
X186652692Y-100383718D01*
X186603430Y-100509493D01*
X186556055Y-100635002D01*
X186513995Y-100751310D01*
X186480680Y-100849484D01*
X186459541Y-100920588D01*
X186454005Y-100955687D01*
X186454466Y-100956917D01*
X186473223Y-100985606D01*
X186515776Y-101048730D01*
X186577653Y-101139718D01*
X186654382Y-101252000D01*
X186741491Y-101379005D01*
X186766299Y-101415098D01*
X186854753Y-101545948D01*
X186932588Y-101665336D01*
X186995566Y-101766407D01*
X187039445Y-101842304D01*
X187059985Y-101886172D01*
X187060980Y-101891562D01*
X187043722Y-101919889D01*
X186996036Y-101976006D01*
X186924050Y-102053882D01*
X186833897Y-102147485D01*
X186731705Y-102250786D01*
X186623606Y-102357751D01*
X186515728Y-102462351D01*
X186414204Y-102558554D01*
X186325162Y-102640329D01*
X186254733Y-102701645D01*
X186209047Y-102736471D01*
X186196409Y-102742157D01*
X186166991Y-102728765D01*
X186106761Y-102692644D01*
X186025530Y-102639881D01*
X185963030Y-102597412D01*
X185849785Y-102519485D01*
X185715674Y-102427729D01*
X185581155Y-102336120D01*
X185508833Y-102287091D01*
X185264038Y-102121515D01*
X185058551Y-102232620D01*
X184964936Y-102281293D01*
X184885330Y-102319126D01*
X184831467Y-102340703D01*
X184817757Y-102343706D01*
X184801270Y-102321538D01*
X184768745Y-102258894D01*
X184722609Y-102161554D01*
X184665290Y-102035294D01*
X184599216Y-101885895D01*
X184526815Y-101719133D01*
X184450516Y-101540787D01*
X184372746Y-101356636D01*
X184295934Y-101172457D01*
X184222506Y-100994030D01*
X184154892Y-100827132D01*
X184095520Y-100677542D01*
X184046816Y-100551038D01*
X184011210Y-100453399D01*
X183991130Y-100390402D01*
X183987900Y-100368766D01*
X184013496Y-100341169D01*
X184069539Y-100296370D01*
X184144311Y-100243679D01*
X184150587Y-100239510D01*
X184343845Y-100084814D01*
X184499674Y-99904336D01*
X184616724Y-99703847D01*
X184693645Y-99489119D01*
X184729086Y-99265922D01*
X184721697Y-99040026D01*
X184670127Y-98817204D01*
X184573026Y-98603224D01*
X184544458Y-98556409D01*
X184395868Y-98367363D01*
X184220327Y-98215557D01*
X184023910Y-98101779D01*
X183812693Y-98026820D01*
X183592753Y-97991467D01*
X183370163Y-97996512D01*
X183151001Y-98042744D01*
X182941342Y-98130951D01*
X182747261Y-98261924D01*
X182687226Y-98315082D01*
X182534435Y-98481484D01*
X182423097Y-98656657D01*
X182346723Y-98853011D01*
X182304187Y-99047462D01*
X182293686Y-99266087D01*
X182328701Y-99485797D01*
X182405673Y-99699165D01*
X182521047Y-99898767D01*
X182671266Y-100077174D01*
X182852773Y-100226962D01*
X182876627Y-100242751D01*
X182952201Y-100294457D01*
X183009651Y-100339257D01*
X183037117Y-100367862D01*
X183037517Y-100368766D01*
X183031620Y-100399709D01*
X183008245Y-100469936D01*
X182969821Y-100573670D01*
X182918777Y-100705135D01*
X182857542Y-100858552D01*
X182788544Y-101028146D01*
X182714214Y-101208138D01*
X182636978Y-101392753D01*
X182559268Y-101576213D01*
X182483511Y-101752741D01*
X182412137Y-101916559D01*
X182347574Y-102061892D01*
X182292252Y-102182962D01*
X182248600Y-102273992D01*
X182219046Y-102329205D01*
X182207144Y-102343706D01*
X182170777Y-102332414D01*
X182102730Y-102302130D01*
X182014737Y-102258265D01*
X181966351Y-102232620D01*
X181760863Y-102121515D01*
X181516068Y-102287091D01*
X181391106Y-102371915D01*
X181254295Y-102465261D01*
X181126089Y-102553153D01*
X181061871Y-102597412D01*
X180971551Y-102658063D01*
X180895071Y-102706126D01*
X180842407Y-102735515D01*
X180825302Y-102741727D01*
X180800405Y-102724968D01*
X180745305Y-102678181D01*
X180665343Y-102606225D01*
X180565861Y-102513957D01*
X180452200Y-102406235D01*
X180380315Y-102337071D01*
X180254551Y-102213502D01*
X180145863Y-102102979D01*
X180058645Y-102010230D01*
X179997289Y-101939982D01*
X179966191Y-101896965D01*
X179963208Y-101888235D01*
X179977053Y-101855029D01*
X180015312Y-101787887D01*
X180073742Y-101693608D01*
X180148097Y-101578990D01*
X180234135Y-101450828D01*
X180258603Y-101415098D01*
X180347755Y-101285234D01*
X180427738Y-101168314D01*
X180494080Y-101070907D01*
X180542311Y-100999584D01*
X180567957Y-100960915D01*
X180570435Y-100956917D01*
X180566729Y-100926100D01*
X180547061Y-100858344D01*
X180514860Y-100762584D01*
X180473555Y-100647754D01*
X180426575Y-100522789D01*
X180377349Y-100396624D01*
X180329308Y-100278193D01*
X180285881Y-100176430D01*
X180250496Y-100100271D01*
X180226584Y-100058649D01*
X180224884Y-100056653D01*
X180210262Y-100044758D01*
X180185565Y-100032995D01*
X180145372Y-100020146D01*
X180084263Y-100004994D01*
X179996817Y-99986321D01*
X179877612Y-99962910D01*
X179721227Y-99933542D01*
X179522243Y-99897000D01*
X179479160Y-99889143D01*
X179351471Y-99864472D01*
X179240153Y-99840338D01*
X179155045Y-99819069D01*
X179105983Y-99802993D01*
X179099405Y-99799245D01*
X179088564Y-99766018D01*
X179079753Y-99691766D01*
X179072976Y-99585121D01*
X179068240Y-99454712D01*
X179065550Y-99309172D01*
X179064913Y-99157131D01*
X179066334Y-99007221D01*
X179069820Y-98868073D01*
X179075376Y-98748317D01*
X179083008Y-98656586D01*
X179092722Y-98601511D01*
X179098578Y-98590238D01*
X179131180Y-98578868D01*
X179205418Y-98560369D01*
X179313896Y-98536347D01*
X179449217Y-98508407D01*
X179603985Y-98478153D01*
X179688308Y-98462296D01*
X179848296Y-98432389D01*
X179990967Y-98405295D01*
X180109348Y-98382376D01*
X180196465Y-98364988D01*
X180245345Y-98354492D01*
X180253390Y-98352165D01*
X180266987Y-98325931D01*
X180295729Y-98262740D01*
X180335785Y-98171622D01*
X180383324Y-98061602D01*
X180434515Y-97941710D01*
X180485526Y-97820972D01*
X180532526Y-97708416D01*
X180571684Y-97613071D01*
X180599169Y-97543962D01*
X180611149Y-97510119D01*
X180611372Y-97508640D01*
X180597791Y-97481942D01*
X180559715Y-97420505D01*
X180501147Y-97330434D01*
X180426088Y-97217835D01*
X180338540Y-97088815D01*
X180287647Y-97014706D01*
X180194909Y-96878822D01*
X180112541Y-96755454D01*
X180044561Y-96650842D01*
X179994988Y-96571228D01*
X179967842Y-96522852D01*
X179963921Y-96512007D01*
X179980775Y-96486765D01*
X180027368Y-96432869D01*
X180097749Y-96356358D01*
X180185965Y-96263268D01*
X180286065Y-96159640D01*
X180392098Y-96051509D01*
X180498111Y-95944915D01*
X180598152Y-95845895D01*
X180686270Y-95760487D01*
X180756513Y-95694730D01*
X180802928Y-95654661D01*
X180818456Y-95645098D01*
X180843739Y-95658545D01*
X180904211Y-95696320D01*
X180993992Y-95754580D01*
X181107203Y-95829479D01*
X181237964Y-95917170D01*
X181336600Y-95983978D01*
X181834957Y-96322857D01*
X182250371Y-96151610D01*
X182665784Y-95980363D01*
X182778366Y-95383172D01*
X182890949Y-94785980D01*
X184133952Y-94785980D01*
X184246535Y-95383172D01*
X184246535Y-95383172D01*
G37*
X184246535Y-95383172D02*
X184359117Y-95980363D01*
X184774531Y-96151610D01*
X185189944Y-96322857D01*
X185688302Y-95983978D01*
X185827868Y-95889622D01*
X185954028Y-95805375D01*
X186060895Y-95735083D01*
X186142582Y-95682592D01*
X186193201Y-95651749D01*
X186206986Y-95645098D01*
X186231820Y-95662203D01*
X186284888Y-95709489D01*
X186360240Y-95780917D01*
X186451929Y-95870445D01*
X186554007Y-95972034D01*
X186660526Y-96079643D01*
X186765536Y-96187232D01*
X186863091Y-96288760D01*
X186947242Y-96378186D01*
X187012040Y-96449471D01*
X187051538Y-96496573D01*
X187060980Y-96512337D01*
X187047391Y-96541398D01*
X187009293Y-96605066D01*
X186950694Y-96697112D01*
X186875597Y-96811309D01*
X186788009Y-96941429D01*
X186737254Y-97015646D01*
X186644745Y-97151167D01*
X186562540Y-97273461D01*
X186494630Y-97376440D01*
X186445000Y-97454018D01*
X186417640Y-97500106D01*
X186413529Y-97509792D01*
X186422849Y-97537319D01*
X186448254Y-97601473D01*
X186485911Y-97693235D01*
X186531986Y-97803584D01*
X186582646Y-97923500D01*
X186634059Y-98043964D01*
X186682389Y-98155954D01*
X186723806Y-98250452D01*
X186754474Y-98318437D01*
X186770562Y-98350888D01*
X186771511Y-98352165D01*
X186796772Y-98358362D01*
X186864046Y-98372185D01*
X186966360Y-98392277D01*
X187096741Y-98417279D01*
X187248216Y-98445831D01*
X187336594Y-98462296D01*
X187498452Y-98493114D01*
X187644649Y-98522439D01*
X187767787Y-98548666D01*
X187860469Y-98570191D01*
X187915301Y-98585410D01*
X187926323Y-98590238D01*
X187937119Y-98622919D01*
X187945829Y-98696730D01*
X187952460Y-98803037D01*
X187957018Y-98933212D01*
X187959509Y-99078621D01*
X187959938Y-99230635D01*
X187958311Y-99380622D01*
X187954635Y-99519951D01*
X187948915Y-99639990D01*
X187941158Y-99732110D01*
X187931368Y-99787677D01*
X187925496Y-99799245D01*
X187890399Y-99813110D01*
X187816028Y-99832933D01*
X187712223Y-99856384D01*
X187588819Y-99881136D01*
X187545741Y-99889143D01*
X187338047Y-99927186D01*
X187173984Y-99957824D01*
X187048130Y-99982274D01*
X186955065Y-100001754D01*
X186889367Y-100017481D01*
X186845617Y-100030673D01*
X186818392Y-100042549D01*
X186802272Y-100054325D01*
X186800017Y-100056653D01*
X186777503Y-100094145D01*
X186743158Y-100167110D01*
X186700411Y-100266612D01*
X186652692Y-100383718D01*
X186603430Y-100509493D01*
X186556055Y-100635002D01*
X186513995Y-100751310D01*
X186480680Y-100849484D01*
X186459541Y-100920588D01*
X186454005Y-100955687D01*
X186454466Y-100956917D01*
X186473223Y-100985606D01*
X186515776Y-101048730D01*
X186577653Y-101139718D01*
X186654382Y-101252000D01*
X186741491Y-101379005D01*
X186766299Y-101415098D01*
X186854753Y-101545948D01*
X186932588Y-101665336D01*
X186995566Y-101766407D01*
X187039445Y-101842304D01*
X187059985Y-101886172D01*
X187060980Y-101891562D01*
X187043722Y-101919889D01*
X186996036Y-101976006D01*
X186924050Y-102053882D01*
X186833897Y-102147485D01*
X186731705Y-102250786D01*
X186623606Y-102357751D01*
X186515728Y-102462351D01*
X186414204Y-102558554D01*
X186325162Y-102640329D01*
X186254733Y-102701645D01*
X186209047Y-102736471D01*
X186196409Y-102742157D01*
X186166991Y-102728765D01*
X186106761Y-102692644D01*
X186025530Y-102639881D01*
X185963030Y-102597412D01*
X185849785Y-102519485D01*
X185715674Y-102427729D01*
X185581155Y-102336120D01*
X185508833Y-102287091D01*
X185264038Y-102121515D01*
X185058551Y-102232620D01*
X184964936Y-102281293D01*
X184885330Y-102319126D01*
X184831467Y-102340703D01*
X184817757Y-102343706D01*
X184801270Y-102321538D01*
X184768745Y-102258894D01*
X184722609Y-102161554D01*
X184665290Y-102035294D01*
X184599216Y-101885895D01*
X184526815Y-101719133D01*
X184450516Y-101540787D01*
X184372746Y-101356636D01*
X184295934Y-101172457D01*
X184222506Y-100994030D01*
X184154892Y-100827132D01*
X184095520Y-100677542D01*
X184046816Y-100551038D01*
X184011210Y-100453399D01*
X183991130Y-100390402D01*
X183987900Y-100368766D01*
X184013496Y-100341169D01*
X184069539Y-100296370D01*
X184144311Y-100243679D01*
X184150587Y-100239510D01*
X184343845Y-100084814D01*
X184499674Y-99904336D01*
X184616724Y-99703847D01*
X184693645Y-99489119D01*
X184729086Y-99265922D01*
X184721697Y-99040026D01*
X184670127Y-98817204D01*
X184573026Y-98603224D01*
X184544458Y-98556409D01*
X184395868Y-98367363D01*
X184220327Y-98215557D01*
X184023910Y-98101779D01*
X183812693Y-98026820D01*
X183592753Y-97991467D01*
X183370163Y-97996512D01*
X183151001Y-98042744D01*
X182941342Y-98130951D01*
X182747261Y-98261924D01*
X182687226Y-98315082D01*
X182534435Y-98481484D01*
X182423097Y-98656657D01*
X182346723Y-98853011D01*
X182304187Y-99047462D01*
X182293686Y-99266087D01*
X182328701Y-99485797D01*
X182405673Y-99699165D01*
X182521047Y-99898767D01*
X182671266Y-100077174D01*
X182852773Y-100226962D01*
X182876627Y-100242751D01*
X182952201Y-100294457D01*
X183009651Y-100339257D01*
X183037117Y-100367862D01*
X183037517Y-100368766D01*
X183031620Y-100399709D01*
X183008245Y-100469936D01*
X182969821Y-100573670D01*
X182918777Y-100705135D01*
X182857542Y-100858552D01*
X182788544Y-101028146D01*
X182714214Y-101208138D01*
X182636978Y-101392753D01*
X182559268Y-101576213D01*
X182483511Y-101752741D01*
X182412137Y-101916559D01*
X182347574Y-102061892D01*
X182292252Y-102182962D01*
X182248600Y-102273992D01*
X182219046Y-102329205D01*
X182207144Y-102343706D01*
X182170777Y-102332414D01*
X182102730Y-102302130D01*
X182014737Y-102258265D01*
X181966351Y-102232620D01*
X181760863Y-102121515D01*
X181516068Y-102287091D01*
X181391106Y-102371915D01*
X181254295Y-102465261D01*
X181126089Y-102553153D01*
X181061871Y-102597412D01*
X180971551Y-102658063D01*
X180895071Y-102706126D01*
X180842407Y-102735515D01*
X180825302Y-102741727D01*
X180800405Y-102724968D01*
X180745305Y-102678181D01*
X180665343Y-102606225D01*
X180565861Y-102513957D01*
X180452200Y-102406235D01*
X180380315Y-102337071D01*
X180254551Y-102213502D01*
X180145863Y-102102979D01*
X180058645Y-102010230D01*
X179997289Y-101939982D01*
X179966191Y-101896965D01*
X179963208Y-101888235D01*
X179977053Y-101855029D01*
X180015312Y-101787887D01*
X180073742Y-101693608D01*
X180148097Y-101578990D01*
X180234135Y-101450828D01*
X180258603Y-101415098D01*
X180347755Y-101285234D01*
X180427738Y-101168314D01*
X180494080Y-101070907D01*
X180542311Y-100999584D01*
X180567957Y-100960915D01*
X180570435Y-100956917D01*
X180566729Y-100926100D01*
X180547061Y-100858344D01*
X180514860Y-100762584D01*
X180473555Y-100647754D01*
X180426575Y-100522789D01*
X180377349Y-100396624D01*
X180329308Y-100278193D01*
X180285881Y-100176430D01*
X180250496Y-100100271D01*
X180226584Y-100058649D01*
X180224884Y-100056653D01*
X180210262Y-100044758D01*
X180185565Y-100032995D01*
X180145372Y-100020146D01*
X180084263Y-100004994D01*
X179996817Y-99986321D01*
X179877612Y-99962910D01*
X179721227Y-99933542D01*
X179522243Y-99897000D01*
X179479160Y-99889143D01*
X179351471Y-99864472D01*
X179240153Y-99840338D01*
X179155045Y-99819069D01*
X179105983Y-99802993D01*
X179099405Y-99799245D01*
X179088564Y-99766018D01*
X179079753Y-99691766D01*
X179072976Y-99585121D01*
X179068240Y-99454712D01*
X179065550Y-99309172D01*
X179064913Y-99157131D01*
X179066334Y-99007221D01*
X179069820Y-98868073D01*
X179075376Y-98748317D01*
X179083008Y-98656586D01*
X179092722Y-98601511D01*
X179098578Y-98590238D01*
X179131180Y-98578868D01*
X179205418Y-98560369D01*
X179313896Y-98536347D01*
X179449217Y-98508407D01*
X179603985Y-98478153D01*
X179688308Y-98462296D01*
X179848296Y-98432389D01*
X179990967Y-98405295D01*
X180109348Y-98382376D01*
X180196465Y-98364988D01*
X180245345Y-98354492D01*
X180253390Y-98352165D01*
X180266987Y-98325931D01*
X180295729Y-98262740D01*
X180335785Y-98171622D01*
X180383324Y-98061602D01*
X180434515Y-97941710D01*
X180485526Y-97820972D01*
X180532526Y-97708416D01*
X180571684Y-97613071D01*
X180599169Y-97543962D01*
X180611149Y-97510119D01*
X180611372Y-97508640D01*
X180597791Y-97481942D01*
X180559715Y-97420505D01*
X180501147Y-97330434D01*
X180426088Y-97217835D01*
X180338540Y-97088815D01*
X180287647Y-97014706D01*
X180194909Y-96878822D01*
X180112541Y-96755454D01*
X180044561Y-96650842D01*
X179994988Y-96571228D01*
X179967842Y-96522852D01*
X179963921Y-96512007D01*
X179980775Y-96486765D01*
X180027368Y-96432869D01*
X180097749Y-96356358D01*
X180185965Y-96263268D01*
X180286065Y-96159640D01*
X180392098Y-96051509D01*
X180498111Y-95944915D01*
X180598152Y-95845895D01*
X180686270Y-95760487D01*
X180756513Y-95694730D01*
X180802928Y-95654661D01*
X180818456Y-95645098D01*
X180843739Y-95658545D01*
X180904211Y-95696320D01*
X180993992Y-95754580D01*
X181107203Y-95829479D01*
X181237964Y-95917170D01*
X181336600Y-95983978D01*
X181834957Y-96322857D01*
X182250371Y-96151610D01*
X182665784Y-95980363D01*
X182778366Y-95383172D01*
X182890949Y-94785980D01*
X184133952Y-94785980D01*
X184246535Y-95383172D01*
G04 #@! TO.C,J1*
D11*
X165916666Y-109102380D02*
X165916666Y-109816666D01*
X165869047Y-109959523D01*
X165773809Y-110054761D01*
X165630952Y-110102380D01*
X165535714Y-110102380D01*
X166916666Y-110102380D02*
X166345238Y-110102380D01*
X166630952Y-110102380D02*
X166630952Y-109102380D01*
X166535714Y-109245238D01*
X166440476Y-109340476D01*
X166345238Y-109388095D01*
G04 #@! TO.C,CN10*
X191825142Y-72652666D02*
X191872761Y-72700285D01*
X191920380Y-72843142D01*
X191920380Y-72938380D01*
X191872761Y-73081238D01*
X191777523Y-73176476D01*
X191682285Y-73224095D01*
X191491809Y-73271714D01*
X191348952Y-73271714D01*
X191158476Y-73224095D01*
X191063238Y-73176476D01*
X190968000Y-73081238D01*
X190920380Y-72938380D01*
X190920380Y-72843142D01*
X190968000Y-72700285D01*
X191015619Y-72652666D01*
X191920380Y-72224095D02*
X190920380Y-72224095D01*
X191920380Y-71652666D01*
X190920380Y-71652666D01*
X191920380Y-70652666D02*
X191920380Y-71224095D01*
X191920380Y-70938380D02*
X190920380Y-70938380D01*
X191063238Y-71033619D01*
X191158476Y-71128857D01*
X191206095Y-71224095D01*
X190920380Y-70033619D02*
X190920380Y-69938380D01*
X190968000Y-69843142D01*
X191015619Y-69795523D01*
X191110857Y-69747904D01*
X191301333Y-69700285D01*
X191539428Y-69700285D01*
X191729904Y-69747904D01*
X191825142Y-69795523D01*
X191872761Y-69843142D01*
X191920380Y-69938380D01*
X191920380Y-70033619D01*
X191872761Y-70128857D01*
X191825142Y-70176476D01*
X191729904Y-70224095D01*
X191539428Y-70271714D01*
X191301333Y-70271714D01*
X191110857Y-70224095D01*
X191015619Y-70176476D01*
X190968000Y-70128857D01*
X190920380Y-70033619D01*
G04 #@! TO.C,CN7*
X138993142Y-71668476D02*
X139040761Y-71716095D01*
X139088380Y-71858952D01*
X139088380Y-71954190D01*
X139040761Y-72097047D01*
X138945523Y-72192285D01*
X138850285Y-72239904D01*
X138659809Y-72287523D01*
X138516952Y-72287523D01*
X138326476Y-72239904D01*
X138231238Y-72192285D01*
X138136000Y-72097047D01*
X138088380Y-71954190D01*
X138088380Y-71858952D01*
X138136000Y-71716095D01*
X138183619Y-71668476D01*
X139088380Y-71239904D02*
X138088380Y-71239904D01*
X139088380Y-70668476D01*
X138088380Y-70668476D01*
X138088380Y-70287523D02*
X138088380Y-69620857D01*
X139088380Y-70049428D01*
G04 #@! TO.C,SW1*
X158666666Y-84404761D02*
X158809523Y-84452380D01*
X159047619Y-84452380D01*
X159142857Y-84404761D01*
X159190476Y-84357142D01*
X159238095Y-84261904D01*
X159238095Y-84166666D01*
X159190476Y-84071428D01*
X159142857Y-84023809D01*
X159047619Y-83976190D01*
X158857142Y-83928571D01*
X158761904Y-83880952D01*
X158714285Y-83833333D01*
X158666666Y-83738095D01*
X158666666Y-83642857D01*
X158714285Y-83547619D01*
X158761904Y-83500000D01*
X158857142Y-83452380D01*
X159095238Y-83452380D01*
X159238095Y-83500000D01*
X159571428Y-83452380D02*
X159809523Y-84452380D01*
X160000000Y-83738095D01*
X160190476Y-84452380D01*
X160428571Y-83452380D01*
X161333333Y-84452380D02*
X160761904Y-84452380D01*
X161047619Y-84452380D02*
X161047619Y-83452380D01*
X160952380Y-83595238D01*
X160857142Y-83690476D01*
X160761904Y-83738095D01*
G04 #@! TO.C,SW2*
X168666666Y-84404761D02*
X168809523Y-84452380D01*
X169047619Y-84452380D01*
X169142857Y-84404761D01*
X169190476Y-84357142D01*
X169238095Y-84261904D01*
X169238095Y-84166666D01*
X169190476Y-84071428D01*
X169142857Y-84023809D01*
X169047619Y-83976190D01*
X168857142Y-83928571D01*
X168761904Y-83880952D01*
X168714285Y-83833333D01*
X168666666Y-83738095D01*
X168666666Y-83642857D01*
X168714285Y-83547619D01*
X168761904Y-83500000D01*
X168857142Y-83452380D01*
X169095238Y-83452380D01*
X169238095Y-83500000D01*
X169571428Y-83452380D02*
X169809523Y-84452380D01*
X170000000Y-83738095D01*
X170190476Y-84452380D01*
X170428571Y-83452380D01*
X170761904Y-83547619D02*
X170809523Y-83500000D01*
X170904761Y-83452380D01*
X171142857Y-83452380D01*
X171238095Y-83500000D01*
X171285714Y-83547619D01*
X171333333Y-83642857D01*
X171333333Y-83738095D01*
X171285714Y-83880952D01*
X170714285Y-84452380D01*
X171333333Y-84452380D01*
G04 #@! TD*
M02*
