G04 #@! TF.FileFunction,Soldermask,Top*
%FSLAX46Y46*%
G04 Gerber Fmt 4.6, Leading zero omitted, Abs format (unit mm)*
G04 Created by KiCad (PCBNEW 4.0.7) date Tue Mar 20 00:28:39 2018*
%MOMM*%
%LPD*%
G01*
G04 APERTURE LIST*
%ADD10C,0.100000*%
%ADD11R,2.127200X2.127200*%
%ADD12O,2.127200X2.127200*%
%ADD13R,1.400000X2.900000*%
%ADD14R,2.900000X4.400000*%
%ADD15R,1.800000X1.800000*%
%ADD16C,1.800000*%
G04 APERTURE END LIST*
D10*
D11*
X133250000Y-71240000D03*
D12*
X135790000Y-71240000D03*
X133250000Y-73780000D03*
X135790000Y-73780000D03*
X133250000Y-76320000D03*
X135790000Y-76320000D03*
X133250000Y-78860000D03*
X135790000Y-78860000D03*
X133250000Y-81400000D03*
X135790000Y-81400000D03*
X133250000Y-83940000D03*
X135790000Y-83940000D03*
X133250000Y-86480000D03*
X135790000Y-86480000D03*
X133250000Y-89020000D03*
X135790000Y-89020000D03*
X133250000Y-91560000D03*
X135790000Y-91560000D03*
X133250000Y-94100000D03*
X135790000Y-94100000D03*
X133250000Y-96640000D03*
X135790000Y-96640000D03*
X133250000Y-99180000D03*
X135790000Y-99180000D03*
X133250000Y-101720000D03*
X135790000Y-101720000D03*
X133250000Y-104260000D03*
X135790000Y-104260000D03*
X133250000Y-106800000D03*
X135790000Y-106800000D03*
X133250000Y-109340000D03*
X135790000Y-109340000D03*
X133250000Y-111880000D03*
X135790000Y-111880000D03*
X133250000Y-114420000D03*
X135790000Y-114420000D03*
X133250000Y-116960000D03*
X135790000Y-116960000D03*
D11*
X194210000Y-71240000D03*
D12*
X196750000Y-71240000D03*
X194210000Y-73780000D03*
X196750000Y-73780000D03*
X194210000Y-76320000D03*
X196750000Y-76320000D03*
X194210000Y-78860000D03*
X196750000Y-78860000D03*
X194210000Y-81400000D03*
X196750000Y-81400000D03*
X194210000Y-83940000D03*
X196750000Y-83940000D03*
X194210000Y-86480000D03*
X196750000Y-86480000D03*
X194210000Y-89020000D03*
X196750000Y-89020000D03*
X194210000Y-91560000D03*
X196750000Y-91560000D03*
X194210000Y-94100000D03*
X196750000Y-94100000D03*
X194210000Y-96640000D03*
X196750000Y-96640000D03*
X194210000Y-99180000D03*
X196750000Y-99180000D03*
X194210000Y-101720000D03*
X196750000Y-101720000D03*
X194210000Y-104260000D03*
X196750000Y-104260000D03*
X194210000Y-106800000D03*
X196750000Y-106800000D03*
X194210000Y-109340000D03*
X196750000Y-109340000D03*
X194210000Y-111880000D03*
X196750000Y-111880000D03*
X194210000Y-114420000D03*
X196750000Y-114420000D03*
X194210000Y-116960000D03*
X196750000Y-116960000D03*
D13*
X188810000Y-116540000D03*
X167810000Y-116540000D03*
X187310000Y-116540000D03*
X185810000Y-116540000D03*
X184310000Y-116540000D03*
X182810000Y-116540000D03*
X181310000Y-116540000D03*
X179810000Y-116540000D03*
X178310000Y-116540000D03*
X176810000Y-116540000D03*
X175310000Y-116540000D03*
X173810000Y-116540000D03*
X172310000Y-116540000D03*
X170810000Y-116540000D03*
X169310000Y-116540000D03*
X166310000Y-116540000D03*
X164810000Y-116540000D03*
X163310000Y-116540000D03*
X161810000Y-116540000D03*
X160310000Y-116540000D03*
X158810000Y-116540000D03*
X157310000Y-116540000D03*
X155810000Y-116540000D03*
X154310000Y-116540000D03*
X152810000Y-116540000D03*
X151310000Y-116540000D03*
X149810000Y-116540000D03*
X148310000Y-116540000D03*
X146810000Y-116540000D03*
X145310000Y-116540000D03*
X143810000Y-116540000D03*
X142310000Y-116540000D03*
D14*
X195760000Y-127790000D03*
X135360000Y-127790000D03*
D15*
X157940000Y-92060000D03*
D16*
X157940000Y-89560000D03*
X157940000Y-87060000D03*
X161240000Y-92060000D03*
X161240000Y-89560000D03*
X161240000Y-87060000D03*
D15*
X168100000Y-92060000D03*
D16*
X168100000Y-89560000D03*
X168100000Y-87060000D03*
X171400000Y-92060000D03*
X171400000Y-89560000D03*
X171400000Y-87060000D03*
M02*
