G04 #@! TF.GenerationSoftware,KiCad,Pcbnew,5.0.1*
G04 #@! TF.CreationDate,2018-11-27T23:31:16+01:00*
G04 #@! TF.ProjectId,STM_Morpho,53544D5F4D6F7270686F2E6B69636164,rev?*
G04 #@! TF.SameCoordinates,Original*
G04 #@! TF.FileFunction,Copper,L1,Top,Signal*
G04 #@! TF.FilePolarity,Positive*
%FSLAX46Y46*%
G04 Gerber Fmt 4.6, Leading zero omitted, Abs format (unit mm)*
G04 Created by KiCad (PCBNEW 5.0.1) date Tue 27 Nov 2018 11:31:16 PM CET*
%MOMM*%
%LPD*%
G01*
G04 APERTURE LIST*
G04 #@! TA.AperFunction,SMDPad,CuDef*
%ADD10R,1.000000X2.500000*%
G04 #@! TD*
G04 #@! TA.AperFunction,SMDPad,CuDef*
%ADD11R,4.500000X2.500000*%
G04 #@! TD*
G04 #@! TA.AperFunction,ComponentPad*
%ADD12O,1.727200X1.727200*%
G04 #@! TD*
G04 #@! TA.AperFunction,ComponentPad*
%ADD13R,1.727200X1.727200*%
G04 #@! TD*
G04 #@! TA.AperFunction,ComponentPad*
%ADD14R,1.400000X1.400000*%
G04 #@! TD*
G04 #@! TA.AperFunction,ComponentPad*
%ADD15C,1.400000*%
G04 #@! TD*
G04 #@! TA.AperFunction,ViaPad*
%ADD16C,0.600000*%
G04 #@! TD*
G04 #@! TA.AperFunction,Conductor*
%ADD17C,0.250000*%
G04 #@! TD*
G04 #@! TA.AperFunction,Conductor*
%ADD18C,0.400000*%
G04 #@! TD*
G04 #@! TA.AperFunction,Conductor*
%ADD19C,0.254000*%
G04 #@! TD*
G04 APERTURE END LIST*
D10*
G04 #@! TO.P,J1,1*
G04 #@! TO.N,VCC*
X189500000Y-113200000D03*
G04 #@! TO.P,J1,15*
G04 #@! TO.N,A9*
X168500000Y-113200000D03*
G04 #@! TO.P,J1,2*
G04 #@! TO.N,CLK*
X188000000Y-113200000D03*
G04 #@! TO.P,J1,3*
G04 #@! TO.N,/WR*
X186500000Y-113200000D03*
G04 #@! TO.P,J1,4*
G04 #@! TO.N,/RD*
X185000000Y-113200000D03*
G04 #@! TO.P,J1,5*
G04 #@! TO.N,/CS*
X183500000Y-113200000D03*
G04 #@! TO.P,J1,6*
G04 #@! TO.N,A0*
X182000000Y-113200000D03*
G04 #@! TO.P,J1,7*
G04 #@! TO.N,A1*
X180500000Y-113200000D03*
G04 #@! TO.P,J1,8*
G04 #@! TO.N,A2*
X179000000Y-113200000D03*
G04 #@! TO.P,J1,9*
G04 #@! TO.N,A3*
X177500000Y-113200000D03*
G04 #@! TO.P,J1,10*
G04 #@! TO.N,A4*
X176000000Y-113200000D03*
G04 #@! TO.P,J1,11*
G04 #@! TO.N,A5*
X174500000Y-113200000D03*
G04 #@! TO.P,J1,12*
G04 #@! TO.N,A6*
X173000000Y-113200000D03*
G04 #@! TO.P,J1,13*
G04 #@! TO.N,A7*
X171500000Y-113200000D03*
G04 #@! TO.P,J1,14*
G04 #@! TO.N,A8*
X170000000Y-113200000D03*
G04 #@! TO.P,J1,16*
G04 #@! TO.N,A10*
X167000000Y-113200000D03*
G04 #@! TO.P,J1,17*
G04 #@! TO.N,A11*
X165500000Y-113200000D03*
G04 #@! TO.P,J1,18*
G04 #@! TO.N,A12*
X164000000Y-113200000D03*
G04 #@! TO.P,J1,19*
G04 #@! TO.N,A13*
X162500000Y-113200000D03*
G04 #@! TO.P,J1,20*
G04 #@! TO.N,A14*
X161000000Y-113200000D03*
G04 #@! TO.P,J1,21*
G04 #@! TO.N,A15*
X159500000Y-113200000D03*
G04 #@! TO.P,J1,22*
G04 #@! TO.N,D0*
X158000000Y-113200000D03*
G04 #@! TO.P,J1,23*
G04 #@! TO.N,D1*
X156500000Y-113200000D03*
G04 #@! TO.P,J1,24*
G04 #@! TO.N,D2*
X155000000Y-113200000D03*
G04 #@! TO.P,J1,25*
G04 #@! TO.N,D3*
X153500000Y-113200000D03*
G04 #@! TO.P,J1,26*
G04 #@! TO.N,D4*
X152000000Y-113200000D03*
G04 #@! TO.P,J1,27*
G04 #@! TO.N,D5*
X150500000Y-113200000D03*
G04 #@! TO.P,J1,28*
G04 #@! TO.N,D6*
X149000000Y-113200000D03*
G04 #@! TO.P,J1,29*
G04 #@! TO.N,D7*
X147500000Y-113200000D03*
G04 #@! TO.P,J1,30*
G04 #@! TO.N,/RES*
X146000000Y-113200000D03*
G04 #@! TO.P,J1,31*
G04 #@! TO.N,AUDIO*
X144500000Y-113200000D03*
G04 #@! TO.P,J1,32*
G04 #@! TO.N,GND*
X143000000Y-113200000D03*
D11*
X179500000Y-132950000D03*
X153000000Y-132950000D03*
G04 #@! TD*
D12*
G04 #@! TO.P,CN10,34*
G04 #@! TO.N,A4*
X196750000Y-111880000D03*
G04 #@! TO.P,CN10,33*
G04 #@! TO.N,CLK*
X194210000Y-111880000D03*
G04 #@! TO.P,CN10,32*
G04 #@! TO.N,Net-(CN10-Pad32)*
X196750000Y-109340000D03*
G04 #@! TO.P,CN10,31*
G04 #@! TO.N,D3*
X194210000Y-109340000D03*
G04 #@! TO.P,CN10,30*
G04 #@! TO.N,PB13*
X196750000Y-106800000D03*
G04 #@! TO.P,CN10,29*
G04 #@! TO.N,D5*
X194210000Y-106800000D03*
G04 #@! TO.P,CN10,28*
G04 #@! TO.N,PB14*
X196750000Y-104260000D03*
G04 #@! TO.P,CN10,27*
G04 #@! TO.N,D4*
X194210000Y-104260000D03*
G04 #@! TO.P,CN10,26*
G04 #@! TO.N,PB15*
X196750000Y-101720000D03*
G04 #@! TO.P,CN10,25*
G04 #@! TO.N,PB10*
X194210000Y-101720000D03*
G04 #@! TO.P,CN10,24*
G04 #@! TO.N,D1*
X196750000Y-99180000D03*
G04 #@! TO.P,CN10,23*
G04 #@! TO.N,/CS*
X194210000Y-99180000D03*
G04 #@! TO.P,CN10,22*
G04 #@! TO.N,D2*
X196750000Y-96640000D03*
G04 #@! TO.P,CN10,21*
G04 #@! TO.N,/RES*
X194210000Y-96640000D03*
G04 #@! TO.P,CN10,20*
G04 #@! TO.N,GND*
X196750000Y-94100000D03*
G04 #@! TO.P,CN10,19*
G04 #@! TO.N,A7*
X194210000Y-94100000D03*
G04 #@! TO.P,CN10,18*
G04 #@! TO.N,Net-(CN10-Pad18)*
X196750000Y-91560000D03*
G04 #@! TO.P,CN10,17*
G04 #@! TO.N,D6*
X194210000Y-91560000D03*
G04 #@! TO.P,CN10,16*
G04 #@! TO.N,PB12*
X196750000Y-89020000D03*
G04 #@! TO.P,CN10,15*
G04 #@! TO.N,/RD*
X194210000Y-89020000D03*
G04 #@! TO.P,CN10,14*
G04 #@! TO.N,PA11*
X196750000Y-86480000D03*
G04 #@! TO.P,CN10,13*
G04 #@! TO.N,/WR*
X194210000Y-86480000D03*
G04 #@! TO.P,CN10,12*
G04 #@! TO.N,PA12*
X196750000Y-83940000D03*
G04 #@! TO.P,CN10,11*
G04 #@! TO.N,PA5*
X194210000Y-83940000D03*
G04 #@! TO.P,CN10,10*
G04 #@! TO.N,Net-(CN10-Pad10)*
X196750000Y-81400000D03*
G04 #@! TO.P,CN10,9*
G04 #@! TO.N,GND*
X194210000Y-81400000D03*
G04 #@! TO.P,CN10,8*
G04 #@! TO.N,Net-(CN10-Pad8)*
X196750000Y-78860000D03*
G04 #@! TO.P,CN10,7*
G04 #@! TO.N,Net-(CN10-Pad7)*
X194210000Y-78860000D03*
G04 #@! TO.P,CN10,6*
G04 #@! TO.N,A5*
X196750000Y-76320000D03*
G04 #@! TO.P,CN10,5*
G04 #@! TO.N,PB9*
X194210000Y-76320000D03*
G04 #@! TO.P,CN10,4*
G04 #@! TO.N,A6*
X196750000Y-73780000D03*
G04 #@! TO.P,CN10,3*
G04 #@! TO.N,PB8*
X194210000Y-73780000D03*
G04 #@! TO.P,CN10,2*
G04 #@! TO.N,A8*
X196750000Y-71240000D03*
D13*
G04 #@! TO.P,CN10,1*
G04 #@! TO.N,A9*
X194210000Y-71240000D03*
G04 #@! TD*
G04 #@! TO.P,CN7,1*
G04 #@! TO.N,A10*
X133250000Y-71240000D03*
D12*
G04 #@! TO.P,CN7,2*
G04 #@! TO.N,A11*
X135790000Y-71240000D03*
G04 #@! TO.P,CN7,3*
G04 #@! TO.N,A12*
X133250000Y-73780000D03*
G04 #@! TO.P,CN7,4*
G04 #@! TO.N,PD2*
X135790000Y-73780000D03*
G04 #@! TO.P,CN7,5*
G04 #@! TO.N,Net-(CN7-Pad5)*
X133250000Y-76320000D03*
G04 #@! TO.P,CN7,6*
G04 #@! TO.N,Net-(CN7-Pad6)*
X135790000Y-76320000D03*
G04 #@! TO.P,CN7,7*
G04 #@! TO.N,Net-(CN7-Pad7)*
X133250000Y-78860000D03*
G04 #@! TO.P,CN7,8*
G04 #@! TO.N,GND*
X135790000Y-78860000D03*
G04 #@! TO.P,CN7,9*
G04 #@! TO.N,Net-(CN7-Pad9)*
X133250000Y-81400000D03*
G04 #@! TO.P,CN7,10*
G04 #@! TO.N,Net-(CN7-Pad10)*
X135790000Y-81400000D03*
G04 #@! TO.P,CN7,11*
G04 #@! TO.N,Net-(CN7-Pad11)*
X133250000Y-83940000D03*
G04 #@! TO.P,CN7,12*
G04 #@! TO.N,Net-(CN7-Pad12)*
X135790000Y-83940000D03*
G04 #@! TO.P,CN7,13*
G04 #@! TO.N,PA13*
X133250000Y-86480000D03*
G04 #@! TO.P,CN7,14*
G04 #@! TO.N,Net-(CN7-Pad14)*
X135790000Y-86480000D03*
G04 #@! TO.P,CN7,15*
G04 #@! TO.N,PA14*
X133250000Y-89020000D03*
G04 #@! TO.P,CN7,16*
G04 #@! TO.N,3V3*
X135790000Y-89020000D03*
G04 #@! TO.P,CN7,17*
G04 #@! TO.N,PA15*
X133250000Y-91560000D03*
G04 #@! TO.P,CN7,18*
G04 #@! TO.N,5V*
X135790000Y-91560000D03*
G04 #@! TO.P,CN7,19*
G04 #@! TO.N,GND*
X133250000Y-94100000D03*
G04 #@! TO.P,CN7,20*
X135790000Y-94100000D03*
G04 #@! TO.P,CN7,21*
G04 #@! TO.N,D7*
X133250000Y-96640000D03*
G04 #@! TO.P,CN7,22*
G04 #@! TO.N,GND*
X135790000Y-96640000D03*
G04 #@! TO.P,CN7,23*
G04 #@! TO.N,A13*
X133250000Y-99180000D03*
G04 #@! TO.P,CN7,24*
G04 #@! TO.N,Net-(CN7-Pad24)*
X135790000Y-99180000D03*
G04 #@! TO.P,CN7,25*
G04 #@! TO.N,PC14*
X133250000Y-101720000D03*
G04 #@! TO.P,CN7,26*
G04 #@! TO.N,Net-(CN7-Pad26)*
X135790000Y-101720000D03*
G04 #@! TO.P,CN7,27*
G04 #@! TO.N,PC15*
X133250000Y-104260000D03*
G04 #@! TO.P,CN7,28*
G04 #@! TO.N,A14*
X135790000Y-104260000D03*
G04 #@! TO.P,CN7,29*
G04 #@! TO.N,Net-(CN7-Pad29)*
X133250000Y-106800000D03*
G04 #@! TO.P,CN7,30*
G04 #@! TO.N,A15*
X135790000Y-106800000D03*
G04 #@! TO.P,CN7,31*
G04 #@! TO.N,Net-(CN7-Pad31)*
X133250000Y-109340000D03*
G04 #@! TO.P,CN7,32*
G04 #@! TO.N,PA4*
X135790000Y-109340000D03*
G04 #@! TO.P,CN7,33*
G04 #@! TO.N,Net-(CN7-Pad33)*
X133250000Y-111880000D03*
G04 #@! TO.P,CN7,34*
G04 #@! TO.N,D0*
X135790000Y-111880000D03*
G04 #@! TO.P,CN7,35*
G04 #@! TO.N,A2*
X133250000Y-114420000D03*
G04 #@! TO.P,CN7,36*
G04 #@! TO.N,A1*
X135790000Y-114420000D03*
G04 #@! TO.P,CN7,37*
G04 #@! TO.N,A3*
X133250000Y-116960000D03*
G04 #@! TO.P,CN7,38*
G04 #@! TO.N,A0*
X135790000Y-116960000D03*
G04 #@! TD*
D14*
G04 #@! TO.P,SW1,1*
G04 #@! TO.N,5V*
X157940000Y-92060000D03*
D15*
G04 #@! TO.P,SW1,2*
G04 #@! TO.N,VCCS*
X157940000Y-89560000D03*
G04 #@! TO.P,SW1,3*
G04 #@! TO.N,3V3*
X157940000Y-87060000D03*
G04 #@! TO.P,SW1,4*
G04 #@! TO.N,N/C*
X161240000Y-92060000D03*
G04 #@! TO.P,SW1,5*
X161240000Y-89560000D03*
G04 #@! TO.P,SW1,6*
X161240000Y-87060000D03*
G04 #@! TD*
D14*
G04 #@! TO.P,SW2,1*
G04 #@! TO.N,VCCS*
X168100000Y-92060000D03*
D15*
G04 #@! TO.P,SW2,2*
G04 #@! TO.N,VCC*
X168100000Y-89560000D03*
G04 #@! TO.P,SW2,3*
G04 #@! TO.N,N/C*
X168100000Y-87060000D03*
G04 #@! TO.P,SW2,4*
X171400000Y-92060000D03*
G04 #@! TO.P,SW2,5*
X171400000Y-89560000D03*
G04 #@! TO.P,SW2,6*
X171400000Y-87060000D03*
G04 #@! TD*
D16*
G04 #@! TO.N,GND*
X190198000Y-69454000D03*
X190198000Y-81392000D03*
X138128000Y-94092000D03*
X138128000Y-96632000D03*
G04 #@! TO.N,A14*
X144750000Y-108250000D03*
X161000000Y-108250000D03*
G04 #@! TO.N,A15*
X144750000Y-110500000D03*
X159500000Y-110500000D03*
G04 #@! TO.N,D0*
X141200000Y-123000000D03*
X157800000Y-123000000D03*
G04 #@! TO.N,A2*
X141100000Y-126100000D03*
X176900000Y-126100000D03*
G04 #@! TO.N,A1*
X141100000Y-124500000D03*
X181100000Y-124500000D03*
G04 #@! TO.N,A3*
X141000000Y-129200000D03*
X175700000Y-129200000D03*
G04 #@! TO.N,A0*
X141000000Y-127600000D03*
X182000000Y-127600000D03*
G04 #@! TO.N,/RD*
X189690000Y-89012000D03*
G04 #@! TO.N,D6*
X185372000Y-91552000D03*
X177752000Y-99172000D03*
X149000000Y-99172000D03*
G04 #@! TO.N,A7*
X180900000Y-94100000D03*
X176250000Y-100250000D03*
X171500000Y-100250000D03*
G04 #@! TO.N,/RES*
X146000000Y-101204000D03*
G04 #@! TO.N,D2*
X155000000Y-102474000D03*
G04 #@! TO.N,/CS*
X183500000Y-99180000D03*
G04 #@! TO.N,D1*
X156508000Y-103744000D03*
G04 #@! TO.N,D4*
X152036000Y-105014000D03*
G04 #@! TO.N,D5*
X150520000Y-106800000D03*
G04 #@! TO.N,D3*
X153600000Y-109340000D03*
G04 #@! TO.N,A4*
X190600000Y-123300000D03*
X174400000Y-123300000D03*
G04 #@! TO.N,VCC*
X189500000Y-95500000D03*
G04 #@! TD*
D17*
G04 #@! TO.N,A10*
X167000000Y-106000000D02*
X167000000Y-113200000D01*
X166325001Y-105325001D02*
X167000000Y-106000000D01*
X134528000Y-69962000D02*
X146002000Y-69962000D01*
X146002000Y-69962000D02*
X149304000Y-73264000D01*
X133250000Y-71240000D02*
X134528000Y-69962000D01*
X156014000Y-73264000D02*
X166325001Y-83575001D01*
X166325001Y-83575001D02*
X166325001Y-105325001D01*
X149304000Y-73264000D02*
X156014000Y-73264000D01*
G04 #@! TO.N,A11*
X165500000Y-106750000D02*
X165500000Y-113200000D01*
X165000000Y-106250000D02*
X165500000Y-106750000D01*
X135798000Y-71232000D02*
X145494000Y-71232000D01*
X135790000Y-71240000D02*
X135798000Y-71232000D01*
X145494000Y-71232000D02*
X148796000Y-74534000D01*
X148796000Y-74534000D02*
X155534000Y-74534000D01*
X155534000Y-74534000D02*
X165000000Y-84000000D01*
X165000000Y-84000000D02*
X165000000Y-106250000D01*
G04 #@! TO.N,A12*
X134572000Y-75042000D02*
X133250000Y-73780000D01*
X147272000Y-75042000D02*
X134572000Y-75042000D01*
X148034000Y-75804000D02*
X147272000Y-75042000D01*
X148034000Y-75804000D02*
X154804000Y-75804000D01*
X154804000Y-75804000D02*
X163750000Y-84750000D01*
X163750000Y-84750000D02*
X163750000Y-107000000D01*
X164000000Y-107250000D02*
X164000000Y-113200000D01*
X163750000Y-107000000D02*
X164000000Y-107250000D01*
D18*
G04 #@! TO.N,GND*
X190206000Y-81400000D02*
X190198000Y-81392000D01*
X193500000Y-81392000D02*
X190206000Y-81400000D01*
X138120000Y-94100000D02*
X136500000Y-94100000D01*
X138128000Y-94092000D02*
X138120000Y-94100000D01*
X138120000Y-96640000D02*
X138128000Y-96632000D01*
X136604000Y-96632000D02*
X138120000Y-96640000D01*
X143000000Y-113200000D02*
X143000000Y-132750000D01*
X143200000Y-132950000D02*
X153000000Y-132950000D01*
X143000000Y-132750000D02*
X143200000Y-132950000D01*
X153000000Y-132950000D02*
X179500000Y-132950000D01*
G04 #@! TO.N,5V*
X136290000Y-92060000D02*
X135790000Y-91560000D01*
D17*
G04 #@! TO.N,D7*
X147500000Y-100500000D02*
X147500000Y-113200000D01*
X144975000Y-97975000D02*
X147500000Y-100500000D01*
X133250000Y-96640000D02*
X134585000Y-97975000D01*
X134585000Y-97975000D02*
X144975000Y-97975000D01*
G04 #@! TO.N,A13*
X162500000Y-100250000D02*
X162500000Y-113200000D01*
X157612000Y-95362000D02*
X162500000Y-100250000D01*
X132032000Y-96124000D02*
X132794000Y-95362000D01*
X133250000Y-99180000D02*
X132032000Y-97962000D01*
X132794000Y-95362000D02*
X157612000Y-95362000D01*
X132032000Y-97962000D02*
X132032000Y-96124000D01*
G04 #@! TO.N,A14*
X135798000Y-104252000D02*
X135790000Y-104260000D01*
X135790000Y-104260000D02*
X140760000Y-104260000D01*
X140760000Y-104260000D02*
X144750000Y-108250000D01*
X144750000Y-108250000D02*
X144750000Y-108250000D01*
X161000000Y-108250000D02*
X161000000Y-113200000D01*
G04 #@! TO.N,A15*
X135790000Y-106800000D02*
X141050000Y-106800000D01*
X141050000Y-106800000D02*
X144750000Y-110500000D01*
X144750000Y-110500000D02*
X144750000Y-110500000D01*
X159500000Y-110500000D02*
X159500000Y-113200000D01*
G04 #@! TO.N,D0*
X135790000Y-111880000D02*
X137780000Y-111880000D01*
X137780000Y-111880000D02*
X141200000Y-115300000D01*
X141200000Y-115300000D02*
X141200000Y-123000000D01*
X141200000Y-123000000D02*
X141200000Y-123000000D01*
X157800000Y-113400000D02*
X158000000Y-113200000D01*
X157800000Y-123000000D02*
X157800000Y-113400000D01*
G04 #@! TO.N,A2*
X139200000Y-117100000D02*
X139200000Y-124200000D01*
X139200000Y-124200000D02*
X141100000Y-126100000D01*
X141100000Y-126100000D02*
X141100000Y-126100000D01*
X176900000Y-126100000D02*
X176900000Y-119800000D01*
X179000000Y-117700000D02*
X179000000Y-113200000D01*
X176900000Y-119800000D02*
X179000000Y-117700000D01*
X133250000Y-114420000D02*
X134530000Y-115700000D01*
X137800000Y-115700000D02*
X139200000Y-117100000D01*
X134530000Y-115700000D02*
X137800000Y-115700000D01*
G04 #@! TO.N,A1*
X137011314Y-114420000D02*
X137031314Y-114400000D01*
X135790000Y-114420000D02*
X137011314Y-114420000D01*
X137031314Y-114400000D02*
X137900000Y-114400000D01*
X137900000Y-114400000D02*
X140300000Y-116800000D01*
X140300000Y-116800000D02*
X140300000Y-123700000D01*
X140300000Y-123700000D02*
X141100000Y-124500000D01*
X141100000Y-124500000D02*
X141100000Y-124500000D01*
X181100000Y-124500000D02*
X181100000Y-117500000D01*
X180500000Y-116900000D02*
X180500000Y-113200000D01*
X181100000Y-117500000D02*
X180500000Y-116900000D01*
G04 #@! TO.N,A3*
X134113599Y-117823599D02*
X134113599Y-122313599D01*
X133250000Y-116960000D02*
X134113599Y-117823599D01*
X134113599Y-122313599D02*
X141000000Y-129200000D01*
X141000000Y-129200000D02*
X141000000Y-129200000D01*
X175700000Y-129200000D02*
X175700000Y-118900000D01*
X177500000Y-117100000D02*
X177500000Y-113200000D01*
X175700000Y-118900000D02*
X177500000Y-117100000D01*
G04 #@! TO.N,A0*
X135790000Y-118181314D02*
X135800000Y-118191314D01*
X135790000Y-116960000D02*
X135790000Y-118181314D01*
X135800000Y-118191314D02*
X135800000Y-122400000D01*
X135800000Y-122400000D02*
X141000000Y-127600000D01*
X141000000Y-127600000D02*
X141000000Y-127600000D01*
X182000000Y-127600000D02*
X182000000Y-113200000D01*
G04 #@! TO.N,A9*
X168500000Y-99000000D02*
X168500000Y-113200000D01*
X182570000Y-71240000D02*
X180292000Y-73518000D01*
X194210000Y-71240000D02*
X182570000Y-71240000D01*
X177752000Y-73518000D02*
X174196000Y-77074000D01*
X180292000Y-73518000D02*
X177752000Y-73518000D01*
X174196000Y-77074000D02*
X174196000Y-93304000D01*
X174196000Y-93304000D02*
X168500000Y-99000000D01*
G04 #@! TO.N,A8*
X170000000Y-99500000D02*
X170000000Y-113200000D01*
X175720000Y-93780000D02*
X170000000Y-99500000D01*
X195488000Y-72502000D02*
X183340000Y-72502000D01*
X196750000Y-71240000D02*
X195488000Y-72502000D01*
X183340000Y-72502000D02*
X181054000Y-74788000D01*
X175720000Y-77582000D02*
X175720000Y-93780000D01*
X181054000Y-74788000D02*
X178514000Y-74788000D01*
X178514000Y-74788000D02*
X175720000Y-77582000D01*
G04 #@! TO.N,A6*
X173000000Y-98500000D02*
X173000000Y-113200000D01*
X177244000Y-94256000D02*
X173000000Y-98500000D01*
X195488000Y-75042000D02*
X182578000Y-75042000D01*
X196750000Y-73780000D02*
X195488000Y-75042000D01*
X181562000Y-76058000D02*
X179276000Y-76058000D01*
X179276000Y-76058000D02*
X177244000Y-78090000D01*
X182578000Y-75042000D02*
X181562000Y-76058000D01*
X177244000Y-78090000D02*
X177244000Y-94256000D01*
G04 #@! TO.N,A5*
X178768000Y-78598000D02*
X178768000Y-94732000D01*
X174500000Y-99000000D02*
X174500000Y-113200000D01*
X179784000Y-77582000D02*
X178768000Y-78598000D01*
X196750000Y-76320000D02*
X195488000Y-77582000D01*
X178768000Y-94732000D02*
X174500000Y-99000000D01*
X195488000Y-77582000D02*
X179784000Y-77582000D01*
G04 #@! TO.N,/WR*
X193346401Y-87343599D02*
X193346401Y-87403599D01*
X194210000Y-86480000D02*
X193346401Y-87343599D01*
X186500000Y-94250000D02*
X186500000Y-113200000D01*
X193346401Y-87403599D02*
X186500000Y-94250000D01*
G04 #@! TO.N,/RD*
X189690000Y-89012000D02*
X185000000Y-93702000D01*
X185000000Y-93702000D02*
X185000000Y-113200000D01*
G04 #@! TO.N,D6*
X178006000Y-99172000D02*
X185626000Y-91552000D01*
X149000000Y-99172000D02*
X149000000Y-113200000D01*
G04 #@! TO.N,A7*
X180900000Y-94100000D02*
X176250000Y-98750000D01*
X176250000Y-98750000D02*
X176250000Y-100250000D01*
X176250000Y-100250000D02*
X176250000Y-100250000D01*
X171500000Y-100250000D02*
X171500000Y-113200000D01*
G04 #@! TO.N,/RES*
X146000000Y-101204000D02*
X146000000Y-113200000D01*
G04 #@! TO.N,D2*
X155000000Y-102474000D02*
X155000000Y-113200000D01*
G04 #@! TO.N,/CS*
X183500000Y-99180000D02*
X183500000Y-113200000D01*
G04 #@! TO.N,D1*
X156508000Y-113192000D02*
X156500000Y-113200000D01*
X156508000Y-103744000D02*
X156508000Y-113192000D01*
G04 #@! TO.N,D4*
X152036000Y-113164000D02*
X152000000Y-113200000D01*
X152036000Y-105014000D02*
X152036000Y-113164000D01*
G04 #@! TO.N,D5*
X150520000Y-113180000D02*
X150500000Y-113200000D01*
X150520000Y-106800000D02*
X150520000Y-113180000D01*
G04 #@! TO.N,D3*
X153600000Y-113100000D02*
X153500000Y-113200000D01*
X153600000Y-109340000D02*
X153600000Y-113100000D01*
G04 #@! TO.N,CLK*
X193346401Y-112743599D02*
X193346401Y-117653599D01*
X194210000Y-111880000D02*
X193346401Y-112743599D01*
X193346401Y-117653599D02*
X192100000Y-118900000D01*
X192100000Y-118900000D02*
X189400000Y-118900000D01*
X188000000Y-117500000D02*
X188000000Y-113200000D01*
X189400000Y-118900000D02*
X188000000Y-117500000D01*
G04 #@! TO.N,A4*
X195886401Y-112743599D02*
X195886401Y-118013599D01*
X196750000Y-111880000D02*
X195886401Y-112743599D01*
X195886401Y-118013599D02*
X190600000Y-123300000D01*
X190600000Y-123300000D02*
X190600000Y-123300000D01*
X176000000Y-117000000D02*
X176000000Y-113200000D01*
X174400000Y-123300000D02*
X174400000Y-118600000D01*
X174400000Y-118600000D02*
X176000000Y-117000000D01*
D18*
G04 #@! TO.N,VCC*
X189500000Y-95924264D02*
X189500000Y-113200000D01*
X189500000Y-95500000D02*
X189500000Y-95924264D01*
G04 #@! TD*
D19*
G04 #@! TO.N,GND*
G36*
X149105655Y-68994926D02*
X149195225Y-69054774D01*
X149255074Y-69144345D01*
X149290000Y-69319930D01*
X149290000Y-70069925D01*
X149303642Y-70138508D01*
X149303642Y-70138513D01*
X149379762Y-70521196D01*
X149399395Y-70568593D01*
X149485776Y-70777138D01*
X149702549Y-71101561D01*
X149702550Y-71101562D01*
X149898438Y-71297451D01*
X150222862Y-71514223D01*
X150328877Y-71558136D01*
X150478804Y-71620238D01*
X150861486Y-71696358D01*
X150861491Y-71696358D01*
X150930074Y-71710000D01*
X179069926Y-71710000D01*
X179138509Y-71696358D01*
X179138513Y-71696358D01*
X179521196Y-71620238D01*
X179546680Y-71609682D01*
X179578601Y-71603333D01*
X179605664Y-71585250D01*
X179777138Y-71514224D01*
X180101561Y-71297451D01*
X180167012Y-71232000D01*
X180297451Y-71101562D01*
X180514223Y-70777138D01*
X180564700Y-70655275D01*
X180581932Y-70613674D01*
X180635803Y-70559803D01*
X180663333Y-70518601D01*
X180673000Y-70470000D01*
X180673000Y-70255943D01*
X180696358Y-70138514D01*
X180696358Y-70138509D01*
X180710000Y-70069926D01*
X180710000Y-69319930D01*
X180735904Y-69189702D01*
X180939702Y-68985904D01*
X181069930Y-68960000D01*
X198668394Y-68960000D01*
X198790001Y-69081607D01*
X198790000Y-132703463D01*
X198731607Y-133146997D01*
X198595992Y-133474402D01*
X197974403Y-134095991D01*
X197646998Y-134231607D01*
X197203463Y-134290000D01*
X182385000Y-134290000D01*
X182385000Y-133235750D01*
X182226250Y-133077000D01*
X179627000Y-133077000D01*
X179627000Y-133097000D01*
X179373000Y-133097000D01*
X179373000Y-133077000D01*
X176773750Y-133077000D01*
X176615000Y-133235750D01*
X176615000Y-134290000D01*
X155885000Y-134290000D01*
X155885000Y-133235750D01*
X155726250Y-133077000D01*
X153127000Y-133077000D01*
X153127000Y-133097000D01*
X152873000Y-133097000D01*
X152873000Y-133077000D01*
X150273750Y-133077000D01*
X150115000Y-133235750D01*
X150115000Y-134290000D01*
X132296537Y-134290000D01*
X131853003Y-134231607D01*
X131525598Y-134095992D01*
X130904009Y-133474403D01*
X130768393Y-133146998D01*
X130710000Y-132703463D01*
X130710000Y-131573691D01*
X150115000Y-131573691D01*
X150115000Y-132664250D01*
X150273750Y-132823000D01*
X152873000Y-132823000D01*
X152873000Y-131223750D01*
X153127000Y-131223750D01*
X153127000Y-132823000D01*
X155726250Y-132823000D01*
X155885000Y-132664250D01*
X155885000Y-131573691D01*
X176615000Y-131573691D01*
X176615000Y-132664250D01*
X176773750Y-132823000D01*
X179373000Y-132823000D01*
X179373000Y-131223750D01*
X179627000Y-131223750D01*
X179627000Y-132823000D01*
X182226250Y-132823000D01*
X182385000Y-132664250D01*
X182385000Y-131573691D01*
X182288327Y-131340302D01*
X182109699Y-131161673D01*
X181876310Y-131065000D01*
X179785750Y-131065000D01*
X179627000Y-131223750D01*
X179373000Y-131223750D01*
X179214250Y-131065000D01*
X177123690Y-131065000D01*
X176890301Y-131161673D01*
X176711673Y-131340302D01*
X176615000Y-131573691D01*
X155885000Y-131573691D01*
X155788327Y-131340302D01*
X155609699Y-131161673D01*
X155376310Y-131065000D01*
X153285750Y-131065000D01*
X153127000Y-131223750D01*
X152873000Y-131223750D01*
X152714250Y-131065000D01*
X150623690Y-131065000D01*
X150390301Y-131161673D01*
X150211673Y-131340302D01*
X150115000Y-131573691D01*
X130710000Y-131573691D01*
X130710000Y-96124000D01*
X131257112Y-96124000D01*
X131272001Y-96198852D01*
X131272000Y-97887153D01*
X131257112Y-97962000D01*
X131272000Y-98036847D01*
X131272000Y-98036851D01*
X131316096Y-98258536D01*
X131484071Y-98509929D01*
X131547530Y-98552331D01*
X131797225Y-98802026D01*
X131722041Y-99180000D01*
X131838350Y-99764725D01*
X132169570Y-100260430D01*
X132453281Y-100450000D01*
X132169570Y-100639570D01*
X131838350Y-101135275D01*
X131722041Y-101720000D01*
X131838350Y-102304725D01*
X132169570Y-102800430D01*
X132453281Y-102990000D01*
X132169570Y-103179570D01*
X131838350Y-103675275D01*
X131722041Y-104260000D01*
X131838350Y-104844725D01*
X132169570Y-105340430D01*
X132453281Y-105530000D01*
X132169570Y-105719570D01*
X131838350Y-106215275D01*
X131722041Y-106800000D01*
X131838350Y-107384725D01*
X132169570Y-107880430D01*
X132453281Y-108070000D01*
X132169570Y-108259570D01*
X131838350Y-108755275D01*
X131722041Y-109340000D01*
X131838350Y-109924725D01*
X132169570Y-110420430D01*
X132453281Y-110610000D01*
X132169570Y-110799570D01*
X131838350Y-111295275D01*
X131722041Y-111880000D01*
X131838350Y-112464725D01*
X132169570Y-112960430D01*
X132453281Y-113150000D01*
X132169570Y-113339570D01*
X131838350Y-113835275D01*
X131722041Y-114420000D01*
X131838350Y-115004725D01*
X132169570Y-115500430D01*
X132453281Y-115690000D01*
X132169570Y-115879570D01*
X131838350Y-116375275D01*
X131722041Y-116960000D01*
X131838350Y-117544725D01*
X132169570Y-118040430D01*
X132665275Y-118371650D01*
X133102402Y-118458600D01*
X133353599Y-118458600D01*
X133353600Y-122238747D01*
X133338711Y-122313599D01*
X133397696Y-122610136D01*
X133504758Y-122770365D01*
X133565671Y-122861528D01*
X133629127Y-122903928D01*
X140065000Y-129339802D01*
X140065000Y-129385983D01*
X140207345Y-129729635D01*
X140470365Y-129992655D01*
X140814017Y-130135000D01*
X141185983Y-130135000D01*
X141529635Y-129992655D01*
X141792655Y-129729635D01*
X141935000Y-129385983D01*
X141935000Y-129014017D01*
X141792655Y-128670365D01*
X141529635Y-128407345D01*
X141511903Y-128400000D01*
X141529635Y-128392655D01*
X141792655Y-128129635D01*
X141935000Y-127785983D01*
X141935000Y-127414017D01*
X141792655Y-127070365D01*
X141619248Y-126896958D01*
X141629635Y-126892655D01*
X141892655Y-126629635D01*
X142035000Y-126285983D01*
X142035000Y-125914017D01*
X141892655Y-125570365D01*
X141629635Y-125307345D01*
X141611903Y-125300000D01*
X141629635Y-125292655D01*
X141892655Y-125029635D01*
X142035000Y-124685983D01*
X142035000Y-124314017D01*
X141892655Y-123970365D01*
X141719248Y-123796958D01*
X141729635Y-123792655D01*
X141992655Y-123529635D01*
X142135000Y-123185983D01*
X142135000Y-122814017D01*
X141992655Y-122470365D01*
X141960000Y-122437710D01*
X141960000Y-120374778D01*
X151615000Y-120374778D01*
X151615000Y-121025222D01*
X151863914Y-121626153D01*
X152323847Y-122086086D01*
X152924778Y-122335000D01*
X153575222Y-122335000D01*
X154176153Y-122086086D01*
X154636086Y-121626153D01*
X154885000Y-121025222D01*
X154885000Y-120374778D01*
X154636086Y-119773847D01*
X154176153Y-119313914D01*
X153575222Y-119065000D01*
X152924778Y-119065000D01*
X152323847Y-119313914D01*
X151863914Y-119773847D01*
X151615000Y-120374778D01*
X141960000Y-120374778D01*
X141960000Y-115374846D01*
X141974888Y-115299999D01*
X141960000Y-115225152D01*
X141960000Y-115225148D01*
X141915904Y-115003463D01*
X141864312Y-114926250D01*
X141790329Y-114815526D01*
X141790327Y-114815524D01*
X141747929Y-114752071D01*
X141684476Y-114709673D01*
X140460553Y-113485750D01*
X141865000Y-113485750D01*
X141865000Y-114576310D01*
X141961673Y-114809699D01*
X142140302Y-114988327D01*
X142373691Y-115085000D01*
X142714250Y-115085000D01*
X142873000Y-114926250D01*
X142873000Y-113327000D01*
X142023750Y-113327000D01*
X141865000Y-113485750D01*
X140460553Y-113485750D01*
X138798492Y-111823690D01*
X141865000Y-111823690D01*
X141865000Y-112914250D01*
X142023750Y-113073000D01*
X142873000Y-113073000D01*
X142873000Y-111473750D01*
X142714250Y-111315000D01*
X142373691Y-111315000D01*
X142140302Y-111411673D01*
X141961673Y-111590301D01*
X141865000Y-111823690D01*
X138798492Y-111823690D01*
X138370331Y-111395530D01*
X138327929Y-111332071D01*
X138076537Y-111164096D01*
X137854852Y-111120000D01*
X137854847Y-111120000D01*
X137780000Y-111105112D01*
X137705153Y-111120000D01*
X137084535Y-111120000D01*
X136870430Y-110799570D01*
X136586719Y-110610000D01*
X136870430Y-110420430D01*
X137201650Y-109924725D01*
X137317959Y-109340000D01*
X137201650Y-108755275D01*
X136870430Y-108259570D01*
X136586719Y-108070000D01*
X136870430Y-107880430D01*
X137084535Y-107560000D01*
X140735199Y-107560000D01*
X143815000Y-110639802D01*
X143815000Y-110685983D01*
X143957345Y-111029635D01*
X144220365Y-111292655D01*
X144244278Y-111302560D01*
X144000000Y-111302560D01*
X143752235Y-111351843D01*
X143738084Y-111361299D01*
X143626309Y-111315000D01*
X143285750Y-111315000D01*
X143127000Y-111473750D01*
X143127000Y-113073000D01*
X143147000Y-113073000D01*
X143147000Y-113327000D01*
X143127000Y-113327000D01*
X143127000Y-114926250D01*
X143285750Y-115085000D01*
X143626309Y-115085000D01*
X143738084Y-115038701D01*
X143752235Y-115048157D01*
X144000000Y-115097440D01*
X145000000Y-115097440D01*
X145247765Y-115048157D01*
X145250000Y-115046664D01*
X145252235Y-115048157D01*
X145500000Y-115097440D01*
X146500000Y-115097440D01*
X146747765Y-115048157D01*
X146750000Y-115046664D01*
X146752235Y-115048157D01*
X147000000Y-115097440D01*
X148000000Y-115097440D01*
X148247765Y-115048157D01*
X148250000Y-115046664D01*
X148252235Y-115048157D01*
X148500000Y-115097440D01*
X149500000Y-115097440D01*
X149747765Y-115048157D01*
X149750000Y-115046664D01*
X149752235Y-115048157D01*
X150000000Y-115097440D01*
X151000000Y-115097440D01*
X151247765Y-115048157D01*
X151250000Y-115046664D01*
X151252235Y-115048157D01*
X151500000Y-115097440D01*
X152500000Y-115097440D01*
X152747765Y-115048157D01*
X152750000Y-115046664D01*
X152752235Y-115048157D01*
X153000000Y-115097440D01*
X154000000Y-115097440D01*
X154247765Y-115048157D01*
X154250000Y-115046664D01*
X154252235Y-115048157D01*
X154500000Y-115097440D01*
X155500000Y-115097440D01*
X155747765Y-115048157D01*
X155750000Y-115046664D01*
X155752235Y-115048157D01*
X156000000Y-115097440D01*
X157000000Y-115097440D01*
X157040001Y-115089483D01*
X157040000Y-122437710D01*
X157007345Y-122470365D01*
X156865000Y-122814017D01*
X156865000Y-123185983D01*
X157007345Y-123529635D01*
X157270365Y-123792655D01*
X157614017Y-123935000D01*
X157985983Y-123935000D01*
X158329635Y-123792655D01*
X158592655Y-123529635D01*
X158735000Y-123185983D01*
X158735000Y-122814017D01*
X158592655Y-122470365D01*
X158560000Y-122437710D01*
X158560000Y-115085505D01*
X158747765Y-115048157D01*
X158750000Y-115046664D01*
X158752235Y-115048157D01*
X159000000Y-115097440D01*
X160000000Y-115097440D01*
X160247765Y-115048157D01*
X160250000Y-115046664D01*
X160252235Y-115048157D01*
X160500000Y-115097440D01*
X161500000Y-115097440D01*
X161747765Y-115048157D01*
X161750000Y-115046664D01*
X161752235Y-115048157D01*
X162000000Y-115097440D01*
X163000000Y-115097440D01*
X163247765Y-115048157D01*
X163250000Y-115046664D01*
X163252235Y-115048157D01*
X163500000Y-115097440D01*
X164500000Y-115097440D01*
X164747765Y-115048157D01*
X164750000Y-115046664D01*
X164752235Y-115048157D01*
X165000000Y-115097440D01*
X166000000Y-115097440D01*
X166247765Y-115048157D01*
X166250000Y-115046664D01*
X166252235Y-115048157D01*
X166500000Y-115097440D01*
X167500000Y-115097440D01*
X167747765Y-115048157D01*
X167750000Y-115046664D01*
X167752235Y-115048157D01*
X168000000Y-115097440D01*
X169000000Y-115097440D01*
X169247765Y-115048157D01*
X169250000Y-115046664D01*
X169252235Y-115048157D01*
X169500000Y-115097440D01*
X170500000Y-115097440D01*
X170747765Y-115048157D01*
X170750000Y-115046664D01*
X170752235Y-115048157D01*
X171000000Y-115097440D01*
X172000000Y-115097440D01*
X172247765Y-115048157D01*
X172250000Y-115046664D01*
X172252235Y-115048157D01*
X172500000Y-115097440D01*
X173500000Y-115097440D01*
X173747765Y-115048157D01*
X173750000Y-115046664D01*
X173752235Y-115048157D01*
X174000000Y-115097440D01*
X175000000Y-115097440D01*
X175240001Y-115049701D01*
X175240000Y-116685198D01*
X173915528Y-118009671D01*
X173852072Y-118052071D01*
X173809672Y-118115527D01*
X173809671Y-118115528D01*
X173684097Y-118303463D01*
X173625112Y-118600000D01*
X173640001Y-118674852D01*
X173640000Y-122737710D01*
X173607345Y-122770365D01*
X173465000Y-123114017D01*
X173465000Y-123485983D01*
X173607345Y-123829635D01*
X173870365Y-124092655D01*
X174214017Y-124235000D01*
X174585983Y-124235000D01*
X174929635Y-124092655D01*
X174940000Y-124082290D01*
X174940000Y-128637710D01*
X174907345Y-128670365D01*
X174765000Y-129014017D01*
X174765000Y-129385983D01*
X174907345Y-129729635D01*
X175170365Y-129992655D01*
X175514017Y-130135000D01*
X175885983Y-130135000D01*
X176229635Y-129992655D01*
X176492655Y-129729635D01*
X176635000Y-129385983D01*
X176635000Y-129014017D01*
X176492655Y-128670365D01*
X176460000Y-128637710D01*
X176460000Y-126929783D01*
X176714017Y-127035000D01*
X177085983Y-127035000D01*
X177429635Y-126892655D01*
X177692655Y-126629635D01*
X177835000Y-126285983D01*
X177835000Y-125914017D01*
X177692655Y-125570365D01*
X177660000Y-125537710D01*
X177660000Y-121133862D01*
X177863914Y-121626153D01*
X178323847Y-122086086D01*
X178924778Y-122335000D01*
X179575222Y-122335000D01*
X180176153Y-122086086D01*
X180340000Y-121922239D01*
X180340000Y-123937710D01*
X180307345Y-123970365D01*
X180165000Y-124314017D01*
X180165000Y-124685983D01*
X180307345Y-125029635D01*
X180570365Y-125292655D01*
X180914017Y-125435000D01*
X181240000Y-125435000D01*
X181240000Y-127037710D01*
X181207345Y-127070365D01*
X181065000Y-127414017D01*
X181065000Y-127785983D01*
X181207345Y-128129635D01*
X181470365Y-128392655D01*
X181814017Y-128535000D01*
X182185983Y-128535000D01*
X182529635Y-128392655D01*
X182792655Y-128129635D01*
X182935000Y-127785983D01*
X182935000Y-127414017D01*
X182792655Y-127070365D01*
X182760000Y-127037710D01*
X182760000Y-115049702D01*
X183000000Y-115097440D01*
X184000000Y-115097440D01*
X184247765Y-115048157D01*
X184250000Y-115046664D01*
X184252235Y-115048157D01*
X184500000Y-115097440D01*
X185500000Y-115097440D01*
X185747765Y-115048157D01*
X185750000Y-115046664D01*
X185752235Y-115048157D01*
X186000000Y-115097440D01*
X187000000Y-115097440D01*
X187240001Y-115049701D01*
X187240000Y-117425153D01*
X187225112Y-117500000D01*
X187240000Y-117574847D01*
X187240000Y-117574851D01*
X187284096Y-117796536D01*
X187452071Y-118047929D01*
X187515530Y-118090331D01*
X188809671Y-119384473D01*
X188852071Y-119447929D01*
X189103463Y-119615904D01*
X189325148Y-119660000D01*
X189325153Y-119660000D01*
X189400000Y-119674888D01*
X189474847Y-119660000D01*
X192025153Y-119660000D01*
X192100000Y-119674888D01*
X192174847Y-119660000D01*
X192174852Y-119660000D01*
X192396537Y-119615904D01*
X192647929Y-119447929D01*
X192690331Y-119384470D01*
X193830874Y-118243928D01*
X193894330Y-118201528D01*
X194062305Y-117950136D01*
X194106401Y-117728451D01*
X194106401Y-117728447D01*
X194121289Y-117653600D01*
X194106401Y-117578753D01*
X194106401Y-113378600D01*
X194357598Y-113378600D01*
X194794725Y-113291650D01*
X195126401Y-113070031D01*
X195126402Y-117698796D01*
X190460199Y-122365000D01*
X190414017Y-122365000D01*
X190070365Y-122507345D01*
X189807345Y-122770365D01*
X189665000Y-123114017D01*
X189665000Y-123485983D01*
X189807345Y-123829635D01*
X190070365Y-124092655D01*
X190414017Y-124235000D01*
X190785983Y-124235000D01*
X191129635Y-124092655D01*
X191392655Y-123829635D01*
X191535000Y-123485983D01*
X191535000Y-123439801D01*
X196370874Y-118603928D01*
X196434330Y-118561528D01*
X196602305Y-118310136D01*
X196646401Y-118088451D01*
X196646401Y-118088446D01*
X196661289Y-118013599D01*
X196646401Y-117938752D01*
X196646401Y-113378600D01*
X196897598Y-113378600D01*
X197334725Y-113291650D01*
X197830430Y-112960430D01*
X198161650Y-112464725D01*
X198277959Y-111880000D01*
X198161650Y-111295275D01*
X197830430Y-110799570D01*
X197546719Y-110610000D01*
X197830430Y-110420430D01*
X198161650Y-109924725D01*
X198277959Y-109340000D01*
X198161650Y-108755275D01*
X197830430Y-108259570D01*
X197546719Y-108070000D01*
X197830430Y-107880430D01*
X198161650Y-107384725D01*
X198277959Y-106800000D01*
X198161650Y-106215275D01*
X197830430Y-105719570D01*
X197546719Y-105530000D01*
X197830430Y-105340430D01*
X198161650Y-104844725D01*
X198277959Y-104260000D01*
X198161650Y-103675275D01*
X197830430Y-103179570D01*
X197546719Y-102990000D01*
X197830430Y-102800430D01*
X198161650Y-102304725D01*
X198277959Y-101720000D01*
X198161650Y-101135275D01*
X197830430Y-100639570D01*
X197546719Y-100450000D01*
X197830430Y-100260430D01*
X198161650Y-99764725D01*
X198277959Y-99180000D01*
X198161650Y-98595275D01*
X197830430Y-98099570D01*
X197546719Y-97910000D01*
X197830430Y-97720430D01*
X198161650Y-97224725D01*
X198277959Y-96640000D01*
X198161650Y-96055275D01*
X197830430Y-95559570D01*
X197528979Y-95358146D01*
X197638490Y-95306821D01*
X198032688Y-94874947D01*
X198204958Y-94459026D01*
X198083817Y-94227000D01*
X196877000Y-94227000D01*
X196877000Y-94247000D01*
X196623000Y-94247000D01*
X196623000Y-94227000D01*
X196603000Y-94227000D01*
X196603000Y-93973000D01*
X196623000Y-93973000D01*
X196623000Y-93953000D01*
X196877000Y-93953000D01*
X196877000Y-93973000D01*
X198083817Y-93973000D01*
X198204958Y-93740974D01*
X198032688Y-93325053D01*
X197638490Y-92893179D01*
X197528979Y-92841854D01*
X197830430Y-92640430D01*
X198161650Y-92144725D01*
X198277959Y-91560000D01*
X198161650Y-90975275D01*
X197830430Y-90479570D01*
X197546719Y-90290000D01*
X197830430Y-90100430D01*
X198161650Y-89604725D01*
X198277959Y-89020000D01*
X198161650Y-88435275D01*
X197830430Y-87939570D01*
X197546719Y-87750000D01*
X197830430Y-87560430D01*
X198161650Y-87064725D01*
X198277959Y-86480000D01*
X198161650Y-85895275D01*
X197830430Y-85399570D01*
X197546719Y-85210000D01*
X197830430Y-85020430D01*
X198161650Y-84524725D01*
X198277959Y-83940000D01*
X198161650Y-83355275D01*
X197830430Y-82859570D01*
X197546719Y-82670000D01*
X197830430Y-82480430D01*
X198161650Y-81984725D01*
X198277959Y-81400000D01*
X198161650Y-80815275D01*
X197830430Y-80319570D01*
X197546719Y-80130000D01*
X197830430Y-79940430D01*
X198161650Y-79444725D01*
X198277959Y-78860000D01*
X198161650Y-78275275D01*
X197830430Y-77779570D01*
X197546719Y-77590000D01*
X197830430Y-77400430D01*
X198161650Y-76904725D01*
X198277959Y-76320000D01*
X198161650Y-75735275D01*
X197830430Y-75239570D01*
X197546719Y-75050000D01*
X197830430Y-74860430D01*
X198161650Y-74364725D01*
X198277959Y-73780000D01*
X198161650Y-73195275D01*
X197830430Y-72699570D01*
X197546719Y-72510000D01*
X197830430Y-72320430D01*
X198161650Y-71824725D01*
X198277959Y-71240000D01*
X198161650Y-70655275D01*
X197830430Y-70159570D01*
X197334725Y-69828350D01*
X196897598Y-69741400D01*
X196602402Y-69741400D01*
X196165275Y-69828350D01*
X195676932Y-70154651D01*
X195671757Y-70128635D01*
X195531409Y-69918591D01*
X195321365Y-69778243D01*
X195073600Y-69728960D01*
X193346400Y-69728960D01*
X193098635Y-69778243D01*
X192888591Y-69918591D01*
X192748243Y-70128635D01*
X192698960Y-70376400D01*
X192698960Y-70480000D01*
X182644846Y-70480000D01*
X182569999Y-70465112D01*
X182495152Y-70480000D01*
X182495148Y-70480000D01*
X182273463Y-70524096D01*
X182210902Y-70565898D01*
X182085526Y-70649671D01*
X182085524Y-70649673D01*
X182022071Y-70692071D01*
X181979673Y-70755524D01*
X179977199Y-72758000D01*
X177826846Y-72758000D01*
X177751999Y-72743112D01*
X177677152Y-72758000D01*
X177677148Y-72758000D01*
X177455463Y-72802096D01*
X177455461Y-72802097D01*
X177455462Y-72802097D01*
X177267526Y-72927671D01*
X177267524Y-72927673D01*
X177204071Y-72970071D01*
X177161673Y-73033524D01*
X173711530Y-76483669D01*
X173648071Y-76526071D01*
X173480096Y-76777464D01*
X173436000Y-76999149D01*
X173436000Y-76999153D01*
X173421112Y-77074000D01*
X173436000Y-77148847D01*
X173436001Y-92989196D01*
X168015530Y-98409669D01*
X167952071Y-98452071D01*
X167784096Y-98703464D01*
X167740000Y-98925149D01*
X167740000Y-98925153D01*
X167725112Y-99000000D01*
X167740000Y-99074847D01*
X167740000Y-105824604D01*
X167715904Y-105703463D01*
X167715904Y-105703462D01*
X167590329Y-105515527D01*
X167547929Y-105452071D01*
X167484473Y-105409671D01*
X167085001Y-105010200D01*
X167085001Y-93313232D01*
X167152235Y-93358157D01*
X167400000Y-93407440D01*
X168800000Y-93407440D01*
X169047765Y-93358157D01*
X169257809Y-93217809D01*
X169398157Y-93007765D01*
X169447440Y-92760000D01*
X169447440Y-91360000D01*
X169398157Y-91112235D01*
X169257809Y-90902191D01*
X169047765Y-90761843D01*
X168804051Y-90713366D01*
X168856217Y-90691758D01*
X169231758Y-90316217D01*
X169435000Y-89825548D01*
X169435000Y-89294452D01*
X169231758Y-88803783D01*
X168856217Y-88428242D01*
X168570756Y-88310000D01*
X168856217Y-88191758D01*
X169231758Y-87816217D01*
X169435000Y-87325548D01*
X169435000Y-86794452D01*
X170065000Y-86794452D01*
X170065000Y-87325548D01*
X170268242Y-87816217D01*
X170643783Y-88191758D01*
X170929244Y-88310000D01*
X170643783Y-88428242D01*
X170268242Y-88803783D01*
X170065000Y-89294452D01*
X170065000Y-89825548D01*
X170268242Y-90316217D01*
X170643783Y-90691758D01*
X170929244Y-90810000D01*
X170643783Y-90928242D01*
X170268242Y-91303783D01*
X170065000Y-91794452D01*
X170065000Y-92325548D01*
X170268242Y-92816217D01*
X170643783Y-93191758D01*
X171134452Y-93395000D01*
X171665548Y-93395000D01*
X172156217Y-93191758D01*
X172531758Y-92816217D01*
X172735000Y-92325548D01*
X172735000Y-91794452D01*
X172531758Y-91303783D01*
X172156217Y-90928242D01*
X171870756Y-90810000D01*
X172156217Y-90691758D01*
X172531758Y-90316217D01*
X172735000Y-89825548D01*
X172735000Y-89294452D01*
X172531758Y-88803783D01*
X172156217Y-88428242D01*
X171870756Y-88310000D01*
X172156217Y-88191758D01*
X172531758Y-87816217D01*
X172735000Y-87325548D01*
X172735000Y-86794452D01*
X172531758Y-86303783D01*
X172156217Y-85928242D01*
X171665548Y-85725000D01*
X171134452Y-85725000D01*
X170643783Y-85928242D01*
X170268242Y-86303783D01*
X170065000Y-86794452D01*
X169435000Y-86794452D01*
X169231758Y-86303783D01*
X168856217Y-85928242D01*
X168365548Y-85725000D01*
X167834452Y-85725000D01*
X167343783Y-85928242D01*
X167085001Y-86187024D01*
X167085001Y-83649847D01*
X167099889Y-83575000D01*
X167085001Y-83500153D01*
X167085001Y-83500149D01*
X167040905Y-83278464D01*
X166999103Y-83215903D01*
X166915330Y-83090527D01*
X166915328Y-83090525D01*
X166872930Y-83027072D01*
X166809477Y-82984674D01*
X156604331Y-72779530D01*
X156561929Y-72716071D01*
X156310537Y-72548096D01*
X156088852Y-72504000D01*
X156088847Y-72504000D01*
X156014000Y-72489112D01*
X155939153Y-72504000D01*
X149618802Y-72504000D01*
X146592331Y-69477530D01*
X146549929Y-69414071D01*
X146298537Y-69246096D01*
X146076852Y-69202000D01*
X146076847Y-69202000D01*
X146002000Y-69187112D01*
X145927153Y-69202000D01*
X134602847Y-69202000D01*
X134528000Y-69187112D01*
X134453153Y-69202000D01*
X134453148Y-69202000D01*
X134231463Y-69246096D01*
X133980071Y-69414071D01*
X133937671Y-69477527D01*
X133686238Y-69728960D01*
X132386400Y-69728960D01*
X132138635Y-69778243D01*
X131928591Y-69918591D01*
X131788243Y-70128635D01*
X131738960Y-70376400D01*
X131738960Y-72103600D01*
X131788243Y-72351365D01*
X131928591Y-72561409D01*
X132138635Y-72701757D01*
X132164651Y-72706932D01*
X131838350Y-73195275D01*
X131722041Y-73780000D01*
X131838350Y-74364725D01*
X132169570Y-74860430D01*
X132453281Y-75050000D01*
X132169570Y-75239570D01*
X131838350Y-75735275D01*
X131722041Y-76320000D01*
X131838350Y-76904725D01*
X132169570Y-77400430D01*
X132453281Y-77590000D01*
X132169570Y-77779570D01*
X131838350Y-78275275D01*
X131722041Y-78860000D01*
X131838350Y-79444725D01*
X132169570Y-79940430D01*
X132453281Y-80130000D01*
X132169570Y-80319570D01*
X131838350Y-80815275D01*
X131722041Y-81400000D01*
X131838350Y-81984725D01*
X132169570Y-82480430D01*
X132453281Y-82670000D01*
X132169570Y-82859570D01*
X131838350Y-83355275D01*
X131722041Y-83940000D01*
X131838350Y-84524725D01*
X132169570Y-85020430D01*
X132453281Y-85210000D01*
X132169570Y-85399570D01*
X131838350Y-85895275D01*
X131722041Y-86480000D01*
X131838350Y-87064725D01*
X132169570Y-87560430D01*
X132453281Y-87750000D01*
X132169570Y-87939570D01*
X131838350Y-88435275D01*
X131722041Y-89020000D01*
X131838350Y-89604725D01*
X132169570Y-90100430D01*
X132453281Y-90290000D01*
X132169570Y-90479570D01*
X131838350Y-90975275D01*
X131722041Y-91560000D01*
X131838350Y-92144725D01*
X132169570Y-92640430D01*
X132471021Y-92841854D01*
X132361510Y-92893179D01*
X131967312Y-93325053D01*
X131795042Y-93740974D01*
X131916183Y-93973000D01*
X133123000Y-93973000D01*
X133123000Y-93953000D01*
X133377000Y-93953000D01*
X133377000Y-93973000D01*
X135663000Y-93973000D01*
X135663000Y-93953000D01*
X135917000Y-93953000D01*
X135917000Y-93973000D01*
X137123817Y-93973000D01*
X137244958Y-93740974D01*
X137072688Y-93325053D01*
X136678490Y-92893179D01*
X136589967Y-92851690D01*
X136615800Y-92846552D01*
X136892001Y-92662001D01*
X137076552Y-92385800D01*
X137091805Y-92309120D01*
X137201650Y-92144725D01*
X137317959Y-91560000D01*
X137278177Y-91360000D01*
X156592560Y-91360000D01*
X156592560Y-92760000D01*
X156641843Y-93007765D01*
X156782191Y-93217809D01*
X156992235Y-93358157D01*
X157240000Y-93407440D01*
X158640000Y-93407440D01*
X158887765Y-93358157D01*
X159097809Y-93217809D01*
X159238157Y-93007765D01*
X159287440Y-92760000D01*
X159287440Y-91360000D01*
X159238157Y-91112235D01*
X159097809Y-90902191D01*
X158887765Y-90761843D01*
X158644051Y-90713366D01*
X158696217Y-90691758D01*
X159071758Y-90316217D01*
X159275000Y-89825548D01*
X159275000Y-89294452D01*
X159071758Y-88803783D01*
X158696217Y-88428242D01*
X158410756Y-88310000D01*
X158696217Y-88191758D01*
X159071758Y-87816217D01*
X159275000Y-87325548D01*
X159275000Y-86794452D01*
X159905000Y-86794452D01*
X159905000Y-87325548D01*
X160108242Y-87816217D01*
X160483783Y-88191758D01*
X160769244Y-88310000D01*
X160483783Y-88428242D01*
X160108242Y-88803783D01*
X159905000Y-89294452D01*
X159905000Y-89825548D01*
X160108242Y-90316217D01*
X160483783Y-90691758D01*
X160769244Y-90810000D01*
X160483783Y-90928242D01*
X160108242Y-91303783D01*
X159905000Y-91794452D01*
X159905000Y-92325548D01*
X160108242Y-92816217D01*
X160483783Y-93191758D01*
X160974452Y-93395000D01*
X161505548Y-93395000D01*
X161996217Y-93191758D01*
X162371758Y-92816217D01*
X162575000Y-92325548D01*
X162575000Y-91794452D01*
X162371758Y-91303783D01*
X161996217Y-90928242D01*
X161710756Y-90810000D01*
X161996217Y-90691758D01*
X162371758Y-90316217D01*
X162575000Y-89825548D01*
X162575000Y-89294452D01*
X162371758Y-88803783D01*
X161996217Y-88428242D01*
X161710756Y-88310000D01*
X161996217Y-88191758D01*
X162371758Y-87816217D01*
X162575000Y-87325548D01*
X162575000Y-86794452D01*
X162371758Y-86303783D01*
X161996217Y-85928242D01*
X161505548Y-85725000D01*
X160974452Y-85725000D01*
X160483783Y-85928242D01*
X160108242Y-86303783D01*
X159905000Y-86794452D01*
X159275000Y-86794452D01*
X159071758Y-86303783D01*
X158696217Y-85928242D01*
X158205548Y-85725000D01*
X157674452Y-85725000D01*
X157183783Y-85928242D01*
X156808242Y-86303783D01*
X156605000Y-86794452D01*
X156605000Y-87325548D01*
X156808242Y-87816217D01*
X157183783Y-88191758D01*
X157469244Y-88310000D01*
X157183783Y-88428242D01*
X156808242Y-88803783D01*
X156605000Y-89294452D01*
X156605000Y-89825548D01*
X156808242Y-90316217D01*
X157183783Y-90691758D01*
X157235949Y-90713366D01*
X156992235Y-90761843D01*
X156782191Y-90902191D01*
X156641843Y-91112235D01*
X156592560Y-91360000D01*
X137278177Y-91360000D01*
X137201650Y-90975275D01*
X136870430Y-90479570D01*
X136586719Y-90290000D01*
X136870430Y-90100430D01*
X137201650Y-89604725D01*
X137317959Y-89020000D01*
X137201650Y-88435275D01*
X136870430Y-87939570D01*
X136586719Y-87750000D01*
X136870430Y-87560430D01*
X137201650Y-87064725D01*
X137317959Y-86480000D01*
X137201650Y-85895275D01*
X136870430Y-85399570D01*
X136586719Y-85210000D01*
X136870430Y-85020430D01*
X137201650Y-84524725D01*
X137317959Y-83940000D01*
X137201650Y-83355275D01*
X136870430Y-82859570D01*
X136586719Y-82670000D01*
X136870430Y-82480430D01*
X137201650Y-81984725D01*
X137317959Y-81400000D01*
X137201650Y-80815275D01*
X136870430Y-80319570D01*
X136568979Y-80118146D01*
X136678490Y-80066821D01*
X137072688Y-79634947D01*
X137244958Y-79219026D01*
X137123817Y-78987000D01*
X135917000Y-78987000D01*
X135917000Y-79007000D01*
X135663000Y-79007000D01*
X135663000Y-78987000D01*
X135643000Y-78987000D01*
X135643000Y-78733000D01*
X135663000Y-78733000D01*
X135663000Y-78713000D01*
X135917000Y-78713000D01*
X135917000Y-78733000D01*
X137123817Y-78733000D01*
X137244958Y-78500974D01*
X137072688Y-78085053D01*
X136678490Y-77653179D01*
X136568979Y-77601854D01*
X136870430Y-77400430D01*
X137201650Y-76904725D01*
X137317959Y-76320000D01*
X137214922Y-75802000D01*
X146957199Y-75802000D01*
X147443670Y-76288472D01*
X147486071Y-76351929D01*
X147549527Y-76394329D01*
X147737462Y-76519904D01*
X147785605Y-76529480D01*
X147959148Y-76564000D01*
X147959152Y-76564000D01*
X148034000Y-76578888D01*
X148108848Y-76564000D01*
X154489199Y-76564000D01*
X162990000Y-85064802D01*
X162990001Y-99663365D01*
X162984473Y-99659671D01*
X158202331Y-94877530D01*
X158159929Y-94814071D01*
X157908537Y-94646096D01*
X157686852Y-94602000D01*
X157686847Y-94602000D01*
X157612000Y-94587112D01*
X157537153Y-94602000D01*
X137185740Y-94602000D01*
X137244958Y-94459026D01*
X137123817Y-94227000D01*
X135917000Y-94227000D01*
X135917000Y-94247000D01*
X135663000Y-94247000D01*
X135663000Y-94227000D01*
X133377000Y-94227000D01*
X133377000Y-94247000D01*
X133123000Y-94247000D01*
X133123000Y-94227000D01*
X131916183Y-94227000D01*
X131795042Y-94459026D01*
X131967312Y-94874947D01*
X132081333Y-94999865D01*
X131547528Y-95533671D01*
X131484072Y-95576071D01*
X131441672Y-95639527D01*
X131441671Y-95639528D01*
X131316097Y-95827463D01*
X131257112Y-96124000D01*
X130710000Y-96124000D01*
X130710000Y-69319930D01*
X130744926Y-69144345D01*
X130748279Y-69139327D01*
X130889327Y-68998279D01*
X130894345Y-68994926D01*
X131069930Y-68960000D01*
X148930070Y-68960000D01*
X149105655Y-68994926D01*
X149105655Y-68994926D01*
G37*
X149105655Y-68994926D02*
X149195225Y-69054774D01*
X149255074Y-69144345D01*
X149290000Y-69319930D01*
X149290000Y-70069925D01*
X149303642Y-70138508D01*
X149303642Y-70138513D01*
X149379762Y-70521196D01*
X149399395Y-70568593D01*
X149485776Y-70777138D01*
X149702549Y-71101561D01*
X149702550Y-71101562D01*
X149898438Y-71297451D01*
X150222862Y-71514223D01*
X150328877Y-71558136D01*
X150478804Y-71620238D01*
X150861486Y-71696358D01*
X150861491Y-71696358D01*
X150930074Y-71710000D01*
X179069926Y-71710000D01*
X179138509Y-71696358D01*
X179138513Y-71696358D01*
X179521196Y-71620238D01*
X179546680Y-71609682D01*
X179578601Y-71603333D01*
X179605664Y-71585250D01*
X179777138Y-71514224D01*
X180101561Y-71297451D01*
X180167012Y-71232000D01*
X180297451Y-71101562D01*
X180514223Y-70777138D01*
X180564700Y-70655275D01*
X180581932Y-70613674D01*
X180635803Y-70559803D01*
X180663333Y-70518601D01*
X180673000Y-70470000D01*
X180673000Y-70255943D01*
X180696358Y-70138514D01*
X180696358Y-70138509D01*
X180710000Y-70069926D01*
X180710000Y-69319930D01*
X180735904Y-69189702D01*
X180939702Y-68985904D01*
X181069930Y-68960000D01*
X198668394Y-68960000D01*
X198790001Y-69081607D01*
X198790000Y-132703463D01*
X198731607Y-133146997D01*
X198595992Y-133474402D01*
X197974403Y-134095991D01*
X197646998Y-134231607D01*
X197203463Y-134290000D01*
X182385000Y-134290000D01*
X182385000Y-133235750D01*
X182226250Y-133077000D01*
X179627000Y-133077000D01*
X179627000Y-133097000D01*
X179373000Y-133097000D01*
X179373000Y-133077000D01*
X176773750Y-133077000D01*
X176615000Y-133235750D01*
X176615000Y-134290000D01*
X155885000Y-134290000D01*
X155885000Y-133235750D01*
X155726250Y-133077000D01*
X153127000Y-133077000D01*
X153127000Y-133097000D01*
X152873000Y-133097000D01*
X152873000Y-133077000D01*
X150273750Y-133077000D01*
X150115000Y-133235750D01*
X150115000Y-134290000D01*
X132296537Y-134290000D01*
X131853003Y-134231607D01*
X131525598Y-134095992D01*
X130904009Y-133474403D01*
X130768393Y-133146998D01*
X130710000Y-132703463D01*
X130710000Y-131573691D01*
X150115000Y-131573691D01*
X150115000Y-132664250D01*
X150273750Y-132823000D01*
X152873000Y-132823000D01*
X152873000Y-131223750D01*
X153127000Y-131223750D01*
X153127000Y-132823000D01*
X155726250Y-132823000D01*
X155885000Y-132664250D01*
X155885000Y-131573691D01*
X176615000Y-131573691D01*
X176615000Y-132664250D01*
X176773750Y-132823000D01*
X179373000Y-132823000D01*
X179373000Y-131223750D01*
X179627000Y-131223750D01*
X179627000Y-132823000D01*
X182226250Y-132823000D01*
X182385000Y-132664250D01*
X182385000Y-131573691D01*
X182288327Y-131340302D01*
X182109699Y-131161673D01*
X181876310Y-131065000D01*
X179785750Y-131065000D01*
X179627000Y-131223750D01*
X179373000Y-131223750D01*
X179214250Y-131065000D01*
X177123690Y-131065000D01*
X176890301Y-131161673D01*
X176711673Y-131340302D01*
X176615000Y-131573691D01*
X155885000Y-131573691D01*
X155788327Y-131340302D01*
X155609699Y-131161673D01*
X155376310Y-131065000D01*
X153285750Y-131065000D01*
X153127000Y-131223750D01*
X152873000Y-131223750D01*
X152714250Y-131065000D01*
X150623690Y-131065000D01*
X150390301Y-131161673D01*
X150211673Y-131340302D01*
X150115000Y-131573691D01*
X130710000Y-131573691D01*
X130710000Y-96124000D01*
X131257112Y-96124000D01*
X131272001Y-96198852D01*
X131272000Y-97887153D01*
X131257112Y-97962000D01*
X131272000Y-98036847D01*
X131272000Y-98036851D01*
X131316096Y-98258536D01*
X131484071Y-98509929D01*
X131547530Y-98552331D01*
X131797225Y-98802026D01*
X131722041Y-99180000D01*
X131838350Y-99764725D01*
X132169570Y-100260430D01*
X132453281Y-100450000D01*
X132169570Y-100639570D01*
X131838350Y-101135275D01*
X131722041Y-101720000D01*
X131838350Y-102304725D01*
X132169570Y-102800430D01*
X132453281Y-102990000D01*
X132169570Y-103179570D01*
X131838350Y-103675275D01*
X131722041Y-104260000D01*
X131838350Y-104844725D01*
X132169570Y-105340430D01*
X132453281Y-105530000D01*
X132169570Y-105719570D01*
X131838350Y-106215275D01*
X131722041Y-106800000D01*
X131838350Y-107384725D01*
X132169570Y-107880430D01*
X132453281Y-108070000D01*
X132169570Y-108259570D01*
X131838350Y-108755275D01*
X131722041Y-109340000D01*
X131838350Y-109924725D01*
X132169570Y-110420430D01*
X132453281Y-110610000D01*
X132169570Y-110799570D01*
X131838350Y-111295275D01*
X131722041Y-111880000D01*
X131838350Y-112464725D01*
X132169570Y-112960430D01*
X132453281Y-113150000D01*
X132169570Y-113339570D01*
X131838350Y-113835275D01*
X131722041Y-114420000D01*
X131838350Y-115004725D01*
X132169570Y-115500430D01*
X132453281Y-115690000D01*
X132169570Y-115879570D01*
X131838350Y-116375275D01*
X131722041Y-116960000D01*
X131838350Y-117544725D01*
X132169570Y-118040430D01*
X132665275Y-118371650D01*
X133102402Y-118458600D01*
X133353599Y-118458600D01*
X133353600Y-122238747D01*
X133338711Y-122313599D01*
X133397696Y-122610136D01*
X133504758Y-122770365D01*
X133565671Y-122861528D01*
X133629127Y-122903928D01*
X140065000Y-129339802D01*
X140065000Y-129385983D01*
X140207345Y-129729635D01*
X140470365Y-129992655D01*
X140814017Y-130135000D01*
X141185983Y-130135000D01*
X141529635Y-129992655D01*
X141792655Y-129729635D01*
X141935000Y-129385983D01*
X141935000Y-129014017D01*
X141792655Y-128670365D01*
X141529635Y-128407345D01*
X141511903Y-128400000D01*
X141529635Y-128392655D01*
X141792655Y-128129635D01*
X141935000Y-127785983D01*
X141935000Y-127414017D01*
X141792655Y-127070365D01*
X141619248Y-126896958D01*
X141629635Y-126892655D01*
X141892655Y-126629635D01*
X142035000Y-126285983D01*
X142035000Y-125914017D01*
X141892655Y-125570365D01*
X141629635Y-125307345D01*
X141611903Y-125300000D01*
X141629635Y-125292655D01*
X141892655Y-125029635D01*
X142035000Y-124685983D01*
X142035000Y-124314017D01*
X141892655Y-123970365D01*
X141719248Y-123796958D01*
X141729635Y-123792655D01*
X141992655Y-123529635D01*
X142135000Y-123185983D01*
X142135000Y-122814017D01*
X141992655Y-122470365D01*
X141960000Y-122437710D01*
X141960000Y-120374778D01*
X151615000Y-120374778D01*
X151615000Y-121025222D01*
X151863914Y-121626153D01*
X152323847Y-122086086D01*
X152924778Y-122335000D01*
X153575222Y-122335000D01*
X154176153Y-122086086D01*
X154636086Y-121626153D01*
X154885000Y-121025222D01*
X154885000Y-120374778D01*
X154636086Y-119773847D01*
X154176153Y-119313914D01*
X153575222Y-119065000D01*
X152924778Y-119065000D01*
X152323847Y-119313914D01*
X151863914Y-119773847D01*
X151615000Y-120374778D01*
X141960000Y-120374778D01*
X141960000Y-115374846D01*
X141974888Y-115299999D01*
X141960000Y-115225152D01*
X141960000Y-115225148D01*
X141915904Y-115003463D01*
X141864312Y-114926250D01*
X141790329Y-114815526D01*
X141790327Y-114815524D01*
X141747929Y-114752071D01*
X141684476Y-114709673D01*
X140460553Y-113485750D01*
X141865000Y-113485750D01*
X141865000Y-114576310D01*
X141961673Y-114809699D01*
X142140302Y-114988327D01*
X142373691Y-115085000D01*
X142714250Y-115085000D01*
X142873000Y-114926250D01*
X142873000Y-113327000D01*
X142023750Y-113327000D01*
X141865000Y-113485750D01*
X140460553Y-113485750D01*
X138798492Y-111823690D01*
X141865000Y-111823690D01*
X141865000Y-112914250D01*
X142023750Y-113073000D01*
X142873000Y-113073000D01*
X142873000Y-111473750D01*
X142714250Y-111315000D01*
X142373691Y-111315000D01*
X142140302Y-111411673D01*
X141961673Y-111590301D01*
X141865000Y-111823690D01*
X138798492Y-111823690D01*
X138370331Y-111395530D01*
X138327929Y-111332071D01*
X138076537Y-111164096D01*
X137854852Y-111120000D01*
X137854847Y-111120000D01*
X137780000Y-111105112D01*
X137705153Y-111120000D01*
X137084535Y-111120000D01*
X136870430Y-110799570D01*
X136586719Y-110610000D01*
X136870430Y-110420430D01*
X137201650Y-109924725D01*
X137317959Y-109340000D01*
X137201650Y-108755275D01*
X136870430Y-108259570D01*
X136586719Y-108070000D01*
X136870430Y-107880430D01*
X137084535Y-107560000D01*
X140735199Y-107560000D01*
X143815000Y-110639802D01*
X143815000Y-110685983D01*
X143957345Y-111029635D01*
X144220365Y-111292655D01*
X144244278Y-111302560D01*
X144000000Y-111302560D01*
X143752235Y-111351843D01*
X143738084Y-111361299D01*
X143626309Y-111315000D01*
X143285750Y-111315000D01*
X143127000Y-111473750D01*
X143127000Y-113073000D01*
X143147000Y-113073000D01*
X143147000Y-113327000D01*
X143127000Y-113327000D01*
X143127000Y-114926250D01*
X143285750Y-115085000D01*
X143626309Y-115085000D01*
X143738084Y-115038701D01*
X143752235Y-115048157D01*
X144000000Y-115097440D01*
X145000000Y-115097440D01*
X145247765Y-115048157D01*
X145250000Y-115046664D01*
X145252235Y-115048157D01*
X145500000Y-115097440D01*
X146500000Y-115097440D01*
X146747765Y-115048157D01*
X146750000Y-115046664D01*
X146752235Y-115048157D01*
X147000000Y-115097440D01*
X148000000Y-115097440D01*
X148247765Y-115048157D01*
X148250000Y-115046664D01*
X148252235Y-115048157D01*
X148500000Y-115097440D01*
X149500000Y-115097440D01*
X149747765Y-115048157D01*
X149750000Y-115046664D01*
X149752235Y-115048157D01*
X150000000Y-115097440D01*
X151000000Y-115097440D01*
X151247765Y-115048157D01*
X151250000Y-115046664D01*
X151252235Y-115048157D01*
X151500000Y-115097440D01*
X152500000Y-115097440D01*
X152747765Y-115048157D01*
X152750000Y-115046664D01*
X152752235Y-115048157D01*
X153000000Y-115097440D01*
X154000000Y-115097440D01*
X154247765Y-115048157D01*
X154250000Y-115046664D01*
X154252235Y-115048157D01*
X154500000Y-115097440D01*
X155500000Y-115097440D01*
X155747765Y-115048157D01*
X155750000Y-115046664D01*
X155752235Y-115048157D01*
X156000000Y-115097440D01*
X157000000Y-115097440D01*
X157040001Y-115089483D01*
X157040000Y-122437710D01*
X157007345Y-122470365D01*
X156865000Y-122814017D01*
X156865000Y-123185983D01*
X157007345Y-123529635D01*
X157270365Y-123792655D01*
X157614017Y-123935000D01*
X157985983Y-123935000D01*
X158329635Y-123792655D01*
X158592655Y-123529635D01*
X158735000Y-123185983D01*
X158735000Y-122814017D01*
X158592655Y-122470365D01*
X158560000Y-122437710D01*
X158560000Y-115085505D01*
X158747765Y-115048157D01*
X158750000Y-115046664D01*
X158752235Y-115048157D01*
X159000000Y-115097440D01*
X160000000Y-115097440D01*
X160247765Y-115048157D01*
X160250000Y-115046664D01*
X160252235Y-115048157D01*
X160500000Y-115097440D01*
X161500000Y-115097440D01*
X161747765Y-115048157D01*
X161750000Y-115046664D01*
X161752235Y-115048157D01*
X162000000Y-115097440D01*
X163000000Y-115097440D01*
X163247765Y-115048157D01*
X163250000Y-115046664D01*
X163252235Y-115048157D01*
X163500000Y-115097440D01*
X164500000Y-115097440D01*
X164747765Y-115048157D01*
X164750000Y-115046664D01*
X164752235Y-115048157D01*
X165000000Y-115097440D01*
X166000000Y-115097440D01*
X166247765Y-115048157D01*
X166250000Y-115046664D01*
X166252235Y-115048157D01*
X166500000Y-115097440D01*
X167500000Y-115097440D01*
X167747765Y-115048157D01*
X167750000Y-115046664D01*
X167752235Y-115048157D01*
X168000000Y-115097440D01*
X169000000Y-115097440D01*
X169247765Y-115048157D01*
X169250000Y-115046664D01*
X169252235Y-115048157D01*
X169500000Y-115097440D01*
X170500000Y-115097440D01*
X170747765Y-115048157D01*
X170750000Y-115046664D01*
X170752235Y-115048157D01*
X171000000Y-115097440D01*
X172000000Y-115097440D01*
X172247765Y-115048157D01*
X172250000Y-115046664D01*
X172252235Y-115048157D01*
X172500000Y-115097440D01*
X173500000Y-115097440D01*
X173747765Y-115048157D01*
X173750000Y-115046664D01*
X173752235Y-115048157D01*
X174000000Y-115097440D01*
X175000000Y-115097440D01*
X175240001Y-115049701D01*
X175240000Y-116685198D01*
X173915528Y-118009671D01*
X173852072Y-118052071D01*
X173809672Y-118115527D01*
X173809671Y-118115528D01*
X173684097Y-118303463D01*
X173625112Y-118600000D01*
X173640001Y-118674852D01*
X173640000Y-122737710D01*
X173607345Y-122770365D01*
X173465000Y-123114017D01*
X173465000Y-123485983D01*
X173607345Y-123829635D01*
X173870365Y-124092655D01*
X174214017Y-124235000D01*
X174585983Y-124235000D01*
X174929635Y-124092655D01*
X174940000Y-124082290D01*
X174940000Y-128637710D01*
X174907345Y-128670365D01*
X174765000Y-129014017D01*
X174765000Y-129385983D01*
X174907345Y-129729635D01*
X175170365Y-129992655D01*
X175514017Y-130135000D01*
X175885983Y-130135000D01*
X176229635Y-129992655D01*
X176492655Y-129729635D01*
X176635000Y-129385983D01*
X176635000Y-129014017D01*
X176492655Y-128670365D01*
X176460000Y-128637710D01*
X176460000Y-126929783D01*
X176714017Y-127035000D01*
X177085983Y-127035000D01*
X177429635Y-126892655D01*
X177692655Y-126629635D01*
X177835000Y-126285983D01*
X177835000Y-125914017D01*
X177692655Y-125570365D01*
X177660000Y-125537710D01*
X177660000Y-121133862D01*
X177863914Y-121626153D01*
X178323847Y-122086086D01*
X178924778Y-122335000D01*
X179575222Y-122335000D01*
X180176153Y-122086086D01*
X180340000Y-121922239D01*
X180340000Y-123937710D01*
X180307345Y-123970365D01*
X180165000Y-124314017D01*
X180165000Y-124685983D01*
X180307345Y-125029635D01*
X180570365Y-125292655D01*
X180914017Y-125435000D01*
X181240000Y-125435000D01*
X181240000Y-127037710D01*
X181207345Y-127070365D01*
X181065000Y-127414017D01*
X181065000Y-127785983D01*
X181207345Y-128129635D01*
X181470365Y-128392655D01*
X181814017Y-128535000D01*
X182185983Y-128535000D01*
X182529635Y-128392655D01*
X182792655Y-128129635D01*
X182935000Y-127785983D01*
X182935000Y-127414017D01*
X182792655Y-127070365D01*
X182760000Y-127037710D01*
X182760000Y-115049702D01*
X183000000Y-115097440D01*
X184000000Y-115097440D01*
X184247765Y-115048157D01*
X184250000Y-115046664D01*
X184252235Y-115048157D01*
X184500000Y-115097440D01*
X185500000Y-115097440D01*
X185747765Y-115048157D01*
X185750000Y-115046664D01*
X185752235Y-115048157D01*
X186000000Y-115097440D01*
X187000000Y-115097440D01*
X187240001Y-115049701D01*
X187240000Y-117425153D01*
X187225112Y-117500000D01*
X187240000Y-117574847D01*
X187240000Y-117574851D01*
X187284096Y-117796536D01*
X187452071Y-118047929D01*
X187515530Y-118090331D01*
X188809671Y-119384473D01*
X188852071Y-119447929D01*
X189103463Y-119615904D01*
X189325148Y-119660000D01*
X189325153Y-119660000D01*
X189400000Y-119674888D01*
X189474847Y-119660000D01*
X192025153Y-119660000D01*
X192100000Y-119674888D01*
X192174847Y-119660000D01*
X192174852Y-119660000D01*
X192396537Y-119615904D01*
X192647929Y-119447929D01*
X192690331Y-119384470D01*
X193830874Y-118243928D01*
X193894330Y-118201528D01*
X194062305Y-117950136D01*
X194106401Y-117728451D01*
X194106401Y-117728447D01*
X194121289Y-117653600D01*
X194106401Y-117578753D01*
X194106401Y-113378600D01*
X194357598Y-113378600D01*
X194794725Y-113291650D01*
X195126401Y-113070031D01*
X195126402Y-117698796D01*
X190460199Y-122365000D01*
X190414017Y-122365000D01*
X190070365Y-122507345D01*
X189807345Y-122770365D01*
X189665000Y-123114017D01*
X189665000Y-123485983D01*
X189807345Y-123829635D01*
X190070365Y-124092655D01*
X190414017Y-124235000D01*
X190785983Y-124235000D01*
X191129635Y-124092655D01*
X191392655Y-123829635D01*
X191535000Y-123485983D01*
X191535000Y-123439801D01*
X196370874Y-118603928D01*
X196434330Y-118561528D01*
X196602305Y-118310136D01*
X196646401Y-118088451D01*
X196646401Y-118088446D01*
X196661289Y-118013599D01*
X196646401Y-117938752D01*
X196646401Y-113378600D01*
X196897598Y-113378600D01*
X197334725Y-113291650D01*
X197830430Y-112960430D01*
X198161650Y-112464725D01*
X198277959Y-111880000D01*
X198161650Y-111295275D01*
X197830430Y-110799570D01*
X197546719Y-110610000D01*
X197830430Y-110420430D01*
X198161650Y-109924725D01*
X198277959Y-109340000D01*
X198161650Y-108755275D01*
X197830430Y-108259570D01*
X197546719Y-108070000D01*
X197830430Y-107880430D01*
X198161650Y-107384725D01*
X198277959Y-106800000D01*
X198161650Y-106215275D01*
X197830430Y-105719570D01*
X197546719Y-105530000D01*
X197830430Y-105340430D01*
X198161650Y-104844725D01*
X198277959Y-104260000D01*
X198161650Y-103675275D01*
X197830430Y-103179570D01*
X197546719Y-102990000D01*
X197830430Y-102800430D01*
X198161650Y-102304725D01*
X198277959Y-101720000D01*
X198161650Y-101135275D01*
X197830430Y-100639570D01*
X197546719Y-100450000D01*
X197830430Y-100260430D01*
X198161650Y-99764725D01*
X198277959Y-99180000D01*
X198161650Y-98595275D01*
X197830430Y-98099570D01*
X197546719Y-97910000D01*
X197830430Y-97720430D01*
X198161650Y-97224725D01*
X198277959Y-96640000D01*
X198161650Y-96055275D01*
X197830430Y-95559570D01*
X197528979Y-95358146D01*
X197638490Y-95306821D01*
X198032688Y-94874947D01*
X198204958Y-94459026D01*
X198083817Y-94227000D01*
X196877000Y-94227000D01*
X196877000Y-94247000D01*
X196623000Y-94247000D01*
X196623000Y-94227000D01*
X196603000Y-94227000D01*
X196603000Y-93973000D01*
X196623000Y-93973000D01*
X196623000Y-93953000D01*
X196877000Y-93953000D01*
X196877000Y-93973000D01*
X198083817Y-93973000D01*
X198204958Y-93740974D01*
X198032688Y-93325053D01*
X197638490Y-92893179D01*
X197528979Y-92841854D01*
X197830430Y-92640430D01*
X198161650Y-92144725D01*
X198277959Y-91560000D01*
X198161650Y-90975275D01*
X197830430Y-90479570D01*
X197546719Y-90290000D01*
X197830430Y-90100430D01*
X198161650Y-89604725D01*
X198277959Y-89020000D01*
X198161650Y-88435275D01*
X197830430Y-87939570D01*
X197546719Y-87750000D01*
X197830430Y-87560430D01*
X198161650Y-87064725D01*
X198277959Y-86480000D01*
X198161650Y-85895275D01*
X197830430Y-85399570D01*
X197546719Y-85210000D01*
X197830430Y-85020430D01*
X198161650Y-84524725D01*
X198277959Y-83940000D01*
X198161650Y-83355275D01*
X197830430Y-82859570D01*
X197546719Y-82670000D01*
X197830430Y-82480430D01*
X198161650Y-81984725D01*
X198277959Y-81400000D01*
X198161650Y-80815275D01*
X197830430Y-80319570D01*
X197546719Y-80130000D01*
X197830430Y-79940430D01*
X198161650Y-79444725D01*
X198277959Y-78860000D01*
X198161650Y-78275275D01*
X197830430Y-77779570D01*
X197546719Y-77590000D01*
X197830430Y-77400430D01*
X198161650Y-76904725D01*
X198277959Y-76320000D01*
X198161650Y-75735275D01*
X197830430Y-75239570D01*
X197546719Y-75050000D01*
X197830430Y-74860430D01*
X198161650Y-74364725D01*
X198277959Y-73780000D01*
X198161650Y-73195275D01*
X197830430Y-72699570D01*
X197546719Y-72510000D01*
X197830430Y-72320430D01*
X198161650Y-71824725D01*
X198277959Y-71240000D01*
X198161650Y-70655275D01*
X197830430Y-70159570D01*
X197334725Y-69828350D01*
X196897598Y-69741400D01*
X196602402Y-69741400D01*
X196165275Y-69828350D01*
X195676932Y-70154651D01*
X195671757Y-70128635D01*
X195531409Y-69918591D01*
X195321365Y-69778243D01*
X195073600Y-69728960D01*
X193346400Y-69728960D01*
X193098635Y-69778243D01*
X192888591Y-69918591D01*
X192748243Y-70128635D01*
X192698960Y-70376400D01*
X192698960Y-70480000D01*
X182644846Y-70480000D01*
X182569999Y-70465112D01*
X182495152Y-70480000D01*
X182495148Y-70480000D01*
X182273463Y-70524096D01*
X182210902Y-70565898D01*
X182085526Y-70649671D01*
X182085524Y-70649673D01*
X182022071Y-70692071D01*
X181979673Y-70755524D01*
X179977199Y-72758000D01*
X177826846Y-72758000D01*
X177751999Y-72743112D01*
X177677152Y-72758000D01*
X177677148Y-72758000D01*
X177455463Y-72802096D01*
X177455461Y-72802097D01*
X177455462Y-72802097D01*
X177267526Y-72927671D01*
X177267524Y-72927673D01*
X177204071Y-72970071D01*
X177161673Y-73033524D01*
X173711530Y-76483669D01*
X173648071Y-76526071D01*
X173480096Y-76777464D01*
X173436000Y-76999149D01*
X173436000Y-76999153D01*
X173421112Y-77074000D01*
X173436000Y-77148847D01*
X173436001Y-92989196D01*
X168015530Y-98409669D01*
X167952071Y-98452071D01*
X167784096Y-98703464D01*
X167740000Y-98925149D01*
X167740000Y-98925153D01*
X167725112Y-99000000D01*
X167740000Y-99074847D01*
X167740000Y-105824604D01*
X167715904Y-105703463D01*
X167715904Y-105703462D01*
X167590329Y-105515527D01*
X167547929Y-105452071D01*
X167484473Y-105409671D01*
X167085001Y-105010200D01*
X167085001Y-93313232D01*
X167152235Y-93358157D01*
X167400000Y-93407440D01*
X168800000Y-93407440D01*
X169047765Y-93358157D01*
X169257809Y-93217809D01*
X169398157Y-93007765D01*
X169447440Y-92760000D01*
X169447440Y-91360000D01*
X169398157Y-91112235D01*
X169257809Y-90902191D01*
X169047765Y-90761843D01*
X168804051Y-90713366D01*
X168856217Y-90691758D01*
X169231758Y-90316217D01*
X169435000Y-89825548D01*
X169435000Y-89294452D01*
X169231758Y-88803783D01*
X168856217Y-88428242D01*
X168570756Y-88310000D01*
X168856217Y-88191758D01*
X169231758Y-87816217D01*
X169435000Y-87325548D01*
X169435000Y-86794452D01*
X170065000Y-86794452D01*
X170065000Y-87325548D01*
X170268242Y-87816217D01*
X170643783Y-88191758D01*
X170929244Y-88310000D01*
X170643783Y-88428242D01*
X170268242Y-88803783D01*
X170065000Y-89294452D01*
X170065000Y-89825548D01*
X170268242Y-90316217D01*
X170643783Y-90691758D01*
X170929244Y-90810000D01*
X170643783Y-90928242D01*
X170268242Y-91303783D01*
X170065000Y-91794452D01*
X170065000Y-92325548D01*
X170268242Y-92816217D01*
X170643783Y-93191758D01*
X171134452Y-93395000D01*
X171665548Y-93395000D01*
X172156217Y-93191758D01*
X172531758Y-92816217D01*
X172735000Y-92325548D01*
X172735000Y-91794452D01*
X172531758Y-91303783D01*
X172156217Y-90928242D01*
X171870756Y-90810000D01*
X172156217Y-90691758D01*
X172531758Y-90316217D01*
X172735000Y-89825548D01*
X172735000Y-89294452D01*
X172531758Y-88803783D01*
X172156217Y-88428242D01*
X171870756Y-88310000D01*
X172156217Y-88191758D01*
X172531758Y-87816217D01*
X172735000Y-87325548D01*
X172735000Y-86794452D01*
X172531758Y-86303783D01*
X172156217Y-85928242D01*
X171665548Y-85725000D01*
X171134452Y-85725000D01*
X170643783Y-85928242D01*
X170268242Y-86303783D01*
X170065000Y-86794452D01*
X169435000Y-86794452D01*
X169231758Y-86303783D01*
X168856217Y-85928242D01*
X168365548Y-85725000D01*
X167834452Y-85725000D01*
X167343783Y-85928242D01*
X167085001Y-86187024D01*
X167085001Y-83649847D01*
X167099889Y-83575000D01*
X167085001Y-83500153D01*
X167085001Y-83500149D01*
X167040905Y-83278464D01*
X166999103Y-83215903D01*
X166915330Y-83090527D01*
X166915328Y-83090525D01*
X166872930Y-83027072D01*
X166809477Y-82984674D01*
X156604331Y-72779530D01*
X156561929Y-72716071D01*
X156310537Y-72548096D01*
X156088852Y-72504000D01*
X156088847Y-72504000D01*
X156014000Y-72489112D01*
X155939153Y-72504000D01*
X149618802Y-72504000D01*
X146592331Y-69477530D01*
X146549929Y-69414071D01*
X146298537Y-69246096D01*
X146076852Y-69202000D01*
X146076847Y-69202000D01*
X146002000Y-69187112D01*
X145927153Y-69202000D01*
X134602847Y-69202000D01*
X134528000Y-69187112D01*
X134453153Y-69202000D01*
X134453148Y-69202000D01*
X134231463Y-69246096D01*
X133980071Y-69414071D01*
X133937671Y-69477527D01*
X133686238Y-69728960D01*
X132386400Y-69728960D01*
X132138635Y-69778243D01*
X131928591Y-69918591D01*
X131788243Y-70128635D01*
X131738960Y-70376400D01*
X131738960Y-72103600D01*
X131788243Y-72351365D01*
X131928591Y-72561409D01*
X132138635Y-72701757D01*
X132164651Y-72706932D01*
X131838350Y-73195275D01*
X131722041Y-73780000D01*
X131838350Y-74364725D01*
X132169570Y-74860430D01*
X132453281Y-75050000D01*
X132169570Y-75239570D01*
X131838350Y-75735275D01*
X131722041Y-76320000D01*
X131838350Y-76904725D01*
X132169570Y-77400430D01*
X132453281Y-77590000D01*
X132169570Y-77779570D01*
X131838350Y-78275275D01*
X131722041Y-78860000D01*
X131838350Y-79444725D01*
X132169570Y-79940430D01*
X132453281Y-80130000D01*
X132169570Y-80319570D01*
X131838350Y-80815275D01*
X131722041Y-81400000D01*
X131838350Y-81984725D01*
X132169570Y-82480430D01*
X132453281Y-82670000D01*
X132169570Y-82859570D01*
X131838350Y-83355275D01*
X131722041Y-83940000D01*
X131838350Y-84524725D01*
X132169570Y-85020430D01*
X132453281Y-85210000D01*
X132169570Y-85399570D01*
X131838350Y-85895275D01*
X131722041Y-86480000D01*
X131838350Y-87064725D01*
X132169570Y-87560430D01*
X132453281Y-87750000D01*
X132169570Y-87939570D01*
X131838350Y-88435275D01*
X131722041Y-89020000D01*
X131838350Y-89604725D01*
X132169570Y-90100430D01*
X132453281Y-90290000D01*
X132169570Y-90479570D01*
X131838350Y-90975275D01*
X131722041Y-91560000D01*
X131838350Y-92144725D01*
X132169570Y-92640430D01*
X132471021Y-92841854D01*
X132361510Y-92893179D01*
X131967312Y-93325053D01*
X131795042Y-93740974D01*
X131916183Y-93973000D01*
X133123000Y-93973000D01*
X133123000Y-93953000D01*
X133377000Y-93953000D01*
X133377000Y-93973000D01*
X135663000Y-93973000D01*
X135663000Y-93953000D01*
X135917000Y-93953000D01*
X135917000Y-93973000D01*
X137123817Y-93973000D01*
X137244958Y-93740974D01*
X137072688Y-93325053D01*
X136678490Y-92893179D01*
X136589967Y-92851690D01*
X136615800Y-92846552D01*
X136892001Y-92662001D01*
X137076552Y-92385800D01*
X137091805Y-92309120D01*
X137201650Y-92144725D01*
X137317959Y-91560000D01*
X137278177Y-91360000D01*
X156592560Y-91360000D01*
X156592560Y-92760000D01*
X156641843Y-93007765D01*
X156782191Y-93217809D01*
X156992235Y-93358157D01*
X157240000Y-93407440D01*
X158640000Y-93407440D01*
X158887765Y-93358157D01*
X159097809Y-93217809D01*
X159238157Y-93007765D01*
X159287440Y-92760000D01*
X159287440Y-91360000D01*
X159238157Y-91112235D01*
X159097809Y-90902191D01*
X158887765Y-90761843D01*
X158644051Y-90713366D01*
X158696217Y-90691758D01*
X159071758Y-90316217D01*
X159275000Y-89825548D01*
X159275000Y-89294452D01*
X159071758Y-88803783D01*
X158696217Y-88428242D01*
X158410756Y-88310000D01*
X158696217Y-88191758D01*
X159071758Y-87816217D01*
X159275000Y-87325548D01*
X159275000Y-86794452D01*
X159905000Y-86794452D01*
X159905000Y-87325548D01*
X160108242Y-87816217D01*
X160483783Y-88191758D01*
X160769244Y-88310000D01*
X160483783Y-88428242D01*
X160108242Y-88803783D01*
X159905000Y-89294452D01*
X159905000Y-89825548D01*
X160108242Y-90316217D01*
X160483783Y-90691758D01*
X160769244Y-90810000D01*
X160483783Y-90928242D01*
X160108242Y-91303783D01*
X159905000Y-91794452D01*
X159905000Y-92325548D01*
X160108242Y-92816217D01*
X160483783Y-93191758D01*
X160974452Y-93395000D01*
X161505548Y-93395000D01*
X161996217Y-93191758D01*
X162371758Y-92816217D01*
X162575000Y-92325548D01*
X162575000Y-91794452D01*
X162371758Y-91303783D01*
X161996217Y-90928242D01*
X161710756Y-90810000D01*
X161996217Y-90691758D01*
X162371758Y-90316217D01*
X162575000Y-89825548D01*
X162575000Y-89294452D01*
X162371758Y-88803783D01*
X161996217Y-88428242D01*
X161710756Y-88310000D01*
X161996217Y-88191758D01*
X162371758Y-87816217D01*
X162575000Y-87325548D01*
X162575000Y-86794452D01*
X162371758Y-86303783D01*
X161996217Y-85928242D01*
X161505548Y-85725000D01*
X160974452Y-85725000D01*
X160483783Y-85928242D01*
X160108242Y-86303783D01*
X159905000Y-86794452D01*
X159275000Y-86794452D01*
X159071758Y-86303783D01*
X158696217Y-85928242D01*
X158205548Y-85725000D01*
X157674452Y-85725000D01*
X157183783Y-85928242D01*
X156808242Y-86303783D01*
X156605000Y-86794452D01*
X156605000Y-87325548D01*
X156808242Y-87816217D01*
X157183783Y-88191758D01*
X157469244Y-88310000D01*
X157183783Y-88428242D01*
X156808242Y-88803783D01*
X156605000Y-89294452D01*
X156605000Y-89825548D01*
X156808242Y-90316217D01*
X157183783Y-90691758D01*
X157235949Y-90713366D01*
X156992235Y-90761843D01*
X156782191Y-90902191D01*
X156641843Y-91112235D01*
X156592560Y-91360000D01*
X137278177Y-91360000D01*
X137201650Y-90975275D01*
X136870430Y-90479570D01*
X136586719Y-90290000D01*
X136870430Y-90100430D01*
X137201650Y-89604725D01*
X137317959Y-89020000D01*
X137201650Y-88435275D01*
X136870430Y-87939570D01*
X136586719Y-87750000D01*
X136870430Y-87560430D01*
X137201650Y-87064725D01*
X137317959Y-86480000D01*
X137201650Y-85895275D01*
X136870430Y-85399570D01*
X136586719Y-85210000D01*
X136870430Y-85020430D01*
X137201650Y-84524725D01*
X137317959Y-83940000D01*
X137201650Y-83355275D01*
X136870430Y-82859570D01*
X136586719Y-82670000D01*
X136870430Y-82480430D01*
X137201650Y-81984725D01*
X137317959Y-81400000D01*
X137201650Y-80815275D01*
X136870430Y-80319570D01*
X136568979Y-80118146D01*
X136678490Y-80066821D01*
X137072688Y-79634947D01*
X137244958Y-79219026D01*
X137123817Y-78987000D01*
X135917000Y-78987000D01*
X135917000Y-79007000D01*
X135663000Y-79007000D01*
X135663000Y-78987000D01*
X135643000Y-78987000D01*
X135643000Y-78733000D01*
X135663000Y-78733000D01*
X135663000Y-78713000D01*
X135917000Y-78713000D01*
X135917000Y-78733000D01*
X137123817Y-78733000D01*
X137244958Y-78500974D01*
X137072688Y-78085053D01*
X136678490Y-77653179D01*
X136568979Y-77601854D01*
X136870430Y-77400430D01*
X137201650Y-76904725D01*
X137317959Y-76320000D01*
X137214922Y-75802000D01*
X146957199Y-75802000D01*
X147443670Y-76288472D01*
X147486071Y-76351929D01*
X147549527Y-76394329D01*
X147737462Y-76519904D01*
X147785605Y-76529480D01*
X147959148Y-76564000D01*
X147959152Y-76564000D01*
X148034000Y-76578888D01*
X148108848Y-76564000D01*
X154489199Y-76564000D01*
X162990000Y-85064802D01*
X162990001Y-99663365D01*
X162984473Y-99659671D01*
X158202331Y-94877530D01*
X158159929Y-94814071D01*
X157908537Y-94646096D01*
X157686852Y-94602000D01*
X157686847Y-94602000D01*
X157612000Y-94587112D01*
X157537153Y-94602000D01*
X137185740Y-94602000D01*
X137244958Y-94459026D01*
X137123817Y-94227000D01*
X135917000Y-94227000D01*
X135917000Y-94247000D01*
X135663000Y-94247000D01*
X135663000Y-94227000D01*
X133377000Y-94227000D01*
X133377000Y-94247000D01*
X133123000Y-94247000D01*
X133123000Y-94227000D01*
X131916183Y-94227000D01*
X131795042Y-94459026D01*
X131967312Y-94874947D01*
X132081333Y-94999865D01*
X131547528Y-95533671D01*
X131484072Y-95576071D01*
X131441672Y-95639527D01*
X131441671Y-95639528D01*
X131316097Y-95827463D01*
X131257112Y-96124000D01*
X130710000Y-96124000D01*
X130710000Y-69319930D01*
X130744926Y-69144345D01*
X130748279Y-69139327D01*
X130889327Y-68998279D01*
X130894345Y-68994926D01*
X131069930Y-68960000D01*
X148930070Y-68960000D01*
X149105655Y-68994926D01*
G36*
X161740000Y-100564802D02*
X161740001Y-107667711D01*
X161529635Y-107457345D01*
X161185983Y-107315000D01*
X160814017Y-107315000D01*
X160470365Y-107457345D01*
X160207345Y-107720365D01*
X160065000Y-108064017D01*
X160065000Y-108435983D01*
X160207345Y-108779635D01*
X160240000Y-108812290D01*
X160240000Y-109917710D01*
X160029635Y-109707345D01*
X159685983Y-109565000D01*
X159314017Y-109565000D01*
X158970365Y-109707345D01*
X158707345Y-109970365D01*
X158565000Y-110314017D01*
X158565000Y-110685983D01*
X158707345Y-111029635D01*
X158740000Y-111062290D01*
X158740000Y-111350299D01*
X158500000Y-111302560D01*
X157500000Y-111302560D01*
X157268000Y-111348707D01*
X157268000Y-104306290D01*
X157300655Y-104273635D01*
X157443000Y-103929983D01*
X157443000Y-103558017D01*
X157300655Y-103214365D01*
X157037635Y-102951345D01*
X156693983Y-102809000D01*
X156322017Y-102809000D01*
X155978365Y-102951345D01*
X155760000Y-103169710D01*
X155760000Y-103036290D01*
X155792655Y-103003635D01*
X155935000Y-102659983D01*
X155935000Y-102288017D01*
X155792655Y-101944365D01*
X155529635Y-101681345D01*
X155185983Y-101539000D01*
X154814017Y-101539000D01*
X154470365Y-101681345D01*
X154207345Y-101944365D01*
X154065000Y-102288017D01*
X154065000Y-102659983D01*
X154207345Y-103003635D01*
X154240000Y-103036290D01*
X154240001Y-108657711D01*
X154129635Y-108547345D01*
X153785983Y-108405000D01*
X153414017Y-108405000D01*
X153070365Y-108547345D01*
X152807345Y-108810365D01*
X152796000Y-108837754D01*
X152796000Y-105576290D01*
X152828655Y-105543635D01*
X152971000Y-105199983D01*
X152971000Y-104828017D01*
X152828655Y-104484365D01*
X152565635Y-104221345D01*
X152221983Y-104079000D01*
X151850017Y-104079000D01*
X151506365Y-104221345D01*
X151243345Y-104484365D01*
X151101000Y-104828017D01*
X151101000Y-105199983D01*
X151243345Y-105543635D01*
X151276000Y-105576290D01*
X151276000Y-106233710D01*
X151049635Y-106007345D01*
X150705983Y-105865000D01*
X150334017Y-105865000D01*
X149990365Y-106007345D01*
X149760000Y-106237710D01*
X149760000Y-99734290D01*
X149792655Y-99701635D01*
X149935000Y-99357983D01*
X149935000Y-98986017D01*
X149792655Y-98642365D01*
X149529635Y-98379345D01*
X149185983Y-98237000D01*
X148814017Y-98237000D01*
X148470365Y-98379345D01*
X148207345Y-98642365D01*
X148065000Y-98986017D01*
X148065000Y-99357983D01*
X148207345Y-99701635D01*
X148240000Y-99734290D01*
X148240000Y-100324602D01*
X148215904Y-100203463D01*
X148047929Y-99952071D01*
X147984473Y-99909671D01*
X145565331Y-97490530D01*
X145522929Y-97427071D01*
X145271537Y-97259096D01*
X145049852Y-97215000D01*
X145049847Y-97215000D01*
X144975000Y-97200112D01*
X144900153Y-97215000D01*
X137155504Y-97215000D01*
X137244958Y-96999026D01*
X137123817Y-96767000D01*
X135917000Y-96767000D01*
X135917000Y-96787000D01*
X135663000Y-96787000D01*
X135663000Y-96767000D01*
X135643000Y-96767000D01*
X135643000Y-96513000D01*
X135663000Y-96513000D01*
X135663000Y-96493000D01*
X135917000Y-96493000D01*
X135917000Y-96513000D01*
X137123817Y-96513000D01*
X137244958Y-96280974D01*
X137179113Y-96122000D01*
X157297199Y-96122000D01*
X161740000Y-100564802D01*
X161740000Y-100564802D01*
G37*
X161740000Y-100564802D02*
X161740001Y-107667711D01*
X161529635Y-107457345D01*
X161185983Y-107315000D01*
X160814017Y-107315000D01*
X160470365Y-107457345D01*
X160207345Y-107720365D01*
X160065000Y-108064017D01*
X160065000Y-108435983D01*
X160207345Y-108779635D01*
X160240000Y-108812290D01*
X160240000Y-109917710D01*
X160029635Y-109707345D01*
X159685983Y-109565000D01*
X159314017Y-109565000D01*
X158970365Y-109707345D01*
X158707345Y-109970365D01*
X158565000Y-110314017D01*
X158565000Y-110685983D01*
X158707345Y-111029635D01*
X158740000Y-111062290D01*
X158740000Y-111350299D01*
X158500000Y-111302560D01*
X157500000Y-111302560D01*
X157268000Y-111348707D01*
X157268000Y-104306290D01*
X157300655Y-104273635D01*
X157443000Y-103929983D01*
X157443000Y-103558017D01*
X157300655Y-103214365D01*
X157037635Y-102951345D01*
X156693983Y-102809000D01*
X156322017Y-102809000D01*
X155978365Y-102951345D01*
X155760000Y-103169710D01*
X155760000Y-103036290D01*
X155792655Y-103003635D01*
X155935000Y-102659983D01*
X155935000Y-102288017D01*
X155792655Y-101944365D01*
X155529635Y-101681345D01*
X155185983Y-101539000D01*
X154814017Y-101539000D01*
X154470365Y-101681345D01*
X154207345Y-101944365D01*
X154065000Y-102288017D01*
X154065000Y-102659983D01*
X154207345Y-103003635D01*
X154240000Y-103036290D01*
X154240001Y-108657711D01*
X154129635Y-108547345D01*
X153785983Y-108405000D01*
X153414017Y-108405000D01*
X153070365Y-108547345D01*
X152807345Y-108810365D01*
X152796000Y-108837754D01*
X152796000Y-105576290D01*
X152828655Y-105543635D01*
X152971000Y-105199983D01*
X152971000Y-104828017D01*
X152828655Y-104484365D01*
X152565635Y-104221345D01*
X152221983Y-104079000D01*
X151850017Y-104079000D01*
X151506365Y-104221345D01*
X151243345Y-104484365D01*
X151101000Y-104828017D01*
X151101000Y-105199983D01*
X151243345Y-105543635D01*
X151276000Y-105576290D01*
X151276000Y-106233710D01*
X151049635Y-106007345D01*
X150705983Y-105865000D01*
X150334017Y-105865000D01*
X149990365Y-106007345D01*
X149760000Y-106237710D01*
X149760000Y-99734290D01*
X149792655Y-99701635D01*
X149935000Y-99357983D01*
X149935000Y-98986017D01*
X149792655Y-98642365D01*
X149529635Y-98379345D01*
X149185983Y-98237000D01*
X148814017Y-98237000D01*
X148470365Y-98379345D01*
X148207345Y-98642365D01*
X148065000Y-98986017D01*
X148065000Y-99357983D01*
X148207345Y-99701635D01*
X148240000Y-99734290D01*
X148240000Y-100324602D01*
X148215904Y-100203463D01*
X148047929Y-99952071D01*
X147984473Y-99909671D01*
X145565331Y-97490530D01*
X145522929Y-97427071D01*
X145271537Y-97259096D01*
X145049852Y-97215000D01*
X145049847Y-97215000D01*
X144975000Y-97200112D01*
X144900153Y-97215000D01*
X137155504Y-97215000D01*
X137244958Y-96999026D01*
X137123817Y-96767000D01*
X135917000Y-96767000D01*
X135917000Y-96787000D01*
X135663000Y-96787000D01*
X135663000Y-96767000D01*
X135643000Y-96767000D01*
X135643000Y-96513000D01*
X135663000Y-96513000D01*
X135663000Y-96493000D01*
X135917000Y-96493000D01*
X135917000Y-96513000D01*
X137123817Y-96513000D01*
X137244958Y-96280974D01*
X137179113Y-96122000D01*
X157297199Y-96122000D01*
X161740000Y-100564802D01*
G36*
X192682041Y-78860000D02*
X192798350Y-79444725D01*
X193129570Y-79940430D01*
X193431021Y-80141854D01*
X193321510Y-80193179D01*
X192927312Y-80625053D01*
X192755042Y-81040974D01*
X192876183Y-81273000D01*
X194083000Y-81273000D01*
X194083000Y-81253000D01*
X194337000Y-81253000D01*
X194337000Y-81273000D01*
X194357000Y-81273000D01*
X194357000Y-81527000D01*
X194337000Y-81527000D01*
X194337000Y-81547000D01*
X194083000Y-81547000D01*
X194083000Y-81527000D01*
X192876183Y-81527000D01*
X192755042Y-81759026D01*
X192927312Y-82174947D01*
X193321510Y-82606821D01*
X193431021Y-82658146D01*
X193129570Y-82859570D01*
X192798350Y-83355275D01*
X192682041Y-83940000D01*
X192798350Y-84524725D01*
X193129570Y-85020430D01*
X193413281Y-85210000D01*
X193129570Y-85399570D01*
X192798350Y-85895275D01*
X192682041Y-86480000D01*
X192757137Y-86857533D01*
X192635253Y-87039945D01*
X190625000Y-89050198D01*
X190625000Y-88826017D01*
X190482655Y-88482365D01*
X190219635Y-88219345D01*
X189875983Y-88077000D01*
X189504017Y-88077000D01*
X189160365Y-88219345D01*
X188897345Y-88482365D01*
X188755000Y-88826017D01*
X188755000Y-88872198D01*
X186346853Y-91280346D01*
X186341903Y-91255463D01*
X186173929Y-91004071D01*
X186090849Y-90948559D01*
X185901635Y-90759345D01*
X185557983Y-90617000D01*
X185186017Y-90617000D01*
X184842365Y-90759345D01*
X184579345Y-91022365D01*
X184437000Y-91366017D01*
X184437000Y-91666197D01*
X181835000Y-94268198D01*
X181835000Y-93914017D01*
X181692655Y-93570365D01*
X181429635Y-93307345D01*
X181085983Y-93165000D01*
X180714017Y-93165000D01*
X180370365Y-93307345D01*
X180107345Y-93570365D01*
X179965000Y-93914017D01*
X179965000Y-93960198D01*
X179528000Y-94397198D01*
X179528000Y-78912801D01*
X180098802Y-78342000D01*
X192785078Y-78342000D01*
X192682041Y-78860000D01*
X192682041Y-78860000D01*
G37*
X192682041Y-78860000D02*
X192798350Y-79444725D01*
X193129570Y-79940430D01*
X193431021Y-80141854D01*
X193321510Y-80193179D01*
X192927312Y-80625053D01*
X192755042Y-81040974D01*
X192876183Y-81273000D01*
X194083000Y-81273000D01*
X194083000Y-81253000D01*
X194337000Y-81253000D01*
X194337000Y-81273000D01*
X194357000Y-81273000D01*
X194357000Y-81527000D01*
X194337000Y-81527000D01*
X194337000Y-81547000D01*
X194083000Y-81547000D01*
X194083000Y-81527000D01*
X192876183Y-81527000D01*
X192755042Y-81759026D01*
X192927312Y-82174947D01*
X193321510Y-82606821D01*
X193431021Y-82658146D01*
X193129570Y-82859570D01*
X192798350Y-83355275D01*
X192682041Y-83940000D01*
X192798350Y-84524725D01*
X193129570Y-85020430D01*
X193413281Y-85210000D01*
X193129570Y-85399570D01*
X192798350Y-85895275D01*
X192682041Y-86480000D01*
X192757137Y-86857533D01*
X192635253Y-87039945D01*
X190625000Y-89050198D01*
X190625000Y-88826017D01*
X190482655Y-88482365D01*
X190219635Y-88219345D01*
X189875983Y-88077000D01*
X189504017Y-88077000D01*
X189160365Y-88219345D01*
X188897345Y-88482365D01*
X188755000Y-88826017D01*
X188755000Y-88872198D01*
X186346853Y-91280346D01*
X186341903Y-91255463D01*
X186173929Y-91004071D01*
X186090849Y-90948559D01*
X185901635Y-90759345D01*
X185557983Y-90617000D01*
X185186017Y-90617000D01*
X184842365Y-90759345D01*
X184579345Y-91022365D01*
X184437000Y-91366017D01*
X184437000Y-91666197D01*
X181835000Y-94268198D01*
X181835000Y-93914017D01*
X181692655Y-93570365D01*
X181429635Y-93307345D01*
X181085983Y-93165000D01*
X180714017Y-93165000D01*
X180370365Y-93307345D01*
X180107345Y-93570365D01*
X179965000Y-93914017D01*
X179965000Y-93960198D01*
X179528000Y-94397198D01*
X179528000Y-78912801D01*
X180098802Y-78342000D01*
X192785078Y-78342000D01*
X192682041Y-78860000D01*
G04 #@! TD*
M02*
