G04 #@! TF.FileFunction,Copper,L1,Top,Signal*
%FSLAX46Y46*%
G04 Gerber Fmt 4.6, Leading zero omitted, Abs format (unit mm)*
G04 Created by KiCad (PCBNEW 4.0.7) date Sat Mar 17 14:08:55 2018*
%MOMM*%
%LPD*%
G01*
G04 APERTURE LIST*
%ADD10C,0.100000*%
%ADD11R,1.727200X1.727200*%
%ADD12O,1.727200X1.727200*%
%ADD13R,1.000000X2.500000*%
%ADD14R,2.500000X4.000000*%
%ADD15R,1.400000X1.400000*%
%ADD16C,1.400000*%
%ADD17C,0.600000*%
%ADD18C,0.250000*%
%ADD19C,0.400000*%
%ADD20C,0.254000*%
G04 APERTURE END LIST*
D10*
D11*
X133250000Y-71240000D03*
D12*
X135790000Y-71240000D03*
X133250000Y-73780000D03*
X135790000Y-73780000D03*
X133250000Y-76320000D03*
X135790000Y-76320000D03*
X133250000Y-78860000D03*
X135790000Y-78860000D03*
X133250000Y-81400000D03*
X135790000Y-81400000D03*
X133250000Y-83940000D03*
X135790000Y-83940000D03*
X133250000Y-86480000D03*
X135790000Y-86480000D03*
X133250000Y-89020000D03*
X135790000Y-89020000D03*
X133250000Y-91560000D03*
X135790000Y-91560000D03*
X133250000Y-94100000D03*
X135790000Y-94100000D03*
X133250000Y-96640000D03*
X135790000Y-96640000D03*
X133250000Y-99180000D03*
X135790000Y-99180000D03*
X133250000Y-101720000D03*
X135790000Y-101720000D03*
X133250000Y-104260000D03*
X135790000Y-104260000D03*
X133250000Y-106800000D03*
X135790000Y-106800000D03*
X133250000Y-109340000D03*
X135790000Y-109340000D03*
X133250000Y-111880000D03*
X135790000Y-111880000D03*
X133250000Y-114420000D03*
X135790000Y-114420000D03*
X133250000Y-116960000D03*
X135790000Y-116960000D03*
D11*
X194210000Y-71240000D03*
D12*
X196750000Y-71240000D03*
X194210000Y-73780000D03*
X196750000Y-73780000D03*
X194210000Y-76320000D03*
X196750000Y-76320000D03*
X194210000Y-78860000D03*
X196750000Y-78860000D03*
X194210000Y-81400000D03*
X196750000Y-81400000D03*
X194210000Y-83940000D03*
X196750000Y-83940000D03*
X194210000Y-86480000D03*
X196750000Y-86480000D03*
X194210000Y-89020000D03*
X196750000Y-89020000D03*
X194210000Y-91560000D03*
X196750000Y-91560000D03*
X194210000Y-94100000D03*
X196750000Y-94100000D03*
X194210000Y-96640000D03*
X196750000Y-96640000D03*
X194210000Y-99180000D03*
X196750000Y-99180000D03*
X194210000Y-101720000D03*
X196750000Y-101720000D03*
X194210000Y-104260000D03*
X196750000Y-104260000D03*
X194210000Y-106800000D03*
X196750000Y-106800000D03*
X194210000Y-109340000D03*
X196750000Y-109340000D03*
X194210000Y-111880000D03*
X196750000Y-111880000D03*
X194210000Y-114420000D03*
X196750000Y-114420000D03*
X194210000Y-116960000D03*
X196750000Y-116960000D03*
D13*
X188810000Y-116540000D03*
X167810000Y-116540000D03*
X187310000Y-116540000D03*
X185810000Y-116540000D03*
X184310000Y-116540000D03*
X182810000Y-116540000D03*
X181310000Y-116540000D03*
X179810000Y-116540000D03*
X178310000Y-116540000D03*
X176810000Y-116540000D03*
X175310000Y-116540000D03*
X173810000Y-116540000D03*
X172310000Y-116540000D03*
X170810000Y-116540000D03*
X169310000Y-116540000D03*
X166310000Y-116540000D03*
X164810000Y-116540000D03*
X163310000Y-116540000D03*
X161810000Y-116540000D03*
X160310000Y-116540000D03*
X158810000Y-116540000D03*
X157310000Y-116540000D03*
X155810000Y-116540000D03*
X154310000Y-116540000D03*
X152810000Y-116540000D03*
X151310000Y-116540000D03*
X149810000Y-116540000D03*
X148310000Y-116540000D03*
X146810000Y-116540000D03*
X145310000Y-116540000D03*
X143810000Y-116540000D03*
X142310000Y-116540000D03*
D14*
X195760000Y-127790000D03*
X135360000Y-127790000D03*
D15*
X157940000Y-92060000D03*
D16*
X157940000Y-89560000D03*
X157940000Y-87060000D03*
X161240000Y-92060000D03*
X161240000Y-89560000D03*
X161240000Y-87060000D03*
D15*
X168100000Y-92060000D03*
D16*
X168100000Y-89560000D03*
X168100000Y-87060000D03*
X171400000Y-92060000D03*
X171400000Y-89560000D03*
X171400000Y-87060000D03*
D17*
X191468000Y-69454000D03*
X191468000Y-81392000D03*
X138128000Y-94092000D03*
X138128000Y-96632000D03*
X142192000Y-127620000D03*
X142192000Y-118730000D03*
X144224000Y-110602000D03*
X160226000Y-110602000D03*
X142446000Y-112126000D03*
X158702000Y-112126000D03*
X157178000Y-113396000D03*
X178260000Y-124064000D03*
X178260000Y-119238000D03*
X176736000Y-125588000D03*
X176736000Y-119238000D03*
X189690000Y-89012000D03*
X185372000Y-91552000D03*
X177752000Y-99172000D03*
X148288000Y-99172000D03*
X181562000Y-94092000D03*
X175212000Y-100188000D03*
X170894000Y-100188000D03*
X145240000Y-101204000D03*
X154384000Y-102474000D03*
X182832000Y-99172000D03*
X155908000Y-103744000D03*
X151336000Y-105014000D03*
X149812000Y-106792000D03*
X152860000Y-109332000D03*
X175466000Y-113142000D03*
X167084000Y-127366000D03*
X188674000Y-119238000D03*
X167084000Y-113904000D03*
X167084000Y-98156000D03*
X188674000Y-127366000D03*
D18*
X166056000Y-116540000D02*
X166056000Y-79602000D01*
X134528000Y-69962000D02*
X133250000Y-71240000D01*
X146002000Y-69962000D02*
X134528000Y-69962000D01*
X149304000Y-73264000D02*
X146002000Y-69962000D01*
X159718000Y-73264000D02*
X149304000Y-73264000D01*
X166056000Y-79602000D02*
X159718000Y-73264000D01*
X164810000Y-116540000D02*
X164810000Y-80388000D01*
X145494000Y-71232000D02*
X135798000Y-71232000D01*
X148796000Y-74534000D02*
X145494000Y-71232000D01*
X158956000Y-74534000D02*
X148796000Y-74534000D01*
X164810000Y-80388000D02*
X158956000Y-74534000D01*
X135798000Y-71232000D02*
X135790000Y-71240000D01*
X163310000Y-116540000D02*
X163310000Y-80920000D01*
X134572000Y-75042000D02*
X133250000Y-73780000D01*
X147272000Y-75042000D02*
X134572000Y-75042000D01*
X148034000Y-75804000D02*
X147272000Y-75042000D01*
X158194000Y-75804000D02*
X148034000Y-75804000D01*
X163310000Y-80920000D02*
X158194000Y-75804000D01*
D19*
X191476000Y-81400000D02*
X191468000Y-81392000D01*
X193500000Y-81392000D02*
X191476000Y-81400000D01*
X138120000Y-94100000D02*
X136500000Y-94100000D01*
X138128000Y-94092000D02*
X138120000Y-94100000D01*
X138120000Y-96640000D02*
X138128000Y-96632000D01*
X136604000Y-96632000D02*
X138120000Y-96640000D01*
X142310000Y-116540000D02*
X142310000Y-118612000D01*
X142022000Y-127790000D02*
X135360000Y-127790000D01*
X142192000Y-127620000D02*
X142022000Y-127790000D01*
X142310000Y-118612000D02*
X142192000Y-118730000D01*
X136290000Y-92060000D02*
X135790000Y-91560000D01*
D18*
X146810000Y-116540000D02*
X146810000Y-100996000D01*
X134585000Y-97975000D02*
X133250000Y-96640000D01*
X143789000Y-97975000D02*
X134585000Y-97975000D01*
X146810000Y-100996000D02*
X143789000Y-97975000D01*
X161810000Y-116540000D02*
X161810000Y-102280000D01*
X132032000Y-97962000D02*
X133250000Y-99180000D01*
X132032000Y-96124000D02*
X132032000Y-97962000D01*
X132794000Y-95362000D02*
X132032000Y-96124000D01*
X154892000Y-95362000D02*
X132794000Y-95362000D01*
X161810000Y-102280000D02*
X154892000Y-95362000D01*
X160310000Y-116540000D02*
X160310000Y-110686000D01*
X140414000Y-104252000D02*
X135798000Y-104252000D01*
X143970000Y-107808000D02*
X140414000Y-104252000D01*
X143970000Y-110602000D02*
X143970000Y-107808000D01*
X160310000Y-110686000D02*
X160226000Y-110602000D01*
X135798000Y-104252000D02*
X135790000Y-104260000D01*
X158810000Y-116540000D02*
X158810000Y-112234000D01*
X140676000Y-106800000D02*
X135790000Y-106800000D01*
X142446000Y-108570000D02*
X140676000Y-106800000D01*
X142446000Y-111618000D02*
X142446000Y-108570000D01*
X142446000Y-112126000D02*
X142446000Y-111618000D01*
X158810000Y-112234000D02*
X158702000Y-112126000D01*
X157310000Y-116540000D02*
X157310000Y-113528000D01*
X157310000Y-113528000D02*
X157178000Y-113396000D01*
X178310000Y-116540000D02*
X178310000Y-119188000D01*
X134572000Y-115742000D02*
X133250000Y-114420000D01*
X134572000Y-117968000D02*
X134572000Y-115742000D01*
X140668000Y-124064000D02*
X134572000Y-117968000D01*
X178006000Y-124064000D02*
X140668000Y-124064000D01*
X178260000Y-124064000D02*
X178006000Y-124064000D01*
X178310000Y-119188000D02*
X178260000Y-119238000D01*
X179810000Y-116540000D02*
X179810000Y-119518000D01*
X142386000Y-121016000D02*
X135790000Y-114420000D01*
X178312000Y-121016000D02*
X142386000Y-121016000D01*
X179810000Y-119518000D02*
X178312000Y-121016000D01*
X176810000Y-116540000D02*
X176810000Y-119164000D01*
X133250000Y-118932000D02*
X133250000Y-116960000D01*
X139906000Y-125588000D02*
X133250000Y-118932000D01*
X176736000Y-125588000D02*
X139906000Y-125588000D01*
X176736000Y-125588000D02*
X176736000Y-125588000D01*
X176810000Y-119164000D02*
X176736000Y-119238000D01*
X181310000Y-116540000D02*
X181310000Y-120252000D01*
X141370000Y-122540000D02*
X135790000Y-116960000D01*
X179022000Y-122540000D02*
X141370000Y-122540000D01*
X181310000Y-120252000D02*
X179022000Y-122540000D01*
X168064000Y-116540000D02*
X168064000Y-99208000D01*
X182570000Y-71240000D02*
X194210000Y-71240000D01*
X180292000Y-73518000D02*
X182570000Y-71240000D01*
X177752000Y-73518000D02*
X180292000Y-73518000D01*
X174196000Y-77074000D02*
X177752000Y-73518000D01*
X174196000Y-93076000D02*
X174196000Y-77074000D01*
X168064000Y-99208000D02*
X174196000Y-93076000D01*
X169310000Y-116540000D02*
X169310000Y-99994000D01*
X195488000Y-72502000D02*
X196750000Y-71240000D01*
X183340000Y-72502000D02*
X195488000Y-72502000D01*
X181054000Y-74788000D02*
X183340000Y-72502000D01*
X178514000Y-74788000D02*
X181054000Y-74788000D01*
X175720000Y-77582000D02*
X178514000Y-74788000D01*
X175720000Y-93584000D02*
X175720000Y-77582000D01*
X169310000Y-99994000D02*
X175720000Y-93584000D01*
X172310000Y-116540000D02*
X172310000Y-99026000D01*
X195488000Y-75042000D02*
X196750000Y-73780000D01*
X182578000Y-75042000D02*
X195488000Y-75042000D01*
X181562000Y-76058000D02*
X182578000Y-75042000D01*
X179276000Y-76058000D02*
X181562000Y-76058000D01*
X177244000Y-78090000D02*
X179276000Y-76058000D01*
X177244000Y-94092000D02*
X177244000Y-78090000D01*
X172310000Y-99026000D02*
X177244000Y-94092000D01*
X173810000Y-116540000D02*
X173810000Y-99558000D01*
X195488000Y-77582000D02*
X196750000Y-76320000D01*
X179784000Y-77582000D02*
X195488000Y-77582000D01*
X178768000Y-78598000D02*
X179784000Y-77582000D01*
X178768000Y-94600000D02*
X178768000Y-78598000D01*
X173810000Y-99558000D02*
X178768000Y-94600000D01*
X185810000Y-116540000D02*
X185810000Y-94880000D01*
X185810000Y-94880000D02*
X194210000Y-86480000D01*
X184310000Y-116540000D02*
X184310000Y-94646000D01*
X184310000Y-94646000D02*
X189944000Y-89012000D01*
X148310000Y-116540000D02*
X148310000Y-99194000D01*
X178006000Y-99172000D02*
X185626000Y-91552000D01*
X148310000Y-99194000D02*
X148288000Y-99172000D01*
X170810000Y-116540000D02*
X170810000Y-100272000D01*
X181308000Y-94092000D02*
X181562000Y-94092000D01*
X175212000Y-100188000D02*
X181308000Y-94092000D01*
X170810000Y-100272000D02*
X170894000Y-100188000D01*
X145310000Y-116540000D02*
X145310000Y-101274000D01*
X145310000Y-101274000D02*
X145240000Y-101204000D01*
X154310000Y-116540000D02*
X154310000Y-102548000D01*
X154310000Y-102548000D02*
X154384000Y-102474000D01*
X182810000Y-116540000D02*
X182810000Y-99194000D01*
X182810000Y-99194000D02*
X182832000Y-99172000D01*
X155810000Y-116540000D02*
X155810000Y-103842000D01*
X155810000Y-103842000D02*
X155908000Y-103744000D01*
X151310000Y-116540000D02*
X151310000Y-105040000D01*
X151310000Y-105040000D02*
X151336000Y-105014000D01*
X149810000Y-116540000D02*
X149810000Y-106794000D01*
X149810000Y-106794000D02*
X149812000Y-106792000D01*
X152810000Y-116540000D02*
X152810000Y-109382000D01*
X152810000Y-109382000D02*
X152860000Y-109332000D01*
X187310000Y-116540000D02*
X187310000Y-113998000D01*
X189428000Y-111880000D02*
X194210000Y-111880000D01*
X187310000Y-113998000D02*
X189428000Y-111880000D01*
X175310000Y-116540000D02*
X175310000Y-113298000D01*
X175310000Y-113298000D02*
X175466000Y-113142000D01*
D19*
X188810000Y-116540000D02*
X188810000Y-119102000D01*
X188674000Y-119238000D02*
X188810000Y-119102000D01*
X167084000Y-98156000D02*
X167084000Y-113904000D01*
X167084000Y-127366000D02*
X188674000Y-127366000D01*
D20*
G36*
X148873000Y-65052606D02*
X148873000Y-71000000D01*
X148883006Y-71049410D01*
X148910197Y-71089803D01*
X149910197Y-72089803D01*
X149952211Y-72117666D01*
X150000000Y-72127000D01*
X180000000Y-72127000D01*
X180049410Y-72116994D01*
X180089803Y-72089803D01*
X181089803Y-71089803D01*
X181117666Y-71047789D01*
X181127000Y-71000000D01*
X181127000Y-65052606D01*
X182052606Y-64127000D01*
X197947394Y-64127000D01*
X198873000Y-65052606D01*
X198873000Y-128947394D01*
X197030394Y-130790000D01*
X132969606Y-130790000D01*
X131127000Y-128947394D01*
X131127000Y-128075750D01*
X133475000Y-128075750D01*
X133475000Y-129916310D01*
X133571673Y-130149699D01*
X133750302Y-130328327D01*
X133983691Y-130425000D01*
X135074250Y-130425000D01*
X135233000Y-130266250D01*
X135233000Y-127917000D01*
X135487000Y-127917000D01*
X135487000Y-130266250D01*
X135645750Y-130425000D01*
X136736309Y-130425000D01*
X136969698Y-130328327D01*
X137148327Y-130149699D01*
X137245000Y-129916310D01*
X137245000Y-128075750D01*
X137086250Y-127917000D01*
X135487000Y-127917000D01*
X135233000Y-127917000D01*
X133633750Y-127917000D01*
X133475000Y-128075750D01*
X131127000Y-128075750D01*
X131127000Y-125663690D01*
X133475000Y-125663690D01*
X133475000Y-127504250D01*
X133633750Y-127663000D01*
X135233000Y-127663000D01*
X135233000Y-125313750D01*
X135487000Y-125313750D01*
X135487000Y-127663000D01*
X137086250Y-127663000D01*
X137198083Y-127551167D01*
X166148838Y-127551167D01*
X166290883Y-127894943D01*
X166553673Y-128158192D01*
X166897201Y-128300838D01*
X167269167Y-128301162D01*
X167511578Y-128201000D01*
X188246766Y-128201000D01*
X188487201Y-128300838D01*
X188859167Y-128301162D01*
X189202943Y-128159117D01*
X189286455Y-128075750D01*
X193875000Y-128075750D01*
X193875000Y-129916310D01*
X193971673Y-130149699D01*
X194150302Y-130328327D01*
X194383691Y-130425000D01*
X195474250Y-130425000D01*
X195633000Y-130266250D01*
X195633000Y-127917000D01*
X195887000Y-127917000D01*
X195887000Y-130266250D01*
X196045750Y-130425000D01*
X197136309Y-130425000D01*
X197369698Y-130328327D01*
X197548327Y-130149699D01*
X197645000Y-129916310D01*
X197645000Y-128075750D01*
X197486250Y-127917000D01*
X195887000Y-127917000D01*
X195633000Y-127917000D01*
X194033750Y-127917000D01*
X193875000Y-128075750D01*
X189286455Y-128075750D01*
X189466192Y-127896327D01*
X189608838Y-127552799D01*
X189609162Y-127180833D01*
X189467117Y-126837057D01*
X189204327Y-126573808D01*
X188860799Y-126431162D01*
X188488833Y-126430838D01*
X188246422Y-126531000D01*
X167511234Y-126531000D01*
X167270799Y-126431162D01*
X166898833Y-126430838D01*
X166555057Y-126572883D01*
X166291808Y-126835673D01*
X166149162Y-127179201D01*
X166148838Y-127551167D01*
X137198083Y-127551167D01*
X137245000Y-127504250D01*
X137245000Y-125663690D01*
X137148327Y-125430301D01*
X136969698Y-125251673D01*
X136736309Y-125155000D01*
X135645750Y-125155000D01*
X135487000Y-125313750D01*
X135233000Y-125313750D01*
X135074250Y-125155000D01*
X133983691Y-125155000D01*
X133750302Y-125251673D01*
X133571673Y-125430301D01*
X133475000Y-125663690D01*
X131127000Y-125663690D01*
X131127000Y-96124000D01*
X131272000Y-96124000D01*
X131272000Y-97962000D01*
X131329852Y-98252839D01*
X131494599Y-98499401D01*
X131797225Y-98802027D01*
X131722041Y-99180000D01*
X131836115Y-99753489D01*
X132160971Y-100239670D01*
X132475752Y-100450000D01*
X132160971Y-100660330D01*
X131836115Y-101146511D01*
X131722041Y-101720000D01*
X131836115Y-102293489D01*
X132160971Y-102779670D01*
X132475752Y-102990000D01*
X132160971Y-103200330D01*
X131836115Y-103686511D01*
X131722041Y-104260000D01*
X131836115Y-104833489D01*
X132160971Y-105319670D01*
X132475752Y-105530000D01*
X132160971Y-105740330D01*
X131836115Y-106226511D01*
X131722041Y-106800000D01*
X131836115Y-107373489D01*
X132160971Y-107859670D01*
X132475752Y-108070000D01*
X132160971Y-108280330D01*
X131836115Y-108766511D01*
X131722041Y-109340000D01*
X131836115Y-109913489D01*
X132160971Y-110399670D01*
X132475752Y-110610000D01*
X132160971Y-110820330D01*
X131836115Y-111306511D01*
X131722041Y-111880000D01*
X131836115Y-112453489D01*
X132160971Y-112939670D01*
X132475752Y-113150000D01*
X132160971Y-113360330D01*
X131836115Y-113846511D01*
X131722041Y-114420000D01*
X131836115Y-114993489D01*
X132160971Y-115479670D01*
X132475752Y-115690000D01*
X132160971Y-115900330D01*
X131836115Y-116386511D01*
X131722041Y-116960000D01*
X131836115Y-117533489D01*
X132160971Y-118019670D01*
X132490000Y-118239520D01*
X132490000Y-118932000D01*
X132547852Y-119222839D01*
X132712599Y-119469401D01*
X139368599Y-126125401D01*
X139615160Y-126290148D01*
X139663414Y-126299746D01*
X139906000Y-126348000D01*
X176173537Y-126348000D01*
X176205673Y-126380192D01*
X176549201Y-126522838D01*
X176921167Y-126523162D01*
X177264943Y-126381117D01*
X177528192Y-126118327D01*
X177670838Y-125774799D01*
X177670934Y-125663690D01*
X193875000Y-125663690D01*
X193875000Y-127504250D01*
X194033750Y-127663000D01*
X195633000Y-127663000D01*
X195633000Y-125313750D01*
X195887000Y-125313750D01*
X195887000Y-127663000D01*
X197486250Y-127663000D01*
X197645000Y-127504250D01*
X197645000Y-125663690D01*
X197548327Y-125430301D01*
X197369698Y-125251673D01*
X197136309Y-125155000D01*
X196045750Y-125155000D01*
X195887000Y-125313750D01*
X195633000Y-125313750D01*
X195474250Y-125155000D01*
X194383691Y-125155000D01*
X194150302Y-125251673D01*
X193971673Y-125430301D01*
X193875000Y-125663690D01*
X177670934Y-125663690D01*
X177671162Y-125402833D01*
X177529117Y-125059057D01*
X177294470Y-124824000D01*
X177697537Y-124824000D01*
X177729673Y-124856192D01*
X178073201Y-124998838D01*
X178445167Y-124999162D01*
X178788943Y-124857117D01*
X179052192Y-124594327D01*
X179194838Y-124250799D01*
X179195162Y-123878833D01*
X179053117Y-123535057D01*
X178818470Y-123300000D01*
X179022000Y-123300000D01*
X179312839Y-123242148D01*
X179559401Y-123077401D01*
X181847401Y-120789401D01*
X182012148Y-120542839D01*
X182070000Y-120252000D01*
X182070000Y-118388839D01*
X182310000Y-118437440D01*
X183310000Y-118437440D01*
X183545317Y-118393162D01*
X183556979Y-118385658D01*
X183558110Y-118386431D01*
X183810000Y-118437440D01*
X184810000Y-118437440D01*
X185045317Y-118393162D01*
X185056979Y-118385658D01*
X185058110Y-118386431D01*
X185310000Y-118437440D01*
X186310000Y-118437440D01*
X186545317Y-118393162D01*
X186556979Y-118385658D01*
X186558110Y-118386431D01*
X186810000Y-118437440D01*
X187810000Y-118437440D01*
X187975000Y-118406393D01*
X187975000Y-118614643D01*
X187881808Y-118707673D01*
X187739162Y-119051201D01*
X187738838Y-119423167D01*
X187880883Y-119766943D01*
X188143673Y-120030192D01*
X188487201Y-120172838D01*
X188859167Y-120173162D01*
X189202943Y-120031117D01*
X189466192Y-119768327D01*
X189608838Y-119424799D01*
X189608961Y-119283178D01*
X189645000Y-119102000D01*
X189645000Y-118329018D01*
X189761441Y-118254090D01*
X189906431Y-118041890D01*
X189957440Y-117790000D01*
X189957440Y-115290000D01*
X189913162Y-115054683D01*
X189774090Y-114838559D01*
X189561890Y-114693569D01*
X189310000Y-114642560D01*
X188310000Y-114642560D01*
X188074683Y-114686838D01*
X188070000Y-114689851D01*
X188070000Y-114312802D01*
X189742802Y-112640000D01*
X192920738Y-112640000D01*
X193120971Y-112939670D01*
X193435752Y-113150000D01*
X193120971Y-113360330D01*
X192796115Y-113846511D01*
X192682041Y-114420000D01*
X192796115Y-114993489D01*
X193120971Y-115479670D01*
X193435752Y-115690000D01*
X193120971Y-115900330D01*
X192796115Y-116386511D01*
X192682041Y-116960000D01*
X192796115Y-117533489D01*
X193120971Y-118019670D01*
X193607152Y-118344526D01*
X194180641Y-118458600D01*
X194239359Y-118458600D01*
X194812848Y-118344526D01*
X195299029Y-118019670D01*
X195480000Y-117748828D01*
X195660971Y-118019670D01*
X196147152Y-118344526D01*
X196720641Y-118458600D01*
X196779359Y-118458600D01*
X197352848Y-118344526D01*
X197839029Y-118019670D01*
X198163885Y-117533489D01*
X198277959Y-116960000D01*
X198163885Y-116386511D01*
X197839029Y-115900330D01*
X197524248Y-115690000D01*
X197839029Y-115479670D01*
X198163885Y-114993489D01*
X198277959Y-114420000D01*
X198163885Y-113846511D01*
X197839029Y-113360330D01*
X197524248Y-113150000D01*
X197839029Y-112939670D01*
X198163885Y-112453489D01*
X198277959Y-111880000D01*
X198163885Y-111306511D01*
X197839029Y-110820330D01*
X197524248Y-110610000D01*
X197839029Y-110399670D01*
X198163885Y-109913489D01*
X198277959Y-109340000D01*
X198163885Y-108766511D01*
X197839029Y-108280330D01*
X197524248Y-108070000D01*
X197839029Y-107859670D01*
X198163885Y-107373489D01*
X198277959Y-106800000D01*
X198163885Y-106226511D01*
X197839029Y-105740330D01*
X197524248Y-105530000D01*
X197839029Y-105319670D01*
X198163885Y-104833489D01*
X198277959Y-104260000D01*
X198163885Y-103686511D01*
X197839029Y-103200330D01*
X197524248Y-102990000D01*
X197839029Y-102779670D01*
X198163885Y-102293489D01*
X198277959Y-101720000D01*
X198163885Y-101146511D01*
X197839029Y-100660330D01*
X197524248Y-100450000D01*
X197839029Y-100239670D01*
X198163885Y-99753489D01*
X198277959Y-99180000D01*
X198163885Y-98606511D01*
X197839029Y-98120330D01*
X197524248Y-97910000D01*
X197839029Y-97699670D01*
X198163885Y-97213489D01*
X198277959Y-96640000D01*
X198163885Y-96066511D01*
X197839029Y-95580330D01*
X197515772Y-95364336D01*
X197638490Y-95306821D01*
X198032688Y-94874947D01*
X198204958Y-94459026D01*
X198083817Y-94227000D01*
X196877000Y-94227000D01*
X196877000Y-94247000D01*
X196623000Y-94247000D01*
X196623000Y-94227000D01*
X196603000Y-94227000D01*
X196603000Y-93973000D01*
X196623000Y-93973000D01*
X196623000Y-93953000D01*
X196877000Y-93953000D01*
X196877000Y-93973000D01*
X198083817Y-93973000D01*
X198204958Y-93740974D01*
X198032688Y-93325053D01*
X197638490Y-92893179D01*
X197515772Y-92835664D01*
X197839029Y-92619670D01*
X198163885Y-92133489D01*
X198277959Y-91560000D01*
X198163885Y-90986511D01*
X197839029Y-90500330D01*
X197524248Y-90290000D01*
X197839029Y-90079670D01*
X198163885Y-89593489D01*
X198277959Y-89020000D01*
X198163885Y-88446511D01*
X197839029Y-87960330D01*
X197524248Y-87750000D01*
X197839029Y-87539670D01*
X198163885Y-87053489D01*
X198277959Y-86480000D01*
X198163885Y-85906511D01*
X197839029Y-85420330D01*
X197524248Y-85210000D01*
X197839029Y-84999670D01*
X198163885Y-84513489D01*
X198277959Y-83940000D01*
X198163885Y-83366511D01*
X197839029Y-82880330D01*
X197524248Y-82670000D01*
X197839029Y-82459670D01*
X198163885Y-81973489D01*
X198277959Y-81400000D01*
X198163885Y-80826511D01*
X197839029Y-80340330D01*
X197524248Y-80130000D01*
X197839029Y-79919670D01*
X198163885Y-79433489D01*
X198277959Y-78860000D01*
X198163885Y-78286511D01*
X197839029Y-77800330D01*
X197524248Y-77590000D01*
X197839029Y-77379670D01*
X198163885Y-76893489D01*
X198277959Y-76320000D01*
X198163885Y-75746511D01*
X197839029Y-75260330D01*
X197524248Y-75050000D01*
X197839029Y-74839670D01*
X198163885Y-74353489D01*
X198277959Y-73780000D01*
X198163885Y-73206511D01*
X197839029Y-72720330D01*
X197524248Y-72510000D01*
X197839029Y-72299670D01*
X198163885Y-71813489D01*
X198277959Y-71240000D01*
X198163885Y-70666511D01*
X197839029Y-70180330D01*
X197352848Y-69855474D01*
X196779359Y-69741400D01*
X196720641Y-69741400D01*
X196147152Y-69855474D01*
X195681558Y-70166574D01*
X195676762Y-70141083D01*
X195537690Y-69924959D01*
X195325490Y-69779969D01*
X195073600Y-69728960D01*
X193346400Y-69728960D01*
X193111083Y-69773238D01*
X192894959Y-69912310D01*
X192749969Y-70124510D01*
X192698960Y-70376400D01*
X192698960Y-70480000D01*
X182570000Y-70480000D01*
X182279161Y-70537852D01*
X182279159Y-70537853D01*
X182279160Y-70537853D01*
X182032598Y-70702599D01*
X179977198Y-72758000D01*
X177752000Y-72758000D01*
X177509414Y-72806254D01*
X177461160Y-72815852D01*
X177214599Y-72980599D01*
X173658599Y-76536599D01*
X173493852Y-76783161D01*
X173436000Y-77074000D01*
X173436000Y-92761198D01*
X168018981Y-98178217D01*
X168019162Y-97970833D01*
X167877117Y-97627057D01*
X167614327Y-97363808D01*
X167270799Y-97221162D01*
X166898833Y-97220838D01*
X166816000Y-97255064D01*
X166816000Y-93025096D01*
X166935910Y-93211441D01*
X167148110Y-93356431D01*
X167400000Y-93407440D01*
X168800000Y-93407440D01*
X169035317Y-93363162D01*
X169251441Y-93224090D01*
X169396431Y-93011890D01*
X169447440Y-92760000D01*
X169447440Y-91360000D01*
X169403162Y-91124683D01*
X169264090Y-90908559D01*
X169051890Y-90763569D01*
X168804350Y-90713441D01*
X168855229Y-90692418D01*
X169231098Y-90317204D01*
X169434768Y-89826713D01*
X169435231Y-89295617D01*
X169232418Y-88804771D01*
X168857204Y-88428902D01*
X168570758Y-88309959D01*
X168855229Y-88192418D01*
X169231098Y-87817204D01*
X169434768Y-87326713D01*
X169434770Y-87324383D01*
X170064769Y-87324383D01*
X170267582Y-87815229D01*
X170642796Y-88191098D01*
X170929242Y-88310041D01*
X170644771Y-88427582D01*
X170268902Y-88802796D01*
X170065232Y-89293287D01*
X170064769Y-89824383D01*
X170267582Y-90315229D01*
X170642796Y-90691098D01*
X170929242Y-90810041D01*
X170644771Y-90927582D01*
X170268902Y-91302796D01*
X170065232Y-91793287D01*
X170064769Y-92324383D01*
X170267582Y-92815229D01*
X170642796Y-93191098D01*
X171133287Y-93394768D01*
X171664383Y-93395231D01*
X172155229Y-93192418D01*
X172531098Y-92817204D01*
X172734768Y-92326713D01*
X172735231Y-91795617D01*
X172532418Y-91304771D01*
X172157204Y-90928902D01*
X171870758Y-90809959D01*
X172155229Y-90692418D01*
X172531098Y-90317204D01*
X172734768Y-89826713D01*
X172735231Y-89295617D01*
X172532418Y-88804771D01*
X172157204Y-88428902D01*
X171870758Y-88309959D01*
X172155229Y-88192418D01*
X172531098Y-87817204D01*
X172734768Y-87326713D01*
X172735231Y-86795617D01*
X172532418Y-86304771D01*
X172157204Y-85928902D01*
X171666713Y-85725232D01*
X171135617Y-85724769D01*
X170644771Y-85927582D01*
X170268902Y-86302796D01*
X170065232Y-86793287D01*
X170064769Y-87324383D01*
X169434770Y-87324383D01*
X169435231Y-86795617D01*
X169232418Y-86304771D01*
X168857204Y-85928902D01*
X168366713Y-85725232D01*
X167835617Y-85724769D01*
X167344771Y-85927582D01*
X166968902Y-86302796D01*
X166816000Y-86671024D01*
X166816000Y-79602000D01*
X166758148Y-79311161D01*
X166593401Y-79064599D01*
X160255401Y-72726599D01*
X160008839Y-72561852D01*
X159718000Y-72504000D01*
X149618802Y-72504000D01*
X146539401Y-69424599D01*
X146292839Y-69259852D01*
X146002000Y-69202000D01*
X134528000Y-69202000D01*
X134237161Y-69259852D01*
X133990599Y-69424599D01*
X133686238Y-69728960D01*
X132386400Y-69728960D01*
X132151083Y-69773238D01*
X131934959Y-69912310D01*
X131789969Y-70124510D01*
X131738960Y-70376400D01*
X131738960Y-72103600D01*
X131783238Y-72338917D01*
X131922310Y-72555041D01*
X132134510Y-72700031D01*
X132178131Y-72708864D01*
X132160971Y-72720330D01*
X131836115Y-73206511D01*
X131722041Y-73780000D01*
X131836115Y-74353489D01*
X132160971Y-74839670D01*
X132475752Y-75050000D01*
X132160971Y-75260330D01*
X131836115Y-75746511D01*
X131722041Y-76320000D01*
X131836115Y-76893489D01*
X132160971Y-77379670D01*
X132475752Y-77590000D01*
X132160971Y-77800330D01*
X131836115Y-78286511D01*
X131722041Y-78860000D01*
X131836115Y-79433489D01*
X132160971Y-79919670D01*
X132475752Y-80130000D01*
X132160971Y-80340330D01*
X131836115Y-80826511D01*
X131722041Y-81400000D01*
X131836115Y-81973489D01*
X132160971Y-82459670D01*
X132475752Y-82670000D01*
X132160971Y-82880330D01*
X131836115Y-83366511D01*
X131722041Y-83940000D01*
X131836115Y-84513489D01*
X132160971Y-84999670D01*
X132475752Y-85210000D01*
X132160971Y-85420330D01*
X131836115Y-85906511D01*
X131722041Y-86480000D01*
X131836115Y-87053489D01*
X132160971Y-87539670D01*
X132475752Y-87750000D01*
X132160971Y-87960330D01*
X131836115Y-88446511D01*
X131722041Y-89020000D01*
X131836115Y-89593489D01*
X132160971Y-90079670D01*
X132475752Y-90290000D01*
X132160971Y-90500330D01*
X131836115Y-90986511D01*
X131722041Y-91560000D01*
X131836115Y-92133489D01*
X132160971Y-92619670D01*
X132484228Y-92835664D01*
X132361510Y-92893179D01*
X131967312Y-93325053D01*
X131795042Y-93740974D01*
X131916183Y-93973000D01*
X133123000Y-93973000D01*
X133123000Y-93953000D01*
X133377000Y-93953000D01*
X133377000Y-93973000D01*
X135663000Y-93973000D01*
X135663000Y-93953000D01*
X135917000Y-93953000D01*
X135917000Y-93973000D01*
X137123817Y-93973000D01*
X137244958Y-93740974D01*
X137072688Y-93325053D01*
X136678490Y-92893179D01*
X136565465Y-92840207D01*
X136609540Y-92831440D01*
X136880434Y-92650434D01*
X137061440Y-92379540D01*
X137070749Y-92332741D01*
X137203885Y-92133489D01*
X137317959Y-91560000D01*
X137278177Y-91360000D01*
X156592560Y-91360000D01*
X156592560Y-92760000D01*
X156636838Y-92995317D01*
X156775910Y-93211441D01*
X156988110Y-93356431D01*
X157240000Y-93407440D01*
X158640000Y-93407440D01*
X158875317Y-93363162D01*
X159091441Y-93224090D01*
X159236431Y-93011890D01*
X159287440Y-92760000D01*
X159287440Y-91360000D01*
X159243162Y-91124683D01*
X159104090Y-90908559D01*
X158891890Y-90763569D01*
X158644350Y-90713441D01*
X158695229Y-90692418D01*
X159071098Y-90317204D01*
X159274768Y-89826713D01*
X159275231Y-89295617D01*
X159072418Y-88804771D01*
X158697204Y-88428902D01*
X158410758Y-88309959D01*
X158695229Y-88192418D01*
X159071098Y-87817204D01*
X159274768Y-87326713D01*
X159275231Y-86795617D01*
X159072418Y-86304771D01*
X158697204Y-85928902D01*
X158206713Y-85725232D01*
X157675617Y-85724769D01*
X157184771Y-85927582D01*
X156808902Y-86302796D01*
X156605232Y-86793287D01*
X156604769Y-87324383D01*
X156807582Y-87815229D01*
X157182796Y-88191098D01*
X157469242Y-88310041D01*
X157184771Y-88427582D01*
X156808902Y-88802796D01*
X156605232Y-89293287D01*
X156604769Y-89824383D01*
X156807582Y-90315229D01*
X157182796Y-90691098D01*
X157236203Y-90713274D01*
X157004683Y-90756838D01*
X156788559Y-90895910D01*
X156643569Y-91108110D01*
X156592560Y-91360000D01*
X137278177Y-91360000D01*
X137203885Y-90986511D01*
X136879029Y-90500330D01*
X136564248Y-90290000D01*
X136879029Y-90079670D01*
X137203885Y-89593489D01*
X137317959Y-89020000D01*
X137203885Y-88446511D01*
X136879029Y-87960330D01*
X136564248Y-87750000D01*
X136879029Y-87539670D01*
X137203885Y-87053489D01*
X137317959Y-86480000D01*
X137203885Y-85906511D01*
X136879029Y-85420330D01*
X136564248Y-85210000D01*
X136879029Y-84999670D01*
X137203885Y-84513489D01*
X137317959Y-83940000D01*
X137203885Y-83366511D01*
X136879029Y-82880330D01*
X136564248Y-82670000D01*
X136879029Y-82459670D01*
X137203885Y-81973489D01*
X137317959Y-81400000D01*
X137203885Y-80826511D01*
X136879029Y-80340330D01*
X136555772Y-80124336D01*
X136678490Y-80066821D01*
X137072688Y-79634947D01*
X137244958Y-79219026D01*
X137123817Y-78987000D01*
X135917000Y-78987000D01*
X135917000Y-79007000D01*
X135663000Y-79007000D01*
X135663000Y-78987000D01*
X135643000Y-78987000D01*
X135643000Y-78733000D01*
X135663000Y-78733000D01*
X135663000Y-78713000D01*
X135917000Y-78713000D01*
X135917000Y-78733000D01*
X137123817Y-78733000D01*
X137244958Y-78500974D01*
X137072688Y-78085053D01*
X136678490Y-77653179D01*
X136555772Y-77595664D01*
X136879029Y-77379670D01*
X137203885Y-76893489D01*
X137317959Y-76320000D01*
X137214922Y-75802000D01*
X146957198Y-75802000D01*
X147496599Y-76341401D01*
X147743161Y-76506148D01*
X148034000Y-76564000D01*
X157879198Y-76564000D01*
X162550000Y-81234802D01*
X162550000Y-86734553D01*
X162372418Y-86304771D01*
X161997204Y-85928902D01*
X161506713Y-85725232D01*
X160975617Y-85724769D01*
X160484771Y-85927582D01*
X160108902Y-86302796D01*
X159905232Y-86793287D01*
X159904769Y-87324383D01*
X160107582Y-87815229D01*
X160482796Y-88191098D01*
X160769242Y-88310041D01*
X160484771Y-88427582D01*
X160108902Y-88802796D01*
X159905232Y-89293287D01*
X159904769Y-89824383D01*
X160107582Y-90315229D01*
X160482796Y-90691098D01*
X160769242Y-90810041D01*
X160484771Y-90927582D01*
X160108902Y-91302796D01*
X159905232Y-91793287D01*
X159904769Y-92324383D01*
X160107582Y-92815229D01*
X160482796Y-93191098D01*
X160973287Y-93394768D01*
X161504383Y-93395231D01*
X161995229Y-93192418D01*
X162371098Y-92817204D01*
X162550000Y-92386361D01*
X162550000Y-102179454D01*
X162512148Y-101989161D01*
X162512148Y-101989160D01*
X162347401Y-101742599D01*
X155429401Y-94824599D01*
X155182839Y-94659852D01*
X154892000Y-94602000D01*
X137185740Y-94602000D01*
X137244958Y-94459026D01*
X137123817Y-94227000D01*
X135917000Y-94227000D01*
X135917000Y-94247000D01*
X135663000Y-94247000D01*
X135663000Y-94227000D01*
X133377000Y-94227000D01*
X133377000Y-94247000D01*
X133123000Y-94247000D01*
X133123000Y-94227000D01*
X131916183Y-94227000D01*
X131795042Y-94459026D01*
X131967312Y-94874947D01*
X132081333Y-94999865D01*
X131494599Y-95586599D01*
X131329852Y-95833161D01*
X131272000Y-96124000D01*
X131127000Y-96124000D01*
X131127000Y-65052606D01*
X132052606Y-64127000D01*
X147947394Y-64127000D01*
X148873000Y-65052606D01*
X148873000Y-65052606D01*
G37*
X148873000Y-65052606D02*
X148873000Y-71000000D01*
X148883006Y-71049410D01*
X148910197Y-71089803D01*
X149910197Y-72089803D01*
X149952211Y-72117666D01*
X150000000Y-72127000D01*
X180000000Y-72127000D01*
X180049410Y-72116994D01*
X180089803Y-72089803D01*
X181089803Y-71089803D01*
X181117666Y-71047789D01*
X181127000Y-71000000D01*
X181127000Y-65052606D01*
X182052606Y-64127000D01*
X197947394Y-64127000D01*
X198873000Y-65052606D01*
X198873000Y-128947394D01*
X197030394Y-130790000D01*
X132969606Y-130790000D01*
X131127000Y-128947394D01*
X131127000Y-128075750D01*
X133475000Y-128075750D01*
X133475000Y-129916310D01*
X133571673Y-130149699D01*
X133750302Y-130328327D01*
X133983691Y-130425000D01*
X135074250Y-130425000D01*
X135233000Y-130266250D01*
X135233000Y-127917000D01*
X135487000Y-127917000D01*
X135487000Y-130266250D01*
X135645750Y-130425000D01*
X136736309Y-130425000D01*
X136969698Y-130328327D01*
X137148327Y-130149699D01*
X137245000Y-129916310D01*
X137245000Y-128075750D01*
X137086250Y-127917000D01*
X135487000Y-127917000D01*
X135233000Y-127917000D01*
X133633750Y-127917000D01*
X133475000Y-128075750D01*
X131127000Y-128075750D01*
X131127000Y-125663690D01*
X133475000Y-125663690D01*
X133475000Y-127504250D01*
X133633750Y-127663000D01*
X135233000Y-127663000D01*
X135233000Y-125313750D01*
X135487000Y-125313750D01*
X135487000Y-127663000D01*
X137086250Y-127663000D01*
X137198083Y-127551167D01*
X166148838Y-127551167D01*
X166290883Y-127894943D01*
X166553673Y-128158192D01*
X166897201Y-128300838D01*
X167269167Y-128301162D01*
X167511578Y-128201000D01*
X188246766Y-128201000D01*
X188487201Y-128300838D01*
X188859167Y-128301162D01*
X189202943Y-128159117D01*
X189286455Y-128075750D01*
X193875000Y-128075750D01*
X193875000Y-129916310D01*
X193971673Y-130149699D01*
X194150302Y-130328327D01*
X194383691Y-130425000D01*
X195474250Y-130425000D01*
X195633000Y-130266250D01*
X195633000Y-127917000D01*
X195887000Y-127917000D01*
X195887000Y-130266250D01*
X196045750Y-130425000D01*
X197136309Y-130425000D01*
X197369698Y-130328327D01*
X197548327Y-130149699D01*
X197645000Y-129916310D01*
X197645000Y-128075750D01*
X197486250Y-127917000D01*
X195887000Y-127917000D01*
X195633000Y-127917000D01*
X194033750Y-127917000D01*
X193875000Y-128075750D01*
X189286455Y-128075750D01*
X189466192Y-127896327D01*
X189608838Y-127552799D01*
X189609162Y-127180833D01*
X189467117Y-126837057D01*
X189204327Y-126573808D01*
X188860799Y-126431162D01*
X188488833Y-126430838D01*
X188246422Y-126531000D01*
X167511234Y-126531000D01*
X167270799Y-126431162D01*
X166898833Y-126430838D01*
X166555057Y-126572883D01*
X166291808Y-126835673D01*
X166149162Y-127179201D01*
X166148838Y-127551167D01*
X137198083Y-127551167D01*
X137245000Y-127504250D01*
X137245000Y-125663690D01*
X137148327Y-125430301D01*
X136969698Y-125251673D01*
X136736309Y-125155000D01*
X135645750Y-125155000D01*
X135487000Y-125313750D01*
X135233000Y-125313750D01*
X135074250Y-125155000D01*
X133983691Y-125155000D01*
X133750302Y-125251673D01*
X133571673Y-125430301D01*
X133475000Y-125663690D01*
X131127000Y-125663690D01*
X131127000Y-96124000D01*
X131272000Y-96124000D01*
X131272000Y-97962000D01*
X131329852Y-98252839D01*
X131494599Y-98499401D01*
X131797225Y-98802027D01*
X131722041Y-99180000D01*
X131836115Y-99753489D01*
X132160971Y-100239670D01*
X132475752Y-100450000D01*
X132160971Y-100660330D01*
X131836115Y-101146511D01*
X131722041Y-101720000D01*
X131836115Y-102293489D01*
X132160971Y-102779670D01*
X132475752Y-102990000D01*
X132160971Y-103200330D01*
X131836115Y-103686511D01*
X131722041Y-104260000D01*
X131836115Y-104833489D01*
X132160971Y-105319670D01*
X132475752Y-105530000D01*
X132160971Y-105740330D01*
X131836115Y-106226511D01*
X131722041Y-106800000D01*
X131836115Y-107373489D01*
X132160971Y-107859670D01*
X132475752Y-108070000D01*
X132160971Y-108280330D01*
X131836115Y-108766511D01*
X131722041Y-109340000D01*
X131836115Y-109913489D01*
X132160971Y-110399670D01*
X132475752Y-110610000D01*
X132160971Y-110820330D01*
X131836115Y-111306511D01*
X131722041Y-111880000D01*
X131836115Y-112453489D01*
X132160971Y-112939670D01*
X132475752Y-113150000D01*
X132160971Y-113360330D01*
X131836115Y-113846511D01*
X131722041Y-114420000D01*
X131836115Y-114993489D01*
X132160971Y-115479670D01*
X132475752Y-115690000D01*
X132160971Y-115900330D01*
X131836115Y-116386511D01*
X131722041Y-116960000D01*
X131836115Y-117533489D01*
X132160971Y-118019670D01*
X132490000Y-118239520D01*
X132490000Y-118932000D01*
X132547852Y-119222839D01*
X132712599Y-119469401D01*
X139368599Y-126125401D01*
X139615160Y-126290148D01*
X139663414Y-126299746D01*
X139906000Y-126348000D01*
X176173537Y-126348000D01*
X176205673Y-126380192D01*
X176549201Y-126522838D01*
X176921167Y-126523162D01*
X177264943Y-126381117D01*
X177528192Y-126118327D01*
X177670838Y-125774799D01*
X177670934Y-125663690D01*
X193875000Y-125663690D01*
X193875000Y-127504250D01*
X194033750Y-127663000D01*
X195633000Y-127663000D01*
X195633000Y-125313750D01*
X195887000Y-125313750D01*
X195887000Y-127663000D01*
X197486250Y-127663000D01*
X197645000Y-127504250D01*
X197645000Y-125663690D01*
X197548327Y-125430301D01*
X197369698Y-125251673D01*
X197136309Y-125155000D01*
X196045750Y-125155000D01*
X195887000Y-125313750D01*
X195633000Y-125313750D01*
X195474250Y-125155000D01*
X194383691Y-125155000D01*
X194150302Y-125251673D01*
X193971673Y-125430301D01*
X193875000Y-125663690D01*
X177670934Y-125663690D01*
X177671162Y-125402833D01*
X177529117Y-125059057D01*
X177294470Y-124824000D01*
X177697537Y-124824000D01*
X177729673Y-124856192D01*
X178073201Y-124998838D01*
X178445167Y-124999162D01*
X178788943Y-124857117D01*
X179052192Y-124594327D01*
X179194838Y-124250799D01*
X179195162Y-123878833D01*
X179053117Y-123535057D01*
X178818470Y-123300000D01*
X179022000Y-123300000D01*
X179312839Y-123242148D01*
X179559401Y-123077401D01*
X181847401Y-120789401D01*
X182012148Y-120542839D01*
X182070000Y-120252000D01*
X182070000Y-118388839D01*
X182310000Y-118437440D01*
X183310000Y-118437440D01*
X183545317Y-118393162D01*
X183556979Y-118385658D01*
X183558110Y-118386431D01*
X183810000Y-118437440D01*
X184810000Y-118437440D01*
X185045317Y-118393162D01*
X185056979Y-118385658D01*
X185058110Y-118386431D01*
X185310000Y-118437440D01*
X186310000Y-118437440D01*
X186545317Y-118393162D01*
X186556979Y-118385658D01*
X186558110Y-118386431D01*
X186810000Y-118437440D01*
X187810000Y-118437440D01*
X187975000Y-118406393D01*
X187975000Y-118614643D01*
X187881808Y-118707673D01*
X187739162Y-119051201D01*
X187738838Y-119423167D01*
X187880883Y-119766943D01*
X188143673Y-120030192D01*
X188487201Y-120172838D01*
X188859167Y-120173162D01*
X189202943Y-120031117D01*
X189466192Y-119768327D01*
X189608838Y-119424799D01*
X189608961Y-119283178D01*
X189645000Y-119102000D01*
X189645000Y-118329018D01*
X189761441Y-118254090D01*
X189906431Y-118041890D01*
X189957440Y-117790000D01*
X189957440Y-115290000D01*
X189913162Y-115054683D01*
X189774090Y-114838559D01*
X189561890Y-114693569D01*
X189310000Y-114642560D01*
X188310000Y-114642560D01*
X188074683Y-114686838D01*
X188070000Y-114689851D01*
X188070000Y-114312802D01*
X189742802Y-112640000D01*
X192920738Y-112640000D01*
X193120971Y-112939670D01*
X193435752Y-113150000D01*
X193120971Y-113360330D01*
X192796115Y-113846511D01*
X192682041Y-114420000D01*
X192796115Y-114993489D01*
X193120971Y-115479670D01*
X193435752Y-115690000D01*
X193120971Y-115900330D01*
X192796115Y-116386511D01*
X192682041Y-116960000D01*
X192796115Y-117533489D01*
X193120971Y-118019670D01*
X193607152Y-118344526D01*
X194180641Y-118458600D01*
X194239359Y-118458600D01*
X194812848Y-118344526D01*
X195299029Y-118019670D01*
X195480000Y-117748828D01*
X195660971Y-118019670D01*
X196147152Y-118344526D01*
X196720641Y-118458600D01*
X196779359Y-118458600D01*
X197352848Y-118344526D01*
X197839029Y-118019670D01*
X198163885Y-117533489D01*
X198277959Y-116960000D01*
X198163885Y-116386511D01*
X197839029Y-115900330D01*
X197524248Y-115690000D01*
X197839029Y-115479670D01*
X198163885Y-114993489D01*
X198277959Y-114420000D01*
X198163885Y-113846511D01*
X197839029Y-113360330D01*
X197524248Y-113150000D01*
X197839029Y-112939670D01*
X198163885Y-112453489D01*
X198277959Y-111880000D01*
X198163885Y-111306511D01*
X197839029Y-110820330D01*
X197524248Y-110610000D01*
X197839029Y-110399670D01*
X198163885Y-109913489D01*
X198277959Y-109340000D01*
X198163885Y-108766511D01*
X197839029Y-108280330D01*
X197524248Y-108070000D01*
X197839029Y-107859670D01*
X198163885Y-107373489D01*
X198277959Y-106800000D01*
X198163885Y-106226511D01*
X197839029Y-105740330D01*
X197524248Y-105530000D01*
X197839029Y-105319670D01*
X198163885Y-104833489D01*
X198277959Y-104260000D01*
X198163885Y-103686511D01*
X197839029Y-103200330D01*
X197524248Y-102990000D01*
X197839029Y-102779670D01*
X198163885Y-102293489D01*
X198277959Y-101720000D01*
X198163885Y-101146511D01*
X197839029Y-100660330D01*
X197524248Y-100450000D01*
X197839029Y-100239670D01*
X198163885Y-99753489D01*
X198277959Y-99180000D01*
X198163885Y-98606511D01*
X197839029Y-98120330D01*
X197524248Y-97910000D01*
X197839029Y-97699670D01*
X198163885Y-97213489D01*
X198277959Y-96640000D01*
X198163885Y-96066511D01*
X197839029Y-95580330D01*
X197515772Y-95364336D01*
X197638490Y-95306821D01*
X198032688Y-94874947D01*
X198204958Y-94459026D01*
X198083817Y-94227000D01*
X196877000Y-94227000D01*
X196877000Y-94247000D01*
X196623000Y-94247000D01*
X196623000Y-94227000D01*
X196603000Y-94227000D01*
X196603000Y-93973000D01*
X196623000Y-93973000D01*
X196623000Y-93953000D01*
X196877000Y-93953000D01*
X196877000Y-93973000D01*
X198083817Y-93973000D01*
X198204958Y-93740974D01*
X198032688Y-93325053D01*
X197638490Y-92893179D01*
X197515772Y-92835664D01*
X197839029Y-92619670D01*
X198163885Y-92133489D01*
X198277959Y-91560000D01*
X198163885Y-90986511D01*
X197839029Y-90500330D01*
X197524248Y-90290000D01*
X197839029Y-90079670D01*
X198163885Y-89593489D01*
X198277959Y-89020000D01*
X198163885Y-88446511D01*
X197839029Y-87960330D01*
X197524248Y-87750000D01*
X197839029Y-87539670D01*
X198163885Y-87053489D01*
X198277959Y-86480000D01*
X198163885Y-85906511D01*
X197839029Y-85420330D01*
X197524248Y-85210000D01*
X197839029Y-84999670D01*
X198163885Y-84513489D01*
X198277959Y-83940000D01*
X198163885Y-83366511D01*
X197839029Y-82880330D01*
X197524248Y-82670000D01*
X197839029Y-82459670D01*
X198163885Y-81973489D01*
X198277959Y-81400000D01*
X198163885Y-80826511D01*
X197839029Y-80340330D01*
X197524248Y-80130000D01*
X197839029Y-79919670D01*
X198163885Y-79433489D01*
X198277959Y-78860000D01*
X198163885Y-78286511D01*
X197839029Y-77800330D01*
X197524248Y-77590000D01*
X197839029Y-77379670D01*
X198163885Y-76893489D01*
X198277959Y-76320000D01*
X198163885Y-75746511D01*
X197839029Y-75260330D01*
X197524248Y-75050000D01*
X197839029Y-74839670D01*
X198163885Y-74353489D01*
X198277959Y-73780000D01*
X198163885Y-73206511D01*
X197839029Y-72720330D01*
X197524248Y-72510000D01*
X197839029Y-72299670D01*
X198163885Y-71813489D01*
X198277959Y-71240000D01*
X198163885Y-70666511D01*
X197839029Y-70180330D01*
X197352848Y-69855474D01*
X196779359Y-69741400D01*
X196720641Y-69741400D01*
X196147152Y-69855474D01*
X195681558Y-70166574D01*
X195676762Y-70141083D01*
X195537690Y-69924959D01*
X195325490Y-69779969D01*
X195073600Y-69728960D01*
X193346400Y-69728960D01*
X193111083Y-69773238D01*
X192894959Y-69912310D01*
X192749969Y-70124510D01*
X192698960Y-70376400D01*
X192698960Y-70480000D01*
X182570000Y-70480000D01*
X182279161Y-70537852D01*
X182279159Y-70537853D01*
X182279160Y-70537853D01*
X182032598Y-70702599D01*
X179977198Y-72758000D01*
X177752000Y-72758000D01*
X177509414Y-72806254D01*
X177461160Y-72815852D01*
X177214599Y-72980599D01*
X173658599Y-76536599D01*
X173493852Y-76783161D01*
X173436000Y-77074000D01*
X173436000Y-92761198D01*
X168018981Y-98178217D01*
X168019162Y-97970833D01*
X167877117Y-97627057D01*
X167614327Y-97363808D01*
X167270799Y-97221162D01*
X166898833Y-97220838D01*
X166816000Y-97255064D01*
X166816000Y-93025096D01*
X166935910Y-93211441D01*
X167148110Y-93356431D01*
X167400000Y-93407440D01*
X168800000Y-93407440D01*
X169035317Y-93363162D01*
X169251441Y-93224090D01*
X169396431Y-93011890D01*
X169447440Y-92760000D01*
X169447440Y-91360000D01*
X169403162Y-91124683D01*
X169264090Y-90908559D01*
X169051890Y-90763569D01*
X168804350Y-90713441D01*
X168855229Y-90692418D01*
X169231098Y-90317204D01*
X169434768Y-89826713D01*
X169435231Y-89295617D01*
X169232418Y-88804771D01*
X168857204Y-88428902D01*
X168570758Y-88309959D01*
X168855229Y-88192418D01*
X169231098Y-87817204D01*
X169434768Y-87326713D01*
X169434770Y-87324383D01*
X170064769Y-87324383D01*
X170267582Y-87815229D01*
X170642796Y-88191098D01*
X170929242Y-88310041D01*
X170644771Y-88427582D01*
X170268902Y-88802796D01*
X170065232Y-89293287D01*
X170064769Y-89824383D01*
X170267582Y-90315229D01*
X170642796Y-90691098D01*
X170929242Y-90810041D01*
X170644771Y-90927582D01*
X170268902Y-91302796D01*
X170065232Y-91793287D01*
X170064769Y-92324383D01*
X170267582Y-92815229D01*
X170642796Y-93191098D01*
X171133287Y-93394768D01*
X171664383Y-93395231D01*
X172155229Y-93192418D01*
X172531098Y-92817204D01*
X172734768Y-92326713D01*
X172735231Y-91795617D01*
X172532418Y-91304771D01*
X172157204Y-90928902D01*
X171870758Y-90809959D01*
X172155229Y-90692418D01*
X172531098Y-90317204D01*
X172734768Y-89826713D01*
X172735231Y-89295617D01*
X172532418Y-88804771D01*
X172157204Y-88428902D01*
X171870758Y-88309959D01*
X172155229Y-88192418D01*
X172531098Y-87817204D01*
X172734768Y-87326713D01*
X172735231Y-86795617D01*
X172532418Y-86304771D01*
X172157204Y-85928902D01*
X171666713Y-85725232D01*
X171135617Y-85724769D01*
X170644771Y-85927582D01*
X170268902Y-86302796D01*
X170065232Y-86793287D01*
X170064769Y-87324383D01*
X169434770Y-87324383D01*
X169435231Y-86795617D01*
X169232418Y-86304771D01*
X168857204Y-85928902D01*
X168366713Y-85725232D01*
X167835617Y-85724769D01*
X167344771Y-85927582D01*
X166968902Y-86302796D01*
X166816000Y-86671024D01*
X166816000Y-79602000D01*
X166758148Y-79311161D01*
X166593401Y-79064599D01*
X160255401Y-72726599D01*
X160008839Y-72561852D01*
X159718000Y-72504000D01*
X149618802Y-72504000D01*
X146539401Y-69424599D01*
X146292839Y-69259852D01*
X146002000Y-69202000D01*
X134528000Y-69202000D01*
X134237161Y-69259852D01*
X133990599Y-69424599D01*
X133686238Y-69728960D01*
X132386400Y-69728960D01*
X132151083Y-69773238D01*
X131934959Y-69912310D01*
X131789969Y-70124510D01*
X131738960Y-70376400D01*
X131738960Y-72103600D01*
X131783238Y-72338917D01*
X131922310Y-72555041D01*
X132134510Y-72700031D01*
X132178131Y-72708864D01*
X132160971Y-72720330D01*
X131836115Y-73206511D01*
X131722041Y-73780000D01*
X131836115Y-74353489D01*
X132160971Y-74839670D01*
X132475752Y-75050000D01*
X132160971Y-75260330D01*
X131836115Y-75746511D01*
X131722041Y-76320000D01*
X131836115Y-76893489D01*
X132160971Y-77379670D01*
X132475752Y-77590000D01*
X132160971Y-77800330D01*
X131836115Y-78286511D01*
X131722041Y-78860000D01*
X131836115Y-79433489D01*
X132160971Y-79919670D01*
X132475752Y-80130000D01*
X132160971Y-80340330D01*
X131836115Y-80826511D01*
X131722041Y-81400000D01*
X131836115Y-81973489D01*
X132160971Y-82459670D01*
X132475752Y-82670000D01*
X132160971Y-82880330D01*
X131836115Y-83366511D01*
X131722041Y-83940000D01*
X131836115Y-84513489D01*
X132160971Y-84999670D01*
X132475752Y-85210000D01*
X132160971Y-85420330D01*
X131836115Y-85906511D01*
X131722041Y-86480000D01*
X131836115Y-87053489D01*
X132160971Y-87539670D01*
X132475752Y-87750000D01*
X132160971Y-87960330D01*
X131836115Y-88446511D01*
X131722041Y-89020000D01*
X131836115Y-89593489D01*
X132160971Y-90079670D01*
X132475752Y-90290000D01*
X132160971Y-90500330D01*
X131836115Y-90986511D01*
X131722041Y-91560000D01*
X131836115Y-92133489D01*
X132160971Y-92619670D01*
X132484228Y-92835664D01*
X132361510Y-92893179D01*
X131967312Y-93325053D01*
X131795042Y-93740974D01*
X131916183Y-93973000D01*
X133123000Y-93973000D01*
X133123000Y-93953000D01*
X133377000Y-93953000D01*
X133377000Y-93973000D01*
X135663000Y-93973000D01*
X135663000Y-93953000D01*
X135917000Y-93953000D01*
X135917000Y-93973000D01*
X137123817Y-93973000D01*
X137244958Y-93740974D01*
X137072688Y-93325053D01*
X136678490Y-92893179D01*
X136565465Y-92840207D01*
X136609540Y-92831440D01*
X136880434Y-92650434D01*
X137061440Y-92379540D01*
X137070749Y-92332741D01*
X137203885Y-92133489D01*
X137317959Y-91560000D01*
X137278177Y-91360000D01*
X156592560Y-91360000D01*
X156592560Y-92760000D01*
X156636838Y-92995317D01*
X156775910Y-93211441D01*
X156988110Y-93356431D01*
X157240000Y-93407440D01*
X158640000Y-93407440D01*
X158875317Y-93363162D01*
X159091441Y-93224090D01*
X159236431Y-93011890D01*
X159287440Y-92760000D01*
X159287440Y-91360000D01*
X159243162Y-91124683D01*
X159104090Y-90908559D01*
X158891890Y-90763569D01*
X158644350Y-90713441D01*
X158695229Y-90692418D01*
X159071098Y-90317204D01*
X159274768Y-89826713D01*
X159275231Y-89295617D01*
X159072418Y-88804771D01*
X158697204Y-88428902D01*
X158410758Y-88309959D01*
X158695229Y-88192418D01*
X159071098Y-87817204D01*
X159274768Y-87326713D01*
X159275231Y-86795617D01*
X159072418Y-86304771D01*
X158697204Y-85928902D01*
X158206713Y-85725232D01*
X157675617Y-85724769D01*
X157184771Y-85927582D01*
X156808902Y-86302796D01*
X156605232Y-86793287D01*
X156604769Y-87324383D01*
X156807582Y-87815229D01*
X157182796Y-88191098D01*
X157469242Y-88310041D01*
X157184771Y-88427582D01*
X156808902Y-88802796D01*
X156605232Y-89293287D01*
X156604769Y-89824383D01*
X156807582Y-90315229D01*
X157182796Y-90691098D01*
X157236203Y-90713274D01*
X157004683Y-90756838D01*
X156788559Y-90895910D01*
X156643569Y-91108110D01*
X156592560Y-91360000D01*
X137278177Y-91360000D01*
X137203885Y-90986511D01*
X136879029Y-90500330D01*
X136564248Y-90290000D01*
X136879029Y-90079670D01*
X137203885Y-89593489D01*
X137317959Y-89020000D01*
X137203885Y-88446511D01*
X136879029Y-87960330D01*
X136564248Y-87750000D01*
X136879029Y-87539670D01*
X137203885Y-87053489D01*
X137317959Y-86480000D01*
X137203885Y-85906511D01*
X136879029Y-85420330D01*
X136564248Y-85210000D01*
X136879029Y-84999670D01*
X137203885Y-84513489D01*
X137317959Y-83940000D01*
X137203885Y-83366511D01*
X136879029Y-82880330D01*
X136564248Y-82670000D01*
X136879029Y-82459670D01*
X137203885Y-81973489D01*
X137317959Y-81400000D01*
X137203885Y-80826511D01*
X136879029Y-80340330D01*
X136555772Y-80124336D01*
X136678490Y-80066821D01*
X137072688Y-79634947D01*
X137244958Y-79219026D01*
X137123817Y-78987000D01*
X135917000Y-78987000D01*
X135917000Y-79007000D01*
X135663000Y-79007000D01*
X135663000Y-78987000D01*
X135643000Y-78987000D01*
X135643000Y-78733000D01*
X135663000Y-78733000D01*
X135663000Y-78713000D01*
X135917000Y-78713000D01*
X135917000Y-78733000D01*
X137123817Y-78733000D01*
X137244958Y-78500974D01*
X137072688Y-78085053D01*
X136678490Y-77653179D01*
X136555772Y-77595664D01*
X136879029Y-77379670D01*
X137203885Y-76893489D01*
X137317959Y-76320000D01*
X137214922Y-75802000D01*
X146957198Y-75802000D01*
X147496599Y-76341401D01*
X147743161Y-76506148D01*
X148034000Y-76564000D01*
X157879198Y-76564000D01*
X162550000Y-81234802D01*
X162550000Y-86734553D01*
X162372418Y-86304771D01*
X161997204Y-85928902D01*
X161506713Y-85725232D01*
X160975617Y-85724769D01*
X160484771Y-85927582D01*
X160108902Y-86302796D01*
X159905232Y-86793287D01*
X159904769Y-87324383D01*
X160107582Y-87815229D01*
X160482796Y-88191098D01*
X160769242Y-88310041D01*
X160484771Y-88427582D01*
X160108902Y-88802796D01*
X159905232Y-89293287D01*
X159904769Y-89824383D01*
X160107582Y-90315229D01*
X160482796Y-90691098D01*
X160769242Y-90810041D01*
X160484771Y-90927582D01*
X160108902Y-91302796D01*
X159905232Y-91793287D01*
X159904769Y-92324383D01*
X160107582Y-92815229D01*
X160482796Y-93191098D01*
X160973287Y-93394768D01*
X161504383Y-93395231D01*
X161995229Y-93192418D01*
X162371098Y-92817204D01*
X162550000Y-92386361D01*
X162550000Y-102179454D01*
X162512148Y-101989161D01*
X162512148Y-101989160D01*
X162347401Y-101742599D01*
X155429401Y-94824599D01*
X155182839Y-94659852D01*
X154892000Y-94602000D01*
X137185740Y-94602000D01*
X137244958Y-94459026D01*
X137123817Y-94227000D01*
X135917000Y-94227000D01*
X135917000Y-94247000D01*
X135663000Y-94247000D01*
X135663000Y-94227000D01*
X133377000Y-94227000D01*
X133377000Y-94247000D01*
X133123000Y-94247000D01*
X133123000Y-94227000D01*
X131916183Y-94227000D01*
X131795042Y-94459026D01*
X131967312Y-94874947D01*
X132081333Y-94999865D01*
X131494599Y-95586599D01*
X131329852Y-95833161D01*
X131272000Y-96124000D01*
X131127000Y-96124000D01*
X131127000Y-65052606D01*
X132052606Y-64127000D01*
X147947394Y-64127000D01*
X148873000Y-65052606D01*
G36*
X143210000Y-108122802D02*
X143210000Y-110602000D01*
X143267852Y-110892839D01*
X143432599Y-111139401D01*
X143452802Y-111152900D01*
X143693673Y-111394192D01*
X144037201Y-111536838D01*
X144409167Y-111537162D01*
X144550000Y-111478971D01*
X144550000Y-114691161D01*
X144310000Y-114642560D01*
X143310000Y-114642560D01*
X143074683Y-114686838D01*
X143050594Y-114702339D01*
X142936309Y-114655000D01*
X142595750Y-114655000D01*
X142437000Y-114813750D01*
X142437000Y-116413000D01*
X142457000Y-116413000D01*
X142457000Y-116667000D01*
X142437000Y-116667000D01*
X142437000Y-118266250D01*
X142595750Y-118425000D01*
X142936309Y-118425000D01*
X143047283Y-118379033D01*
X143058110Y-118386431D01*
X143310000Y-118437440D01*
X144310000Y-118437440D01*
X144545317Y-118393162D01*
X144556979Y-118385658D01*
X144558110Y-118386431D01*
X144810000Y-118437440D01*
X145810000Y-118437440D01*
X146045317Y-118393162D01*
X146056979Y-118385658D01*
X146058110Y-118386431D01*
X146310000Y-118437440D01*
X147310000Y-118437440D01*
X147545317Y-118393162D01*
X147556979Y-118385658D01*
X147558110Y-118386431D01*
X147810000Y-118437440D01*
X148810000Y-118437440D01*
X149045317Y-118393162D01*
X149056979Y-118385658D01*
X149058110Y-118386431D01*
X149310000Y-118437440D01*
X150310000Y-118437440D01*
X150545317Y-118393162D01*
X150556979Y-118385658D01*
X150558110Y-118386431D01*
X150810000Y-118437440D01*
X151810000Y-118437440D01*
X152045317Y-118393162D01*
X152056979Y-118385658D01*
X152058110Y-118386431D01*
X152310000Y-118437440D01*
X153310000Y-118437440D01*
X153545317Y-118393162D01*
X153556979Y-118385658D01*
X153558110Y-118386431D01*
X153810000Y-118437440D01*
X154810000Y-118437440D01*
X155045317Y-118393162D01*
X155056979Y-118385658D01*
X155058110Y-118386431D01*
X155310000Y-118437440D01*
X156310000Y-118437440D01*
X156545317Y-118393162D01*
X156556979Y-118385658D01*
X156558110Y-118386431D01*
X156810000Y-118437440D01*
X157810000Y-118437440D01*
X158045317Y-118393162D01*
X158056979Y-118385658D01*
X158058110Y-118386431D01*
X158310000Y-118437440D01*
X159310000Y-118437440D01*
X159545317Y-118393162D01*
X159556979Y-118385658D01*
X159558110Y-118386431D01*
X159810000Y-118437440D01*
X160810000Y-118437440D01*
X161045317Y-118393162D01*
X161056979Y-118385658D01*
X161058110Y-118386431D01*
X161310000Y-118437440D01*
X162310000Y-118437440D01*
X162545317Y-118393162D01*
X162556979Y-118385658D01*
X162558110Y-118386431D01*
X162810000Y-118437440D01*
X163810000Y-118437440D01*
X164045317Y-118393162D01*
X164056979Y-118385658D01*
X164058110Y-118386431D01*
X164310000Y-118437440D01*
X165310000Y-118437440D01*
X165545317Y-118393162D01*
X165556979Y-118385658D01*
X165558110Y-118386431D01*
X165810000Y-118437440D01*
X166810000Y-118437440D01*
X167045317Y-118393162D01*
X167056979Y-118385658D01*
X167058110Y-118386431D01*
X167310000Y-118437440D01*
X168310000Y-118437440D01*
X168545317Y-118393162D01*
X168556979Y-118385658D01*
X168558110Y-118386431D01*
X168810000Y-118437440D01*
X169810000Y-118437440D01*
X170045317Y-118393162D01*
X170056979Y-118385658D01*
X170058110Y-118386431D01*
X170310000Y-118437440D01*
X171310000Y-118437440D01*
X171545317Y-118393162D01*
X171556979Y-118385658D01*
X171558110Y-118386431D01*
X171810000Y-118437440D01*
X172810000Y-118437440D01*
X173045317Y-118393162D01*
X173056979Y-118385658D01*
X173058110Y-118386431D01*
X173310000Y-118437440D01*
X174310000Y-118437440D01*
X174545317Y-118393162D01*
X174556979Y-118385658D01*
X174558110Y-118386431D01*
X174810000Y-118437440D01*
X175810000Y-118437440D01*
X176045317Y-118393162D01*
X176050000Y-118390149D01*
X176050000Y-118601666D01*
X175943808Y-118707673D01*
X175801162Y-119051201D01*
X175800838Y-119423167D01*
X175942883Y-119766943D01*
X176205673Y-120030192D01*
X176549201Y-120172838D01*
X176921167Y-120173162D01*
X177264943Y-120031117D01*
X177498176Y-119798291D01*
X177729673Y-120030192D01*
X178073201Y-120172838D01*
X178080354Y-120172844D01*
X177997198Y-120256000D01*
X142700802Y-120256000D01*
X139270552Y-116825750D01*
X141175000Y-116825750D01*
X141175000Y-117916310D01*
X141271673Y-118149699D01*
X141450302Y-118328327D01*
X141683691Y-118425000D01*
X142024250Y-118425000D01*
X142183000Y-118266250D01*
X142183000Y-116667000D01*
X141333750Y-116667000D01*
X141175000Y-116825750D01*
X139270552Y-116825750D01*
X137608492Y-115163690D01*
X141175000Y-115163690D01*
X141175000Y-116254250D01*
X141333750Y-116413000D01*
X142183000Y-116413000D01*
X142183000Y-114813750D01*
X142024250Y-114655000D01*
X141683691Y-114655000D01*
X141450302Y-114751673D01*
X141271673Y-114930301D01*
X141175000Y-115163690D01*
X137608492Y-115163690D01*
X137242775Y-114797973D01*
X137317959Y-114420000D01*
X137203885Y-113846511D01*
X136879029Y-113360330D01*
X136564248Y-113150000D01*
X136879029Y-112939670D01*
X137203885Y-112453489D01*
X137317959Y-111880000D01*
X137203885Y-111306511D01*
X136879029Y-110820330D01*
X136564248Y-110610000D01*
X136879029Y-110399670D01*
X137203885Y-109913489D01*
X137317959Y-109340000D01*
X137203885Y-108766511D01*
X136879029Y-108280330D01*
X136564248Y-108070000D01*
X136879029Y-107859670D01*
X137079262Y-107560000D01*
X140361198Y-107560000D01*
X141686000Y-108884802D01*
X141686000Y-111563537D01*
X141653808Y-111595673D01*
X141511162Y-111939201D01*
X141510838Y-112311167D01*
X141652883Y-112654943D01*
X141915673Y-112918192D01*
X142259201Y-113060838D01*
X142631167Y-113061162D01*
X142974943Y-112919117D01*
X143238192Y-112656327D01*
X143380838Y-112312799D01*
X143381162Y-111940833D01*
X143239117Y-111597057D01*
X143206000Y-111563882D01*
X143206000Y-108570000D01*
X143148148Y-108279161D01*
X142983401Y-108032599D01*
X141213401Y-106262599D01*
X140966839Y-106097852D01*
X140676000Y-106040000D01*
X137079262Y-106040000D01*
X136879029Y-105740330D01*
X136564248Y-105530000D01*
X136879029Y-105319670D01*
X137084608Y-105012000D01*
X140099198Y-105012000D01*
X143210000Y-108122802D01*
X143210000Y-108122802D01*
G37*
X143210000Y-108122802D02*
X143210000Y-110602000D01*
X143267852Y-110892839D01*
X143432599Y-111139401D01*
X143452802Y-111152900D01*
X143693673Y-111394192D01*
X144037201Y-111536838D01*
X144409167Y-111537162D01*
X144550000Y-111478971D01*
X144550000Y-114691161D01*
X144310000Y-114642560D01*
X143310000Y-114642560D01*
X143074683Y-114686838D01*
X143050594Y-114702339D01*
X142936309Y-114655000D01*
X142595750Y-114655000D01*
X142437000Y-114813750D01*
X142437000Y-116413000D01*
X142457000Y-116413000D01*
X142457000Y-116667000D01*
X142437000Y-116667000D01*
X142437000Y-118266250D01*
X142595750Y-118425000D01*
X142936309Y-118425000D01*
X143047283Y-118379033D01*
X143058110Y-118386431D01*
X143310000Y-118437440D01*
X144310000Y-118437440D01*
X144545317Y-118393162D01*
X144556979Y-118385658D01*
X144558110Y-118386431D01*
X144810000Y-118437440D01*
X145810000Y-118437440D01*
X146045317Y-118393162D01*
X146056979Y-118385658D01*
X146058110Y-118386431D01*
X146310000Y-118437440D01*
X147310000Y-118437440D01*
X147545317Y-118393162D01*
X147556979Y-118385658D01*
X147558110Y-118386431D01*
X147810000Y-118437440D01*
X148810000Y-118437440D01*
X149045317Y-118393162D01*
X149056979Y-118385658D01*
X149058110Y-118386431D01*
X149310000Y-118437440D01*
X150310000Y-118437440D01*
X150545317Y-118393162D01*
X150556979Y-118385658D01*
X150558110Y-118386431D01*
X150810000Y-118437440D01*
X151810000Y-118437440D01*
X152045317Y-118393162D01*
X152056979Y-118385658D01*
X152058110Y-118386431D01*
X152310000Y-118437440D01*
X153310000Y-118437440D01*
X153545317Y-118393162D01*
X153556979Y-118385658D01*
X153558110Y-118386431D01*
X153810000Y-118437440D01*
X154810000Y-118437440D01*
X155045317Y-118393162D01*
X155056979Y-118385658D01*
X155058110Y-118386431D01*
X155310000Y-118437440D01*
X156310000Y-118437440D01*
X156545317Y-118393162D01*
X156556979Y-118385658D01*
X156558110Y-118386431D01*
X156810000Y-118437440D01*
X157810000Y-118437440D01*
X158045317Y-118393162D01*
X158056979Y-118385658D01*
X158058110Y-118386431D01*
X158310000Y-118437440D01*
X159310000Y-118437440D01*
X159545317Y-118393162D01*
X159556979Y-118385658D01*
X159558110Y-118386431D01*
X159810000Y-118437440D01*
X160810000Y-118437440D01*
X161045317Y-118393162D01*
X161056979Y-118385658D01*
X161058110Y-118386431D01*
X161310000Y-118437440D01*
X162310000Y-118437440D01*
X162545317Y-118393162D01*
X162556979Y-118385658D01*
X162558110Y-118386431D01*
X162810000Y-118437440D01*
X163810000Y-118437440D01*
X164045317Y-118393162D01*
X164056979Y-118385658D01*
X164058110Y-118386431D01*
X164310000Y-118437440D01*
X165310000Y-118437440D01*
X165545317Y-118393162D01*
X165556979Y-118385658D01*
X165558110Y-118386431D01*
X165810000Y-118437440D01*
X166810000Y-118437440D01*
X167045317Y-118393162D01*
X167056979Y-118385658D01*
X167058110Y-118386431D01*
X167310000Y-118437440D01*
X168310000Y-118437440D01*
X168545317Y-118393162D01*
X168556979Y-118385658D01*
X168558110Y-118386431D01*
X168810000Y-118437440D01*
X169810000Y-118437440D01*
X170045317Y-118393162D01*
X170056979Y-118385658D01*
X170058110Y-118386431D01*
X170310000Y-118437440D01*
X171310000Y-118437440D01*
X171545317Y-118393162D01*
X171556979Y-118385658D01*
X171558110Y-118386431D01*
X171810000Y-118437440D01*
X172810000Y-118437440D01*
X173045317Y-118393162D01*
X173056979Y-118385658D01*
X173058110Y-118386431D01*
X173310000Y-118437440D01*
X174310000Y-118437440D01*
X174545317Y-118393162D01*
X174556979Y-118385658D01*
X174558110Y-118386431D01*
X174810000Y-118437440D01*
X175810000Y-118437440D01*
X176045317Y-118393162D01*
X176050000Y-118390149D01*
X176050000Y-118601666D01*
X175943808Y-118707673D01*
X175801162Y-119051201D01*
X175800838Y-119423167D01*
X175942883Y-119766943D01*
X176205673Y-120030192D01*
X176549201Y-120172838D01*
X176921167Y-120173162D01*
X177264943Y-120031117D01*
X177498176Y-119798291D01*
X177729673Y-120030192D01*
X178073201Y-120172838D01*
X178080354Y-120172844D01*
X177997198Y-120256000D01*
X142700802Y-120256000D01*
X139270552Y-116825750D01*
X141175000Y-116825750D01*
X141175000Y-117916310D01*
X141271673Y-118149699D01*
X141450302Y-118328327D01*
X141683691Y-118425000D01*
X142024250Y-118425000D01*
X142183000Y-118266250D01*
X142183000Y-116667000D01*
X141333750Y-116667000D01*
X141175000Y-116825750D01*
X139270552Y-116825750D01*
X137608492Y-115163690D01*
X141175000Y-115163690D01*
X141175000Y-116254250D01*
X141333750Y-116413000D01*
X142183000Y-116413000D01*
X142183000Y-114813750D01*
X142024250Y-114655000D01*
X141683691Y-114655000D01*
X141450302Y-114751673D01*
X141271673Y-114930301D01*
X141175000Y-115163690D01*
X137608492Y-115163690D01*
X137242775Y-114797973D01*
X137317959Y-114420000D01*
X137203885Y-113846511D01*
X136879029Y-113360330D01*
X136564248Y-113150000D01*
X136879029Y-112939670D01*
X137203885Y-112453489D01*
X137317959Y-111880000D01*
X137203885Y-111306511D01*
X136879029Y-110820330D01*
X136564248Y-110610000D01*
X136879029Y-110399670D01*
X137203885Y-109913489D01*
X137317959Y-109340000D01*
X137203885Y-108766511D01*
X136879029Y-108280330D01*
X136564248Y-108070000D01*
X136879029Y-107859670D01*
X137079262Y-107560000D01*
X140361198Y-107560000D01*
X141686000Y-108884802D01*
X141686000Y-111563537D01*
X141653808Y-111595673D01*
X141511162Y-111939201D01*
X141510838Y-112311167D01*
X141652883Y-112654943D01*
X141915673Y-112918192D01*
X142259201Y-113060838D01*
X142631167Y-113061162D01*
X142974943Y-112919117D01*
X143238192Y-112656327D01*
X143380838Y-112312799D01*
X143381162Y-111940833D01*
X143239117Y-111597057D01*
X143206000Y-111563882D01*
X143206000Y-108570000D01*
X143148148Y-108279161D01*
X142983401Y-108032599D01*
X141213401Y-106262599D01*
X140966839Y-106097852D01*
X140676000Y-106040000D01*
X137079262Y-106040000D01*
X136879029Y-105740330D01*
X136564248Y-105530000D01*
X136879029Y-105319670D01*
X137084608Y-105012000D01*
X140099198Y-105012000D01*
X143210000Y-108122802D01*
G36*
X161050000Y-102594802D02*
X161050000Y-110147800D01*
X161019117Y-110073057D01*
X160756327Y-109809808D01*
X160412799Y-109667162D01*
X160040833Y-109666838D01*
X159697057Y-109808883D01*
X159433808Y-110071673D01*
X159291162Y-110415201D01*
X159290838Y-110787167D01*
X159432883Y-111130943D01*
X159550000Y-111248265D01*
X159550000Y-111729884D01*
X159495117Y-111597057D01*
X159232327Y-111333808D01*
X158888799Y-111191162D01*
X158516833Y-111190838D01*
X158173057Y-111332883D01*
X157909808Y-111595673D01*
X157767162Y-111939201D01*
X157766838Y-112311167D01*
X157908883Y-112654943D01*
X158050000Y-112796306D01*
X158050000Y-113057969D01*
X157971117Y-112867057D01*
X157708327Y-112603808D01*
X157364799Y-112461162D01*
X156992833Y-112460838D01*
X156649057Y-112602883D01*
X156570000Y-112681802D01*
X156570000Y-104404292D01*
X156700192Y-104274327D01*
X156842838Y-103930799D01*
X156843162Y-103558833D01*
X156701117Y-103215057D01*
X156438327Y-102951808D01*
X156094799Y-102809162D01*
X155722833Y-102808838D01*
X155379057Y-102950883D01*
X155115808Y-103213673D01*
X155070000Y-103323990D01*
X155070000Y-103110334D01*
X155176192Y-103004327D01*
X155318838Y-102660799D01*
X155319162Y-102288833D01*
X155177117Y-101945057D01*
X154914327Y-101681808D01*
X154570799Y-101539162D01*
X154198833Y-101538838D01*
X153855057Y-101680883D01*
X153591808Y-101943673D01*
X153449162Y-102287201D01*
X153448838Y-102659167D01*
X153550000Y-102903998D01*
X153550000Y-108699760D01*
X153390327Y-108539808D01*
X153046799Y-108397162D01*
X152674833Y-108396838D01*
X152331057Y-108538883D01*
X152070000Y-108799485D01*
X152070000Y-105602418D01*
X152128192Y-105544327D01*
X152270838Y-105200799D01*
X152271162Y-104828833D01*
X152129117Y-104485057D01*
X151866327Y-104221808D01*
X151522799Y-104079162D01*
X151150833Y-104078838D01*
X150807057Y-104220883D01*
X150543808Y-104483673D01*
X150401162Y-104827201D01*
X150400838Y-105199167D01*
X150542883Y-105542943D01*
X150550000Y-105550072D01*
X150550000Y-106207844D01*
X150342327Y-105999808D01*
X149998799Y-105857162D01*
X149626833Y-105856838D01*
X149283057Y-105998883D01*
X149070000Y-106211569D01*
X149070000Y-99712501D01*
X149080192Y-99702327D01*
X149222838Y-99358799D01*
X149223162Y-98986833D01*
X149081117Y-98643057D01*
X148818327Y-98379808D01*
X148474799Y-98237162D01*
X148102833Y-98236838D01*
X147759057Y-98378883D01*
X147495808Y-98641673D01*
X147353162Y-98985201D01*
X147352838Y-99357167D01*
X147494883Y-99700943D01*
X147550000Y-99756156D01*
X147550000Y-100895454D01*
X147521863Y-100754000D01*
X147512148Y-100705160D01*
X147347401Y-100458599D01*
X144326401Y-97437599D01*
X144079839Y-97272852D01*
X143789000Y-97215000D01*
X137155504Y-97215000D01*
X137244958Y-96999026D01*
X137123817Y-96767000D01*
X135917000Y-96767000D01*
X135917000Y-96787000D01*
X135663000Y-96787000D01*
X135663000Y-96767000D01*
X135643000Y-96767000D01*
X135643000Y-96513000D01*
X135663000Y-96513000D01*
X135663000Y-96493000D01*
X135917000Y-96493000D01*
X135917000Y-96513000D01*
X137123817Y-96513000D01*
X137244958Y-96280974D01*
X137179113Y-96122000D01*
X154577198Y-96122000D01*
X161050000Y-102594802D01*
X161050000Y-102594802D01*
G37*
X161050000Y-102594802D02*
X161050000Y-110147800D01*
X161019117Y-110073057D01*
X160756327Y-109809808D01*
X160412799Y-109667162D01*
X160040833Y-109666838D01*
X159697057Y-109808883D01*
X159433808Y-110071673D01*
X159291162Y-110415201D01*
X159290838Y-110787167D01*
X159432883Y-111130943D01*
X159550000Y-111248265D01*
X159550000Y-111729884D01*
X159495117Y-111597057D01*
X159232327Y-111333808D01*
X158888799Y-111191162D01*
X158516833Y-111190838D01*
X158173057Y-111332883D01*
X157909808Y-111595673D01*
X157767162Y-111939201D01*
X157766838Y-112311167D01*
X157908883Y-112654943D01*
X158050000Y-112796306D01*
X158050000Y-113057969D01*
X157971117Y-112867057D01*
X157708327Y-112603808D01*
X157364799Y-112461162D01*
X156992833Y-112460838D01*
X156649057Y-112602883D01*
X156570000Y-112681802D01*
X156570000Y-104404292D01*
X156700192Y-104274327D01*
X156842838Y-103930799D01*
X156843162Y-103558833D01*
X156701117Y-103215057D01*
X156438327Y-102951808D01*
X156094799Y-102809162D01*
X155722833Y-102808838D01*
X155379057Y-102950883D01*
X155115808Y-103213673D01*
X155070000Y-103323990D01*
X155070000Y-103110334D01*
X155176192Y-103004327D01*
X155318838Y-102660799D01*
X155319162Y-102288833D01*
X155177117Y-101945057D01*
X154914327Y-101681808D01*
X154570799Y-101539162D01*
X154198833Y-101538838D01*
X153855057Y-101680883D01*
X153591808Y-101943673D01*
X153449162Y-102287201D01*
X153448838Y-102659167D01*
X153550000Y-102903998D01*
X153550000Y-108699760D01*
X153390327Y-108539808D01*
X153046799Y-108397162D01*
X152674833Y-108396838D01*
X152331057Y-108538883D01*
X152070000Y-108799485D01*
X152070000Y-105602418D01*
X152128192Y-105544327D01*
X152270838Y-105200799D01*
X152271162Y-104828833D01*
X152129117Y-104485057D01*
X151866327Y-104221808D01*
X151522799Y-104079162D01*
X151150833Y-104078838D01*
X150807057Y-104220883D01*
X150543808Y-104483673D01*
X150401162Y-104827201D01*
X150400838Y-105199167D01*
X150542883Y-105542943D01*
X150550000Y-105550072D01*
X150550000Y-106207844D01*
X150342327Y-105999808D01*
X149998799Y-105857162D01*
X149626833Y-105856838D01*
X149283057Y-105998883D01*
X149070000Y-106211569D01*
X149070000Y-99712501D01*
X149080192Y-99702327D01*
X149222838Y-99358799D01*
X149223162Y-98986833D01*
X149081117Y-98643057D01*
X148818327Y-98379808D01*
X148474799Y-98237162D01*
X148102833Y-98236838D01*
X147759057Y-98378883D01*
X147495808Y-98641673D01*
X147353162Y-98985201D01*
X147352838Y-99357167D01*
X147494883Y-99700943D01*
X147550000Y-99756156D01*
X147550000Y-100895454D01*
X147521863Y-100754000D01*
X147512148Y-100705160D01*
X147347401Y-100458599D01*
X144326401Y-97437599D01*
X144079839Y-97272852D01*
X143789000Y-97215000D01*
X137155504Y-97215000D01*
X137244958Y-96999026D01*
X137123817Y-96767000D01*
X135917000Y-96767000D01*
X135917000Y-96787000D01*
X135663000Y-96787000D01*
X135663000Y-96767000D01*
X135643000Y-96767000D01*
X135643000Y-96513000D01*
X135663000Y-96513000D01*
X135663000Y-96493000D01*
X135917000Y-96493000D01*
X135917000Y-96513000D01*
X137123817Y-96513000D01*
X137244958Y-96280974D01*
X137179113Y-96122000D01*
X154577198Y-96122000D01*
X161050000Y-102594802D01*
G36*
X192682041Y-78860000D02*
X192796115Y-79433489D01*
X193120971Y-79919670D01*
X193444228Y-80135664D01*
X193321510Y-80193179D01*
X192927312Y-80625053D01*
X192755042Y-81040974D01*
X192876183Y-81273000D01*
X194083000Y-81273000D01*
X194083000Y-81253000D01*
X194337000Y-81253000D01*
X194337000Y-81273000D01*
X194357000Y-81273000D01*
X194357000Y-81527000D01*
X194337000Y-81527000D01*
X194337000Y-81547000D01*
X194083000Y-81547000D01*
X194083000Y-81527000D01*
X192876183Y-81527000D01*
X192755042Y-81759026D01*
X192927312Y-82174947D01*
X193321510Y-82606821D01*
X193444228Y-82664336D01*
X193120971Y-82880330D01*
X192796115Y-83366511D01*
X192682041Y-83940000D01*
X192796115Y-84513489D01*
X193120971Y-84999670D01*
X193435752Y-85210000D01*
X193120971Y-85420330D01*
X192796115Y-85906511D01*
X192682041Y-86480000D01*
X192757225Y-86857973D01*
X190687276Y-88927922D01*
X190646148Y-88721161D01*
X190481401Y-88474599D01*
X190461198Y-88461100D01*
X190220327Y-88219808D01*
X189876799Y-88077162D01*
X189504833Y-88076838D01*
X189161057Y-88218883D01*
X188897808Y-88481673D01*
X188755162Y-88825201D01*
X188754900Y-89126298D01*
X186376576Y-91504622D01*
X186328148Y-91261161D01*
X186163401Y-91014599D01*
X186143198Y-91001100D01*
X185902327Y-90759808D01*
X185558799Y-90617162D01*
X185186833Y-90616838D01*
X184843057Y-90758883D01*
X184579808Y-91021673D01*
X184437162Y-91365201D01*
X184436900Y-91666298D01*
X182409215Y-93693983D01*
X182355117Y-93563057D01*
X182092327Y-93299808D01*
X181748799Y-93157162D01*
X181376833Y-93156838D01*
X181033057Y-93298883D01*
X180789638Y-93541878D01*
X180770599Y-93554599D01*
X179479035Y-94846163D01*
X179528000Y-94600000D01*
X179528000Y-78912802D01*
X180098802Y-78342000D01*
X192785078Y-78342000D01*
X192682041Y-78860000D01*
X192682041Y-78860000D01*
G37*
X192682041Y-78860000D02*
X192796115Y-79433489D01*
X193120971Y-79919670D01*
X193444228Y-80135664D01*
X193321510Y-80193179D01*
X192927312Y-80625053D01*
X192755042Y-81040974D01*
X192876183Y-81273000D01*
X194083000Y-81273000D01*
X194083000Y-81253000D01*
X194337000Y-81253000D01*
X194337000Y-81273000D01*
X194357000Y-81273000D01*
X194357000Y-81527000D01*
X194337000Y-81527000D01*
X194337000Y-81547000D01*
X194083000Y-81547000D01*
X194083000Y-81527000D01*
X192876183Y-81527000D01*
X192755042Y-81759026D01*
X192927312Y-82174947D01*
X193321510Y-82606821D01*
X193444228Y-82664336D01*
X193120971Y-82880330D01*
X192796115Y-83366511D01*
X192682041Y-83940000D01*
X192796115Y-84513489D01*
X193120971Y-84999670D01*
X193435752Y-85210000D01*
X193120971Y-85420330D01*
X192796115Y-85906511D01*
X192682041Y-86480000D01*
X192757225Y-86857973D01*
X190687276Y-88927922D01*
X190646148Y-88721161D01*
X190481401Y-88474599D01*
X190461198Y-88461100D01*
X190220327Y-88219808D01*
X189876799Y-88077162D01*
X189504833Y-88076838D01*
X189161057Y-88218883D01*
X188897808Y-88481673D01*
X188755162Y-88825201D01*
X188754900Y-89126298D01*
X186376576Y-91504622D01*
X186328148Y-91261161D01*
X186163401Y-91014599D01*
X186143198Y-91001100D01*
X185902327Y-90759808D01*
X185558799Y-90617162D01*
X185186833Y-90616838D01*
X184843057Y-90758883D01*
X184579808Y-91021673D01*
X184437162Y-91365201D01*
X184436900Y-91666298D01*
X182409215Y-93693983D01*
X182355117Y-93563057D01*
X182092327Y-93299808D01*
X181748799Y-93157162D01*
X181376833Y-93156838D01*
X181033057Y-93298883D01*
X180789638Y-93541878D01*
X180770599Y-93554599D01*
X179479035Y-94846163D01*
X179528000Y-94600000D01*
X179528000Y-78912802D01*
X180098802Y-78342000D01*
X192785078Y-78342000D01*
X192682041Y-78860000D01*
M02*
