G04 #@! TF.FileFunction,Copper,L2,Bot,Signal*
%FSLAX46Y46*%
G04 Gerber Fmt 4.6, Leading zero omitted, Abs format (unit mm)*
G04 Created by KiCad (PCBNEW 4.0.7) date Tue Mar 20 00:28:39 2018*
%MOMM*%
%LPD*%
G01*
G04 APERTURE LIST*
%ADD10C,0.100000*%
%ADD11R,1.727200X1.727200*%
%ADD12O,1.727200X1.727200*%
%ADD13R,1.400000X1.400000*%
%ADD14C,1.400000*%
%ADD15C,0.600000*%
%ADD16C,0.400000*%
%ADD17C,0.250000*%
G04 APERTURE END LIST*
D10*
D11*
X133250000Y-71240000D03*
D12*
X135790000Y-71240000D03*
X133250000Y-73780000D03*
X135790000Y-73780000D03*
X133250000Y-76320000D03*
X135790000Y-76320000D03*
X133250000Y-78860000D03*
X135790000Y-78860000D03*
X133250000Y-81400000D03*
X135790000Y-81400000D03*
X133250000Y-83940000D03*
X135790000Y-83940000D03*
X133250000Y-86480000D03*
X135790000Y-86480000D03*
X133250000Y-89020000D03*
X135790000Y-89020000D03*
X133250000Y-91560000D03*
X135790000Y-91560000D03*
X133250000Y-94100000D03*
X135790000Y-94100000D03*
X133250000Y-96640000D03*
X135790000Y-96640000D03*
X133250000Y-99180000D03*
X135790000Y-99180000D03*
X133250000Y-101720000D03*
X135790000Y-101720000D03*
X133250000Y-104260000D03*
X135790000Y-104260000D03*
X133250000Y-106800000D03*
X135790000Y-106800000D03*
X133250000Y-109340000D03*
X135790000Y-109340000D03*
X133250000Y-111880000D03*
X135790000Y-111880000D03*
X133250000Y-114420000D03*
X135790000Y-114420000D03*
X133250000Y-116960000D03*
X135790000Y-116960000D03*
D11*
X194210000Y-71240000D03*
D12*
X196750000Y-71240000D03*
X194210000Y-73780000D03*
X196750000Y-73780000D03*
X194210000Y-76320000D03*
X196750000Y-76320000D03*
X194210000Y-78860000D03*
X196750000Y-78860000D03*
X194210000Y-81400000D03*
X196750000Y-81400000D03*
X194210000Y-83940000D03*
X196750000Y-83940000D03*
X194210000Y-86480000D03*
X196750000Y-86480000D03*
X194210000Y-89020000D03*
X196750000Y-89020000D03*
X194210000Y-91560000D03*
X196750000Y-91560000D03*
X194210000Y-94100000D03*
X196750000Y-94100000D03*
X194210000Y-96640000D03*
X196750000Y-96640000D03*
X194210000Y-99180000D03*
X196750000Y-99180000D03*
X194210000Y-101720000D03*
X196750000Y-101720000D03*
X194210000Y-104260000D03*
X196750000Y-104260000D03*
X194210000Y-106800000D03*
X196750000Y-106800000D03*
X194210000Y-109340000D03*
X196750000Y-109340000D03*
X194210000Y-111880000D03*
X196750000Y-111880000D03*
X194210000Y-114420000D03*
X196750000Y-114420000D03*
X194210000Y-116960000D03*
X196750000Y-116960000D03*
D13*
X157940000Y-92060000D03*
D14*
X157940000Y-89560000D03*
X157940000Y-87060000D03*
X161240000Y-92060000D03*
X161240000Y-89560000D03*
X161240000Y-87060000D03*
D13*
X168100000Y-92060000D03*
D14*
X168100000Y-89560000D03*
X168100000Y-87060000D03*
X171400000Y-92060000D03*
X171400000Y-89560000D03*
X171400000Y-87060000D03*
D15*
X190198000Y-69454000D03*
X190198000Y-81392000D03*
X138128000Y-94092000D03*
X138128000Y-96632000D03*
X142192000Y-127620000D03*
X142192000Y-118730000D03*
X144224000Y-110602000D03*
X160226000Y-110602000D03*
X142446000Y-112126000D03*
X158702000Y-112126000D03*
X157178000Y-113396000D03*
X178260000Y-124064000D03*
X178260000Y-119238000D03*
X176736000Y-125588000D03*
X176736000Y-119238000D03*
X189690000Y-89012000D03*
X185372000Y-91552000D03*
X177752000Y-99172000D03*
X148288000Y-99172000D03*
X181562000Y-94092000D03*
X175212000Y-100188000D03*
X170894000Y-100188000D03*
X145240000Y-101204000D03*
X154384000Y-102474000D03*
X182832000Y-99172000D03*
X155908000Y-103744000D03*
X151336000Y-105014000D03*
X149812000Y-106792000D03*
X152860000Y-109332000D03*
X175466000Y-113142000D03*
X167084000Y-127366000D03*
X188674000Y-119238000D03*
X167084000Y-113904000D03*
X167084000Y-98156000D03*
X188674000Y-127366000D03*
D16*
X190198000Y-81392000D02*
X190198000Y-69454000D01*
X138128000Y-96632000D02*
X138128000Y-94092000D01*
X142192000Y-118730000D02*
X142192000Y-127620000D01*
X157940000Y-87060000D02*
X157860000Y-87060000D01*
X157860000Y-87060000D02*
X155900000Y-89020000D01*
X155900000Y-89020000D02*
X135790000Y-89020000D01*
X157940000Y-92060000D02*
X157432000Y-92060000D01*
X157432000Y-92060000D02*
X156932000Y-91560000D01*
X156932000Y-91560000D02*
X135790000Y-91560000D01*
D17*
X160226000Y-110602000D02*
X144224000Y-110602000D01*
X158702000Y-112126000D02*
X142446000Y-112126000D01*
X137620000Y-113396000D02*
X136104000Y-111880000D01*
X157178000Y-113396000D02*
X137620000Y-113396000D01*
X136104000Y-111880000D02*
X135790000Y-111880000D01*
X178260000Y-119238000D02*
X178260000Y-124064000D01*
X176736000Y-119238000D02*
X176736000Y-125588000D01*
X176736000Y-119238000D02*
X176736000Y-119238000D01*
X189698000Y-89020000D02*
X194210000Y-89020000D01*
X189690000Y-89012000D02*
X189698000Y-89020000D01*
X185380000Y-91560000D02*
X194210000Y-91560000D01*
X185372000Y-91552000D02*
X185380000Y-91560000D01*
X148288000Y-99172000D02*
X177752000Y-99172000D01*
X181570000Y-94100000D02*
X194210000Y-94100000D01*
X181562000Y-94092000D02*
X181570000Y-94100000D01*
X171148000Y-100188000D02*
X175212000Y-100188000D01*
X170894000Y-100188000D02*
X171148000Y-100188000D01*
X182324000Y-96632000D02*
X194202000Y-96632000D01*
X177752000Y-101204000D02*
X182324000Y-96632000D01*
X177244000Y-101204000D02*
X177752000Y-101204000D01*
X176736000Y-101204000D02*
X177244000Y-101204000D01*
X145240000Y-101204000D02*
X176736000Y-101204000D01*
X194202000Y-96632000D02*
X194210000Y-96640000D01*
X195488000Y-97902000D02*
X196750000Y-96640000D01*
X182832000Y-97902000D02*
X195488000Y-97902000D01*
X178260000Y-102474000D02*
X182832000Y-97902000D01*
X154384000Y-102474000D02*
X178260000Y-102474000D01*
X196750000Y-96938000D02*
X196750000Y-96640000D01*
X182840000Y-99180000D02*
X194210000Y-99180000D01*
X182832000Y-99172000D02*
X182840000Y-99180000D01*
X195488000Y-100442000D02*
X196750000Y-99180000D01*
X182324000Y-100442000D02*
X195488000Y-100442000D01*
X179022000Y-103744000D02*
X182324000Y-100442000D01*
X155908000Y-103744000D02*
X179022000Y-103744000D01*
X194262000Y-104252000D02*
X194202000Y-104252000D01*
X193500000Y-105014000D02*
X194262000Y-104252000D01*
X151336000Y-105014000D02*
X193500000Y-105014000D01*
X194202000Y-104252000D02*
X194210000Y-104260000D01*
X149820000Y-106800000D02*
X194210000Y-106800000D01*
X149812000Y-106792000D02*
X149820000Y-106800000D01*
X152868000Y-109340000D02*
X194210000Y-109340000D01*
X152860000Y-109332000D02*
X152868000Y-109340000D01*
X195532000Y-113142000D02*
X196750000Y-111924000D01*
X175466000Y-113142000D02*
X195532000Y-113142000D01*
X196750000Y-111924000D02*
X196750000Y-111880000D01*
D16*
X188674000Y-127366000D02*
X188674000Y-119238000D01*
X167084000Y-113904000D02*
X167084000Y-127366000D01*
X169624000Y-95616000D02*
X167084000Y-98156000D01*
X169624000Y-91044000D02*
X169624000Y-95616000D01*
X169624000Y-91044000D02*
X168140000Y-89560000D01*
X168100000Y-89560000D02*
X168140000Y-89560000D01*
X168100000Y-89560000D02*
X168100000Y-90028000D01*
X168100000Y-92060000D02*
X163020000Y-92060000D01*
X163020000Y-92060000D02*
X161750000Y-90790000D01*
X161750000Y-90790000D02*
X159170000Y-90790000D01*
X159170000Y-90790000D02*
X157940000Y-89560000D01*
M02*
